<svg xmlns="http://www.w3.org/2000/svg" xmlns:xlink="http://www.w3.org/1999/xlink" width="101" zoomAndPan="magnify" viewBox="0 0 75.75 86.249997" height="115" preserveAspectRatio="xMidYMid meet" version="1.0"><defs><g/><clipPath id="674d2fdff9"><path d="M 8.738281 0 L 75.300781 0 L 75.300781 85.507812 L 8.738281 85.507812 Z M 8.738281 0 " clip-rule="nonzero"/></clipPath><clipPath id="4f04dd929c"><path d="M 51 0 L 75.300781 0 L 75.300781 24 L 51 24 Z M 51 0 " clip-rule="nonzero"/></clipPath><clipPath id="4925476d17"><path d="M 10.980469 18.808594 L 40.34375 18.808594 L 40.34375 31.902344 L 10.980469 31.902344 Z M 10.980469 18.808594 " clip-rule="nonzero"/></clipPath><clipPath id="9bd896daba"><path d="M 0.203125 4.289062 L 51.121094 4.289062 L 51.121094 28.160156 L 0.203125 28.160156 Z M 0.203125 4.289062 " clip-rule="nonzero"/></clipPath><clipPath id="1a51b15528"><path d="M 1.695312 4.289062 L 49.628906 4.289062 C 50.023438 4.289062 50.40625 4.445312 50.683594 4.726562 C 50.964844 5.003906 51.121094 5.386719 51.121094 5.78125 L 51.121094 26.667969 C 51.121094 27.0625 50.964844 27.441406 50.683594 27.722656 C 50.40625 28.003906 50.023438 28.160156 49.628906 28.160156 L 1.695312 28.160156 C 1.300781 28.160156 0.917969 28.003906 0.640625 27.722656 C 0.359375 27.441406 0.203125 27.0625 0.203125 26.667969 L 0.203125 5.78125 C 0.203125 5.386719 0.359375 5.003906 0.640625 4.726562 C 0.917969 4.445312 1.300781 4.289062 1.695312 4.289062 " clip-rule="nonzero"/></clipPath><clipPath id="4236211f42"><path d="M 0.210938 4.289062 L 50.929688 4.289062 L 50.929688 28.160156 L 0.210938 28.160156 Z M 0.210938 4.289062 " clip-rule="nonzero"/></clipPath><clipPath id="d386dadcd9"><path d="M 1.699219 4.289062 L 49.433594 4.289062 C 49.828125 4.289062 50.207031 4.445312 50.484375 4.726562 C 50.765625 5.003906 50.921875 5.386719 50.921875 5.78125 L 50.921875 26.667969 C 50.921875 27.0625 50.765625 27.445312 50.484375 27.722656 C 50.207031 28.003906 49.828125 28.160156 49.433594 28.160156 L 1.699219 28.160156 C 1.304688 28.160156 0.925781 28.003906 0.648438 27.722656 C 0.367188 27.445312 0.210938 27.0625 0.210938 26.667969 L 0.210938 5.78125 C 0.210938 5.386719 0.367188 5.003906 0.648438 4.726562 C 0.925781 4.445312 1.304688 4.289062 1.699219 4.289062 " clip-rule="nonzero"/></clipPath><clipPath id="10fb6950e1"><path d="M 21.738281 33.507812 L 62.769531 33.507812 L 62.769531 74.539062 L 21.738281 74.539062 Z M 21.738281 33.507812 " clip-rule="nonzero"/></clipPath></defs><g fill="#ffffff" fill-opacity="1"><g transform="translate(6.444989, 43.957501)"><g><path d="M 20.011719 -0.148438 C 19.53125 0.0351562 17.714844 1.519531 17.085938 1.925781 C 15.121094 3.1875 13.601562 3.742188 11.675781 3.855469 C 10.453125 3.929688 7.929688 3.742188 5.632812 1.59375 C 4.1875 0.222656 3.742188 -1.59375 3.855469 -3.59375 C 3.929688 -5.039062 4.113281 -6.449219 4.742188 -7.746094 C 5.300781 -9.15625 6.042969 -10.453125 7.042969 -11.601562 C 7.414062 -12.082031 7.929688 -12.5625 8.414062 -13.007812 C 8.636719 -13.230469 8.96875 -13.566406 9.300781 -13.824219 C 10.488281 -14.824219 11.636719 -15.453125 13.15625 -15.75 C 13.933594 -15.898438 15.085938 -15.863281 15.863281 -15.566406 C 17.269531 -15.011719 18.308594 -13.304688 17.976562 -11.710938 C 17.753906 -10.636719 17.457031 -10.117188 16.753906 -9.414062 C 16.269531 -8.933594 15.789062 -8.746094 15.898438 -8.449219 C 16.457031 -7.5625 17.046875 -7.78125 17.828125 -8.414062 C 19.457031 -9.785156 19.605469 -11.636719 19.570312 -12.675781 C 19.53125 -13.640625 18.976562 -14.972656 18.160156 -15.714844 C 16.34375 -17.34375 13.972656 -17.753906 11.042969 -16.828125 C 10.007812 -16.492188 9.042969 -16.046875 8.191406 -15.417969 C 8.078125 -15.378906 7.929688 -15.308594 8.117188 -15.121094 C 8.339844 -15.234375 8.636719 -15.378906 8.894531 -15.492188 C 9.15625 -15.640625 9.449219 -15.75 9.710938 -15.863281 C 9.933594 -15.972656 10.191406 -16.269531 10.488281 -16.085938 C 10.339844 -15.9375 10.230469 -15.863281 10.042969 -15.789062 C 9.042969 -15.492188 8.191406 -14.863281 7.414062 -14.195312 C 6.449219 -13.304688 5.558594 -12.304688 4.742188 -11.191406 C 3.890625 -10.007812 3.222656 -8.746094 2.707031 -7.414062 C 1.703125 -4.929688 1.484375 -2.335938 2.484375 0.109375 C 4.335938 4.449219 9.785156 5.746094 13.453125 4.929688 C 14.601562 4.667969 15.417969 4.226562 17.085938 3.519531 C 17.085938 3.371094 16.640625 3.558594 16.417969 3.519531 C 16.308594 3.445312 16.640625 3.335938 16.828125 3.222656 C 17.121094 3.039062 18.125 2.445312 18.050781 2.222656 C 18.679688 1.667969 19.347656 1.074219 19.792969 0.628906 C 20.085938 0.332031 20.160156 -0.148438 20.011719 -0.148438 Z M 6.632812 -12.453125 C 6.855469 -12.5625 6.96875 -12.785156 7.226562 -12.898438 L 7.339844 -12.972656 L 7.226562 -13.195312 C 7.488281 -13.34375 7.488281 -13.304688 7.636719 -13.453125 C 8.5625 -14.378906 9.671875 -15.121094 10.15625 -15.34375 C 10.710938 -15.601562 10.894531 -15.675781 11.75 -16.011719 C 11.972656 -16.085938 12.007812 -16.085938 12.121094 -16.011719 C 12.082031 -15.863281 11.859375 -15.9375 11.785156 -15.863281 C 11.453125 -15.675781 11.304688 -15.601562 11.082031 -15.527344 L 10.710938 -15.378906 C 10.527344 -15.121094 10.117188 -15.085938 9.636719 -14.789062 C 8.820312 -14.269531 8.375 -13.789062 7.746094 -13.230469 L 7.597656 -13.046875 L 7.117188 -12.488281 C 6.894531 -12.414062 6.78125 -12.339844 6.523438 -11.898438 C 6.449219 -11.859375 6.449219 -11.898438 6.410156 -11.933594 C 6.449219 -12.121094 6.671875 -12.339844 6.746094 -12.453125 C 6.707031 -12.414062 6.671875 -12.414062 6.632812 -12.453125 Z M 17.605469 2.148438 L 17.308594 2.335938 L 16.863281 2.632812 C 16.9375 2.410156 16.972656 2.296875 17.269531 2.074219 L 17.714844 1.777344 C 17.828125 1.964844 17.753906 2.074219 17.605469 2.148438 Z M 13.007812 4.335938 C 13.714844 4.1875 14.75 3.667969 16.160156 2.929688 C 15.527344 3.707031 13.714844 4.410156 13.007812 4.335938 Z M 13.007812 4.335938 "/></g></g></g><g fill="#ffffff" fill-opacity="1"><g transform="translate(26.940015, 43.957501)"><g><path d="M 1.074219 0.109375 C 1.628906 0.332031 2.261719 0.332031 2.855469 0.0351562 C 3.445312 -0.222656 4.039062 -0.703125 4.484375 -1.039062 C 4.558594 -1.074219 4.597656 -1.1875 4.667969 -1.261719 C 4.929688 -1.261719 4.929688 -1.628906 5.1875 -1.777344 C 5.226562 -1.703125 5.226562 -1.628906 5.300781 -1.59375 C 5.410156 -1.410156 5.375 -1.335938 5.597656 -1.113281 C 5.746094 -0.777344 6.003906 -0.628906 6.226562 -0.332031 C 6.335938 -0.296875 6.410156 -0.148438 6.523438 -0.109375 C 6.597656 -0.0351562 6.820312 -0.0351562 6.894531 0 C 7.042969 0.0351562 7.375 -0.0351562 7.523438 -0.0351562 C 7.636719 -0.0351562 7.820312 -0.109375 7.855469 -0.109375 C 7.96875 -0.109375 8.152344 -0.183594 8.226562 -0.222656 C 8.414062 -0.332031 8.523438 -0.296875 8.746094 -0.40625 C 9.117188 -0.667969 9.449219 -0.742188 9.746094 -1.074219 C 9.894531 -1.261719 10.15625 -1.410156 10.339844 -1.554688 L 10.339844 -1.628906 C 10.15625 -1.519531 9.894531 -1.410156 9.710938 -1.296875 L 9.710938 -1.445312 C 9.820312 -1.445312 9.894531 -1.484375 9.96875 -1.519531 L 10.007812 -1.554688 C 9.933594 -1.554688 9.859375 -1.554688 9.746094 -1.59375 C 9.859375 -1.628906 9.933594 -1.667969 10.007812 -1.742188 C 10.082031 -1.851562 10.15625 -1.925781 10.230469 -1.964844 C 10.527344 -2.113281 10.820312 -2.335938 11.117188 -2.484375 C 11.230469 -2.558594 11.265625 -2.667969 11.265625 -2.742188 C 11.117188 -2.59375 10.859375 -2.519531 10.636719 -2.371094 C 10.414062 -2.1875 10.230469 -2.222656 9.96875 -2.113281 C 9.96875 -2.074219 10.007812 -2.039062 10.007812 -2 C 9.894531 -2.074219 9.785156 -2.074219 9.636719 -1.964844 C 9.5625 -1.890625 9.449219 -1.890625 9.339844 -1.851562 L 9.339844 -1.925781 C 9.488281 -1.964844 9.597656 -2.074219 9.710938 -2.113281 C 10.082031 -2.410156 10.414062 -2.632812 10.859375 -2.816406 C 11.117188 -3.003906 11.304688 -3.1875 11.601562 -3.335938 C 11.636719 -3.335938 11.710938 -3.296875 11.710938 -3.261719 C 11.75 -3.113281 11.675781 -3.003906 11.527344 -2.929688 C 11.453125 -2.855469 11.339844 -2.78125 11.304688 -2.78125 C 11.339844 -2.742188 11.339844 -2.707031 11.339844 -2.707031 C 11.453125 -2.742188 11.5625 -2.742188 11.601562 -2.78125 C 11.785156 -2.855469 11.933594 -3.039062 12.046875 -3.148438 C 12.15625 -3.222656 12.414062 -3.335938 12.601562 -3.484375 C 13.082031 -3.816406 13.675781 -4.113281 14.046875 -4.667969 C 13.859375 -4.742188 13.859375 -4.597656 13.859375 -4.523438 C 13.640625 -4.375 13.640625 -4.375 13.566406 -4.558594 L 13.898438 -5.003906 L 13.789062 -5.078125 C 13.417969 -4.855469 13.121094 -4.667969 12.859375 -4.449219 C 12.007812 -3.890625 12.082031 -3.964844 11.191406 -3.410156 C 10.675781 -3.039062 10.117188 -2.707031 9.636719 -2.410156 C 9.117188 -2.039062 8.523438 -1.59375 7.929688 -1.335938 C 7.78125 -1.261719 7.636719 -1.261719 7.523438 -1.222656 C 7.414062 -1.1875 7.339844 -1.1875 7.265625 -1.222656 C 7.078125 -1.335938 6.96875 -1.484375 6.929688 -1.628906 C 6.707031 -2.148438 6.707031 -2.707031 6.820312 -3.222656 C 6.855469 -3.296875 6.855469 -3.371094 6.894531 -3.410156 C 7.003906 -3.707031 6.96875 -4.113281 6.96875 -4.113281 C 6.894531 -4.375 6.746094 -4.558594 6.523438 -4.632812 C 6.078125 -4.667969 5.820312 -4.375 5.523438 -4.335938 C 5.707031 -4.707031 6.003906 -5.039062 5.894531 -5.558594 C 5.746094 -6.410156 4.855469 -6.558594 4.078125 -6.707031 C 3.371094 -6.632812 2.742188 -6.1875 2.296875 -5.707031 C 1.851562 -5.152344 1.371094 -4.707031 0.964844 -4.078125 C 0.890625 -4.003906 0.816406 -3.816406 0.667969 -3.632812 L 0.40625 -3.1875 C 0.332031 -2.929688 0.222656 -2.742188 0.183594 -2.519531 C 0.183594 -2.484375 0.183594 -2.484375 0.148438 -2.445312 C 0.0742188 -2.222656 0 -2.039062 -0.109375 -1.777344 C -0.257812 -1.222656 -0.148438 -0.742188 0.183594 -0.296875 C 0.40625 -0.183594 0.703125 0 0.777344 0.0742188 C 0.890625 0.109375 1 0.109375 1.074219 0.109375 Z M 1 -0.964844 C 1.1875 -1.703125 1.519531 -2.335938 1.851562 -2.929688 C 2.261719 -3.632812 3.558594 -5.375 4.667969 -5.558594 C 4.632812 -5.523438 4.335938 -3.890625 5.152344 -3.816406 L 5.1875 -3.816406 C 5.1875 -3.816406 5.039062 -3.632812 5.003906 -3.632812 C 4.449219 -3.039062 4.1875 -2.59375 3.632812 -2 C 3.261719 -1.59375 2.929688 -1.335938 2.445312 -1.148438 C 2.074219 -1 1.410156 -0.964844 1 -0.964844 Z M 12.007812 -3.222656 C 11.933594 -3.296875 11.785156 -3.371094 11.710938 -3.410156 C 11.75 -3.484375 12.230469 -3.816406 12.488281 -3.964844 C 12.675781 -4.078125 12.859375 -4.1875 12.933594 -4.261719 C 12.972656 -4.261719 12.972656 -4.226562 12.972656 -4.1875 C 12.933594 -4.152344 12.898438 -4.078125 12.824219 -4.039062 L 12.824219 -3.816406 C 12.75 -3.78125 12.601562 -3.78125 12.527344 -3.742188 C 12.414062 -3.707031 12.265625 -3.667969 12.230469 -3.59375 C 12.15625 -3.558594 12.082031 -3.519531 12.082031 -3.371094 C 12.082031 -3.335938 12.046875 -3.222656 12.007812 -3.222656 Z M 12.007812 -3.222656 "/></g></g></g><g fill="#ffffff" fill-opacity="1"><g transform="translate(38.947951, 43.957501)"><g><path d="M 1.113281 1.554688 C 1.410156 1.628906 1.554688 1.59375 1.703125 1.296875 C 1.742188 1.261719 1.742188 1.222656 1.816406 1.1875 L 1.925781 0.925781 C 2.113281 0.925781 2.261719 0.816406 2.410156 0.628906 C 2.59375 0.222656 2.816406 -0.109375 3.039062 -0.480469 L 2.929688 -0.59375 C 2.929688 -0.59375 2.964844 -0.59375 3.003906 -0.667969 C 3.003906 -0.703125 2.964844 -0.742188 2.929688 -0.777344 C 3.074219 -0.851562 3.261719 -0.964844 3.222656 -1.1875 C 3.261719 -1.148438 3.296875 -1.148438 3.335938 -1.148438 C 3.296875 -1.296875 3.632812 -1.148438 3.519531 -1.410156 C 3.445312 -1.410156 3.667969 -1.59375 3.707031 -1.703125 C 3.816406 -1.890625 4.078125 -1.925781 4.039062 -2.222656 C 4.300781 -2.335938 4.484375 -2.519531 4.558594 -2.816406 C 4.816406 -2.855469 4.964844 -2.964844 5.078125 -3.371094 C 5.113281 -3.261719 5.1875 -3.222656 5.261719 -3.148438 C 5.261719 -2.929688 5.226562 -2.667969 5.226562 -2.484375 C 5.152344 -1.703125 5.300781 -1 5.484375 -0.371094 C 5.632812 0.109375 5.929688 0.445312 6.261719 0.703125 C 6.449219 0.925781 6.558594 0.925781 6.820312 1.039062 L 6.855469 1.039062 C 7.414062 0.925781 8.042969 0.925781 8.5625 0.554688 C 8.894531 0.332031 9.226562 0.0742188 9.449219 -0.183594 C 9.710938 -0.445312 10.007812 -0.667969 10.15625 -0.964844 C 10.15625 -1 10.265625 -1 10.304688 -1.039062 C 10.265625 -1.074219 10.265625 -1.148438 10.265625 -1.148438 C 10.453125 -1.261719 10.453125 -1.371094 10.488281 -1.445312 L 11.117188 -2.1875 C 11.265625 -2.296875 11.414062 -2.484375 11.488281 -2.632812 C 11.5625 -2.78125 11.5625 -2.929688 11.636719 -3.113281 L 11.601562 -3.113281 L 11.636719 -3.59375 C 11.75 -3.742188 11.859375 -3.929688 11.972656 -4.003906 L 11.785156 -4.003906 C 11.898438 -4.1875 11.898438 -4.1875 12.046875 -4.226562 C 12.082031 -4.261719 12.082031 -4.300781 12.082031 -4.300781 C 11.972656 -4.410156 12.121094 -4.558594 12.15625 -4.632812 C 12.195312 -4.707031 12.304688 -4.816406 12.339844 -4.890625 C 12.378906 -4.929688 12.339844 -4.929688 12.339844 -4.929688 C 11.339844 -3.632812 10.265625 -2.335938 8.894531 -1.261719 C 8.933594 -1.261719 8.933594 -1.261719 8.96875 -1.222656 C 9.191406 -1.410156 9.449219 -1.59375 9.671875 -1.742188 C 9.636719 -1.703125 9.671875 -1.703125 9.746094 -1.667969 C 9.5625 -1.554688 9.339844 -1.410156 9.191406 -1.261719 C 9.15625 -1.222656 9.082031 -1.148438 8.96875 -1.113281 C 8.785156 -1 8.5625 -0.777344 8.339844 -0.703125 C 8.152344 -0.554688 7.929688 -0.445312 7.707031 -0.371094 C 7.078125 -0.0351562 6.96875 0 6.929688 0.0351562 L 6.820312 0.0351562 C 6.78125 0 6.671875 -0.109375 6.671875 -0.183594 L 6.558594 -0.554688 C 6.558594 -0.816406 6.558594 -1.113281 6.523438 -1.371094 C 6.558594 -1.484375 6.523438 -1.59375 6.523438 -1.667969 C 6.558594 -1.964844 6.597656 -2.261719 6.597656 -2.558594 C 6.558594 -2.890625 6.484375 -3.222656 6.375 -3.558594 C 6.375 -3.667969 6.410156 -3.78125 6.375 -3.78125 C 6.226562 -3.855469 6.261719 -4.039062 6.226562 -4.226562 C 5.894531 -4.003906 5.746094 -4.300781 5.449219 -4.335938 L 5.449219 -4.375 C 5.523438 -4.375 5.632812 -4.410156 5.746094 -4.410156 C 5.632812 -4.523438 5.558594 -4.597656 5.449219 -4.597656 C 5.335938 -4.632812 5.261719 -4.667969 4.964844 -4.667969 C 4.597656 -4.632812 4.558594 -4.632812 4.375 -4.523438 C 4.078125 -4.300781 3.816406 -4.039062 3.59375 -3.78125 C 3.148438 -3.335938 2.742188 -2.816406 2.371094 -2.261719 C 2.371094 -2.222656 2.371094 -2.261719 2.335938 -2.222656 C 2.371094 -2.296875 2.371094 -2.335938 2.371094 -2.371094 C 2.445312 -2.632812 2.484375 -2.890625 2.558594 -3.148438 C 2.632812 -3.445312 2.667969 -3.59375 2.707031 -3.855469 L 2.816406 -4.707031 C 2.816406 -4.742188 2.816406 -4.742188 2.78125 -4.78125 C 2.519531 -5.152344 2.261719 -5.449219 1.777344 -5.484375 C 1.554688 -5.523438 1.484375 -5.449219 1.445312 -5.1875 C 1.410156 -4.964844 1.371094 -4.742188 1.484375 -4.632812 C 1.519531 -4.632812 1.519531 -4.558594 1.519531 -4.523438 C 1.445312 -4.078125 1.410156 -3.667969 1.296875 -3.222656 C 1.148438 -2.558594 0.925781 -1.890625 0.742188 -1.261719 C 0.59375 -0.59375 0.519531 0 0.40625 0.628906 C 0.332031 0.925781 0.554688 1.296875 0.777344 1.335938 C 0.890625 1.261719 0.628906 1.039062 0.890625 1 C 0.925781 1.039062 0.925781 1.113281 0.964844 1.1875 C 0.925781 1.335938 0.890625 1.484375 1.113281 1.554688 Z M 2.929688 -2.667969 C 2.929688 -2.742188 2.890625 -2.742188 2.890625 -2.742188 L 3.445312 -3.445312 L 3.890625 -3.929688 C 4.039062 -4.078125 4.226562 -4.078125 4.484375 -4.039062 C 4.375 -3.964844 4.300781 -3.855469 4.261719 -3.816406 C 4.261719 -3.78125 4.1875 -3.816406 4.152344 -3.855469 C 4.039062 -3.742188 3.890625 -3.667969 3.964844 -3.445312 C 3.964844 -3.445312 3.929688 -3.371094 3.890625 -3.371094 C 3.707031 -3.445312 3.59375 -3.261719 3.519531 -3.148438 C 3.519531 -3.113281 3.484375 -3.113281 3.410156 -3.074219 C 3.445312 -3.039062 3.484375 -3.039062 3.519531 -2.964844 C 3.371094 -2.890625 3.296875 -2.816406 3.148438 -2.742188 L 3.113281 -2.78125 C 3.1875 -2.855469 3.222656 -2.929688 3.261719 -3.039062 C 3.261719 -3.039062 3.296875 -3.074219 3.261719 -3.074219 Z M 3.78125 -2.558594 C 3.742188 -2.632812 3.742188 -2.667969 3.742188 -2.78125 C 3.78125 -2.78125 3.890625 -2.816406 3.964844 -2.855469 C 3.816406 -3.113281 4.113281 -3.113281 4.152344 -3.222656 C 4.1875 -3.148438 4.261719 -3.113281 4.261719 -2.964844 L 4.152344 -2.964844 C 4.152344 -2.667969 3.890625 -2.742188 3.78125 -2.558594 Z M 9.96875 -1.59375 C 9.933594 -1.59375 9.933594 -1.59375 9.894531 -1.628906 C 10.15625 -1.925781 10.414062 -2.1875 10.710938 -2.484375 C 10.746094 -2.484375 10.785156 -2.445312 10.785156 -2.445312 C 10.710938 -2.296875 10.601562 -2.222656 10.488281 -2.113281 C 10.339844 -1.925781 10.230469 -1.816406 10.042969 -1.667969 C 10.042969 -1.628906 10.007812 -1.59375 9.96875 -1.59375 Z M 9.96875 -1.59375 "/></g></g></g><g fill="#ffffff" fill-opacity="1"><g transform="translate(48.843382, 43.957501)"><g><path d="M 1.519531 3.003906 C 1.890625 2.78125 2.335938 2.707031 2.78125 2.445312 C 3.003906 2.222656 3.296875 1.964844 3.484375 1.628906 C 3.855469 1.410156 4.113281 1.039062 4.375 0.742188 C 4.558594 0.519531 4.816406 0.296875 5.003906 0.0351562 C 5.226562 -0.332031 5.484375 -0.628906 5.558594 -1.113281 C 5.558594 -1.113281 5.597656 -1.148438 5.671875 -1.148438 C 5.96875 -1.296875 6.042969 -1.59375 6.152344 -1.851562 C 6.261719 -2.039062 6.300781 -2.222656 6.410156 -2.445312 C 6.558594 -2.410156 6.632812 -2.78125 6.746094 -3.296875 C 6.597656 -3.039062 6.523438 -2.78125 6.410156 -2.558594 C 6.410156 -2.59375 6.410156 -2.59375 6.375 -2.59375 C 6.375 -2.742188 6.484375 -2.964844 6.523438 -3.074219 L 6.484375 -3.074219 C 6.335938 -2.964844 6.152344 -2.707031 6.117188 -2.484375 C 6.117188 -2.519531 6.117188 -2.519531 6.078125 -2.519531 C 6.078125 -2.742188 6.117188 -3.003906 6.300781 -3.148438 C 6.558594 -3.632812 6.855469 -4.078125 7.226562 -4.558594 C 7.339844 -4.929688 7.300781 -5.335938 7.117188 -5.597656 C 7.042969 -5.632812 7.042969 -5.707031 7.003906 -5.78125 C 6.894531 -5.855469 6.855469 -6.042969 6.78125 -6.042969 C 6.671875 -6.042969 6.558594 -5.855469 6.484375 -5.707031 C 6.300781 -5.300781 6.117188 -4.929688 6.003906 -4.632812 C 5.671875 -4.078125 5.335938 -3.558594 5.039062 -3.003906 C 4.78125 -2.410156 4.410156 -1.851562 3.929688 -1.335938 C 3.742188 -1.074219 3.519531 -0.742188 3.296875 -0.554688 C 3.074219 -0.222656 2.78125 0.109375 2.445312 0.371094 C 2.148438 0.59375 1.851562 0.925781 1.484375 0.925781 C 1.59375 0.40625 1.628906 -0.0742188 1.703125 -0.59375 C 1.964844 -1.371094 2.113281 -2.074219 2.296875 -2.855469 C 2.410156 -3.59375 2.632812 -4.335938 2.558594 -5.078125 C 2.484375 -5.152344 2.410156 -5.226562 2.410156 -5.300781 C 2.335938 -5.375 2.371094 -5.484375 2.335938 -5.558594 C 2.074219 -5.632812 1.742188 -5.894531 1.554688 -5.855469 L 1.222656 -4.484375 C 1.113281 -4.152344 1.074219 -3.890625 1.039062 -3.59375 C 0.925781 -3.261719 0.816406 -2.816406 0.816406 -2.445312 C 0.703125 -2.148438 0.519531 -1.777344 0.519531 -1.371094 C 0.480469 -1.074219 0.332031 -0.851562 0.257812 -0.480469 C 0.296875 0.0742188 0.222656 0.628906 0.222656 1.222656 C 0.222656 1.296875 0.257812 1.484375 0.296875 1.703125 C 0.445312 1.964844 0.40625 2.296875 0.667969 2.296875 C 0.703125 2.296875 0.925781 2.707031 0.925781 2.742188 Z M 3.78125 -0.183594 C 3.742188 -0.183594 3.742188 -0.183594 3.707031 -0.257812 C 3.707031 -0.332031 3.632812 -0.480469 3.667969 -0.519531 C 3.964844 -0.816406 4.226562 -1.1875 4.558594 -1.519531 C 4.449219 -0.851562 4.113281 -0.519531 3.78125 -0.183594 Z M 3.78125 -0.183594 "/></g></g></g><g fill="#ffffff" fill-opacity="1"><g transform="translate(57.293419, 43.957501)"><g><path d="M 1.074219 0.109375 C 1.628906 0.332031 2.261719 0.332031 2.855469 0.0351562 C 3.445312 -0.222656 4.039062 -0.703125 4.484375 -1.039062 C 4.558594 -1.074219 4.597656 -1.1875 4.667969 -1.261719 C 4.929688 -1.261719 4.929688 -1.628906 5.1875 -1.777344 C 5.226562 -1.703125 5.226562 -1.628906 5.300781 -1.59375 C 5.410156 -1.410156 5.375 -1.335938 5.597656 -1.113281 C 5.746094 -0.777344 6.003906 -0.628906 6.226562 -0.332031 C 6.335938 -0.296875 6.410156 -0.148438 6.523438 -0.109375 C 6.597656 -0.0351562 6.820312 -0.0351562 6.894531 0 C 7.042969 0.0351562 7.375 -0.0351562 7.523438 -0.0351562 C 7.636719 -0.0351562 7.820312 -0.109375 7.855469 -0.109375 C 7.96875 -0.109375 8.152344 -0.183594 8.226562 -0.222656 C 8.414062 -0.332031 8.523438 -0.296875 8.746094 -0.40625 C 9.117188 -0.667969 9.449219 -0.742188 9.746094 -1.074219 C 9.894531 -1.261719 10.15625 -1.410156 10.339844 -1.554688 L 10.339844 -1.628906 C 10.15625 -1.519531 9.894531 -1.410156 9.710938 -1.296875 L 9.710938 -1.445312 C 9.820312 -1.445312 9.894531 -1.484375 9.96875 -1.519531 L 10.007812 -1.554688 C 9.933594 -1.554688 9.859375 -1.554688 9.746094 -1.59375 C 9.859375 -1.628906 9.933594 -1.667969 10.007812 -1.742188 C 10.082031 -1.851562 10.15625 -1.925781 10.230469 -1.964844 C 10.527344 -2.113281 10.820312 -2.335938 11.117188 -2.484375 C 11.230469 -2.558594 11.265625 -2.667969 11.265625 -2.742188 C 11.117188 -2.59375 10.859375 -2.519531 10.636719 -2.371094 C 10.414062 -2.1875 10.230469 -2.222656 9.96875 -2.113281 C 9.96875 -2.074219 10.007812 -2.039062 10.007812 -2 C 9.894531 -2.074219 9.785156 -2.074219 9.636719 -1.964844 C 9.5625 -1.890625 9.449219 -1.890625 9.339844 -1.851562 L 9.339844 -1.925781 C 9.488281 -1.964844 9.597656 -2.074219 9.710938 -2.113281 C 10.082031 -2.410156 10.414062 -2.632812 10.859375 -2.816406 C 11.117188 -3.003906 11.304688 -3.1875 11.601562 -3.335938 C 11.636719 -3.335938 11.710938 -3.296875 11.710938 -3.261719 C 11.75 -3.113281 11.675781 -3.003906 11.527344 -2.929688 C 11.453125 -2.855469 11.339844 -2.78125 11.304688 -2.78125 C 11.339844 -2.742188 11.339844 -2.707031 11.339844 -2.707031 C 11.453125 -2.742188 11.5625 -2.742188 11.601562 -2.78125 C 11.785156 -2.855469 11.933594 -3.039062 12.046875 -3.148438 C 12.15625 -3.222656 12.414062 -3.335938 12.601562 -3.484375 C 13.082031 -3.816406 13.675781 -4.113281 14.046875 -4.667969 C 13.859375 -4.742188 13.859375 -4.597656 13.859375 -4.523438 C 13.640625 -4.375 13.640625 -4.375 13.566406 -4.558594 L 13.898438 -5.003906 L 13.789062 -5.078125 C 13.417969 -4.855469 13.121094 -4.667969 12.859375 -4.449219 C 12.007812 -3.890625 12.082031 -3.964844 11.191406 -3.410156 C 10.675781 -3.039062 10.117188 -2.707031 9.636719 -2.410156 C 9.117188 -2.039062 8.523438 -1.59375 7.929688 -1.335938 C 7.78125 -1.261719 7.636719 -1.261719 7.523438 -1.222656 C 7.414062 -1.1875 7.339844 -1.1875 7.265625 -1.222656 C 7.078125 -1.335938 6.96875 -1.484375 6.929688 -1.628906 C 6.707031 -2.148438 6.707031 -2.707031 6.820312 -3.222656 C 6.855469 -3.296875 6.855469 -3.371094 6.894531 -3.410156 C 7.003906 -3.707031 6.96875 -4.113281 6.96875 -4.113281 C 6.894531 -4.375 6.746094 -4.558594 6.523438 -4.632812 C 6.078125 -4.667969 5.820312 -4.375 5.523438 -4.335938 C 5.707031 -4.707031 6.003906 -5.039062 5.894531 -5.558594 C 5.746094 -6.410156 4.855469 -6.558594 4.078125 -6.707031 C 3.371094 -6.632812 2.742188 -6.1875 2.296875 -5.707031 C 1.851562 -5.152344 1.371094 -4.707031 0.964844 -4.078125 C 0.890625 -4.003906 0.816406 -3.816406 0.667969 -3.632812 L 0.40625 -3.1875 C 0.332031 -2.929688 0.222656 -2.742188 0.183594 -2.519531 C 0.183594 -2.484375 0.183594 -2.484375 0.148438 -2.445312 C 0.0742188 -2.222656 0 -2.039062 -0.109375 -1.777344 C -0.257812 -1.222656 -0.148438 -0.742188 0.183594 -0.296875 C 0.40625 -0.183594 0.703125 0 0.777344 0.0742188 C 0.890625 0.109375 1 0.109375 1.074219 0.109375 Z M 1 -0.964844 C 1.1875 -1.703125 1.519531 -2.335938 1.851562 -2.929688 C 2.261719 -3.632812 3.558594 -5.375 4.667969 -5.558594 C 4.632812 -5.523438 4.335938 -3.890625 5.152344 -3.816406 L 5.1875 -3.816406 C 5.1875 -3.816406 5.039062 -3.632812 5.003906 -3.632812 C 4.449219 -3.039062 4.1875 -2.59375 3.632812 -2 C 3.261719 -1.59375 2.929688 -1.335938 2.445312 -1.148438 C 2.074219 -1 1.410156 -0.964844 1 -0.964844 Z M 12.007812 -3.222656 C 11.933594 -3.296875 11.785156 -3.371094 11.710938 -3.410156 C 11.75 -3.484375 12.230469 -3.816406 12.488281 -3.964844 C 12.675781 -4.078125 12.859375 -4.1875 12.933594 -4.261719 C 12.972656 -4.261719 12.972656 -4.226562 12.972656 -4.1875 C 12.933594 -4.152344 12.898438 -4.078125 12.824219 -4.039062 L 12.824219 -3.816406 C 12.75 -3.78125 12.601562 -3.78125 12.527344 -3.742188 C 12.414062 -3.707031 12.265625 -3.667969 12.230469 -3.59375 C 12.15625 -3.558594 12.082031 -3.519531 12.082031 -3.371094 C 12.082031 -3.335938 12.046875 -3.222656 12.007812 -3.222656 Z M 12.007812 -3.222656 "/></g></g></g><path fill="#691cb6" d="M 9.976562 84.597656 L 9.976562 1.191406 L 53.789062 1.191406 L 74.640625 21.941406 L 74.640625 84.597656 Z M 9.976562 84.597656 " fill-opacity="1" fill-rule="nonzero"/><g clip-path="url(#674d2fdff9)"><path fill="#000000" d="M 53.292969 2.382812 L 73.445312 22.433594 L 73.445312 83.40625 L 11.171875 83.40625 L 11.171875 2.382812 L 53.292969 2.382812 M 54.285156 0 L 8.777344 0 L 8.777344 85.789062 L 75.839844 85.789062 L 75.839844 21.445312 Z M 54.285156 0 " fill-opacity="1" fill-rule="nonzero"/></g><path fill="#ca96ff" d="M 53.085938 22.640625 L 53.085938 1.191406 L 53.789062 1.191406 L 74.640625 21.941406 L 74.640625 22.640625 Z M 53.085938 22.640625 " fill-opacity="1" fill-rule="nonzero"/><g clip-path="url(#4f04dd929c)"><path fill="#000000" d="M 54.285156 3.371094 L 72.453125 21.445312 L 54.285156 21.445312 L 54.285156 3.371094 M 54.285156 0 L 51.890625 0 L 51.890625 23.832031 L 75.839844 23.832031 L 75.839844 21.445312 Z M 54.285156 0 " fill-opacity="1" fill-rule="nonzero"/></g><g clip-path="url(#4925476d17)"><path fill="#003882" d="M 10.980469 18.808594 L 40.34375 18.808594 L 40.34375 31.902344 L 10.980469 31.902344 Z M 10.980469 18.808594 " fill-opacity="1" fill-rule="nonzero"/></g><g clip-path="url(#9bd896daba)"><g clip-path="url(#1a51b15528)"><path fill="#f2f2f2" d="M 0.203125 4.289062 L 51.121094 4.289062 L 51.121094 28.160156 L 0.203125 28.160156 Z M 0.203125 4.289062 " fill-opacity="1" fill-rule="nonzero"/></g></g><g clip-path="url(#4236211f42)"><g clip-path="url(#d386dadcd9)"><path stroke-linecap="butt" transform="matrix(0.743256, 0, 0, 0.746353, 0.212071, 4.288674)" fill="none" stroke-linejoin="miter" d="M 2.000856 0.000520223 L 66.2242 0.000520223 C 66.755014 0.000520223 67.264807 0.209872 67.637954 0.586704 C 68.016357 0.958303 68.22658 1.471214 68.22658 1.999826 L 68.22658 29.984873 C 68.22658 30.513485 68.016357 31.026396 67.637954 31.397995 C 67.264807 31.774827 66.755014 31.984179 66.2242 31.984179 L 2.000856 31.984179 C 1.470041 31.984179 0.960248 31.774827 0.587101 31.397995 C 0.208699 31.026396 -0.00152503 30.513485 -0.00152503 29.984873 L -0.00152503 1.999826 C -0.00152503 1.471214 0.208699 0.958303 0.587101 0.586704 C 0.960248 0.209872 1.470041 0.000520223 2.000856 0.000520223 " stroke="#000000" stroke-width="6" stroke-opacity="1" stroke-miterlimit="4"/></g></g><path fill="#000000" d="M 31.3125 58.8125 C 30.9375 58.8125 30.628906 59.117188 30.628906 59.496094 L 30.628906 62.914062 C 30.628906 63.289062 30.9375 63.597656 31.3125 63.597656 C 31.6875 63.597656 31.996094 63.289062 31.996094 62.914062 L 31.996094 59.496094 C 31.996094 59.117188 31.6875 58.8125 31.3125 58.8125 " fill-opacity="1" fill-rule="nonzero"/><g clip-path="url(#10fb6950e1)"><path fill="#000000" d="M 61.402344 65.648438 L 36.78125 65.648438 L 36.78125 60.863281 C 36.78125 57.847656 34.328125 55.390625 31.3125 55.390625 C 28.296875 55.390625 25.84375 57.847656 25.84375 60.863281 L 25.84375 65.648438 L 23.105469 65.648438 L 23.105469 47.1875 L 27.210938 47.1875 C 27.585938 47.1875 27.894531 46.878906 27.894531 46.503906 L 27.894531 42.398438 L 54.5625 42.398438 L 54.5625 51.972656 C 54.5625 51.984375 54.566406 51.992188 54.566406 52 C 54.570312 52.078125 54.582031 52.15625 54.617188 52.230469 C 54.617188 52.234375 54.617188 52.238281 54.617188 52.238281 C 54.617188 52.242188 54.617188 52.242188 54.617188 52.242188 L 56.671875 57.03125 C 56.777344 57.28125 57.023438 57.445312 57.296875 57.445312 C 57.570312 57.445312 57.820312 57.28125 57.925781 57.03125 L 59.976562 52.242188 C 59.976562 52.242188 59.976562 52.242188 59.976562 52.238281 C 59.980469 52.238281 59.980469 52.234375 59.980469 52.230469 C 60.011719 52.15625 60.023438 52.078125 60.027344 52 C 60.027344 51.992188 60.03125 51.984375 60.03125 51.972656 L 60.03125 42.398438 L 61.402344 42.398438 Z M 35.414062 69.070312 C 35.414062 71.332031 33.574219 73.171875 31.3125 73.171875 C 29.050781 73.171875 27.210938 71.332031 27.210938 69.070312 L 27.210938 60.863281 C 27.210938 58.601562 29.050781 56.757812 31.3125 56.757812 C 33.574219 56.757812 35.414062 58.601562 35.414062 60.863281 Z M 26.527344 43.367188 L 26.527344 45.820312 L 24.074219 45.820312 Z M 25.558594 42.398438 L 23.105469 44.851562 L 23.105469 42.398438 Z M 55.929688 34.878906 L 58.664062 34.878906 L 58.664062 36.246094 L 55.929688 36.246094 Z M 58.3125 52.65625 L 57.296875 55.023438 L 56.28125 52.65625 Z M 58.664062 51.289062 L 55.929688 51.289062 L 55.929688 37.613281 L 58.664062 37.613281 Z M 62.085938 41.03125 L 60.03125 41.03125 L 60.03125 34.195312 C 60.03125 33.816406 59.726562 33.507812 59.347656 33.507812 L 55.246094 33.507812 C 54.871094 33.507812 54.5625 33.816406 54.5625 34.195312 L 54.5625 41.03125 L 22.421875 41.03125 C 22.046875 41.03125 21.738281 41.339844 21.738281 41.714844 L 21.738281 66.332031 C 21.738281 66.710938 22.046875 67.015625 22.421875 67.015625 L 25.84375 67.015625 L 25.84375 69.070312 C 25.84375 72.085938 28.296875 74.539062 31.3125 74.539062 C 34.328125 74.539062 36.78125 72.085938 36.78125 69.070312 L 36.78125 67.015625 L 62.085938 67.015625 C 62.460938 67.015625 62.769531 66.710938 62.769531 66.332031 L 62.769531 41.714844 C 62.769531 41.339844 62.460938 41.03125 62.085938 41.03125 " fill-opacity="1" fill-rule="nonzero"/></g><path fill="#000000" d="M 59.347656 62.914062 L 57.980469 62.914062 C 57.605469 62.914062 57.296875 63.222656 57.296875 63.597656 C 57.296875 63.972656 57.605469 64.28125 57.980469 64.28125 L 59.347656 64.28125 C 59.726562 64.28125 60.03125 63.972656 60.03125 63.597656 C 60.03125 63.222656 59.726562 62.914062 59.347656 62.914062 " fill-opacity="1" fill-rule="nonzero"/><path fill="#000000" d="M 55.246094 62.914062 L 53.878906 62.914062 C 53.503906 62.914062 53.195312 63.222656 53.195312 63.597656 C 53.195312 63.972656 53.503906 64.28125 53.878906 64.28125 L 55.246094 64.28125 C 55.621094 64.28125 55.929688 63.972656 55.929688 63.597656 C 55.929688 63.222656 55.621094 62.914062 55.246094 62.914062 " fill-opacity="1" fill-rule="nonzero"/><path fill="#000000" d="M 49.621094 46.070312 C 49.378906 45.777344 48.949219 45.734375 48.660156 45.972656 L 41.589844 51.757812 L 35.1875 45.996094 C 34.953125 45.78125 34.601562 45.761719 34.339844 45.9375 L 25.453125 52.09375 C 25.140625 52.308594 25.066406 52.734375 25.277344 53.046875 C 25.410156 53.238281 25.625 53.339844 25.84375 53.339844 C 25.976562 53.339844 26.113281 53.300781 26.230469 53.21875 L 34.675781 47.375 L 41.113281 53.164062 C 41.363281 53.390625 41.742188 53.398438 42.003906 53.1875 L 49.523438 47.03125 C 49.816406 46.792969 49.859375 46.359375 49.621094 46.070312 " fill-opacity="1" fill-rule="nonzero"/><path fill="#000000" d="M 44.855469 60.179688 L 47.039062 56.683594 L 49.226562 60.179688 Z M 47.621094 55.027344 C 47.367188 54.628906 46.710938 54.628906 46.460938 55.027344 L 43.042969 60.5 C 42.910156 60.710938 42.902344 60.976562 43.023438 61.195312 C 43.144531 61.410156 43.371094 61.546875 43.621094 61.546875 L 50.460938 61.546875 C 50.707031 61.546875 50.9375 61.410156 51.058594 61.195312 C 51.179688 60.976562 51.171875 60.710938 51.039062 60.5 L 47.621094 55.027344 " fill-opacity="1" fill-rule="nonzero"/><g fill="#000000" fill-opacity="0.2314"><g transform="translate(3.404037, 21.453527)"><g><path d="M 4.578125 0.171875 C 3.265625 0.171875 2.253906 -0.265625 1.546875 -1.140625 C 0.847656 -2.015625 0.5 -3.335938 0.5 -5.109375 C 0.5 -6.878906 0.847656 -8.203125 1.546875 -9.078125 C 2.253906 -9.960938 3.265625 -10.40625 4.578125 -10.40625 C 5.703125 -10.40625 6.609375 -10.070312 7.296875 -9.40625 C 7.984375 -8.738281 8.328125 -7.742188 8.328125 -6.421875 L 6.375 -6.421875 C 6.375 -7.191406 6.210938 -7.773438 5.890625 -8.171875 C 5.566406 -8.566406 5.128906 -8.765625 4.578125 -8.765625 C 3.878906 -8.765625 3.351562 -8.476562 3 -7.90625 C 2.644531 -7.332031 2.46875 -6.523438 2.46875 -5.484375 L 2.46875 -4.734375 C 2.46875 -3.691406 2.648438 -2.882812 3.015625 -2.3125 C 3.378906 -1.738281 3.921875 -1.453125 4.640625 -1.453125 C 5.203125 -1.453125 5.644531 -1.648438 5.96875 -2.046875 C 6.300781 -2.441406 6.46875 -3.019531 6.46875 -3.78125 L 8.328125 -3.78125 C 8.328125 -2.488281 7.984375 -1.503906 7.296875 -0.828125 C 6.617188 -0.160156 5.710938 0.171875 4.578125 0.171875 Z M 4.578125 0.171875 "/></g></g></g><g fill="#000000" fill-opacity="0.2314"><g transform="translate(12.220882, 21.453527)"><g><path d="M 3.296875 -10.21875 L 5.515625 -10.21875 L 8.8125 0 L 6.859375 0 L 6.234375 -2.015625 L 2.453125 -2.015625 L 1.84375 0 L 0 0 Z M 5.703125 -3.71875 L 4.6875 -7.125 C 4.613281 -7.34375 4.546875 -7.601562 4.484375 -7.90625 C 4.421875 -8.21875 4.382812 -8.421875 4.375 -8.515625 L 4.328125 -8.515625 C 4.304688 -8.410156 4.265625 -8.203125 4.203125 -7.890625 C 4.140625 -7.578125 4.082031 -7.320312 4.03125 -7.125 L 2.984375 -3.71875 Z M 5.703125 -3.71875 "/></g></g></g><g fill="#000000" fill-opacity="0.2314"><g transform="translate(21.037728, 21.453527)"><g><path d="M 0.890625 -10.21875 L 2.578125 -10.21875 L 5.734375 -4.59375 C 5.804688 -4.476562 5.894531 -4.304688 6 -4.078125 C 6.101562 -3.859375 6.171875 -3.710938 6.203125 -3.640625 L 6.25 -3.6875 L 6.234375 -4.53125 L 6.234375 -10.21875 L 7.9375 -10.21875 L 7.9375 0 L 6.234375 0 L 3.078125 -5.640625 C 2.992188 -5.796875 2.90625 -5.972656 2.8125 -6.171875 C 2.71875 -6.367188 2.648438 -6.507812 2.609375 -6.59375 L 2.546875 -6.546875 C 2.546875 -6.484375 2.550781 -6.367188 2.5625 -6.203125 C 2.570312 -6.035156 2.578125 -5.863281 2.578125 -5.6875 L 2.578125 0 L 0.890625 0 Z M 0.890625 -10.21875 "/></g></g></g><g fill="#000000" fill-opacity="0.2314"><g transform="translate(29.854573, 21.453527)"><g><path d="M 0 -10.21875 L 1.96875 -10.21875 L 4.109375 -2.90625 L 4.171875 -2.90625 L 6.296875 -10.21875 L 8.15625 -10.21875 L 5.03125 0 L 3.109375 0 Z M 0 -10.21875 "/></g></g></g><g fill="#000000" fill-opacity="0.2314"><g transform="translate(38.001225, 21.453527)"><g><path d="M 3.296875 -10.21875 L 5.515625 -10.21875 L 8.8125 0 L 6.859375 0 L 6.234375 -2.015625 L 2.453125 -2.015625 L 1.84375 0 L 0 0 Z M 5.703125 -3.71875 L 4.6875 -7.125 C 4.613281 -7.34375 4.546875 -7.601562 4.484375 -7.90625 C 4.421875 -8.21875 4.382812 -8.421875 4.375 -8.515625 L 4.328125 -8.515625 C 4.304688 -8.410156 4.265625 -8.203125 4.203125 -7.890625 C 4.140625 -7.578125 4.082031 -7.320312 4.03125 -7.125 L 2.984375 -3.71875 Z M 5.703125 -3.71875 "/></g></g></g><g fill="#000000" fill-opacity="1"><g transform="translate(3.949872, 20.227561)"><g><path d="M 4.578125 0.171875 C 3.265625 0.171875 2.253906 -0.265625 1.546875 -1.140625 C 0.847656 -2.015625 0.5 -3.335938 0.5 -5.109375 C 0.5 -6.878906 0.847656 -8.203125 1.546875 -9.078125 C 2.253906 -9.960938 3.265625 -10.40625 4.578125 -10.40625 C 5.703125 -10.40625 6.609375 -10.070312 7.296875 -9.40625 C 7.984375 -8.738281 8.328125 -7.742188 8.328125 -6.421875 L 6.375 -6.421875 C 6.375 -7.191406 6.210938 -7.773438 5.890625 -8.171875 C 5.566406 -8.566406 5.128906 -8.765625 4.578125 -8.765625 C 3.878906 -8.765625 3.351562 -8.476562 3 -7.90625 C 2.644531 -7.332031 2.46875 -6.523438 2.46875 -5.484375 L 2.46875 -4.734375 C 2.46875 -3.691406 2.648438 -2.882812 3.015625 -2.3125 C 3.378906 -1.738281 3.921875 -1.453125 4.640625 -1.453125 C 5.203125 -1.453125 5.644531 -1.648438 5.96875 -2.046875 C 6.300781 -2.441406 6.46875 -3.019531 6.46875 -3.78125 L 8.328125 -3.78125 C 8.328125 -2.488281 7.984375 -1.503906 7.296875 -0.828125 C 6.617188 -0.160156 5.710938 0.171875 4.578125 0.171875 Z M 4.578125 0.171875 "/></g></g></g><g fill="#000000" fill-opacity="1"><g transform="translate(12.766718, 20.227561)"><g><path d="M 3.296875 -10.21875 L 5.515625 -10.21875 L 8.8125 0 L 6.859375 0 L 6.234375 -2.015625 L 2.453125 -2.015625 L 1.84375 0 L 0 0 Z M 5.703125 -3.71875 L 4.6875 -7.125 C 4.613281 -7.34375 4.546875 -7.601562 4.484375 -7.90625 C 4.421875 -8.21875 4.382812 -8.421875 4.375 -8.515625 L 4.328125 -8.515625 C 4.304688 -8.410156 4.265625 -8.203125 4.203125 -7.890625 C 4.140625 -7.578125 4.082031 -7.320312 4.03125 -7.125 L 2.984375 -3.71875 Z M 5.703125 -3.71875 "/></g></g></g><g fill="#000000" fill-opacity="1"><g transform="translate(21.583563, 20.227561)"><g><path d="M 0.890625 -10.21875 L 2.578125 -10.21875 L 5.734375 -4.59375 C 5.804688 -4.476562 5.894531 -4.304688 6 -4.078125 C 6.101562 -3.859375 6.171875 -3.710938 6.203125 -3.640625 L 6.25 -3.6875 L 6.234375 -4.53125 L 6.234375 -10.21875 L 7.9375 -10.21875 L 7.9375 0 L 6.234375 0 L 3.078125 -5.640625 C 2.992188 -5.796875 2.90625 -5.972656 2.8125 -6.171875 C 2.71875 -6.367188 2.648438 -6.507812 2.609375 -6.59375 L 2.546875 -6.546875 C 2.546875 -6.484375 2.550781 -6.367188 2.5625 -6.203125 C 2.570312 -6.035156 2.578125 -5.863281 2.578125 -5.6875 L 2.578125 0 L 0.890625 0 Z M 0.890625 -10.21875 "/></g></g></g><g fill="#000000" fill-opacity="1"><g transform="translate(30.400408, 20.227561)"><g><path d="M 0 -10.21875 L 1.96875 -10.21875 L 4.109375 -2.90625 L 4.171875 -2.90625 L 6.296875 -10.21875 L 8.15625 -10.21875 L 5.03125 0 L 3.109375 0 Z M 0 -10.21875 "/></g></g></g><g fill="#000000" fill-opacity="1"><g transform="translate(38.54706, 20.227561)"><g><path d="M 3.296875 -10.21875 L 5.515625 -10.21875 L 8.8125 0 L 6.859375 0 L 6.234375 -2.015625 L 2.453125 -2.015625 L 1.84375 0 L 0 0 Z M 5.703125 -3.71875 L 4.6875 -7.125 C 4.613281 -7.34375 4.546875 -7.601562 4.484375 -7.90625 C 4.421875 -8.21875 4.382812 -8.421875 4.375 -8.515625 L 4.328125 -8.515625 C 4.304688 -8.410156 4.265625 -8.203125 4.203125 -7.890625 C 4.140625 -7.578125 4.082031 -7.320312 4.03125 -7.125 L 2.984375 -3.71875 Z M 5.703125 -3.71875 "/></g></g></g></svg>