<svg xmlns="http://www.w3.org/2000/svg" xmlns:xlink="http://www.w3.org/1999/xlink" width="1640" zoomAndPan="magnify" viewBox="0 0 1230 693.000001" height="924" preserveAspectRatio="xMidYMid meet" version="1.0"><defs><g/><clipPath id="2019410a8a"><path d="M 0.886719 0 L 444 0 L 444 692 L 0.886719 692 Z M 0.886719 0 " clip-rule="nonzero"/></clipPath></defs><g fill="#000000" fill-opacity="1"><g transform="translate(261.369793, 430.285626)"><g><path d="M 59.402344 -52.875 L 74.089844 0.328125 L 108.6875 0.328125 L 76.703125 -113.910156 L 108.6875 -228.148438 L 74.417969 -228.148438 L 43.410156 -117.828125 L 43.410156 -228.148438 L 10.445312 -228.148438 L 10.445312 0.328125 L 44.390625 0.328125 Z M 59.402344 -52.875 "/></g></g></g><g fill="#000000" fill-opacity="1"><g transform="translate(442.843056, 430.285626)"><g><path d="M 75.394531 -101.179688 L 43.410156 -101.179688 L 43.410156 -228.472656 L 10.445312 -228.472656 L 10.445312 0.328125 L 43.410156 0.328125 L 43.410156 -67.890625 L 75.394531 -67.890625 L 75.394531 0.328125 L 108.363281 0.328125 L 108.363281 -228.472656 L 75.394531 -228.472656 Z M 75.394531 -101.179688 "/></g></g></g><g fill="#000000" fill-opacity="1"><g transform="translate(623.989916, 430.285626)"><g><path d="M 48.304688 -32.3125 L 70.5 -32.3125 L 75.070312 0.328125 L 108.6875 0.328125 L 76.050781 -227.820312 L 76.050781 -228.472656 L 42.757812 -228.472656 L 10.445312 0.328125 L 43.738281 0.328125 Z M 52.875 -65.277344 L 59.402344 -110.644531 L 65.929688 -65.277344 Z M 52.875 -65.277344 "/></g></g></g><g fill="#000000" fill-opacity="1"><g transform="translate(805.463204, 430.285626)"><g><path d="M 43.410156 0.328125 L 43.410156 -228.472656 L 10.445312 -228.472656 L 10.445312 0.328125 Z M 43.410156 0.328125 "/></g></g></g><g fill="#000000" fill-opacity="1"><g transform="translate(921.658282, 430.285626)"><g><path d="M 108.6875 0.328125 L 108.6875 -32.640625 L 43.410156 -32.640625 L 43.410156 -228.472656 L 10.445312 -228.472656 L 10.445312 0.328125 Z M 108.6875 0.328125 "/></g></g></g><g fill="#000000" fill-opacity="1"><g transform="translate(262.255161, 182.981025)"><g><path d="M 26.171875 0.78125 C 22.015625 0.78125 18.347656 -0.0078125 15.171875 -1.59375 C 11.992188 -3.1875 9.507812 -5.550781 7.71875 -8.6875 C 5.925781 -11.832031 5.03125 -15.65625 5.03125 -20.15625 C 5.03125 -22.757812 5.34375 -25.550781 5.96875 -28.53125 C 7.21875 -34.4375 9.300781 -39.414062 12.21875 -43.46875 C 15.132812 -47.53125 18.722656 -50.578125 22.984375 -52.609375 C 27.253906 -54.648438 32.070312 -55.671875 37.4375 -55.671875 C 42.539062 -55.671875 46.691406 -54.601562 49.890625 -52.46875 C 53.097656 -50.332031 55.175781 -47.222656 56.125 -43.140625 L 47.609375 -38.5625 L 46.703125 -38.59375 C 45.878906 -41.21875 44.570312 -43.160156 42.78125 -44.421875 C 40.988281 -45.691406 38.539062 -46.328125 35.4375 -46.328125 C 30.882812 -46.328125 27.007812 -44.835938 23.8125 -41.859375 C 20.625 -38.878906 18.367188 -34.222656 17.046875 -27.890625 C 16.441406 -25.085938 16.140625 -22.613281 16.140625 -20.46875 C 16.140625 -16.351562 17.128906 -13.34375 19.109375 -11.4375 C 21.085938 -9.539062 23.851562 -8.59375 27.40625 -8.59375 C 30.4375 -8.59375 33.160156 -9.441406 35.578125 -11.140625 C 37.992188 -12.847656 40.148438 -15.476562 42.046875 -19.03125 L 42.984375 -19.03125 L 50.796875 -14.828125 C 49.191406 -11.097656 47.265625 -8.09375 45.015625 -5.8125 C 42.765625 -3.539062 40.101562 -1.875 37.03125 -0.8125 C 33.96875 0.25 30.347656 0.78125 26.171875 0.78125 Z M 26.171875 0.78125 "/></g></g></g><g fill="#000000" fill-opacity="1"><g transform="translate(316.087048, 182.981025)"><g><path d="M 26.46875 0.78125 C 22.1875 0.78125 18.445312 0 15.25 -1.5625 C 12.0625 -3.125 9.585938 -5.476562 7.828125 -8.625 C 6.066406 -11.78125 5.1875 -15.675781 5.1875 -20.3125 C 5.1875 -23.1875 5.535156 -26.300781 6.234375 -29.65625 C 7.429688 -35.3125 9.429688 -40.085938 12.234375 -43.984375 C 15.035156 -47.878906 18.46875 -50.800781 22.53125 -52.75 C 26.601562 -54.695312 31.171875 -55.671875 36.234375 -55.671875 C 40.554688 -55.671875 44.3125 -54.894531 47.5 -53.34375 C 50.695312 -51.789062 53.164062 -49.453125 54.90625 -46.328125 C 56.644531 -43.203125 57.515625 -39.335938 57.515625 -34.734375 C 57.515625 -31.722656 57.148438 -28.554688 56.421875 -25.234375 C 55.222656 -19.546875 53.238281 -14.757812 50.46875 -10.875 C 47.707031 -7 44.300781 -4.085938 40.25 -2.140625 C 36.195312 -0.191406 31.601562 0.78125 26.46875 0.78125 Z M 27.375 -8.640625 C 32 -8.640625 35.863281 -10.164062 38.96875 -13.21875 C 42.070312 -16.269531 44.3125 -21.007812 45.6875 -27.4375 C 46.21875 -29.914062 46.484375 -32.160156 46.484375 -34.171875 C 46.484375 -38.066406 45.523438 -41.0625 43.609375 -43.15625 C 41.691406 -45.25 38.941406 -46.296875 35.359375 -46.296875 C 30.734375 -46.296875 26.851562 -44.757812 23.71875 -41.6875 C 20.59375 -38.625 18.34375 -33.875 16.96875 -27.4375 C 16.445312 -25.007812 16.1875 -22.785156 16.1875 -20.765625 C 16.1875 -16.835938 17.148438 -13.832031 19.078125 -11.75 C 21.003906 -9.675781 23.769531 -8.640625 27.375 -8.640625 Z M 27.375 -8.640625 "/></g></g></g><g fill="#000000" fill-opacity="1"><g transform="translate(375.887743, 182.981025)"><g><path d="M 33.640625 -54.890625 C 38.492188 -54.890625 42.613281 -54.046875 46 -52.359375 C 49.394531 -50.671875 51.960938 -48.253906 53.703125 -45.109375 C 55.441406 -41.960938 56.3125 -38.210938 56.3125 -33.859375 C 56.3125 -31.429688 56 -28.691406 55.375 -25.640625 C 53.570312 -17.203125 49.992188 -10.816406 44.640625 -6.484375 C 39.285156 -2.160156 31.898438 0 22.484375 0 L 2.734375 0 L 14.375 -54.890625 Z M 44.5625 -27.4375 C 45.039062 -29.644531 45.28125 -31.675781 45.28125 -33.53125 C 45.28125 -37.632812 44.113281 -40.695312 41.78125 -42.71875 C 39.457031 -44.75 36.054688 -45.765625 31.578125 -45.765625 L 23.28125 -45.765625 L 15.546875 -9.125 L 23.765625 -9.125 C 29.316406 -9.125 33.828125 -10.570312 37.296875 -13.46875 C 40.765625 -16.375 43.1875 -21.03125 44.5625 -27.4375 Z M 44.5625 -27.4375 "/></g></g></g><g fill="#000000" fill-opacity="1"><g transform="translate(434.562248, 182.981025)"><g><path d="M 50.828125 -54.890625 L 48.921875 -45.796875 L 23.3125 -45.796875 L 20.578125 -32.96875 L 42.953125 -32.96875 L 41.078125 -24.109375 L 18.703125 -24.109375 L 15.5 -9.078125 L 41.71875 -9.078125 L 39.796875 0 L 2.734375 0 L 14.375 -54.890625 Z M 50.828125 -54.890625 "/></g></g></g><g fill="#000000" fill-opacity="1"><g transform="translate(481.749625, 182.981025)"><g><path d="M 7.4375 0.34375 C 6.101562 0.34375 4.929688 0.0703125 3.921875 -0.46875 C 2.910156 -1.007812 2.132812 -1.753906 1.59375 -2.703125 C 1.050781 -3.648438 0.78125 -4.726562 0.78125 -5.9375 C 0.78125 -7.132812 1.050781 -8.207031 1.59375 -9.15625 C 2.132812 -10.113281 2.910156 -10.863281 3.921875 -11.40625 C 4.929688 -11.957031 6.101562 -12.234375 7.4375 -12.234375 C 8.789062 -12.234375 9.972656 -11.960938 10.984375 -11.421875 C 11.992188 -10.890625 12.765625 -10.144531 13.296875 -9.1875 C 13.835938 -8.238281 14.109375 -7.164062 14.109375 -5.96875 C 14.109375 -4.144531 13.5 -2.632812 12.28125 -1.4375 C 11.070312 -0.25 9.457031 0.34375 7.4375 0.34375 Z M 13.703125 -29.234375 C 12.367188 -29.234375 11.195312 -29.503906 10.1875 -30.046875 C 9.175781 -30.585938 8.398438 -31.332031 7.859375 -32.28125 C 7.316406 -33.226562 7.046875 -34.304688 7.046875 -35.515625 C 7.046875 -36.710938 7.316406 -37.785156 7.859375 -38.734375 C 8.398438 -39.691406 9.175781 -40.441406 10.1875 -40.984375 C 11.195312 -41.535156 12.367188 -41.8125 13.703125 -41.8125 C 15.054688 -41.8125 16.238281 -41.539062 17.25 -41 C 18.257812 -40.46875 19.03125 -39.722656 19.5625 -38.765625 C 20.101562 -37.816406 20.375 -36.742188 20.375 -35.546875 C 20.375 -33.722656 19.765625 -32.210938 18.546875 -31.015625 C 17.335938 -29.828125 15.722656 -29.234375 13.703125 -29.234375 Z M 13.703125 -29.234375 "/></g></g></g><g fill="#000000" fill-opacity="1"><g transform="translate(502.9508, 182.981025)"><g/></g></g><g fill="#000000" fill-opacity="1"><g transform="translate(261.80922, 536.341096)"><g><path d="M 62.359375 -27.96875 L 21.796875 -27.96875 C 22.253906 -22.476562 23.816406 -18.484375 26.484375 -15.984375 C 29.148438 -13.484375 32.789062 -12.234375 37.40625 -12.234375 C 41.03125 -12.234375 43.96875 -12.910156 46.21875 -14.265625 C 48.46875 -15.617188 50.28125 -17.671875 51.65625 -20.421875 L 52.859375 -20.421875 L 63.390625 -13.671875 C 61.328125 -9.242188 58.21875 -5.65625 54.0625 -2.90625 C 49.90625 -0.164062 44.351562 1.203125 37.40625 1.203125 C 30.882812 1.203125 25.25 -0.0351562 20.5 -2.515625 C 15.757812 -4.992188 12.097656 -8.679688 9.515625 -13.578125 C 6.941406 -18.484375 5.65625 -24.460938 5.65625 -31.515625 C 5.65625 -38.691406 7.007812 -44.738281 9.71875 -49.65625 C 12.425781 -54.570312 16.085938 -58.238281 20.703125 -60.65625 C 25.316406 -63.082031 30.503906 -64.296875 36.265625 -64.296875 C 45.191406 -64.296875 52.023438 -61.929688 56.765625 -57.203125 C 61.515625 -52.472656 63.890625 -45.53125 63.890625 -36.375 C 63.890625 -33.0625 63.78125 -30.488281 63.5625 -28.65625 Z M 48.734375 -38.21875 C 48.585938 -43.019531 47.472656 -46.515625 45.390625 -48.703125 C 43.316406 -50.898438 40.273438 -52 36.265625 -52 C 28.253906 -52 23.546875 -47.40625 22.140625 -38.21875 Z M 48.734375 -38.21875 "/></g></g></g><g fill="#000000" fill-opacity="1"><g transform="translate(350.195324, 536.341096)"><g><path d="M 16.984375 -70.640625 C 14.128906 -70.640625 11.804688 -71.507812 10.015625 -73.25 C 8.222656 -74.988281 7.328125 -77.226562 7.328125 -79.96875 C 7.328125 -82.675781 8.222656 -84.894531 10.015625 -86.625 C 11.804688 -88.363281 14.128906 -89.234375 16.984375 -89.234375 C 18.890625 -89.234375 20.585938 -88.832031 22.078125 -88.03125 C 23.566406 -87.238281 24.71875 -86.144531 25.53125 -84.75 C 26.351562 -83.351562 26.765625 -81.757812 26.765625 -79.96875 C 26.765625 -78.175781 26.351562 -76.570312 25.53125 -75.15625 C 24.71875 -73.75 23.566406 -72.644531 22.078125 -71.84375 C 20.585938 -71.039062 18.890625 -70.640625 16.984375 -70.640625 Z M 9.09375 0 L 9.09375 -63.09375 L 24.9375 -63.09375 L 24.9375 0 Z M 9.09375 0 "/></g></g></g><g fill="#000000" fill-opacity="1"><g transform="translate(403.974256, 536.341096)"><g><path d="M 31.171875 1.203125 C 26.179688 1.203125 21.769531 -0.00390625 17.9375 -2.421875 C 14.101562 -4.847656 11.097656 -8.507812 8.921875 -13.40625 C 6.742188 -18.3125 5.65625 -24.347656 5.65625 -31.515625 C 5.65625 -38.722656 6.769531 -44.773438 9 -49.671875 C 11.238281 -54.578125 14.332031 -58.238281 18.28125 -60.65625 C 22.226562 -63.082031 26.796875 -64.296875 31.984375 -64.296875 C 35.910156 -64.296875 39.3125 -63.617188 42.1875 -62.265625 C 45.070312 -60.910156 47.503906 -58.804688 49.484375 -55.953125 L 50.6875 -56.234375 L 50.6875 -88.4375 L 66.53125 -88.4375 L 66.53125 0 L 50.6875 0 L 50.6875 -8.1875 L 49.484375 -8.40625 C 47.722656 -5.4375 45.316406 -3.09375 42.265625 -1.375 C 39.222656 0.34375 35.523438 1.203125 31.171875 1.203125 Z M 36.328125 -12.234375 C 40.785156 -12.234375 44.3125 -13.828125 46.90625 -17.015625 C 49.5 -20.203125 50.796875 -25.035156 50.796875 -31.515625 C 50.796875 -38.003906 49.5 -42.847656 46.90625 -46.046875 C 44.3125 -49.253906 40.785156 -50.859375 36.328125 -50.859375 C 31.671875 -50.859375 28.113281 -49.300781 25.65625 -46.1875 C 23.195312 -43.082031 21.96875 -38.191406 21.96875 -31.515625 C 21.96875 -24.878906 23.195312 -20.003906 25.65625 -16.890625 C 28.113281 -13.785156 31.671875 -12.234375 36.328125 -12.234375 Z M 36.328125 -12.234375 "/></g></g></g><g fill="#000000" fill-opacity="1"><g transform="translate(499.396175, 536.341096)"><g><path d="M 36.671875 1.203125 C 30.492188 1.203125 25.066406 -0.0625 20.390625 -2.59375 C 15.722656 -5.132812 12.097656 -8.851562 9.515625 -13.75 C 6.941406 -18.65625 5.65625 -24.578125 5.65625 -31.515625 C 5.65625 -38.460938 6.941406 -44.394531 9.515625 -49.3125 C 12.097656 -54.226562 15.722656 -57.953125 20.390625 -60.484375 C 25.066406 -63.023438 30.492188 -64.296875 36.671875 -64.296875 C 42.847656 -64.296875 48.269531 -63.023438 52.9375 -60.484375 C 57.613281 -57.953125 61.25 -54.226562 63.84375 -49.3125 C 66.4375 -44.394531 67.734375 -38.460938 67.734375 -31.515625 C 67.734375 -24.578125 66.4375 -18.65625 63.84375 -13.75 C 61.25 -8.851562 57.613281 -5.132812 52.9375 -2.59375 C 48.269531 -0.0625 42.847656 1.203125 36.671875 1.203125 Z M 36.671875 -12.234375 C 46.472656 -12.234375 51.375 -18.660156 51.375 -31.515625 C 51.375 -38.191406 50.113281 -43.082031 47.59375 -46.1875 C 45.070312 -49.300781 41.429688 -50.859375 36.671875 -50.859375 C 26.867188 -50.859375 21.96875 -44.410156 21.96875 -31.515625 C 21.96875 -18.660156 26.867188 -12.234375 36.671875 -12.234375 Z M 36.671875 -12.234375 "/></g></g></g><g fill="#000000" fill-opacity="1"><g transform="translate(592.530009, 536.341096)"><g><path d="M 29.515625 1.203125 C 25.203125 1.203125 21.253906 0.695312 17.671875 -0.3125 C 14.085938 -1.320312 11.023438 -2.710938 8.484375 -4.484375 C 5.953125 -6.265625 4.078125 -8.296875 2.859375 -10.578125 L 11.671875 -20.078125 L 12.875 -20.078125 C 14.96875 -17.253906 17.441406 -15.132812 20.296875 -13.71875 C 23.160156 -12.3125 26.269531 -11.609375 29.625 -11.609375 C 32.71875 -11.609375 35.046875 -12.160156 36.609375 -13.265625 C 38.171875 -14.378906 38.953125 -15.960938 38.953125 -18.015625 C 38.953125 -19.617188 38.390625 -20.960938 37.265625 -22.046875 C 36.140625 -23.140625 34.320312 -23.988281 31.8125 -24.59375 L 23.453125 -26.59375 C 17.203125 -28.082031 12.632812 -30.363281 9.75 -33.4375 C 6.875 -36.507812 5.4375 -40.410156 5.4375 -45.140625 C 5.4375 -49.066406 6.4375 -52.476562 8.4375 -55.375 C 10.4375 -58.269531 13.257812 -60.476562 16.90625 -62 C 20.550781 -63.53125 24.789062 -64.296875 29.625 -64.296875 C 35.3125 -64.296875 40.023438 -63.472656 43.765625 -61.828125 C 47.503906 -60.191406 50.421875 -58.003906 52.515625 -55.265625 L 44.046875 -46.109375 L 42.90625 -46.109375 C 41.144531 -48.085938 39.164062 -49.535156 36.96875 -50.453125 C 34.78125 -51.367188 32.332031 -51.828125 29.625 -51.828125 C 23.375 -51.828125 20.25 -49.882812 20.25 -46 C 20.25 -44.351562 20.828125 -43.015625 21.984375 -41.984375 C 23.148438 -40.953125 25.203125 -40.113281 28.140625 -39.46875 L 35.921875 -37.75 C 42.328125 -36.382812 47.007812 -34.179688 49.96875 -31.140625 C 52.925781 -28.109375 54.40625 -24.039062 54.40625 -18.9375 C 54.40625 -14.925781 53.410156 -11.394531 51.421875 -8.34375 C 49.441406 -5.300781 46.582031 -2.945312 42.84375 -1.28125 C 39.101562 0.375 34.660156 1.203125 29.515625 1.203125 Z M 29.515625 1.203125 "/></g></g></g><g fill="#000000" fill-opacity="1"><g transform="translate(670.505388, 536.341096)"><g><path d="M 36.78125 1.203125 C 30.675781 1.203125 25.28125 -0.0625 20.59375 -2.59375 C 15.90625 -5.132812 12.242188 -8.863281 9.609375 -13.78125 C 6.972656 -18.707031 5.65625 -24.617188 5.65625 -31.515625 C 5.65625 -38.460938 6.972656 -44.394531 9.609375 -49.3125 C 12.242188 -54.226562 15.882812 -57.953125 20.53125 -60.484375 C 25.1875 -63.023438 30.507812 -64.296875 36.5 -64.296875 C 49.8125 -64.296875 58.332031 -59.472656 62.0625 -49.828125 L 51.203125 -42.046875 L 50 -42.046875 C 48.695312 -45.023438 47.003906 -47.238281 44.921875 -48.6875 C 42.847656 -50.132812 40.039062 -50.859375 36.5 -50.859375 C 31.914062 -50.859375 28.347656 -49.273438 25.796875 -46.109375 C 23.242188 -42.941406 21.96875 -38.078125 21.96875 -31.515625 C 21.96875 -25.035156 23.265625 -20.203125 25.859375 -17.015625 C 28.453125 -13.828125 32.09375 -12.234375 36.78125 -12.234375 C 40.21875 -12.234375 43.125 -13.160156 45.5 -15.015625 C 47.882812 -16.867188 49.59375 -19.53125 50.625 -23 L 51.828125 -23.109375 L 63.09375 -16.9375 C 61.488281 -11.59375 58.519531 -7.234375 54.1875 -3.859375 C 49.863281 -0.484375 44.0625 1.203125 36.78125 1.203125 Z M 36.78125 1.203125 "/></g></g></g><g fill="#000000" fill-opacity="1"><g transform="translate(755.344969, 536.341096)"><g><path d="M 36.671875 1.203125 C 30.492188 1.203125 25.066406 -0.0625 20.390625 -2.59375 C 15.722656 -5.132812 12.097656 -8.851562 9.515625 -13.75 C 6.941406 -18.65625 5.65625 -24.578125 5.65625 -31.515625 C 5.65625 -38.460938 6.941406 -44.394531 9.515625 -49.3125 C 12.097656 -54.226562 15.722656 -57.953125 20.390625 -60.484375 C 25.066406 -63.023438 30.492188 -64.296875 36.671875 -64.296875 C 42.847656 -64.296875 48.269531 -63.023438 52.9375 -60.484375 C 57.613281 -57.953125 61.25 -54.226562 63.84375 -49.3125 C 66.4375 -44.394531 67.734375 -38.460938 67.734375 -31.515625 C 67.734375 -24.578125 66.4375 -18.65625 63.84375 -13.75 C 61.25 -8.851562 57.613281 -5.132812 52.9375 -2.59375 C 48.269531 -0.0625 42.847656 1.203125 36.671875 1.203125 Z M 36.671875 -12.234375 C 46.472656 -12.234375 51.375 -18.660156 51.375 -31.515625 C 51.375 -38.191406 50.113281 -43.082031 47.59375 -46.1875 C 45.070312 -49.300781 41.429688 -50.859375 36.671875 -50.859375 C 26.867188 -50.859375 21.96875 -44.410156 21.96875 -31.515625 C 21.96875 -18.660156 26.867188 -12.234375 36.671875 -12.234375 Z M 36.671875 -12.234375 "/></g></g></g><g fill="#000000" fill-opacity="1"><g transform="translate(848.478803, 536.341096)"><g><path d="M 9.09375 25.578125 L 9.09375 -63.09375 L 24.9375 -63.09375 L 24.9375 -54.859375 L 26.140625 -54.625 C 28.015625 -57.832031 30.515625 -60.242188 33.640625 -61.859375 C 36.765625 -63.484375 40.425781 -64.296875 44.625 -64.296875 C 49.695312 -64.296875 54.128906 -63.09375 57.921875 -60.6875 C 61.710938 -58.289062 64.664062 -54.640625 66.78125 -49.734375 C 68.90625 -44.835938 69.96875 -38.765625 69.96875 -31.515625 C 69.96875 -24.304688 68.847656 -18.257812 66.609375 -13.375 C 64.378906 -8.5 61.28125 -4.847656 57.3125 -2.421875 C 53.351562 -0.00390625 48.78125 1.203125 43.59375 1.203125 C 39.664062 1.203125 36.269531 0.546875 33.40625 -0.765625 C 30.550781 -2.085938 28.128906 -4.140625 26.140625 -6.921875 L 24.9375 -6.6875 L 24.9375 25.578125 Z M 39.1875 -12.234375 C 43.914062 -12.234375 47.5 -13.78125 49.9375 -16.875 C 52.375 -19.96875 53.59375 -24.847656 53.59375 -31.515625 C 53.59375 -38.191406 52.375 -43.082031 49.9375 -46.1875 C 47.5 -49.300781 43.914062 -50.859375 39.1875 -50.859375 C 34.757812 -50.859375 31.25 -49.253906 28.65625 -46.046875 C 26.0625 -42.847656 24.765625 -38.003906 24.765625 -31.515625 C 24.765625 -25.078125 26.0625 -20.253906 28.65625 -17.046875 C 31.25 -13.835938 34.757812 -12.234375 39.1875 -12.234375 Z M 39.1875 -12.234375 "/></g></g></g><g fill="#000000" fill-opacity="1"><g transform="translate(943.843531, 536.341096)"><g><path d="M 62.359375 -27.96875 L 21.796875 -27.96875 C 22.253906 -22.476562 23.816406 -18.484375 26.484375 -15.984375 C 29.148438 -13.484375 32.789062 -12.234375 37.40625 -12.234375 C 41.03125 -12.234375 43.96875 -12.910156 46.21875 -14.265625 C 48.46875 -15.617188 50.28125 -17.671875 51.65625 -20.421875 L 52.859375 -20.421875 L 63.390625 -13.671875 C 61.328125 -9.242188 58.21875 -5.65625 54.0625 -2.90625 C 49.90625 -0.164062 44.351562 1.203125 37.40625 1.203125 C 30.882812 1.203125 25.25 -0.0351562 20.5 -2.515625 C 15.757812 -4.992188 12.097656 -8.679688 9.515625 -13.578125 C 6.941406 -18.484375 5.65625 -24.460938 5.65625 -31.515625 C 5.65625 -38.691406 7.007812 -44.738281 9.71875 -49.65625 C 12.425781 -54.570312 16.085938 -58.238281 20.703125 -60.65625 C 25.316406 -63.082031 30.503906 -64.296875 36.265625 -64.296875 C 45.191406 -64.296875 52.023438 -61.929688 56.765625 -57.203125 C 61.515625 -52.472656 63.890625 -45.53125 63.890625 -36.375 C 63.890625 -33.0625 63.78125 -30.488281 63.5625 -28.65625 Z M 48.734375 -38.21875 C 48.585938 -43.019531 47.472656 -46.515625 45.390625 -48.703125 C 43.316406 -50.898438 40.273438 -52 36.265625 -52 C 28.253906 -52 23.546875 -47.40625 22.140625 -38.21875 Z M 48.734375 -38.21875 "/></g></g></g><g fill="#000000" fill-opacity="1"><g transform="translate(1032.181087, 536.341096)"><g/></g></g><g clip-path="url(#2019410a8a)"><path stroke-linecap="butt" transform="matrix(3.13837, 0, 0, 3.13837, 72.333065, -26.489952)" fill="none" stroke-linejoin="miter" d="M 44.763149 177.375381 C 36.425074 177.375381 30.209169 175.413774 26.114189 171.489314 C 22.019209 167.5661 19.97172 161.534407 19.97172 153.39299 L 19.97172 129.925894 C 19.97172 126.591411 19.273457 124.22404 17.875688 122.827515 C 16.477918 121.429745 14.110547 120.730238 10.776063 120.730238 L 5.920588 120.730238 L 5.920588 104.914157 L 10.776063 104.914157 C 14.110547 104.914157 16.477918 104.21465 17.875688 102.816881 C 19.273457 101.419111 19.97172 99.052985 19.97172 95.718501 L 19.97172 72.251406 C 19.97172 64.109989 22.019209 58.078295 26.114189 54.155081 C 30.209169 50.230622 36.425074 48.269015 44.763149 48.269015 L 54.325984 48.269015 L 54.325984 63.791352 L 48.514598 63.791352 C 45.375529 63.791352 43.095285 64.514508 41.673867 65.962065 C 40.251204 67.408377 39.540494 69.847939 39.540494 73.280751 L 39.540494 93.069834 C 39.540494 98.61237 38.547244 102.829327 36.560743 105.723196 C 34.574243 108.617064 31.497407 110.725543 27.327747 112.049877 L 27.327747 113.594518 C 31.497407 114.918852 34.574243 117.027331 36.560743 119.921199 C 38.547244 122.815068 39.540494 127.032026 39.540494 132.574562 L 39.540494 152.363644 C 39.540494 155.796457 40.251204 158.236019 41.673867 159.682331 C 43.095285 161.129887 45.375529 161.853043 48.514598 161.853043 L 54.325984 161.853043 L 54.325984 177.375381 Z M 44.763149 177.375381 " stroke="#ffffff" stroke-width="11.300025" stroke-opacity="1" stroke-miterlimit="4"/></g><g fill="#000000" fill-opacity="1"><g transform="translate(72.676325, 481.926048)"><g><path d="M 140.140625 48.25 C 113.972656 48.25 94.460938 42.09375 81.609375 29.78125 C 68.753906 17.46875 62.328125 -1.460938 62.328125 -27.015625 L 62.328125 -100.65625 C 62.328125 -111.125 60.132812 -118.550781 55.75 -122.9375 C 51.363281 -127.320312 43.941406 -129.515625 33.484375 -129.515625 L 18.234375 -129.515625 L 18.234375 -179.15625 L 33.484375 -179.15625 C 43.941406 -179.15625 51.363281 -181.347656 55.75 -185.734375 C 60.132812 -190.117188 62.328125 -197.546875 62.328125 -208.015625 L 62.328125 -281.671875 C 62.328125 -307.210938 68.753906 -326.140625 81.609375 -338.453125 C 94.460938 -350.773438 113.972656 -356.9375 140.140625 -356.9375 L 170.15625 -356.9375 L 170.15625 -308.21875 L 151.921875 -308.21875 C 142.066406 -308.21875 134.90625 -305.945312 130.4375 -301.40625 C 125.976562 -296.863281 123.75 -289.207031 123.75 -278.4375 L 123.75 -216.328125 C 123.75 -198.929688 120.628906 -185.691406 114.390625 -176.609375 C 108.160156 -167.535156 98.503906 -160.921875 85.421875 -156.765625 L 85.421875 -151.921875 C 98.503906 -147.765625 108.160156 -141.144531 114.390625 -132.0625 C 120.628906 -122.976562 123.75 -109.738281 123.75 -92.34375 L 123.75 -30.25 C 123.75 -19.46875 125.976562 -11.804688 130.4375 -7.265625 C 134.90625 -2.734375 142.066406 -0.46875 151.921875 -0.46875 L 170.15625 -0.46875 L 170.15625 48.25 Z M 140.140625 48.25 "/></g></g></g><g fill="#000000" fill-opacity="1"><g transform="translate(1027.37938, 553.978098)"><g><path d="M 71.203125 -41.28125 L 7.859375 -15.875 L 7.859375 -33.90625 L 47.8125 -49.015625 L 47.8125 -50.484375 L 7.859375 -65.578125 L 7.859375 -83.546875 L 71.203125 -58.140625 Z M 71.203125 -41.28125 "/></g></g></g></svg>