<svg xmlns="http://www.w3.org/2000/svg" xmlns:xlink="http://www.w3.org/1999/xlink" width="500" zoomAndPan="magnify" viewBox="0 0 375 374.999991" height="500" preserveAspectRatio="xMidYMid meet" version="1.0"><defs><clipPath id="1b0b5e7c6a"><path d="M 278 0 L 351.140625 0 L 351.140625 73 L 278 73 Z M 278 0 " clip-rule="nonzero"/></clipPath><clipPath id="a99e9728fd"><path d="M 72 0 L 351.140625 0 L 351.140625 375 L 72 375 Z M 72 0 " clip-rule="nonzero"/></clipPath><clipPath id="e6c87ffad6"><path d="M 284 72 L 351.140625 72 L 351.140625 85 L 284 85 Z M 284 72 " clip-rule="nonzero"/></clipPath><clipPath id="87efdbb293"><path d="M 24.140625 18 L 243 18 L 243 115 L 24.140625 115 Z M 24.140625 18 " clip-rule="nonzero"/></clipPath></defs><g clip-path="url(#1b0b5e7c6a)"><path fill="#59caff" d="M 278.445312 0 L 351.085938 72.582031 L 278.445312 72.582031 Z M 278.445312 0 " fill-opacity="1" fill-rule="nonzero"/></g><g clip-path="url(#a99e9728fd)"><path fill="#0096dc" d="M 351.085938 72.582031 L 351.085938 375 L 72.621094 375 L 72.621094 0 L 278.445312 0 L 278.445312 72.582031 Z M 351.085938 72.582031 " fill-opacity="1" fill-rule="nonzero"/></g><path fill="#006bc0" d="M 84.730469 48.386719 L 84.730469 338.710938 C 84.730469 339.503906 84.769531 340.292969 84.847656 341.082031 C 84.925781 341.871094 85.039062 342.652344 85.195312 343.429688 C 85.347656 344.207031 85.542969 344.972656 85.773438 345.734375 C 86.003906 346.492188 86.269531 347.234375 86.574219 347.96875 C 86.875 348.699219 87.214844 349.414062 87.589844 350.113281 C 87.960938 350.8125 88.371094 351.492188 88.808594 352.152344 C 89.25 352.808594 89.722656 353.445312 90.226562 354.058594 C 90.730469 354.671875 91.261719 355.257812 91.820312 355.816406 C 92.382812 356.378906 92.96875 356.910156 93.582031 357.410156 C 94.195312 357.914062 94.832031 358.386719 95.492188 358.824219 C 96.152344 359.265625 96.828125 359.671875 97.53125 360.046875 C 98.230469 360.421875 98.945312 360.757812 99.675781 361.0625 C 100.410156 361.363281 101.15625 361.632812 101.914062 361.863281 C 102.671875 362.089844 103.441406 362.285156 104.21875 362.4375 C 104.996094 362.59375 105.78125 362.710938 106.570312 362.785156 C 107.359375 362.863281 108.152344 362.902344 108.945312 362.902344 L 314.765625 362.902344 C 315.558594 362.902344 316.351562 362.863281 317.140625 362.785156 C 317.929688 362.710938 318.710938 362.59375 319.488281 362.4375 C 320.269531 362.285156 321.035156 362.089844 321.796875 361.863281 C 322.554688 361.632812 323.300781 361.363281 324.03125 361.0625 C 324.765625 360.757812 325.480469 360.421875 326.179688 360.046875 C 326.878906 359.671875 327.558594 359.265625 328.21875 358.824219 C 328.878906 358.386719 329.515625 357.914062 330.128906 357.410156 C 330.742188 356.910156 331.328125 356.378906 331.886719 355.816406 C 332.449219 355.257812 332.980469 354.671875 333.484375 354.058594 C 333.988281 353.445312 334.457031 352.808594 334.898438 352.152344 C 335.339844 351.492188 335.746094 350.8125 336.121094 350.113281 C 336.496094 349.414062 336.832031 348.699219 337.136719 347.96875 C 337.441406 347.234375 337.707031 346.492188 337.9375 345.734375 C 338.167969 344.972656 338.359375 344.207031 338.515625 343.429688 C 338.667969 342.652344 338.785156 341.871094 338.863281 341.082031 C 338.941406 340.292969 338.980469 339.503906 338.980469 338.710938 L 338.980469 325.867188 C 84.730469 310.214844 84.730469 48.386719 84.730469 48.386719 Z M 84.730469 48.386719 " fill-opacity="1" fill-rule="nonzero"/><g clip-path="url(#e6c87ffad6)"><path fill="#005599" d="M 284.5 72.582031 L 351.085938 72.582031 L 351.085938 84.675781 L 284.5 84.675781 Z M 284.5 72.582031 " fill-opacity="1" fill-rule="nonzero"/></g><g clip-path="url(#87efdbb293)"><path fill="#006bc0" d="M 24.195312 18.144531 L 242.121094 18.144531 L 242.121094 114.917969 L 24.195312 114.917969 Z M 24.195312 18.144531 " fill-opacity="1" fill-rule="nonzero"/></g><path fill="#005599" d="M 72.621094 114.917969 L 230.015625 114.917969 L 230.015625 133.066406 L 72.621094 133.066406 Z M 72.621094 114.917969 " fill-opacity="1" fill-rule="nonzero"/><path fill="#ffffff" d="M 169.480469 308.46875 L 163.425781 308.46875 C 162.433594 308.464844 161.445312 308.417969 160.460938 308.320312 C 159.472656 308.222656 158.496094 308.074219 157.523438 307.878906 C 156.550781 307.6875 155.59375 307.445312 154.644531 307.15625 C 153.695312 306.871094 152.765625 306.535156 151.847656 306.15625 C 150.933594 305.777344 150.039062 305.351562 149.164062 304.886719 C 148.292969 304.417969 147.441406 303.910156 146.617188 303.359375 C 145.796875 302.808594 145 302.21875 144.234375 301.59375 C 143.46875 300.964844 142.734375 300.300781 142.035156 299.597656 C 141.332031 298.898438 140.667969 298.167969 140.039062 297.402344 C 139.410156 296.636719 138.820312 295.84375 138.269531 295.019531 C 137.71875 294.195312 137.210938 293.347656 136.742188 292.472656 C 136.277344 291.601562 135.851562 290.707031 135.472656 289.792969 C 135.09375 288.878906 134.757812 287.949219 134.46875 287 C 134.179688 286.054688 133.941406 285.09375 133.746094 284.125 C 133.550781 283.152344 133.40625 282.175781 133.308594 281.1875 C 133.210938 280.203125 133.160156 279.214844 133.160156 278.226562 L 133.160156 260.082031 C 132.898438 259.289062 131.609375 258.550781 130.675781 258.007812 C 127.785156 256.457031 125.164062 254.539062 122.804688 252.261719 C 122.527344 251.980469 122.273438 251.671875 122.054688 251.34375 C 121.832031 251.011719 121.648438 250.664062 121.496094 250.296875 C 121.34375 249.929688 121.226562 249.554688 121.152344 249.164062 C 121.074219 248.773438 121.035156 248.382812 121.035156 247.984375 C 121.035156 247.585938 121.074219 247.195312 121.152344 246.804688 C 121.226562 246.414062 121.34375 246.035156 121.496094 245.667969 C 121.648438 245.304688 121.832031 244.953125 122.054688 244.625 C 122.273438 244.292969 122.527344 243.988281 122.804688 243.707031 C 125.164062 241.425781 127.785156 239.511719 130.675781 237.960938 C 131.554688 237.5 132.382812 236.957031 133.160156 236.335938 L 133.160156 217.742188 C 133.160156 216.75 133.210938 215.765625 133.308594 214.777344 C 133.40625 213.792969 133.550781 212.816406 133.746094 211.84375 C 133.941406 210.875 134.179688 209.914062 134.46875 208.96875 C 134.757812 208.019531 135.09375 207.089844 135.472656 206.175781 C 135.851562 205.261719 136.277344 204.367188 136.742188 203.492188 C 137.210938 202.621094 137.71875 201.773438 138.269531 200.949219 C 138.820312 200.125 139.410156 199.332031 140.039062 198.566406 C 140.667969 197.800781 141.332031 197.070312 142.035156 196.367188 C 142.734375 195.667969 143.46875 195.003906 144.234375 194.375 C 145 193.746094 145.796875 193.15625 146.617188 192.609375 C 147.441406 192.058594 148.292969 191.546875 149.164062 191.082031 C 150.039062 190.613281 150.933594 190.191406 151.847656 189.8125 C 152.765625 189.433594 153.695312 189.097656 154.644531 188.808594 C 155.59375 188.523438 156.550781 188.28125 157.523438 188.085938 C 158.496094 187.894531 159.472656 187.746094 160.460938 187.648438 C 161.445312 187.550781 162.433594 187.5 163.425781 187.5 L 169.480469 187.5 L 169.480469 199.597656 L 163.425781 199.597656 C 162.832031 199.597656 162.238281 199.625 161.644531 199.683594 C 161.054688 199.742188 160.464844 199.828125 159.882812 199.945312 C 159.300781 200.0625 158.722656 200.207031 158.15625 200.378906 C 157.585938 200.550781 157.027344 200.75 156.476562 200.976562 C 155.925781 201.207031 155.390625 201.460938 154.867188 201.738281 C 154.339844 202.019531 153.832031 202.324219 153.335938 202.65625 C 152.84375 202.984375 152.363281 203.339844 151.90625 203.714844 C 151.445312 204.09375 151.003906 204.492188 150.585938 204.910156 C 150.164062 205.332031 149.765625 205.769531 149.386719 206.230469 C 149.011719 206.691406 148.65625 207.167969 148.324219 207.660156 C 147.996094 208.15625 147.691406 208.664062 147.410156 209.1875 C 147.128906 209.710938 146.875 210.25 146.648438 210.796875 C 146.421875 211.347656 146.21875 211.90625 146.046875 212.476562 C 145.875 213.042969 145.730469 213.617188 145.613281 214.203125 C 145.5 214.785156 145.410156 215.371094 145.351562 215.964844 C 145.292969 216.554688 145.265625 217.148438 145.265625 217.742188 L 145.265625 235.886719 C 145.269531 237.160156 145.09375 238.410156 144.738281 239.632812 C 144.378906 240.855469 143.859375 242.003906 143.171875 243.078125 C 142.484375 244.148438 141.65625 245.101562 140.695312 245.9375 C 139.730469 246.773438 138.671875 247.453125 137.511719 247.984375 C 138.671875 248.511719 139.730469 249.195312 140.695312 250.03125 C 141.65625 250.863281 142.484375 251.820312 143.171875 252.890625 C 143.859375 253.964844 144.378906 255.113281 144.738281 256.335938 C 145.09375 257.558594 145.269531 258.808594 145.265625 260.082031 L 145.265625 278.226562 C 145.265625 278.820312 145.292969 279.414062 145.351562 280.003906 C 145.410156 280.597656 145.5 281.183594 145.613281 281.765625 C 145.730469 282.347656 145.875 282.925781 146.046875 283.492188 C 146.21875 284.0625 146.421875 284.621094 146.648438 285.167969 C 146.875 285.71875 147.128906 286.253906 147.410156 286.78125 C 147.691406 287.304688 147.996094 287.8125 148.324219 288.308594 C 148.65625 288.800781 149.011719 289.277344 149.386719 289.738281 C 149.765625 290.195312 150.164062 290.636719 150.585938 291.054688 C 151.003906 291.476562 151.445312 291.875 151.90625 292.253906 C 152.363281 292.628906 152.84375 292.984375 153.335938 293.3125 C 153.832031 293.644531 154.339844 293.949219 154.867188 294.226562 C 155.390625 294.507812 155.925781 294.761719 156.476562 294.988281 C 157.027344 295.21875 157.585938 295.417969 158.15625 295.589844 C 158.722656 295.761719 159.300781 295.90625 159.882812 296.023438 C 160.464844 296.136719 161.054688 296.226562 161.644531 296.285156 C 162.238281 296.34375 162.832031 296.371094 163.425781 296.371094 L 169.480469 296.371094 Z M 169.480469 308.46875 " fill-opacity="1" fill-rule="nonzero"/><path fill="#ffffff" d="M 260.285156 308.46875 L 254.230469 308.46875 L 254.230469 296.371094 L 260.285156 296.371094 C 260.878906 296.371094 261.472656 296.34375 262.0625 296.285156 C 262.65625 296.226562 263.242188 296.136719 263.828125 296.023438 C 264.410156 295.90625 264.988281 295.761719 265.554688 295.589844 C 266.125 295.417969 266.683594 295.21875 267.234375 294.988281 C 267.78125 294.761719 268.320312 294.507812 268.84375 294.226562 C 269.371094 293.949219 269.878906 293.644531 270.375 293.3125 C 270.867188 292.984375 271.34375 292.628906 271.804688 292.253906 C 272.265625 291.875 272.703125 291.476562 273.125 291.054688 C 273.546875 290.636719 273.945312 290.195312 274.320312 289.738281 C 274.699219 289.277344 275.054688 288.800781 275.382812 288.308594 C 275.714844 287.8125 276.019531 287.304688 276.300781 286.78125 C 276.582031 286.253906 276.835938 285.71875 277.0625 285.167969 C 277.289062 284.621094 277.488281 284.0625 277.664062 283.492188 C 277.835938 282.925781 277.980469 282.347656 278.09375 281.765625 C 278.210938 281.183594 278.296875 280.597656 278.355469 280.003906 C 278.414062 279.414062 278.445312 278.820312 278.445312 278.226562 L 278.445312 260.082031 C 278.441406 258.808594 278.617188 257.558594 278.972656 256.335938 C 279.328125 255.113281 279.851562 253.964844 280.539062 252.890625 C 281.226562 251.820312 282.050781 250.863281 283.015625 250.03125 C 283.976562 249.195312 285.039062 248.511719 286.199219 247.984375 C 285.039062 247.453125 283.976562 246.773438 283.015625 245.9375 C 282.050781 245.101562 281.226562 244.148438 280.539062 243.078125 C 279.851562 242.003906 279.328125 240.855469 278.972656 239.632812 C 278.617188 238.410156 278.441406 237.160156 278.445312 235.886719 L 278.445312 217.742188 C 278.445312 217.148438 278.414062 216.554688 278.355469 215.964844 C 278.296875 215.371094 278.210938 214.785156 278.09375 214.203125 C 277.980469 213.617188 277.835938 213.042969 277.664062 212.476562 C 277.488281 211.90625 277.289062 211.347656 277.0625 210.796875 C 276.835938 210.25 276.582031 209.710938 276.300781 209.1875 C 276.019531 208.664062 275.714844 208.15625 275.382812 207.660156 C 275.054688 207.167969 274.699219 206.691406 274.320312 206.230469 C 273.945312 205.769531 273.546875 205.332031 273.125 204.910156 C 272.703125 204.492188 272.265625 204.09375 271.804688 203.714844 C 271.34375 203.339844 270.867188 202.984375 270.375 202.65625 C 269.878906 202.324219 269.371094 202.019531 268.84375 201.738281 C 268.320312 201.460938 267.78125 201.207031 267.234375 200.976562 C 266.683594 200.75 266.125 200.550781 265.554688 200.378906 C 264.988281 200.207031 264.410156 200.0625 263.828125 199.945312 C 263.242188 199.828125 262.65625 199.742188 262.0625 199.683594 C 261.472656 199.625 260.878906 199.597656 260.285156 199.597656 L 254.230469 199.597656 L 254.230469 187.5 L 260.285156 187.5 C 261.273438 187.5 262.261719 187.550781 263.25 187.648438 C 264.234375 187.746094 265.214844 187.894531 266.1875 188.085938 C 267.15625 188.28125 268.117188 188.523438 269.066406 188.808594 C 270.015625 189.097656 270.945312 189.433594 271.859375 189.8125 C 272.777344 190.191406 273.671875 190.613281 274.542969 191.082031 C 275.417969 191.546875 276.265625 192.058594 277.089844 192.609375 C 277.914062 193.15625 278.710938 193.746094 279.476562 194.375 C 280.242188 195.003906 280.976562 195.667969 281.675781 196.367188 C 282.375 197.070312 283.042969 197.800781 283.671875 198.566406 C 284.300781 199.332031 284.890625 200.125 285.441406 200.949219 C 285.992188 201.773438 286.5 202.621094 286.96875 203.492188 C 287.433594 204.367188 287.859375 205.261719 288.238281 206.175781 C 288.617188 207.089844 288.953125 208.019531 289.238281 208.96875 C 289.527344 209.914062 289.769531 210.875 289.964844 211.84375 C 290.160156 212.816406 290.304688 213.792969 290.402344 214.777344 C 290.5 215.765625 290.550781 216.75 290.550781 217.742188 L 290.550781 235.886719 C 290.8125 236.679688 292.101562 237.417969 293.035156 237.960938 C 295.925781 239.511719 298.546875 241.425781 300.902344 243.707031 C 301.183594 243.988281 301.433594 244.292969 301.65625 244.625 C 301.875 244.953125 302.0625 245.304688 302.214844 245.667969 C 302.367188 246.035156 302.480469 246.414062 302.558594 246.804688 C 302.636719 247.195312 302.675781 247.585938 302.675781 247.984375 C 302.675781 248.382812 302.636719 248.773438 302.558594 249.164062 C 302.480469 249.554688 302.367188 249.929688 302.214844 250.296875 C 302.0625 250.664062 301.875 251.011719 301.65625 251.34375 C 301.433594 251.671875 301.183594 251.980469 300.902344 252.261719 C 298.546875 254.539062 295.925781 256.457031 293.035156 258.007812 C 292.148438 258.464844 291.3125 259.007812 290.535156 259.632812 L 290.550781 278.226562 C 290.550781 279.214844 290.5 280.203125 290.402344 281.1875 C 290.304688 282.175781 290.160156 283.152344 289.964844 284.125 C 289.769531 285.09375 289.527344 286.054688 289.238281 287 C 288.953125 287.949219 288.617188 288.878906 288.238281 289.792969 C 287.859375 290.707031 287.433594 291.601562 286.96875 292.472656 C 286.5 293.347656 285.992188 294.195312 285.441406 295.019531 C 284.890625 295.84375 284.300781 296.636719 283.671875 297.402344 C 283.042969 298.167969 282.375 298.898438 281.675781 299.597656 C 280.976562 300.300781 280.242188 300.964844 279.476562 301.59375 C 278.710938 302.21875 277.914062 302.808594 277.089844 303.359375 C 276.265625 303.910156 275.417969 304.417969 274.542969 304.886719 C 273.671875 305.351562 272.777344 305.777344 271.859375 306.15625 C 270.945312 306.535156 270.015625 306.871094 269.066406 307.15625 C 268.117188 307.445312 267.15625 307.6875 266.1875 307.878906 C 265.214844 308.074219 264.234375 308.222656 263.25 308.320312 C 262.261719 308.417969 261.273438 308.464844 260.285156 308.46875 Z M 260.285156 308.46875 " fill-opacity="1" fill-rule="nonzero"/><path fill="#005599" d="M 278.445312 302.417969 C 277.035156 304.296875 275.425781 305.984375 273.621094 307.488281 C 271.816406 308.992188 269.863281 310.265625 267.761719 311.316406 C 265.664062 312.367188 263.46875 313.160156 261.183594 313.703125 C 258.898438 314.242188 256.578125 314.515625 254.230469 314.515625 L 248.175781 314.515625 L 248.175781 302.417969 L 254.230469 302.417969 L 254.230469 308.46875 L 260.285156 308.46875 C 263.558594 308.480469 266.753906 307.96875 269.863281 306.933594 C 272.96875 305.898438 275.832031 304.394531 278.445312 302.417969 Z M 278.445312 302.417969 " fill-opacity="1" fill-rule="nonzero"/><path fill="#005599" d="M 279.714844 254.273438 C 278.824219 256.109375 278.402344 258.042969 278.445312 260.082031 L 278.445312 278.226562 C 278.441406 279.78125 278.238281 281.308594 277.84375 282.8125 C 277.445312 284.316406 276.867188 285.746094 276.101562 287.101562 C 275.339844 288.457031 274.417969 289.695312 273.339844 290.8125 C 272.257812 291.933594 271.054688 292.898438 269.726562 293.710938 C 271.503906 290.816406 272.390625 287.671875 272.390625 284.273438 L 272.390625 266.128906 C 272.378906 264.894531 272.539062 263.6875 272.871094 262.5 C 273.199219 261.3125 273.691406 260.191406 274.339844 259.144531 C 274.988281 258.09375 275.769531 257.15625 276.683594 256.328125 C 277.597656 255.5 278.609375 254.816406 279.714844 254.273438 Z M 279.714844 254.273438 " fill-opacity="1" fill-rule="nonzero"/><path fill="#005599" d="M 296.242188 256.027344 C 295.976562 256.914062 295.511719 257.679688 294.851562 258.328125 C 293.523438 259.644531 292.089844 260.835938 290.550781 261.894531 L 290.550781 259.65625 C 291.316406 259.019531 292.144531 258.476562 293.035156 258.023438 C 294.144531 257.425781 295.214844 256.761719 296.242188 256.027344 Z M 296.242188 256.027344 " fill-opacity="1" fill-rule="nonzero"/><path fill="#005599" d="M 286.191406 247.984375 C 283.53125 249.359375 281.429688 251.335938 279.898438 253.910156 C 278.769531 253.371094 277.738281 252.683594 276.804688 251.847656 C 275.875 251.015625 275.074219 250.066406 274.410156 249.007812 C 273.746094 247.949219 273.242188 246.816406 272.898438 245.613281 C 272.554688 244.414062 272.386719 243.1875 272.390625 241.933594 L 272.390625 223.789062 C 272.390625 223.195312 272.359375 222.605469 272.296875 222.011719 C 272.238281 221.421875 272.148438 220.835938 272.03125 220.253906 C 271.914062 219.671875 271.769531 219.097656 271.597656 218.527344 C 271.421875 217.960938 271.222656 217.402344 270.992188 216.855469 C 270.765625 216.308594 270.511719 215.769531 270.230469 215.246094 C 269.949219 214.722656 269.644531 214.214844 269.3125 213.722656 C 268.984375 213.230469 268.628906 212.753906 268.253906 212.292969 C 267.875 211.835938 267.476562 211.394531 267.054688 210.976562 C 266.636719 210.554688 266.195312 210.15625 265.738281 209.78125 C 265.277344 209.402344 264.800781 209.050781 264.308594 208.71875 C 263.8125 208.390625 263.304688 208.085938 262.78125 207.804688 C 262.257812 207.523438 261.71875 207.269531 261.171875 207.039062 C 260.621094 206.8125 260.0625 206.613281 259.496094 206.4375 C 258.925781 206.265625 258.351562 206.121094 257.769531 206.003906 C 257.1875 205.886719 256.601562 205.796875 256.007812 205.738281 C 255.417969 205.675781 254.824219 205.648438 254.230469 205.644531 L 248.175781 205.644531 L 248.175781 193.546875 L 254.230469 193.546875 L 254.230469 199.597656 L 260.285156 199.597656 C 260.878906 199.597656 261.472656 199.628906 262.0625 199.6875 C 262.652344 199.75 263.242188 199.835938 263.824219 199.953125 C 264.40625 200.070312 264.980469 200.21875 265.550781 200.390625 C 266.117188 200.5625 266.675781 200.765625 267.226562 200.992188 C 267.773438 201.21875 268.308594 201.476562 268.832031 201.753906 C 269.359375 202.035156 269.867188 202.339844 270.359375 202.671875 C 270.855469 203 271.332031 203.355469 271.789062 203.730469 C 272.25 204.109375 272.6875 204.507812 273.109375 204.925781 C 273.53125 205.347656 273.929688 205.785156 274.304688 206.246094 C 274.683594 206.703125 275.035156 207.179688 275.367188 207.671875 C 275.699219 208.167969 276.003906 208.675781 276.285156 209.199219 C 276.566406 209.722656 276.820312 210.257812 277.046875 210.804688 C 277.277344 211.355469 277.476562 211.914062 277.648438 212.480469 C 277.824219 213.046875 277.96875 213.625 278.085938 214.207031 C 278.203125 214.789062 278.292969 215.375 278.351562 215.964844 C 278.410156 216.554688 278.441406 217.148438 278.445312 217.742188 L 278.445312 235.886719 C 278.441406 237.160156 278.617188 238.410156 278.972656 239.628906 C 279.332031 240.851562 279.851562 242 280.539062 243.074219 C 281.226562 244.144531 282.050781 245.101562 283.011719 245.933594 C 283.972656 246.769531 285.035156 247.453125 286.191406 247.984375 Z M 286.191406 247.984375 " fill-opacity="1" fill-rule="nonzero"/><path fill="#005599" d="M 163.425781 308.46875 L 163.425781 314.515625 L 157.371094 314.515625 C 156.382812 314.515625 155.390625 314.46875 154.40625 314.371094 C 153.417969 314.273438 152.441406 314.128906 151.46875 313.933594 C 150.496094 313.742188 149.535156 313.5 148.585938 313.214844 C 147.636719 312.925781 146.707031 312.59375 145.789062 312.214844 C 144.875 311.835938 143.980469 311.410156 143.105469 310.945312 C 142.230469 310.476562 141.382812 309.96875 140.558594 309.417969 C 139.730469 308.867188 138.9375 308.28125 138.171875 307.652344 C 137.40625 307.023438 136.671875 306.359375 135.96875 305.660156 C 135.269531 304.957031 134.605469 304.226562 133.976562 303.460938 C 133.347656 302.695312 132.757812 301.898438 132.207031 301.074219 C 131.65625 300.253906 131.144531 299.402344 130.679688 298.53125 C 130.210938 297.65625 129.789062 296.761719 129.410156 295.847656 C 129.03125 294.933594 128.695312 294 128.40625 293.054688 C 128.121094 292.105469 127.878906 291.144531 127.6875 290.175781 C 127.492188 289.203125 127.347656 288.222656 127.25 287.238281 C 127.152344 286.253906 127.105469 285.265625 127.105469 284.273438 L 127.105469 266.128906 C 126.863281 265.34375 125.53125 264.617188 124.621094 264.074219 C 121.742188 262.507812 119.117188 260.59375 116.753906 258.328125 C 116.472656 258.042969 116.222656 257.738281 116 257.40625 C 115.78125 257.074219 115.59375 256.722656 115.441406 256.355469 C 115.289062 255.984375 115.175781 255.605469 115.097656 255.214844 C 115.019531 254.824219 114.984375 254.429688 114.984375 254.03125 C 114.984375 253.632812 115.019531 253.238281 115.097656 252.847656 C 115.175781 252.457031 115.289062 252.078125 115.441406 251.710938 C 115.59375 251.339844 115.78125 250.992188 116 250.660156 C 116.222656 250.328125 116.472656 250.019531 116.753906 249.738281 C 118.195312 248.347656 119.746094 247.097656 121.414062 245.988281 C 121.21875 246.523438 121.101562 247.078125 121.0625 247.644531 C 121.023438 248.214844 121.066406 248.777344 121.1875 249.335938 C 121.3125 249.894531 121.511719 250.421875 121.785156 250.921875 C 122.0625 251.421875 122.402344 251.875 122.804688 252.277344 C 125.171875 254.546875 127.796875 256.460938 130.675781 258.023438 C 131.585938 258.570312 132.917969 259.292969 133.160156 260.082031 L 133.160156 278.226562 C 133.160156 279.214844 133.207031 280.203125 133.304688 281.191406 C 133.402344 282.175781 133.546875 283.152344 133.738281 284.125 C 133.933594 285.097656 134.175781 286.058594 134.460938 287.003906 C 134.75 287.953125 135.082031 288.882812 135.460938 289.796875 C 135.839844 290.714844 136.265625 291.609375 136.730469 292.480469 C 137.199219 293.355469 137.707031 294.203125 138.257812 295.027344 C 138.808594 295.851562 139.398438 296.644531 140.027344 297.410156 C 140.65625 298.175781 141.324219 298.910156 142.023438 299.609375 C 142.722656 300.308594 143.457031 300.976562 144.222656 301.601562 C 144.992188 302.230469 145.785156 302.820312 146.609375 303.371094 C 147.433594 303.921875 148.285156 304.429688 149.15625 304.898438 C 150.03125 305.363281 150.925781 305.785156 151.84375 306.164062 C 152.757812 306.542969 153.691406 306.878906 154.640625 307.164062 C 155.589844 307.453125 156.550781 307.695312 157.519531 307.886719 C 158.492188 308.078125 159.472656 308.226562 160.460938 308.320312 C 161.445312 308.417969 162.433594 308.46875 163.425781 308.46875 Z M 163.425781 308.46875 " fill-opacity="1" fill-rule="nonzero"/><path fill="#005599" d="M 139.210938 199.597656 C 137.234375 202.207031 135.730469 205.066406 134.691406 208.171875 C 133.65625 211.277344 133.144531 214.46875 133.160156 217.742188 L 133.160156 236.308594 C 132.390625 236.945312 131.566406 237.492188 130.675781 237.945312 C 129.648438 238.546875 128.4375 239.273438 127.105469 240.121094 L 127.105469 223.789062 C 127.105469 221.441406 127.378906 219.128906 127.917969 216.84375 C 128.460938 214.558594 129.257812 212.367188 130.304688 210.269531 C 131.355469 208.167969 132.632812 206.21875 134.140625 204.414062 C 135.644531 202.613281 137.335938 201.007812 139.210938 199.597656 Z M 139.210938 199.597656 " fill-opacity="1" fill-rule="nonzero"/><path fill="#005599" d="M 163.425781 199.597656 L 163.425781 205.644531 L 157.371094 205.644531 C 153.972656 205.644531 150.824219 206.53125 147.929688 208.304688 C 148.742188 206.980469 149.707031 205.777344 150.828125 204.699219 C 151.949219 203.621094 153.1875 202.699219 154.542969 201.9375 C 155.898438 201.175781 157.328125 200.59375 158.835938 200.199219 C 160.339844 199.800781 161.871094 199.601562 163.425781 199.597656 Z M 163.425781 199.597656 " fill-opacity="1" fill-rule="nonzero"/><path fill="#ffffff" d="M 127.105469 96.773438 C 107.949219 96.773438 102.890625 84.90625 102.890625 78.628906 L 108.945312 78.628906 L 114.996094 78.453125 C 115.070312 79.492188 115.964844 84.675781 127.105469 84.675781 C 127.503906 84.675781 127.894531 84.636719 128.285156 84.5625 C 128.675781 84.484375 129.054688 84.367188 129.421875 84.21875 C 129.789062 84.066406 130.136719 83.878906 130.46875 83.65625 C 130.796875 83.4375 131.105469 83.1875 131.386719 82.90625 C 131.667969 82.625 131.917969 82.320312 132.136719 81.988281 C 132.359375 81.660156 132.546875 81.308594 132.699219 80.945312 C 132.847656 80.578125 132.964844 80.199219 133.042969 79.808594 C 133.121094 79.417969 133.160156 79.027344 133.160156 78.628906 C 133.160156 78.230469 133.121094 77.839844 133.042969 77.449219 C 132.964844 77.058594 132.847656 76.679688 132.699219 76.3125 C 132.546875 75.949219 132.359375 75.597656 132.136719 75.269531 C 131.917969 74.9375 131.667969 74.632812 131.386719 74.351562 C 131.105469 74.070312 130.796875 73.820312 130.46875 73.601562 C 130.136719 73.378906 129.789062 73.191406 129.421875 73.042969 C 129.054688 72.890625 128.675781 72.773438 128.285156 72.695312 C 127.894531 72.621094 127.503906 72.582031 127.105469 72.582031 L 121.050781 72.582031 C 120.457031 72.582031 119.863281 72.550781 119.269531 72.492188 C 118.679688 72.433594 118.089844 72.347656 117.507812 72.230469 C 116.925781 72.117188 116.347656 71.972656 115.777344 71.800781 C 115.210938 71.625 114.652344 71.425781 114.101562 71.199219 C 113.550781 70.972656 113.015625 70.71875 112.488281 70.4375 C 111.964844 70.15625 111.457031 69.851562 110.960938 69.523438 C 110.46875 69.191406 109.988281 68.839844 109.53125 68.460938 C 109.070312 68.085938 108.628906 67.6875 108.210938 67.265625 C 107.789062 66.847656 107.390625 66.40625 107.011719 65.945312 C 106.636719 65.488281 106.28125 65.011719 105.949219 64.515625 C 105.621094 64.023438 105.316406 63.511719 105.035156 62.988281 C 104.753906 62.464844 104.5 61.929688 104.273438 61.378906 C 104.046875 60.832031 103.84375 60.269531 103.671875 59.703125 C 103.5 59.132812 103.355469 58.558594 103.238281 57.976562 C 103.125 57.390625 103.035156 56.804688 102.976562 56.214844 C 102.917969 55.621094 102.890625 55.03125 102.890625 54.433594 C 102.890625 53.839844 102.917969 53.25 102.976562 52.65625 C 103.035156 52.066406 103.125 51.476562 103.238281 50.894531 C 103.355469 50.3125 103.5 49.738281 103.671875 49.167969 C 103.84375 48.597656 104.046875 48.039062 104.273438 47.492188 C 104.5 46.941406 104.753906 46.40625 105.035156 45.882812 C 105.316406 45.359375 105.621094 44.847656 105.949219 44.355469 C 106.28125 43.859375 106.636719 43.382812 107.011719 42.925781 C 107.390625 42.464844 107.789062 42.023438 108.210938 41.605469 C 108.628906 41.183594 109.070312 40.785156 109.53125 40.410156 C 109.988281 40.03125 110.46875 39.679688 110.960938 39.347656 C 111.457031 39.019531 111.964844 38.714844 112.488281 38.433594 C 113.015625 38.152344 113.550781 37.898438 114.101562 37.671875 C 114.652344 37.445312 115.210938 37.246094 115.777344 37.070312 C 116.347656 36.898438 116.925781 36.753906 117.507812 36.640625 C 118.089844 36.523438 118.679688 36.4375 119.269531 36.378906 C 119.863281 36.320312 120.457031 36.289062 121.050781 36.289062 C 140.203125 36.289062 145.265625 48.15625 145.265625 54.433594 L 133.160156 54.433594 C 133.089844 53.570312 132.195312 48.386719 121.050781 48.386719 C 120.652344 48.386719 120.261719 48.425781 119.871094 48.503906 C 119.480469 48.582031 119.101562 48.695312 118.734375 48.847656 C 118.367188 49 118.019531 49.1875 117.6875 49.40625 C 117.355469 49.628906 117.050781 49.878906 116.769531 50.160156 C 116.488281 50.4375 116.238281 50.746094 116.019531 51.074219 C 115.796875 51.40625 115.609375 51.753906 115.457031 52.121094 C 115.304688 52.488281 115.191406 52.867188 115.113281 53.253906 C 115.035156 53.644531 114.996094 54.039062 114.996094 54.433594 C 114.996094 54.832031 115.035156 55.226562 115.113281 55.617188 C 115.191406 56.003906 115.304688 56.382812 115.457031 56.75 C 115.609375 57.117188 115.796875 57.464844 116.019531 57.796875 C 116.238281 58.125 116.488281 58.429688 116.769531 58.710938 C 117.050781 58.992188 117.355469 59.242188 117.6875 59.464844 C 118.019531 59.683594 118.367188 59.871094 118.734375 60.023438 C 119.101562 60.175781 119.480469 60.289062 119.871094 60.367188 C 120.261719 60.445312 120.652344 60.484375 121.050781 60.484375 L 127.105469 60.484375 C 127.699219 60.484375 128.292969 60.511719 128.882812 60.570312 C 129.476562 60.628906 130.0625 60.714844 130.648438 60.832031 C 131.230469 60.949219 131.808594 61.09375 132.375 61.265625 C 132.945312 61.4375 133.503906 61.636719 134.054688 61.863281 C 134.605469 62.09375 135.140625 62.347656 135.664062 62.625 C 136.191406 62.90625 136.699219 63.210938 137.195312 63.542969 C 137.6875 63.871094 138.164062 64.226562 138.625 64.601562 C 139.085938 64.980469 139.527344 65.378906 139.945312 65.796875 C 140.367188 66.21875 140.765625 66.660156 141.144531 67.117188 C 141.519531 67.578125 141.875 68.054688 142.203125 68.546875 C 142.535156 69.042969 142.839844 69.550781 143.121094 70.074219 C 143.402344 70.597656 143.65625 71.136719 143.882812 71.683594 C 144.109375 72.234375 144.3125 72.792969 144.484375 73.363281 C 144.65625 73.929688 144.800781 74.507812 144.917969 75.089844 C 145.03125 75.671875 145.121094 76.257812 145.179688 76.851562 C 145.234375 77.441406 145.265625 78.035156 145.265625 78.628906 C 145.265625 79.222656 145.234375 79.816406 145.179688 80.40625 C 145.121094 81 145.03125 81.585938 144.917969 82.167969 C 144.800781 82.75 144.65625 83.328125 144.484375 83.894531 C 144.3125 84.464844 144.109375 85.023438 143.882812 85.574219 C 143.65625 86.121094 143.402344 86.660156 143.121094 87.183594 C 142.839844 87.707031 142.535156 88.214844 142.203125 88.710938 C 141.875 89.203125 141.519531 89.679688 141.144531 90.140625 C 140.765625 90.597656 140.367188 91.039062 139.945312 91.460938 C 139.527344 91.878906 139.085938 92.277344 138.625 92.65625 C 138.164062 93.03125 137.6875 93.386719 137.195312 93.714844 C 136.699219 94.046875 136.191406 94.351562 135.664062 94.632812 C 135.140625 94.910156 134.605469 95.164062 134.054688 95.394531 C 133.503906 95.621094 132.945312 95.820312 132.375 95.992188 C 131.808594 96.164062 131.230469 96.308594 130.648438 96.425781 C 130.0625 96.542969 129.476562 96.628906 128.882812 96.6875 C 128.292969 96.746094 127.699219 96.773438 127.105469 96.773438 Z M 127.105469 96.773438 " fill-opacity="1" fill-rule="nonzero"/><path fill="#08449e" d="M 136.546875 94.113281 C 135.734375 95.4375 134.769531 96.640625 133.648438 97.722656 C 132.527344 98.800781 131.289062 99.722656 129.933594 100.484375 C 128.578125 101.246094 127.148438 101.824219 125.640625 102.222656 C 124.136719 102.617188 122.605469 102.816406 121.050781 102.824219 C 101.921875 102.824219 96.835938 90.96875 96.835938 84.675781 L 104.222656 84.675781 C 106.703125 90.484375 113.179688 96.773438 127.105469 96.773438 C 130.503906 96.777344 133.652344 95.886719 136.546875 94.113281 Z M 136.546875 94.113281 " fill-opacity="1" fill-rule="nonzero"/><path fill="#08449e" d="M 133.160156 78.628906 C 133.160156 79.027344 133.121094 79.417969 133.042969 79.808594 C 132.964844 80.199219 132.847656 80.578125 132.699219 80.945312 C 132.546875 81.308594 132.359375 81.660156 132.136719 81.988281 C 131.917969 82.320312 131.667969 82.625 131.386719 82.90625 C 131.105469 83.1875 130.796875 83.4375 130.46875 83.65625 C 130.136719 83.878906 129.789062 84.066406 129.421875 84.21875 C 129.054688 84.367188 128.675781 84.484375 128.285156 84.5625 C 127.894531 84.636719 127.503906 84.675781 127.105469 84.675781 C 127.105469 84.28125 127.066406 83.886719 126.988281 83.496094 C 126.910156 83.109375 126.796875 82.730469 126.644531 82.363281 C 126.492188 81.996094 126.304688 81.648438 126.085938 81.316406 C 125.863281 80.988281 125.613281 80.679688 125.332031 80.402344 C 125.050781 80.121094 124.746094 79.867188 124.414062 79.648438 C 124.082031 79.425781 123.734375 79.242188 123.367188 79.089844 C 123 78.9375 122.621094 78.824219 122.230469 78.746094 C 121.84375 78.667969 121.449219 78.628906 121.050781 78.628906 L 114.996094 78.628906 L 114.996094 78.449219 L 113.179688 78.507812 L 113.121094 78.507812 C 112.183594 78.40625 111.261719 78.234375 110.351562 77.992188 C 109.441406 77.75 108.554688 77.4375 107.695312 77.054688 C 106.832031 76.675781 106.007812 76.226562 105.214844 75.71875 C 104.421875 75.207031 103.675781 74.640625 102.972656 74.015625 C 102.269531 73.390625 101.617188 72.710938 101.019531 71.984375 C 100.421875 71.257812 99.882812 70.488281 99.40625 69.679688 C 98.925781 68.867188 98.515625 68.023438 98.167969 67.148438 C 97.820312 66.273438 97.542969 65.378906 97.335938 64.460938 C 97.128906 63.542969 96.992188 62.613281 96.929688 61.671875 C 96.867188 60.734375 96.878906 59.796875 96.960938 58.859375 C 97.046875 57.921875 97.203125 56.996094 97.429688 56.082031 C 97.65625 55.167969 97.953125 54.277344 98.320312 53.410156 C 98.6875 52.546875 99.117188 51.710938 99.613281 50.910156 C 100.109375 50.109375 100.664062 49.355469 101.277344 48.640625 C 101.890625 47.925781 102.558594 47.265625 103.273438 46.652344 C 103.992188 46.042969 104.75 45.492188 105.554688 45 C 104.714844 46.375 104.074219 47.835938 103.625 49.382812 C 103.175781 50.929688 102.9375 52.503906 102.910156 54.117188 C 102.878906 55.726562 103.0625 57.308594 103.457031 58.871094 C 103.851562 60.433594 104.441406 61.914062 105.230469 63.316406 C 106.019531 64.722656 106.976562 66 108.105469 67.148438 C 109.234375 68.296875 110.496094 69.277344 111.886719 70.089844 C 113.273438 70.90625 114.746094 71.523438 116.300781 71.945312 C 117.855469 72.367188 119.441406 72.578125 121.050781 72.582031 L 127.105469 72.582031 C 127.503906 72.582031 127.894531 72.621094 128.285156 72.695312 C 128.675781 72.773438 129.054688 72.890625 129.421875 73.042969 C 129.789062 73.191406 130.136719 73.378906 130.46875 73.601562 C 130.796875 73.820312 131.105469 74.070312 131.386719 74.351562 C 131.667969 74.632812 131.917969 74.9375 132.136719 75.269531 C 132.359375 75.597656 132.546875 75.949219 132.699219 76.3125 C 132.847656 76.679688 132.964844 77.058594 133.042969 77.449219 C 133.121094 77.839844 133.160156 78.230469 133.160156 78.628906 Z M 133.160156 78.628906 " fill-opacity="1" fill-rule="nonzero"/><path fill="#08449e" d="M 139.210938 60.484375 L 127.105469 60.484375 C 127.042969 59.636719 126.136719 54.433594 114.996094 54.433594 C 114.996094 54.039062 115.035156 53.644531 115.113281 53.253906 C 115.191406 52.867188 115.304688 52.488281 115.457031 52.121094 C 115.609375 51.753906 115.796875 51.40625 116.019531 51.074219 C 116.238281 50.746094 116.488281 50.4375 116.769531 50.160156 C 117.050781 49.878906 117.355469 49.628906 117.6875 49.40625 C 118.019531 49.1875 118.367188 49 118.734375 48.847656 C 119.101562 48.695312 119.480469 48.582031 119.871094 48.503906 C 120.261719 48.425781 120.652344 48.386719 121.050781 48.386719 C 132.191406 48.386719 133.097656 53.589844 133.160156 54.433594 L 137.878906 54.433594 C 138.742188 56.359375 139.1875 58.375 139.210938 60.484375 Z M 139.210938 60.484375 " fill-opacity="1" fill-rule="nonzero"/><path fill="#ffffff" d="M 181.585938 96.773438 C 162.433594 96.773438 157.371094 84.90625 157.371094 78.628906 L 163.425781 78.628906 L 169.480469 78.453125 C 169.550781 79.492188 170.449219 84.675781 181.585938 84.675781 C 181.984375 84.675781 182.378906 84.636719 182.769531 84.5625 C 183.15625 84.484375 183.535156 84.367188 183.902344 84.21875 C 184.269531 84.066406 184.621094 83.878906 184.949219 83.65625 C 185.28125 83.4375 185.585938 83.1875 185.867188 82.90625 C 186.148438 82.625 186.398438 82.320312 186.621094 81.988281 C 186.839844 81.660156 187.027344 81.308594 187.179688 80.945312 C 187.332031 80.578125 187.445312 80.199219 187.523438 79.808594 C 187.601562 79.417969 187.640625 79.027344 187.640625 78.628906 C 187.640625 78.230469 187.601562 77.839844 187.523438 77.449219 C 187.445312 77.058594 187.332031 76.679688 187.179688 76.3125 C 187.027344 75.949219 186.839844 75.597656 186.621094 75.269531 C 186.398438 74.9375 186.148438 74.632812 185.867188 74.351562 C 185.585938 74.070312 185.28125 73.820312 184.949219 73.601562 C 184.621094 73.378906 184.269531 73.191406 183.902344 73.042969 C 183.535156 72.890625 183.15625 72.773438 182.769531 72.695312 C 182.378906 72.621094 181.984375 72.582031 181.585938 72.582031 L 175.535156 72.582031 C 174.9375 72.582031 174.34375 72.550781 173.753906 72.492188 C 173.160156 72.433594 172.574219 72.347656 171.992188 72.230469 C 171.40625 72.117188 170.832031 71.972656 170.261719 71.800781 C 169.691406 71.625 169.132812 71.425781 168.582031 71.199219 C 168.035156 70.972656 167.496094 70.71875 166.972656 70.4375 C 166.449219 70.15625 165.9375 69.851562 165.445312 69.523438 C 164.949219 69.191406 164.472656 68.839844 164.011719 68.460938 C 163.550781 68.085938 163.113281 67.6875 162.691406 67.265625 C 162.269531 66.847656 161.871094 66.40625 161.496094 65.945312 C 161.117188 65.488281 160.765625 65.011719 160.433594 64.515625 C 160.101562 64.023438 159.796875 63.511719 159.515625 62.988281 C 159.238281 62.464844 158.984375 61.929688 158.753906 61.378906 C 158.527344 60.832031 158.328125 60.269531 158.15625 59.703125 C 157.980469 59.132812 157.835938 58.558594 157.722656 57.976562 C 157.605469 57.390625 157.519531 56.804688 157.460938 56.214844 C 157.402344 55.621094 157.371094 55.03125 157.371094 54.433594 C 157.371094 53.839844 157.402344 53.25 157.460938 52.65625 C 157.519531 52.066406 157.605469 51.476562 157.722656 50.894531 C 157.835938 50.3125 157.980469 49.738281 158.15625 49.167969 C 158.328125 48.597656 158.527344 48.039062 158.753906 47.492188 C 158.984375 46.941406 159.238281 46.40625 159.515625 45.882812 C 159.796875 45.359375 160.101562 44.847656 160.433594 44.355469 C 160.765625 43.859375 161.117188 43.382812 161.496094 42.925781 C 161.871094 42.464844 162.269531 42.023438 162.691406 41.605469 C 163.113281 41.183594 163.550781 40.785156 164.011719 40.410156 C 164.472656 40.03125 164.949219 39.679688 165.445312 39.347656 C 165.9375 39.019531 166.449219 38.714844 166.972656 38.433594 C 167.496094 38.152344 168.035156 37.898438 168.582031 37.671875 C 169.132812 37.445312 169.691406 37.246094 170.261719 37.070312 C 170.832031 36.898438 171.40625 36.753906 171.992188 36.640625 C 172.574219 36.523438 173.160156 36.4375 173.753906 36.378906 C 174.34375 36.320312 174.9375 36.289062 175.535156 36.289062 C 194.6875 36.289062 199.746094 48.15625 199.746094 54.433594 L 187.640625 54.433594 C 187.574219 53.570312 186.679688 48.386719 175.535156 48.386719 C 175.136719 48.386719 174.742188 48.425781 174.351562 48.503906 C 173.960938 48.582031 173.585938 48.695312 173.21875 48.847656 C 172.847656 49 172.5 49.1875 172.171875 49.40625 C 171.839844 49.628906 171.535156 49.878906 171.253906 50.160156 C 170.972656 50.4375 170.722656 50.746094 170.5 51.074219 C 170.277344 51.40625 170.09375 51.753906 169.941406 52.121094 C 169.789062 52.488281 169.671875 52.867188 169.597656 53.253906 C 169.519531 53.644531 169.480469 54.039062 169.480469 54.433594 C 169.480469 54.832031 169.519531 55.226562 169.597656 55.617188 C 169.671875 56.003906 169.789062 56.382812 169.941406 56.75 C 170.09375 57.117188 170.277344 57.464844 170.5 57.796875 C 170.722656 58.125 170.972656 58.429688 171.253906 58.710938 C 171.535156 58.992188 171.839844 59.242188 172.171875 59.464844 C 172.5 59.683594 172.847656 59.871094 173.21875 60.023438 C 173.585938 60.175781 173.960938 60.289062 174.351562 60.367188 C 174.742188 60.445312 175.136719 60.484375 175.535156 60.484375 L 181.585938 60.484375 C 182.183594 60.484375 182.773438 60.511719 183.367188 60.570312 C 183.960938 60.628906 184.546875 60.714844 185.128906 60.832031 C 185.714844 60.949219 186.289062 61.09375 186.859375 61.265625 C 187.429688 61.4375 187.988281 61.636719 188.535156 61.863281 C 189.085938 62.09375 189.625 62.347656 190.148438 62.625 C 190.671875 62.90625 191.183594 63.210938 191.675781 63.542969 C 192.171875 63.871094 192.648438 64.226562 193.109375 64.601562 C 193.566406 64.980469 194.007812 65.378906 194.429688 65.796875 C 194.847656 66.21875 195.25 66.660156 195.625 67.117188 C 196.003906 67.578125 196.355469 68.054688 196.6875 68.546875 C 197.019531 69.042969 197.324219 69.550781 197.601562 70.074219 C 197.882812 70.597656 198.136719 71.136719 198.367188 71.683594 C 198.59375 72.234375 198.792969 72.792969 198.964844 73.363281 C 199.136719 73.929688 199.28125 74.507812 199.398438 75.089844 C 199.515625 75.671875 199.601562 76.257812 199.660156 76.851562 C 199.71875 77.441406 199.746094 78.035156 199.746094 78.628906 C 199.746094 79.222656 199.71875 79.816406 199.660156 80.40625 C 199.601562 81 199.515625 81.585938 199.398438 82.167969 C 199.28125 82.75 199.136719 83.328125 198.964844 83.894531 C 198.792969 84.464844 198.59375 85.023438 198.367188 85.574219 C 198.136719 86.121094 197.882812 86.660156 197.601562 87.183594 C 197.324219 87.707031 197.019531 88.214844 196.6875 88.710938 C 196.355469 89.203125 196.003906 89.679688 195.625 90.140625 C 195.25 90.597656 194.847656 91.039062 194.429688 91.460938 C 194.007812 91.878906 193.566406 92.277344 193.109375 92.65625 C 192.648438 93.03125 192.171875 93.386719 191.675781 93.714844 C 191.183594 94.046875 190.671875 94.351562 190.148438 94.632812 C 189.625 94.910156 189.085938 95.164062 188.535156 95.394531 C 187.988281 95.621094 187.429688 95.820312 186.859375 95.992188 C 186.289062 96.164062 185.714844 96.308594 185.128906 96.425781 C 184.546875 96.542969 183.960938 96.628906 183.367188 96.6875 C 182.773438 96.746094 182.183594 96.773438 181.585938 96.773438 Z M 181.585938 96.773438 " fill-opacity="1" fill-rule="nonzero"/><path fill="#08449e" d="M 191.03125 94.113281 C 190.21875 95.4375 189.253906 96.640625 188.132812 97.722656 C 187.011719 98.800781 185.773438 99.722656 184.417969 100.484375 C 183.058594 101.246094 181.628906 101.824219 180.125 102.222656 C 178.621094 102.617188 177.089844 102.816406 175.535156 102.824219 C 156.402344 102.824219 151.320312 90.96875 151.320312 84.675781 L 158.703125 84.675781 C 161.1875 90.484375 167.664062 96.773438 181.585938 96.773438 C 184.984375 96.777344 188.132812 95.886719 191.03125 94.113281 Z M 191.03125 94.113281 " fill-opacity="1" fill-rule="nonzero"/><path fill="#08449e" d="M 187.640625 78.628906 C 187.640625 79.027344 187.601562 79.417969 187.523438 79.808594 C 187.445312 80.199219 187.332031 80.578125 187.179688 80.945312 C 187.027344 81.308594 186.839844 81.660156 186.621094 81.988281 C 186.398438 82.320312 186.148438 82.625 185.867188 82.90625 C 185.585938 83.1875 185.28125 83.4375 184.949219 83.65625 C 184.621094 83.878906 184.269531 84.066406 183.902344 84.21875 C 183.535156 84.367188 183.15625 84.484375 182.769531 84.5625 C 182.378906 84.636719 181.984375 84.675781 181.585938 84.675781 C 181.585938 84.28125 181.546875 83.886719 181.46875 83.496094 C 181.394531 83.109375 181.277344 82.730469 181.125 82.363281 C 180.972656 81.996094 180.789062 81.648438 180.566406 81.316406 C 180.347656 80.988281 180.09375 80.679688 179.8125 80.402344 C 179.53125 80.121094 179.226562 79.867188 178.898438 79.648438 C 178.566406 79.425781 178.21875 79.242188 177.851562 79.089844 C 177.484375 78.9375 177.105469 78.824219 176.714844 78.746094 C 176.324219 78.667969 175.929688 78.628906 175.535156 78.628906 L 169.480469 78.628906 L 169.480469 78.449219 L 167.664062 78.507812 L 167.601562 78.507812 C 166.667969 78.40625 165.742188 78.234375 164.832031 77.992188 C 163.921875 77.75 163.039062 77.4375 162.175781 77.054688 C 161.316406 76.675781 160.488281 76.226562 159.699219 75.71875 C 158.90625 75.207031 158.15625 74.640625 157.453125 74.015625 C 156.75 73.390625 156.101562 72.710938 155.503906 71.984375 C 154.90625 71.257812 154.367188 70.488281 153.886719 69.679688 C 153.410156 68.867188 152.996094 68.023438 152.648438 67.148438 C 152.304688 66.273438 152.027344 65.378906 151.820312 64.460938 C 151.613281 63.542969 151.476562 62.613281 151.414062 61.671875 C 151.351562 60.734375 151.363281 59.796875 151.445312 58.859375 C 151.527344 57.921875 151.683594 56.996094 151.910156 56.082031 C 152.140625 55.167969 152.4375 54.277344 152.800781 53.410156 C 153.167969 52.546875 153.597656 51.710938 154.09375 50.910156 C 154.589844 50.109375 155.144531 49.355469 155.761719 48.640625 C 156.375 47.925781 157.039062 47.265625 157.757812 46.652344 C 158.472656 46.042969 159.234375 45.492188 160.035156 45 C 159.199219 46.375 158.554688 47.835938 158.105469 49.382812 C 157.65625 50.929688 157.417969 52.503906 157.390625 54.117188 C 157.363281 55.726562 157.542969 57.308594 157.9375 58.871094 C 158.332031 60.433594 158.925781 61.914062 159.710938 63.316406 C 160.5 64.722656 161.460938 66 162.589844 67.148438 C 163.71875 68.296875 164.976562 69.277344 166.367188 70.089844 C 167.757812 70.90625 169.230469 71.523438 170.785156 71.945312 C 172.339844 72.367188 173.921875 72.578125 175.535156 72.582031 L 181.585938 72.582031 C 181.984375 72.582031 182.378906 72.621094 182.769531 72.695312 C 183.15625 72.773438 183.535156 72.890625 183.902344 73.042969 C 184.269531 73.191406 184.621094 73.378906 184.949219 73.601562 C 185.28125 73.820312 185.585938 74.070312 185.867188 74.351562 C 186.148438 74.632812 186.398438 74.9375 186.621094 75.269531 C 186.839844 75.597656 187.027344 75.949219 187.179688 76.3125 C 187.332031 76.679688 187.445312 77.058594 187.523438 77.449219 C 187.601562 77.839844 187.640625 78.230469 187.640625 78.628906 Z M 187.640625 78.628906 " fill-opacity="1" fill-rule="nonzero"/><path fill="#08449e" d="M 193.695312 60.484375 L 181.585938 60.484375 C 181.527344 59.636719 180.617188 54.433594 169.480469 54.433594 C 169.480469 54.039062 169.519531 53.644531 169.597656 53.253906 C 169.671875 52.867188 169.789062 52.488281 169.941406 52.121094 C 170.09375 51.753906 170.277344 51.40625 170.5 51.074219 C 170.722656 50.746094 170.972656 50.4375 171.253906 50.160156 C 171.535156 49.878906 171.839844 49.628906 172.171875 49.40625 C 172.5 49.1875 172.847656 49 173.21875 48.847656 C 173.585938 48.695312 173.960938 48.582031 174.351562 48.503906 C 174.742188 48.425781 175.136719 48.386719 175.535156 48.386719 C 186.671875 48.386719 187.582031 53.589844 187.640625 54.433594 L 192.363281 54.433594 C 193.226562 56.359375 193.667969 58.375 193.695312 60.484375 Z M 193.695312 60.484375 " fill-opacity="1" fill-rule="nonzero"/><path fill="#f2f2f2" d="M 90.78125 96.773438 L 84.730469 96.773438 C 83.738281 96.773438 82.75 96.726562 81.761719 96.628906 C 80.777344 96.53125 79.796875 96.386719 78.824219 96.191406 C 77.851562 96 76.890625 95.757812 75.941406 95.472656 C 74.996094 95.183594 74.0625 94.851562 73.144531 94.472656 C 72.230469 94.09375 71.335938 93.671875 70.460938 93.203125 C 69.585938 92.738281 68.738281 92.226562 67.914062 91.675781 C 67.089844 91.128906 66.292969 90.539062 65.527344 89.910156 C 64.761719 89.28125 64.027344 88.617188 63.328125 87.917969 C 62.625 87.214844 61.960938 86.484375 61.332031 85.71875 C 60.703125 84.953125 60.113281 84.15625 59.5625 83.332031 C 59.011719 82.511719 58.503906 81.660156 58.035156 80.789062 C 57.566406 79.914062 57.144531 79.019531 56.765625 78.105469 C 56.386719 77.191406 56.050781 76.257812 55.765625 75.3125 C 55.476562 74.363281 55.238281 73.402344 55.042969 72.433594 C 54.851562 71.460938 54.703125 70.480469 54.605469 69.496094 C 54.511719 68.511719 54.460938 67.523438 54.460938 66.53125 C 54.460938 65.542969 54.511719 64.554688 54.605469 63.566406 C 54.703125 62.582031 54.851562 61.605469 55.042969 60.632812 C 55.238281 59.660156 55.476562 58.703125 55.765625 57.753906 C 56.050781 56.804688 56.386719 55.875 56.765625 54.960938 C 57.144531 54.042969 57.566406 53.148438 58.035156 52.277344 C 58.503906 51.402344 59.011719 50.554688 59.5625 49.730469 C 60.113281 48.90625 60.703125 48.113281 61.332031 47.347656 C 61.960938 46.582031 62.625 45.847656 63.328125 45.148438 C 64.027344 44.449219 64.761719 43.785156 65.527344 43.15625 C 66.292969 42.527344 67.089844 41.9375 67.914062 41.386719 C 68.738281 40.835938 69.585938 40.328125 70.460938 39.859375 C 71.335938 39.394531 72.230469 38.972656 73.144531 38.59375 C 74.0625 38.214844 74.996094 37.878906 75.941406 37.59375 C 76.890625 37.304688 77.851562 37.066406 78.824219 36.871094 C 79.796875 36.679688 80.777344 36.53125 81.761719 36.4375 C 82.75 36.339844 83.738281 36.289062 84.730469 36.289062 L 90.78125 36.289062 L 90.78125 48.386719 L 84.730469 48.386719 C 84.132812 48.386719 83.542969 48.417969 82.949219 48.472656 C 82.359375 48.53125 81.769531 48.621094 81.1875 48.734375 C 80.601562 48.851562 80.027344 48.996094 79.457031 49.167969 C 78.886719 49.339844 78.328125 49.539062 77.78125 49.769531 C 77.230469 49.996094 76.691406 50.25 76.167969 50.53125 C 75.644531 50.808594 75.132812 51.113281 74.640625 51.445312 C 74.144531 51.773438 73.667969 52.128906 73.207031 52.503906 C 72.75 52.882812 72.308594 53.28125 71.886719 53.703125 C 71.46875 54.121094 71.070312 54.5625 70.691406 55.019531 C 70.3125 55.480469 69.960938 55.957031 69.628906 56.453125 C 69.300781 56.945312 68.992188 57.453125 68.714844 57.980469 C 68.433594 58.503906 68.179688 59.039062 67.949219 59.589844 C 67.722656 60.136719 67.523438 60.695312 67.351562 61.265625 C 67.179688 61.832031 67.035156 62.410156 66.917969 62.992188 C 66.800781 63.574219 66.714844 64.164062 66.65625 64.753906 C 66.597656 65.34375 66.570312 65.9375 66.570312 66.53125 C 66.570312 67.125 66.597656 67.71875 66.65625 68.3125 C 66.714844 68.902344 66.800781 69.488281 66.917969 70.070312 C 67.035156 70.65625 67.179688 71.230469 67.351562 71.800781 C 67.523438 72.367188 67.722656 72.925781 67.949219 73.476562 C 68.179688 74.023438 68.433594 74.5625 68.714844 75.085938 C 68.992188 75.609375 69.300781 76.117188 69.628906 76.613281 C 69.960938 77.105469 70.3125 77.585938 70.691406 78.042969 C 71.070312 78.503906 71.46875 78.941406 71.886719 79.363281 C 72.308594 79.78125 72.75 80.183594 73.207031 80.558594 C 73.667969 80.9375 74.144531 81.289062 74.640625 81.621094 C 75.132812 81.949219 75.644531 82.253906 76.167969 82.535156 C 76.691406 82.816406 77.230469 83.070312 77.78125 83.296875 C 78.328125 83.523438 78.886719 83.722656 79.457031 83.894531 C 80.027344 84.070312 80.601562 84.210938 81.1875 84.328125 C 81.769531 84.445312 82.359375 84.53125 82.949219 84.589844 C 83.542969 84.648438 84.132812 84.675781 84.730469 84.675781 L 90.78125 84.675781 Z M 90.78125 96.773438 " fill-opacity="1" fill-rule="nonzero"/><path fill="#08449e" d="M 84.730469 96.773438 L 84.730469 102.824219 L 78.675781 102.824219 C 77.097656 102.824219 75.527344 102.699219 73.96875 102.453125 C 72.410156 102.210938 70.878906 101.84375 69.378906 101.359375 C 67.875 100.875 66.417969 100.277344 65.011719 99.566406 C 63.601562 98.851562 62.257812 98.035156 60.976562 97.113281 C 59.699219 96.191406 58.496094 95.175781 57.375 94.066406 C 56.253906 92.957031 55.226562 91.765625 54.289062 90.496094 C 53.355469 89.226562 52.523438 87.890625 51.800781 86.488281 C 51.074219 85.089844 50.460938 83.640625 49.960938 82.144531 C 49.460938 80.648438 49.082031 79.121094 48.820312 77.566406 C 48.5625 76.011719 48.425781 74.445312 48.410156 72.867188 C 48.394531 71.289062 48.503906 69.722656 48.734375 68.160156 C 48.964844 66.601562 49.3125 65.070312 49.785156 63.5625 C 50.253906 62.058594 50.839844 60.597656 51.539062 59.183594 C 52.238281 57.769531 53.042969 56.417969 53.953125 55.132812 C 54.863281 53.84375 55.871094 52.632812 56.972656 51.503906 C 58.070312 50.371094 59.253906 49.332031 60.515625 48.386719 C 58.539062 51 57.03125 53.855469 55.996094 56.960938 C 54.960938 60.070312 54.449219 63.257812 54.460938 66.53125 C 54.460938 67.523438 54.511719 68.511719 54.605469 69.496094 C 54.703125 70.480469 54.851562 71.460938 55.042969 72.433594 C 55.238281 73.402344 55.476562 74.363281 55.765625 75.3125 C 56.050781 76.257812 56.386719 77.191406 56.765625 78.105469 C 57.144531 79.019531 57.566406 79.914062 58.035156 80.789062 C 58.503906 81.660156 59.011719 82.511719 59.5625 83.332031 C 60.113281 84.15625 60.703125 84.953125 61.332031 85.71875 C 61.960938 86.484375 62.625 87.214844 63.328125 87.917969 C 64.027344 88.617188 64.761719 89.28125 65.527344 89.910156 C 66.292969 90.539062 67.089844 91.128906 67.914062 91.675781 C 68.738281 92.226562 69.585938 92.738281 70.460938 93.203125 C 71.335938 93.671875 72.230469 94.09375 73.144531 94.472656 C 74.0625 94.851562 74.996094 95.183594 75.941406 95.472656 C 76.890625 95.757812 77.851562 96 78.824219 96.191406 C 79.796875 96.386719 80.777344 96.53125 81.761719 96.628906 C 82.75 96.726562 83.738281 96.773438 84.730469 96.773438 Z M 84.730469 96.773438 " fill-opacity="1" fill-rule="nonzero"/><path fill="#08449e" d="M 84.730469 48.386719 L 84.730469 54.433594 L 78.675781 54.433594 C 75.277344 54.433594 72.128906 55.320312 69.230469 57.097656 C 70.042969 55.769531 71.011719 54.566406 72.132812 53.488281 C 73.25 52.410156 74.488281 51.488281 75.847656 50.726562 C 77.203125 49.964844 78.632812 49.386719 80.136719 48.988281 C 81.644531 48.59375 83.171875 48.390625 84.730469 48.386719 Z M 84.730469 48.386719 " fill-opacity="1" fill-rule="nonzero"/></svg>