<svg xmlns="http://www.w3.org/2000/svg" xmlns:xlink="http://www.w3.org/1999/xlink" width="500" zoomAndPan="magnify" viewBox="0 0 375 374.999991" height="500" preserveAspectRatio="xMidYMid meet" version="1.0"><defs><clipPath id="bca8cebf60"><path d="M 278 0 L 351.140625 0 L 351.140625 73 L 278 73 Z M 278 0 " clip-rule="nonzero"/></clipPath><clipPath id="1e05f4ec4a"><path d="M 72 0 L 351.140625 0 L 351.140625 375 L 72 375 Z M 72 0 " clip-rule="nonzero"/></clipPath><clipPath id="eac312622c"><path d="M 284 72 L 351.140625 72 L 351.140625 85 L 284 85 Z M 284 72 " clip-rule="nonzero"/></clipPath><clipPath id="e01319f56e"><path d="M 24.140625 18 L 243 18 L 243 115 L 24.140625 115 Z M 24.140625 18 " clip-rule="nonzero"/></clipPath></defs><g clip-path="url(#bca8cebf60)"><path fill="#ffaf36" d="M 278.445312 0 L 351.085938 72.582031 L 278.445312 72.582031 Z M 278.445312 0 " fill-opacity="1" fill-rule="nonzero"/></g><g clip-path="url(#1e05f4ec4a)"><path fill="#ff6d00" d="M 351.085938 72.582031 L 351.085938 375 L 72.621094 375 L 72.621094 0 L 278.445312 0 L 278.445312 72.582031 Z M 351.085938 72.582031 " fill-opacity="1" fill-rule="nonzero"/></g><path fill="#f54e00" d="M 84.730469 48.386719 L 84.730469 338.710938 C 84.730469 339.503906 84.769531 340.292969 84.847656 341.082031 C 84.925781 341.871094 85.039062 342.652344 85.195312 343.429688 C 85.347656 344.207031 85.542969 344.972656 85.773438 345.734375 C 86.003906 346.492188 86.269531 347.234375 86.574219 347.96875 C 86.875 348.699219 87.214844 349.414062 87.589844 350.113281 C 87.960938 350.8125 88.371094 351.492188 88.808594 352.152344 C 89.25 352.808594 89.722656 353.445312 90.226562 354.058594 C 90.730469 354.671875 91.261719 355.257812 91.820312 355.816406 C 92.382812 356.378906 92.96875 356.910156 93.582031 357.410156 C 94.195312 357.914062 94.832031 358.386719 95.492188 358.824219 C 96.152344 359.265625 96.828125 359.671875 97.53125 360.046875 C 98.230469 360.421875 98.945312 360.757812 99.675781 361.0625 C 100.410156 361.363281 101.15625 361.632812 101.914062 361.863281 C 102.671875 362.089844 103.441406 362.285156 104.21875 362.4375 C 104.996094 362.59375 105.78125 362.710938 106.570312 362.785156 C 107.359375 362.863281 108.152344 362.902344 108.945312 362.902344 L 314.765625 362.902344 C 315.558594 362.902344 316.351562 362.863281 317.140625 362.785156 C 317.929688 362.710938 318.710938 362.59375 319.488281 362.4375 C 320.269531 362.285156 321.035156 362.089844 321.796875 361.863281 C 322.554688 361.632812 323.300781 361.363281 324.03125 361.0625 C 324.765625 360.757812 325.480469 360.421875 326.179688 360.046875 C 326.878906 359.671875 327.558594 359.265625 328.21875 358.824219 C 328.878906 358.386719 329.515625 357.914062 330.128906 357.410156 C 330.742188 356.910156 331.328125 356.378906 331.886719 355.816406 C 332.449219 355.257812 332.980469 354.671875 333.484375 354.058594 C 333.988281 353.445312 334.457031 352.808594 334.898438 352.152344 C 335.339844 351.492188 335.746094 350.8125 336.121094 350.113281 C 336.496094 349.414062 336.832031 348.699219 337.136719 347.96875 C 337.441406 347.234375 337.707031 346.492188 337.9375 345.734375 C 338.167969 344.972656 338.359375 344.207031 338.515625 343.429688 C 338.667969 342.652344 338.785156 341.871094 338.863281 341.082031 C 338.941406 340.292969 338.980469 339.503906 338.980469 338.710938 L 338.980469 325.867188 C 84.730469 310.214844 84.730469 48.386719 84.730469 48.386719 Z M 84.730469 48.386719 " fill-opacity="1" fill-rule="nonzero"/><g clip-path="url(#eac312622c)"><path fill="#f54e00" d="M 284.5 72.582031 L 351.085938 72.582031 L 351.085938 84.675781 L 284.5 84.675781 Z M 284.5 72.582031 " fill-opacity="1" fill-rule="nonzero"/></g><g clip-path="url(#e01319f56e)"><path fill="#f54100" d="M 24.195312 18.144531 L 242.121094 18.144531 L 242.121094 114.917969 L 24.195312 114.917969 Z M 24.195312 18.144531 " fill-opacity="1" fill-rule="nonzero"/></g><path fill="#d63900" d="M 72.621094 114.917969 L 230.015625 114.917969 L 230.015625 133.066406 L 72.621094 133.066406 Z M 72.621094 114.917969 " fill-opacity="1" fill-rule="nonzero"/><path fill="#ffffff" d="M 205.800781 84.675781 L 205.800781 36.289062 L 193.695312 36.289062 L 193.695312 90.726562 C 193.695312 91.121094 193.734375 91.515625 193.808594 91.90625 C 193.886719 92.296875 194.003906 92.671875 194.15625 93.039062 C 194.308594 93.40625 194.492188 93.757812 194.714844 94.085938 C 194.933594 94.417969 195.1875 94.722656 195.46875 95.003906 C 195.75 95.285156 196.054688 95.535156 196.382812 95.753906 C 196.714844 95.976562 197.0625 96.160156 197.429688 96.3125 C 197.796875 96.464844 198.175781 96.582031 198.566406 96.65625 C 198.957031 96.734375 199.351562 96.773438 199.746094 96.773438 L 223.960938 96.773438 L 223.960938 84.675781 Z M 205.800781 84.675781 " fill-opacity="1" fill-rule="nonzero"/><path fill="#ffffff" d="M 72.621094 60.484375 L 54.460938 60.484375 L 54.460938 36.289062 L 42.355469 36.289062 L 42.355469 96.773438 L 54.460938 96.773438 L 54.460938 72.582031 L 72.621094 72.582031 L 72.621094 96.773438 L 84.730469 96.773438 L 84.730469 36.289062 L 72.621094 36.289062 Z M 72.621094 60.484375 " fill-opacity="1" fill-rule="nonzero"/><path fill="#ffffff" d="M 90.78125 48.386719 L 102.890625 48.386719 L 102.890625 96.773438 L 114.996094 96.773438 L 114.996094 48.386719 L 127.105469 48.386719 L 127.105469 36.289062 L 90.78125 36.289062 Z M 90.78125 48.386719 " fill-opacity="1" fill-rule="nonzero"/><path fill="#ffffff" d="M 176.746094 36.417969 C 176.0625 36.273438 175.375 36.25 174.683594 36.34375 C 173.992188 36.4375 173.335938 36.648438 172.71875 36.96875 C 172.101562 37.292969 171.554688 37.710938 171.082031 38.222656 C 170.609375 38.734375 170.234375 39.3125 169.964844 39.957031 L 157.371094 69.320312 L 144.773438 39.957031 C 144.5 39.316406 144.125 38.742188 143.652344 38.230469 C 143.179688 37.71875 142.632812 37.300781 142.015625 36.980469 C 141.398438 36.65625 140.742188 36.449219 140.054688 36.351562 C 139.363281 36.253906 138.675781 36.277344 137.996094 36.414062 C 137.3125 36.554688 136.671875 36.804688 136.074219 37.167969 C 135.480469 37.527344 134.960938 37.976562 134.519531 38.515625 C 134.082031 39.054688 133.742188 39.65625 133.507812 40.308594 C 133.277344 40.964844 133.160156 41.640625 133.160156 42.339844 L 133.160156 96.773438 L 145.265625 96.773438 L 145.265625 71.804688 L 151.808594 87.058594 C 152.042969 87.605469 152.347656 88.101562 152.730469 88.558594 C 153.109375 89.011719 153.546875 89.398438 154.042969 89.726562 C 154.535156 90.050781 155.066406 90.300781 155.632812 90.46875 C 156.199219 90.640625 156.78125 90.722656 157.371094 90.722656 C 157.964844 90.722656 158.542969 90.640625 159.113281 90.46875 C 159.679688 90.300781 160.210938 90.050781 160.703125 89.726562 C 161.199219 89.398438 161.636719 89.011719 162.015625 88.558594 C 162.394531 88.101562 162.703125 87.605469 162.9375 87.058594 L 169.480469 71.804688 L 169.480469 96.773438 L 181.585938 96.773438 L 181.585938 42.339844 C 181.585938 41.640625 181.46875 40.964844 181.234375 40.308594 C 181 39.652344 180.664062 39.054688 180.222656 38.515625 C 179.78125 37.976562 179.261719 37.527344 178.664062 37.167969 C 178.066406 36.804688 177.425781 36.558594 176.746094 36.417969 Z M 176.746094 36.417969 " fill-opacity="1" fill-rule="nonzero"/><path fill="#ffffff" d="M 145.265625 296.371094 L 96.835938 241.933594 L 145.265625 187.5 L 169.480469 187.5 L 121.050781 241.933594 L 169.480469 296.371094 Z M 145.265625 296.371094 " fill-opacity="1" fill-rule="nonzero"/><path fill="#ffffff" d="M 278.445312 296.371094 L 326.875 241.933594 L 278.445312 187.5 L 254.230469 187.5 L 302.660156 241.933594 L 254.230469 296.371094 Z M 278.445312 296.371094 " fill-opacity="1" fill-rule="nonzero"/><path fill="#ffffff" d="M 187.640625 296.371094 L 217.910156 187.5 L 236.070312 187.5 L 205.800781 296.371094 Z M 187.640625 296.371094 " fill-opacity="1" fill-rule="nonzero"/><path fill="#d63900" d="M 96.835938 241.933594 L 134.503906 199.597656 L 133.160156 199.597656 L 84.730469 254.03125 L 133.160156 308.46875 L 157.371094 308.46875 L 146.609375 296.371094 L 145.265625 296.371094 Z M 96.835938 241.933594 " fill-opacity="1" fill-rule="nonzero"/><path fill="#d63900" d="M 302.660156 241.933594 L 264.992188 199.597656 L 242.121094 199.597656 L 290.550781 254.03125 L 242.121094 308.46875 L 266.335938 308.46875 L 277.101562 296.371094 L 254.230469 296.371094 Z M 302.660156 241.933594 " fill-opacity="1" fill-rule="nonzero"/><path fill="#d63900" d="M 214.542969 199.597656 L 205.800781 199.597656 L 175.535156 308.46875 L 193.695312 308.46875 L 197.058594 296.371094 L 187.640625 296.371094 Z M 214.542969 199.597656 " fill-opacity="1" fill-rule="nonzero"/><path fill="#d63900" d="M 193.695312 90.726562 L 193.695312 42.339844 L 187.640625 42.339844 L 187.640625 96.773438 C 187.640625 97.171875 187.679688 97.566406 187.757812 97.953125 C 187.835938 98.34375 187.949219 98.722656 188.101562 99.089844 C 188.253906 99.457031 188.441406 99.804688 188.660156 100.132812 C 188.882812 100.464844 189.132812 100.769531 189.414062 101.050781 C 189.695312 101.332031 190 101.582031 190.332031 101.804688 C 190.660156 102.023438 191.011719 102.210938 191.378906 102.363281 C 191.746094 102.515625 192.125 102.628906 192.511719 102.707031 C 192.902344 102.785156 193.296875 102.824219 193.695312 102.824219 L 217.910156 102.824219 L 217.910156 96.773438 L 199.746094 96.773438 C 199.351562 96.773438 198.957031 96.734375 198.566406 96.65625 C 198.175781 96.582031 197.796875 96.464844 197.429688 96.3125 C 197.0625 96.160156 196.714844 95.976562 196.382812 95.753906 C 196.054688 95.535156 195.75 95.285156 195.46875 95.003906 C 195.1875 94.722656 194.933594 94.417969 194.714844 94.085938 C 194.492188 93.757812 194.308594 93.40625 194.15625 93.039062 C 194.003906 92.671875 193.886719 92.296875 193.808594 91.90625 C 193.734375 91.515625 193.695312 91.121094 193.695312 90.726562 Z M 193.695312 90.726562 " fill-opacity="1" fill-rule="nonzero"/><path fill="#d63900" d="M 66.570312 42.339844 L 72.621094 42.339844 L 72.621094 60.484375 L 66.570312 60.484375 Z M 66.570312 42.339844 " fill-opacity="1" fill-rule="nonzero"/><path fill="#d63900" d="M 42.355469 42.339844 L 36.300781 42.339844 L 36.300781 102.824219 L 48.40625 102.824219 L 48.40625 96.773438 L 42.355469 96.773438 Z M 42.355469 42.339844 " fill-opacity="1" fill-rule="nonzero"/><path fill="#d63900" d="M 72.621094 72.582031 L 54.460938 72.582031 L 54.460938 78.628906 L 66.570312 78.628906 L 66.570312 102.824219 L 78.675781 102.824219 L 78.675781 96.773438 L 72.621094 96.773438 Z M 72.621094 72.582031 " fill-opacity="1" fill-rule="nonzero"/><path fill="#d63900" d="M 114.996094 48.386719 L 121.050781 48.386719 L 121.050781 54.433594 L 114.996094 54.433594 Z M 114.996094 48.386719 " fill-opacity="1" fill-rule="nonzero"/><path fill="#d63900" d="M 102.890625 48.386719 L 90.78125 48.386719 L 90.78125 42.339844 L 84.730469 42.339844 L 84.730469 54.433594 L 96.835938 54.433594 L 96.835938 102.824219 L 108.945312 102.824219 L 108.945312 96.773438 L 102.890625 96.773438 Z M 102.890625 48.386719 " fill-opacity="1" fill-rule="nonzero"/><path fill="#d63900" d="M 133.160156 42.421875 C 132.753906 42.390625 132.347656 42.40625 131.949219 42.464844 C 131.265625 42.605469 130.625 42.855469 130.027344 43.214844 C 129.429688 43.574219 128.910156 44.023438 128.46875 44.566406 C 128.03125 45.105469 127.691406 45.703125 127.457031 46.359375 C 127.222656 47.015625 127.105469 47.691406 127.105469 48.386719 L 127.105469 102.824219 L 139.210938 102.824219 L 139.210938 96.773438 L 133.160156 96.773438 Z M 133.160156 42.421875 " fill-opacity="1" fill-rule="nonzero"/><path fill="#d63900" d="M 168.921875 42.398438 C 168.382812 42.449219 167.855469 42.570312 167.347656 42.761719 C 166.835938 42.953125 166.363281 43.207031 165.921875 43.527344 C 165.480469 43.847656 165.089844 44.21875 164.75 44.640625 C 164.410156 45.066406 164.132812 45.527344 163.917969 46.027344 L 155.640625 65.324219 L 157.371094 69.351562 Z M 168.921875 42.398438 " fill-opacity="1" fill-rule="nonzero"/><path fill="#d63900" d="M 151.808594 87.058594 L 145.265625 71.804688 L 145.265625 91.933594 L 145.753906 93.078125 C 145.988281 93.621094 146.296875 94.121094 146.675781 94.574219 C 147.054688 95.027344 147.492188 95.417969 147.988281 95.742188 C 148.480469 96.070312 149.011719 96.316406 149.578125 96.488281 C 150.148438 96.65625 150.726562 96.742188 151.320312 96.742188 C 151.910156 96.742188 152.492188 96.65625 153.058594 96.488281 C 153.625 96.316406 154.15625 96.070312 154.652344 95.742188 C 155.144531 95.417969 155.582031 95.027344 155.960938 94.574219 C 156.34375 94.121094 156.648438 93.621094 156.882812 93.078125 L 157.941406 90.609375 C 157.746094 90.609375 157.566406 90.695312 157.371094 90.695312 C 156.78125 90.695312 156.203125 90.613281 155.636719 90.445312 C 155.070312 90.277344 154.542969 90.03125 154.046875 89.710938 C 153.550781 89.386719 153.113281 89 152.734375 88.546875 C 152.351562 88.097656 152.046875 87.601562 151.808594 87.058594 Z M 151.808594 87.058594 " fill-opacity="1" fill-rule="nonzero"/><path fill="#d63900" d="M 169.480469 71.804688 L 163.425781 85.917969 L 163.425781 102.824219 L 175.535156 102.824219 L 175.535156 96.773438 L 169.480469 96.773438 Z M 169.480469 71.804688 " fill-opacity="1" fill-rule="nonzero"/></svg>