<svg xmlns="http://www.w3.org/2000/svg" xmlns:xlink="http://www.w3.org/1999/xlink" width="1080" zoomAndPan="magnify" viewBox="0 0 810 454.499987" height="606" preserveAspectRatio="xMidYMid meet" version="1.0"><defs><clipPath id="5e1d201829"><path d="M 27 91 L 809.554688 91 L 809.554688 382 L 27 382 Z M 27 91 " clip-rule="nonzero"/></clipPath><clipPath id="711c2f5ddb"><path d="M 19.296875 356.929688 L 37.535156 75.832031 L 821.023438 126.65625 L 802.789062 407.753906 Z M 19.296875 356.929688 " clip-rule="nonzero"/></clipPath><clipPath id="feb72e7ef9"><path d="M 19.296875 356.929688 L 37.535156 75.832031 L 821.023438 126.65625 L 802.789062 407.753906 Z M 19.296875 356.929688 " clip-rule="nonzero"/></clipPath><clipPath id="ccc5fe29e6"><path d="M 19.296875 356.929688 L 37.535156 75.832031 L 821.023438 126.65625 L 802.789062 407.753906 Z M 19.296875 356.929688 " clip-rule="nonzero"/></clipPath><clipPath id="aff98be455"><path d="M 374 195 L 463 195 L 463 282 L 374 282 Z M 374 195 " clip-rule="nonzero"/></clipPath><clipPath id="2272bafd83"><path d="M 19.296875 356.929688 L 37.535156 75.832031 L 821.023438 126.65625 L 802.789062 407.753906 Z M 19.296875 356.929688 " clip-rule="nonzero"/></clipPath><clipPath id="897bf46799"><path d="M 19.296875 356.929688 L 37.535156 75.832031 L 821.023438 126.65625 L 802.789062 407.753906 Z M 19.296875 356.929688 " clip-rule="nonzero"/></clipPath><clipPath id="05a4520da2"><path d="M 19.296875 356.929688 L 37.535156 75.832031 L 821.023438 126.65625 L 802.789062 407.753906 Z M 19.296875 356.929688 " clip-rule="nonzero"/></clipPath><clipPath id="94556d2a45"><path d="M 257 226 L 309 226 L 309 264 L 257 264 Z M 257 226 " clip-rule="nonzero"/></clipPath><clipPath id="6c10b5b535"><path d="M 19.296875 356.929688 L 37.535156 75.832031 L 821.023438 126.65625 L 802.789062 407.753906 Z M 19.296875 356.929688 " clip-rule="nonzero"/></clipPath><clipPath id="1efd970eff"><path d="M 19.296875 356.929688 L 37.535156 75.832031 L 821.023438 126.65625 L 802.789062 407.753906 Z M 19.296875 356.929688 " clip-rule="nonzero"/></clipPath><clipPath id="c579f7faaf"><path d="M 19.296875 356.929688 L 37.535156 75.832031 L 821.023438 126.65625 L 802.789062 407.753906 Z M 19.296875 356.929688 " clip-rule="nonzero"/></clipPath><clipPath id="48b9d68f83"><path d="M 313 187 L 449 187 L 449 372 L 313 372 Z M 313 187 " clip-rule="nonzero"/></clipPath><clipPath id="b6b22eacbd"><path d="M 19.296875 356.929688 L 37.535156 75.832031 L 821.023438 126.65625 L 802.789062 407.753906 Z M 19.296875 356.929688 " clip-rule="nonzero"/></clipPath><clipPath id="9781ddc230"><path d="M 19.296875 356.929688 L 37.535156 75.832031 L 821.023438 126.65625 L 802.789062 407.753906 Z M 19.296875 356.929688 " clip-rule="nonzero"/></clipPath><clipPath id="29b3364be1"><path d="M 19.296875 356.929688 L 37.535156 75.832031 L 821.023438 126.65625 L 802.789062 407.753906 Z M 19.296875 356.929688 " clip-rule="nonzero"/></clipPath><clipPath id="afdf03e671"><path d="M 312 329 L 402 329 L 402 377 L 312 377 Z M 312 329 " clip-rule="nonzero"/></clipPath><clipPath id="e725cc078d"><path d="M 19.296875 356.929688 L 37.535156 75.832031 L 821.023438 126.65625 L 802.789062 407.753906 Z M 19.296875 356.929688 " clip-rule="nonzero"/></clipPath><clipPath id="718bda97c3"><path d="M 19.296875 356.929688 L 37.535156 75.832031 L 821.023438 126.65625 L 802.789062 407.753906 Z M 19.296875 356.929688 " clip-rule="nonzero"/></clipPath><clipPath id="08eec52da0"><path d="M 19.296875 356.929688 L 37.535156 75.832031 L 821.023438 126.65625 L 802.789062 407.753906 Z M 19.296875 356.929688 " clip-rule="nonzero"/></clipPath><clipPath id="641c272a57"><path d="M 337 329 L 402 329 L 402 377 L 337 377 Z M 337 329 " clip-rule="nonzero"/></clipPath><clipPath id="217f5d2289"><path d="M 19.296875 356.929688 L 37.535156 75.832031 L 821.023438 126.65625 L 802.789062 407.753906 Z M 19.296875 356.929688 " clip-rule="nonzero"/></clipPath><clipPath id="b901b840b7"><path d="M 19.296875 356.929688 L 37.535156 75.832031 L 821.023438 126.65625 L 802.789062 407.753906 Z M 19.296875 356.929688 " clip-rule="nonzero"/></clipPath><clipPath id="08760ddb6f"><path d="M 19.296875 356.929688 L 37.535156 75.832031 L 821.023438 126.65625 L 802.789062 407.753906 Z M 19.296875 356.929688 " clip-rule="nonzero"/></clipPath><clipPath id="95257c2002"><path d="M 399 189 L 517 189 L 517 237 L 399 237 Z M 399 189 " clip-rule="nonzero"/></clipPath><clipPath id="8209864677"><path d="M 19.296875 356.929688 L 37.535156 75.832031 L 821.023438 126.65625 L 802.789062 407.753906 Z M 19.296875 356.929688 " clip-rule="nonzero"/></clipPath><clipPath id="f9a090cd97"><path d="M 19.296875 356.929688 L 37.535156 75.832031 L 821.023438 126.65625 L 802.789062 407.753906 Z M 19.296875 356.929688 " clip-rule="nonzero"/></clipPath><clipPath id="fc20dae0a4"><path d="M 19.296875 356.929688 L 37.535156 75.832031 L 821.023438 126.65625 L 802.789062 407.753906 Z M 19.296875 356.929688 " clip-rule="nonzero"/></clipPath><clipPath id="ceee01a897"><path d="M 279 282 L 327 282 L 327 311 L 279 311 Z M 279 282 " clip-rule="nonzero"/></clipPath><clipPath id="cc91d369ae"><path d="M 19.296875 356.929688 L 37.535156 75.832031 L 821.023438 126.65625 L 802.789062 407.753906 Z M 19.296875 356.929688 " clip-rule="nonzero"/></clipPath><clipPath id="274af10acd"><path d="M 19.296875 356.929688 L 37.535156 75.832031 L 821.023438 126.65625 L 802.789062 407.753906 Z M 19.296875 356.929688 " clip-rule="nonzero"/></clipPath><clipPath id="38521dad7f"><path d="M 19.296875 356.929688 L 37.535156 75.832031 L 821.023438 126.65625 L 802.789062 407.753906 Z M 19.296875 356.929688 " clip-rule="nonzero"/></clipPath><clipPath id="afb6189b2f"><path d="M 243 228 L 412 228 L 412 305 L 243 305 Z M 243 228 " clip-rule="nonzero"/></clipPath><clipPath id="5fe2de86e8"><path d="M 19.296875 356.929688 L 37.535156 75.832031 L 821.023438 126.65625 L 802.789062 407.753906 Z M 19.296875 356.929688 " clip-rule="nonzero"/></clipPath><clipPath id="c7d5aeca45"><path d="M 19.296875 356.929688 L 37.535156 75.832031 L 821.023438 126.65625 L 802.789062 407.753906 Z M 19.296875 356.929688 " clip-rule="nonzero"/></clipPath><clipPath id="2368ac93f3"><path d="M 19.296875 356.929688 L 37.535156 75.832031 L 821.023438 126.65625 L 802.789062 407.753906 Z M 19.296875 356.929688 " clip-rule="nonzero"/></clipPath><clipPath id="600f54e626"><path d="M 299 229 L 378 229 L 378 269 L 299 269 Z M 299 229 " clip-rule="nonzero"/></clipPath><clipPath id="0d42f80d74"><path d="M 19.296875 356.929688 L 37.535156 75.832031 L 821.023438 126.65625 L 802.789062 407.753906 Z M 19.296875 356.929688 " clip-rule="nonzero"/></clipPath><clipPath id="a814c4529c"><path d="M 19.296875 356.929688 L 37.535156 75.832031 L 821.023438 126.65625 L 802.789062 407.753906 Z M 19.296875 356.929688 " clip-rule="nonzero"/></clipPath><clipPath id="bebffeed95"><path d="M 19.296875 356.929688 L 37.535156 75.832031 L 821.023438 126.65625 L 802.789062 407.753906 Z M 19.296875 356.929688 " clip-rule="nonzero"/></clipPath><clipPath id="fbb4b43103"><path d="M 295 106 L 551 106 L 551 266 L 295 266 Z M 295 106 " clip-rule="nonzero"/></clipPath><clipPath id="639da762b8"><path d="M 19.296875 356.929688 L 37.535156 75.832031 L 821.023438 126.65625 L 802.789062 407.753906 Z M 19.296875 356.929688 " clip-rule="nonzero"/></clipPath><clipPath id="3ac1d3c83c"><path d="M 19.296875 356.929688 L 37.535156 75.832031 L 821.023438 126.65625 L 802.789062 407.753906 Z M 19.296875 356.929688 " clip-rule="nonzero"/></clipPath><clipPath id="6076a62b3e"><path d="M 19.296875 356.929688 L 37.535156 75.832031 L 821.023438 126.65625 L 802.789062 407.753906 Z M 19.296875 356.929688 " clip-rule="nonzero"/></clipPath><clipPath id="be31442b39"><path d="M 399 194 L 529 194 L 529 304 L 399 304 Z M 399 194 " clip-rule="nonzero"/></clipPath><clipPath id="e99e34f725"><path d="M 19.296875 356.929688 L 37.535156 75.832031 L 821.023438 126.65625 L 802.789062 407.753906 Z M 19.296875 356.929688 " clip-rule="nonzero"/></clipPath><clipPath id="4e6280b56c"><path d="M 19.296875 356.929688 L 37.535156 75.832031 L 821.023438 126.65625 L 802.789062 407.753906 Z M 19.296875 356.929688 " clip-rule="nonzero"/></clipPath><clipPath id="9407def0ab"><path d="M 19.296875 356.929688 L 37.535156 75.832031 L 821.023438 126.65625 L 802.789062 407.753906 Z M 19.296875 356.929688 " clip-rule="nonzero"/></clipPath><clipPath id="085872a091"><path d="M 309 280 L 446 280 L 446 348 L 309 348 Z M 309 280 " clip-rule="nonzero"/></clipPath><clipPath id="d99dad66b1"><path d="M 19.296875 356.929688 L 37.535156 75.832031 L 821.023438 126.65625 L 802.789062 407.753906 Z M 19.296875 356.929688 " clip-rule="nonzero"/></clipPath><clipPath id="dd51877f11"><path d="M 19.296875 356.929688 L 37.535156 75.832031 L 821.023438 126.65625 L 802.789062 407.753906 Z M 19.296875 356.929688 " clip-rule="nonzero"/></clipPath><clipPath id="d7efa410fb"><path d="M 19.296875 356.929688 L 37.535156 75.832031 L 821.023438 126.65625 L 802.789062 407.753906 Z M 19.296875 356.929688 " clip-rule="nonzero"/></clipPath><clipPath id="a30ec18095"><path d="M 112 207 L 117 207 L 117 252 L 112 252 Z M 112 207 " clip-rule="nonzero"/></clipPath><clipPath id="d5bf807b1c"><path d="M 19.296875 356.929688 L 37.535156 75.832031 L 821.023438 126.65625 L 802.789062 407.753906 Z M 19.296875 356.929688 " clip-rule="nonzero"/></clipPath><clipPath id="aa92ea3abf"><path d="M 19.296875 356.929688 L 37.535156 75.832031 L 821.023438 126.65625 L 802.789062 407.753906 Z M 19.296875 356.929688 " clip-rule="nonzero"/></clipPath><clipPath id="2f54d9df95"><path d="M 19.296875 356.929688 L 37.535156 75.832031 L 821.023438 126.65625 L 802.789062 407.753906 Z M 19.296875 356.929688 " clip-rule="nonzero"/></clipPath><clipPath id="21c2e5cb8b"><path d="M 185 208 L 190 208 L 190 246 L 185 246 Z M 185 208 " clip-rule="nonzero"/></clipPath><clipPath id="0a7382a611"><path d="M 19.296875 356.929688 L 37.535156 75.832031 L 821.023438 126.65625 L 802.789062 407.753906 Z M 19.296875 356.929688 " clip-rule="nonzero"/></clipPath><clipPath id="a3a0c763dd"><path d="M 19.296875 356.929688 L 37.535156 75.832031 L 821.023438 126.65625 L 802.789062 407.753906 Z M 19.296875 356.929688 " clip-rule="nonzero"/></clipPath><clipPath id="bf24fe410a"><path d="M 19.296875 356.929688 L 37.535156 75.832031 L 821.023438 126.65625 L 802.789062 407.753906 Z M 19.296875 356.929688 " clip-rule="nonzero"/></clipPath><clipPath id="edff71d0f4"><path d="M 400 281 L 445 281 L 445 318 L 400 318 Z M 400 281 " clip-rule="nonzero"/></clipPath><clipPath id="cbc798e084"><path d="M 19.296875 356.929688 L 37.535156 75.832031 L 821.023438 126.65625 L 802.789062 407.753906 Z M 19.296875 356.929688 " clip-rule="nonzero"/></clipPath><clipPath id="e531c84403"><path d="M 19.296875 356.929688 L 37.535156 75.832031 L 821.023438 126.65625 L 802.789062 407.753906 Z M 19.296875 356.929688 " clip-rule="nonzero"/></clipPath><clipPath id="3ed3ff3cc5"><path d="M 19.296875 356.929688 L 37.535156 75.832031 L 821.023438 126.65625 L 802.789062 407.753906 Z M 19.296875 356.929688 " clip-rule="nonzero"/></clipPath><clipPath id="ef3046d8b0"><path d="M 421 221 L 483 221 L 483 262 L 421 262 Z M 421 221 " clip-rule="nonzero"/></clipPath><clipPath id="cd61d68e4c"><path d="M 19.296875 356.929688 L 37.535156 75.832031 L 821.023438 126.65625 L 802.789062 407.753906 Z M 19.296875 356.929688 " clip-rule="nonzero"/></clipPath><clipPath id="5760b32fb1"><path d="M 19.296875 356.929688 L 37.535156 75.832031 L 821.023438 126.65625 L 802.789062 407.753906 Z M 19.296875 356.929688 " clip-rule="nonzero"/></clipPath><clipPath id="7441fb6e34"><path d="M 19.296875 356.929688 L 37.535156 75.832031 L 821.023438 126.65625 L 802.789062 407.753906 Z M 19.296875 356.929688 " clip-rule="nonzero"/></clipPath><clipPath id="6deade7d8b"><path d="M 591 188 L 613 188 L 613 293 L 591 293 Z M 591 188 " clip-rule="nonzero"/></clipPath><clipPath id="556c6b422c"><path d="M 19.296875 356.929688 L 37.535156 75.832031 L 821.023438 126.65625 L 802.789062 407.753906 Z M 19.296875 356.929688 " clip-rule="nonzero"/></clipPath><clipPath id="ae91e64a35"><path d="M 19.296875 356.929688 L 37.535156 75.832031 L 821.023438 126.65625 L 802.789062 407.753906 Z M 19.296875 356.929688 " clip-rule="nonzero"/></clipPath><clipPath id="2df6b73da3"><path d="M 19.296875 356.929688 L 37.535156 75.832031 L 821.023438 126.65625 L 802.789062 407.753906 Z M 19.296875 356.929688 " clip-rule="nonzero"/></clipPath><clipPath id="8711af320d"><path d="M 295 192 L 332 192 L 332 259 L 295 259 Z M 295 192 " clip-rule="nonzero"/></clipPath><clipPath id="b7cd73b352"><path d="M 19.296875 356.929688 L 37.535156 75.832031 L 821.023438 126.65625 L 802.789062 407.753906 Z M 19.296875 356.929688 " clip-rule="nonzero"/></clipPath><clipPath id="252437d3ae"><path d="M 19.296875 356.929688 L 37.535156 75.832031 L 821.023438 126.65625 L 802.789062 407.753906 Z M 19.296875 356.929688 " clip-rule="nonzero"/></clipPath><clipPath id="56fcc18eba"><path d="M 19.296875 356.929688 L 37.535156 75.832031 L 821.023438 126.65625 L 802.789062 407.753906 Z M 19.296875 356.929688 " clip-rule="nonzero"/></clipPath><clipPath id="5977cf002d"><path d="M 367 229 L 410 229 L 410 271 L 367 271 Z M 367 229 " clip-rule="nonzero"/></clipPath><clipPath id="7788f8a98a"><path d="M 19.296875 356.929688 L 37.535156 75.832031 L 821.023438 126.65625 L 802.789062 407.753906 Z M 19.296875 356.929688 " clip-rule="nonzero"/></clipPath><clipPath id="9243d4c250"><path d="M 19.296875 356.929688 L 37.535156 75.832031 L 821.023438 126.65625 L 802.789062 407.753906 Z M 19.296875 356.929688 " clip-rule="nonzero"/></clipPath><clipPath id="d3575bb133"><path d="M 19.296875 356.929688 L 37.535156 75.832031 L 821.023438 126.65625 L 802.789062 407.753906 Z M 19.296875 356.929688 " clip-rule="nonzero"/></clipPath><clipPath id="a56bac994c"><path d="M 614 194 L 628 194 L 628 272 L 614 272 Z M 614 194 " clip-rule="nonzero"/></clipPath><clipPath id="bf90860578"><path d="M 19.296875 356.929688 L 37.535156 75.832031 L 821.023438 126.65625 L 802.789062 407.753906 Z M 19.296875 356.929688 " clip-rule="nonzero"/></clipPath><clipPath id="4659feaee1"><path d="M 19.296875 356.929688 L 37.535156 75.832031 L 821.023438 126.65625 L 802.789062 407.753906 Z M 19.296875 356.929688 " clip-rule="nonzero"/></clipPath><clipPath id="dd5e0a0dfa"><path d="M 19.296875 356.929688 L 37.535156 75.832031 L 821.023438 126.65625 L 802.789062 407.753906 Z M 19.296875 356.929688 " clip-rule="nonzero"/></clipPath><clipPath id="5eeda50c3e"><path d="M 399 161 L 428 161 L 428 193 L 399 193 Z M 399 161 " clip-rule="nonzero"/></clipPath><clipPath id="d486a706be"><path d="M 19.296875 356.929688 L 37.535156 75.832031 L 821.023438 126.65625 L 802.789062 407.753906 Z M 19.296875 356.929688 " clip-rule="nonzero"/></clipPath><clipPath id="be148deef4"><path d="M 19.296875 356.929688 L 37.535156 75.832031 L 821.023438 126.65625 L 802.789062 407.753906 Z M 19.296875 356.929688 " clip-rule="nonzero"/></clipPath><clipPath id="f5b14f9542"><path d="M 19.296875 356.929688 L 37.535156 75.832031 L 821.023438 126.65625 L 802.789062 407.753906 Z M 19.296875 356.929688 " clip-rule="nonzero"/></clipPath><clipPath id="177f97199d"><path d="M 348 181 L 381 181 L 381 206 L 348 206 Z M 348 181 " clip-rule="nonzero"/></clipPath><clipPath id="4dc24121e2"><path d="M 19.296875 356.929688 L 37.535156 75.832031 L 821.023438 126.65625 L 802.789062 407.753906 Z M 19.296875 356.929688 " clip-rule="nonzero"/></clipPath><clipPath id="908c4614a4"><path d="M 19.296875 356.929688 L 37.535156 75.832031 L 821.023438 126.65625 L 802.789062 407.753906 Z M 19.296875 356.929688 " clip-rule="nonzero"/></clipPath><clipPath id="00791af195"><path d="M 19.296875 356.929688 L 37.535156 75.832031 L 821.023438 126.65625 L 802.789062 407.753906 Z M 19.296875 356.929688 " clip-rule="nonzero"/></clipPath><clipPath id="f0bd4c70e7"><path d="M 264 196 L 272 196 L 272 237 L 264 237 Z M 264 196 " clip-rule="nonzero"/></clipPath><clipPath id="b7d5d3dea2"><path d="M 19.296875 356.929688 L 37.535156 75.832031 L 821.023438 126.65625 L 802.789062 407.753906 Z M 19.296875 356.929688 " clip-rule="nonzero"/></clipPath><clipPath id="5bae5d6eed"><path d="M 19.296875 356.929688 L 37.535156 75.832031 L 821.023438 126.65625 L 802.789062 407.753906 Z M 19.296875 356.929688 " clip-rule="nonzero"/></clipPath><clipPath id="d998e54680"><path d="M 19.296875 356.929688 L 37.535156 75.832031 L 821.023438 126.65625 L 802.789062 407.753906 Z M 19.296875 356.929688 " clip-rule="nonzero"/></clipPath><clipPath id="bdb1c20162"><path d="M 311 106 L 551 106 L 551 191 L 311 191 Z M 311 106 " clip-rule="nonzero"/></clipPath><clipPath id="2feff0b9b3"><path d="M 19.296875 356.929688 L 37.535156 75.832031 L 821.023438 126.65625 L 802.789062 407.753906 Z M 19.296875 356.929688 " clip-rule="nonzero"/></clipPath><clipPath id="6db909db34"><path d="M 19.296875 356.929688 L 37.535156 75.832031 L 821.023438 126.65625 L 802.789062 407.753906 Z M 19.296875 356.929688 " clip-rule="nonzero"/></clipPath><clipPath id="2dd0788fc8"><path d="M 19.296875 356.929688 L 37.535156 75.832031 L 821.023438 126.65625 L 802.789062 407.753906 Z M 19.296875 356.929688 " clip-rule="nonzero"/></clipPath><clipPath id="fecdc84b48"><path d="M 549 126 L 809.554688 126 L 809.554688 167 L 549 167 Z M 549 126 " clip-rule="nonzero"/></clipPath><clipPath id="1b96c5379b"><path d="M 19.296875 356.929688 L 37.535156 75.832031 L 821.023438 126.65625 L 802.789062 407.753906 Z M 19.296875 356.929688 " clip-rule="nonzero"/></clipPath><clipPath id="1775a39508"><path d="M 19.296875 356.929688 L 37.535156 75.832031 L 821.023438 126.65625 L 802.789062 407.753906 Z M 19.296875 356.929688 " clip-rule="nonzero"/></clipPath><clipPath id="7fce92b5dc"><path d="M 19.296875 356.929688 L 37.535156 75.832031 L 821.023438 126.65625 L 802.789062 407.753906 Z M 19.296875 356.929688 " clip-rule="nonzero"/></clipPath><clipPath id="589bdca557"><path d="M 188 111 L 198 111 L 198 154 L 188 154 Z M 188 111 " clip-rule="nonzero"/></clipPath><clipPath id="177a924bc8"><path d="M 19.296875 356.929688 L 37.535156 75.832031 L 821.023438 126.65625 L 802.789062 407.753906 Z M 19.296875 356.929688 " clip-rule="nonzero"/></clipPath><clipPath id="03a14edc17"><path d="M 19.296875 356.929688 L 37.535156 75.832031 L 821.023438 126.65625 L 802.789062 407.753906 Z M 19.296875 356.929688 " clip-rule="nonzero"/></clipPath><clipPath id="108c6a4b13"><path d="M 19.296875 356.929688 L 37.535156 75.832031 L 821.023438 126.65625 L 802.789062 407.753906 Z M 19.296875 356.929688 " clip-rule="nonzero"/></clipPath><clipPath id="63f809d1de"><path d="M 357 296 L 367 296 L 367 333 L 357 333 Z M 357 296 " clip-rule="nonzero"/></clipPath><clipPath id="cb1cd6876e"><path d="M 19.296875 356.929688 L 37.535156 75.832031 L 821.023438 126.65625 L 802.789062 407.753906 Z M 19.296875 356.929688 " clip-rule="nonzero"/></clipPath><clipPath id="ea32164afd"><path d="M 19.296875 356.929688 L 37.535156 75.832031 L 821.023438 126.65625 L 802.789062 407.753906 Z M 19.296875 356.929688 " clip-rule="nonzero"/></clipPath><clipPath id="8fd36a3467"><path d="M 19.296875 356.929688 L 37.535156 75.832031 L 821.023438 126.65625 L 802.789062 407.753906 Z M 19.296875 356.929688 " clip-rule="nonzero"/></clipPath><clipPath id="aa3f47d7d0"><path d="M 268 128 L 284 128 L 284 177 L 268 177 Z M 268 128 " clip-rule="nonzero"/></clipPath><clipPath id="153a021256"><path d="M 19.296875 356.929688 L 37.535156 75.832031 L 821.023438 126.65625 L 802.789062 407.753906 Z M 19.296875 356.929688 " clip-rule="nonzero"/></clipPath><clipPath id="668610035c"><path d="M 19.296875 356.929688 L 37.535156 75.832031 L 821.023438 126.65625 L 802.789062 407.753906 Z M 19.296875 356.929688 " clip-rule="nonzero"/></clipPath><clipPath id="7343699b21"><path d="M 19.296875 356.929688 L 37.535156 75.832031 L 821.023438 126.65625 L 802.789062 407.753906 Z M 19.296875 356.929688 " clip-rule="nonzero"/></clipPath><clipPath id="2ce3c5f8ac"><path d="M 506 301 L 809 301 L 809 367 L 506 367 Z M 506 301 " clip-rule="nonzero"/></clipPath><clipPath id="9933bf25bd"><path d="M 19.296875 356.929688 L 37.535156 75.832031 L 821.023438 126.65625 L 802.789062 407.753906 Z M 19.296875 356.929688 " clip-rule="nonzero"/></clipPath><clipPath id="1773f9cd76"><path d="M 19.296875 356.929688 L 37.535156 75.832031 L 821.023438 126.65625 L 802.789062 407.753906 Z M 19.296875 356.929688 " clip-rule="nonzero"/></clipPath><clipPath id="63930b1328"><path d="M 19.296875 356.929688 L 37.535156 75.832031 L 821.023438 126.65625 L 802.789062 407.753906 Z M 19.296875 356.929688 " clip-rule="nonzero"/></clipPath><clipPath id="789b200af8"><path d="M 65 91 L 370 91 L 370 131 L 65 131 Z M 65 91 " clip-rule="nonzero"/></clipPath><clipPath id="55debd2f40"><path d="M 19.296875 356.929688 L 37.535156 75.832031 L 821.023438 126.65625 L 802.789062 407.753906 Z M 19.296875 356.929688 " clip-rule="nonzero"/></clipPath><clipPath id="169ce735ef"><path d="M 19.296875 356.929688 L 37.535156 75.832031 L 821.023438 126.65625 L 802.789062 407.753906 Z M 19.296875 356.929688 " clip-rule="nonzero"/></clipPath><clipPath id="ffbdd98fa6"><path d="M 19.296875 356.929688 L 37.535156 75.832031 L 821.023438 126.65625 L 802.789062 407.753906 Z M 19.296875 356.929688 " clip-rule="nonzero"/></clipPath><clipPath id="e8789a6a1b"><path d="M 395 293 L 405 293 L 405 317 L 395 317 Z M 395 293 " clip-rule="nonzero"/></clipPath><clipPath id="2fe038705b"><path d="M 19.296875 356.929688 L 37.535156 75.832031 L 821.023438 126.65625 L 802.789062 407.753906 Z M 19.296875 356.929688 " clip-rule="nonzero"/></clipPath><clipPath id="6505875868"><path d="M 19.296875 356.929688 L 37.535156 75.832031 L 821.023438 126.65625 L 802.789062 407.753906 Z M 19.296875 356.929688 " clip-rule="nonzero"/></clipPath><clipPath id="f4589c458a"><path d="M 19.296875 356.929688 L 37.535156 75.832031 L 821.023438 126.65625 L 802.789062 407.753906 Z M 19.296875 356.929688 " clip-rule="nonzero"/></clipPath><clipPath id="b9ed822b70"><path d="M 118 97 L 127 97 L 127 137 L 118 137 Z M 118 97 " clip-rule="nonzero"/></clipPath><clipPath id="62382d4964"><path d="M 19.296875 356.929688 L 37.535156 75.832031 L 821.023438 126.65625 L 802.789062 407.753906 Z M 19.296875 356.929688 " clip-rule="nonzero"/></clipPath><clipPath id="f0911d4bb4"><path d="M 19.296875 356.929688 L 37.535156 75.832031 L 821.023438 126.65625 L 802.789062 407.753906 Z M 19.296875 356.929688 " clip-rule="nonzero"/></clipPath><clipPath id="8b3471db11"><path d="M 19.296875 356.929688 L 37.535156 75.832031 L 821.023438 126.65625 L 802.789062 407.753906 Z M 19.296875 356.929688 " clip-rule="nonzero"/></clipPath><clipPath id="ec0c8c27aa"><path d="M 367 231 L 377 231 L 377 244 L 367 244 Z M 367 231 " clip-rule="nonzero"/></clipPath><clipPath id="16bd8232e6"><path d="M 19.296875 356.929688 L 37.535156 75.832031 L 821.023438 126.65625 L 802.789062 407.753906 Z M 19.296875 356.929688 " clip-rule="nonzero"/></clipPath><clipPath id="70602b4759"><path d="M 19.296875 356.929688 L 37.535156 75.832031 L 821.023438 126.65625 L 802.789062 407.753906 Z M 19.296875 356.929688 " clip-rule="nonzero"/></clipPath><clipPath id="5261096676"><path d="M 19.296875 356.929688 L 37.535156 75.832031 L 821.023438 126.65625 L 802.789062 407.753906 Z M 19.296875 356.929688 " clip-rule="nonzero"/></clipPath><clipPath id="89b5522ec6"><path d="M 364 248 L 369 248 L 369 264 L 364 264 Z M 364 248 " clip-rule="nonzero"/></clipPath><clipPath id="3f18e4c96a"><path d="M 19.296875 356.929688 L 37.535156 75.832031 L 821.023438 126.65625 L 802.789062 407.753906 Z M 19.296875 356.929688 " clip-rule="nonzero"/></clipPath><clipPath id="4f57d7f86a"><path d="M 19.296875 356.929688 L 37.535156 75.832031 L 821.023438 126.65625 L 802.789062 407.753906 Z M 19.296875 356.929688 " clip-rule="nonzero"/></clipPath><clipPath id="0ec41175dd"><path d="M 19.296875 356.929688 L 37.535156 75.832031 L 821.023438 126.65625 L 802.789062 407.753906 Z M 19.296875 356.929688 " clip-rule="nonzero"/></clipPath><clipPath id="993c7be53e"><path d="M 27 201 L 125 201 L 125 243 L 27 243 Z M 27 201 " clip-rule="nonzero"/></clipPath><clipPath id="d000d8d35b"><path d="M 19.296875 356.929688 L 37.535156 75.832031 L 821.023438 126.65625 L 802.789062 407.753906 Z M 19.296875 356.929688 " clip-rule="nonzero"/></clipPath><clipPath id="8b27532cec"><path d="M 19.296875 356.929688 L 37.535156 75.832031 L 821.023438 126.65625 L 802.789062 407.753906 Z M 19.296875 356.929688 " clip-rule="nonzero"/></clipPath><clipPath id="3e10825ecf"><path d="M 19.296875 356.929688 L 37.535156 75.832031 L 821.023438 126.65625 L 802.789062 407.753906 Z M 19.296875 356.929688 " clip-rule="nonzero"/></clipPath></defs><g clip-path="url(#5e1d201829)"><g clip-path="url(#711c2f5ddb)"><g clip-path="url(#feb72e7ef9)"><g clip-path="url(#ccc5fe29e6)"><path fill="#e89f71" d="M 807.972656 320.054688 C 674.332031 308.460938 591.167969 325.054688 591.167969 325.054688 C 591.167969 325.054688 552.074219 349.644531 506.042969 366.429688 C 476.988281 377.046875 445.207031 384.558594 418.761719 380.894531 C 415.511719 380.417969 412.355469 379.855469 409.21875 379.035156 C 398.933594 376.328125 389.664062 371.648438 381.988281 364.234375 L 358.523438 337.886719 L 340.097656 317.1875 L 325.390625 300.632812 L 313.742188 287.550781 L 290.773438 261.683594 L 278.875 248.320312 L 257.351562 249.40625 L 51.605469 260.261719 C 46.179688 260.53125 40.777344 259.117188 36.464844 255.914062 C 32.820312 253.28125 29.453125 249.164062 28.277344 242.703125 C 27.753906 239.832031 27.695312 236.636719 28.207031 232.859375 C 31.671875 208.171875 82.792969 204.484375 82.792969 204.484375 L 124.355469 201.949219 C 125.070312 201.90625 125.78125 201.863281 126.492188 201.820312 L 263.382812 193.324219 C 268.632812 193.042969 270.320312 186.148438 265.796875 183.460938 C 263.152344 181.871094 259.449219 180.214844 254.054688 178.621094 C 234.742188 172.9375 122.644531 143.589844 81.421875 134.089844 C 70.675781 131.617188 63.726562 121.238281 65.460938 110.890625 C 65.460938 110.890625 65.46875 110.800781 65.46875 110.800781 C 65.613281 109.925781 65.847656 109.054688 66.082031 108.179688 L 66.085938 108.09375 C 66.296875 107.574219 66.421875 107.050781 66.71875 106.539062 C 70.476562 97.828125 80.796875 90.429688 105.691406 92.042969 C 162.628906 95.738281 294.839844 125.238281 294.839844 125.238281 L 382.410156 130.917969 L 550.09375 156.070312 L 550.894531 156.03125 L 602.386719 152.101562 C 650.132812 148.550781 820.511719 126.710938 820.511719 126.710938 Z M 807.972656 320.054688 " fill-opacity="1" fill-rule="nonzero"/></g></g></g></g><g clip-path="url(#aff98be455)"><g clip-path="url(#2272bafd83)"><g clip-path="url(#897bf46799)"><g clip-path="url(#05a4520da2)"><path fill="#d57149" d="M 383.023438 281.320312 L 428.167969 278.21875 C 428.167969 278.21875 443.152344 263.144531 462.234375 257.378906 C 462.234375 257.378906 419.949219 232.738281 399.699219 195.074219 L 382.734375 205.144531 L 374.0625 230.914062 Z M 383.023438 281.320312 " fill-opacity="1" fill-rule="nonzero"/></g></g></g></g><g clip-path="url(#94556d2a45)"><g clip-path="url(#6c10b5b535)"><g clip-path="url(#1efd970eff)"><g clip-path="url(#c579f7faaf)"><path fill="#d57149" d="M 297.457031 263.886719 L 290.6875 261.675781 L 278.789062 248.316406 L 257.265625 249.402344 C 263.453125 245.546875 287.089844 231.035156 301.734375 226.664062 C 318.902344 221.660156 297.457031 263.886719 297.457031 263.886719 Z M 297.457031 263.886719 " fill-opacity="1" fill-rule="nonzero"/></g></g></g></g><g clip-path="url(#48b9d68f83)"><g clip-path="url(#b6b22eacbd)"><g clip-path="url(#9781ddc230)"><g clip-path="url(#29b3364be1)"><path fill="#aa4a30" d="M 401.757812 187.9375 L 399.792969 194.992188 L 386.832031 206.207031 C 386.832031 206.207031 382.289062 221.605469 378.101562 226.03125 C 378.101562 226.03125 402.914062 217.980469 412.628906 237.671875 C 422.253906 257.355469 411.921875 274.503906 388.898438 279.574219 L 427.636719 276.855469 C 433.15625 276.503906 438.644531 278.011719 442.839844 281.652344 C 447.289062 285.488281 450.859375 291.925781 447.777344 302.542969 C 444.820312 312.632812 437.382812 320.664062 427.960938 325.191406 C 419.175781 329.410156 410.175781 331.488281 410.175781 331.488281 C 410.175781 331.488281 417.742188 352.902344 407.964844 371.0625 C 407.964844 371.0625 416.988281 343.984375 402.582031 333.742188 C 402.582031 333.742188 397.203125 356.53125 389.132812 363.457031 C 389.53125 362.773438 362.984375 341.546875 362.984375 341.546875 L 358.523438 337.886719 L 340.097656 317.1875 L 325.390625 300.632812 L 313.742188 287.550781 L 367.691406 193.796875 Z M 401.757812 187.9375 " fill-opacity="1" fill-rule="nonzero"/></g></g></g></g><g clip-path="url(#afdf03e671)"><g clip-path="url(#e725cc078d)"><g clip-path="url(#718bda97c3)"><g clip-path="url(#08eec52da0)"><path fill="#d57149" d="M 356.429688 329.152344 L 401.660156 376.679688 C 321.511719 361.816406 312.546875 334.640625 312.546875 334.640625 L 341.058594 331.082031 Z M 356.429688 329.152344 " fill-opacity="1" fill-rule="nonzero"/></g></g></g></g><g clip-path="url(#641c272a57)"><g clip-path="url(#217f5d2289)"><g clip-path="url(#b901b840b7)"><g clip-path="url(#08760ddb6f)"><path fill="#aa4a30" d="M 356.429688 329.152344 L 401.660156 376.679688 C 357.375 358.292969 337.445312 334.835938 337.445312 334.835938 L 341.050781 331.167969 Z M 356.429688 329.152344 " fill-opacity="1" fill-rule="nonzero"/></g></g></g></g><g clip-path="url(#95257c2002)"><g clip-path="url(#8209864677)"><g clip-path="url(#f9a090cd97)"><g clip-path="url(#fc20dae0a4)"><path fill="#aa4a30" d="M 399.792969 194.992188 C 399.792969 194.992188 439.050781 278.570312 516.207031 209.722656 L 400.136719 189.695312 Z M 399.792969 194.992188 " fill-opacity="1" fill-rule="nonzero"/></g></g></g></g><g clip-path="url(#ceee01a897)"><g clip-path="url(#cc91d369ae)"><g clip-path="url(#274af10acd)"><g clip-path="url(#38521dad7f)"><path fill="#aa4a30" d="M 279.234375 304.285156 L 326.527344 310.457031 L 322.476562 282.710938 Z M 279.234375 304.285156 " fill-opacity="1" fill-rule="nonzero"/></g></g></g></g><g clip-path="url(#afb6189b2f)"><g clip-path="url(#5fe2de86e8)"><g clip-path="url(#c7d5aeca45)"><g clip-path="url(#2368ac93f3)"><path fill="#e89f71" d="M 405.082031 233.722656 C 415.375 241.75 412.9375 260.207031 404.09375 266.726562 C 390.496094 276.839844 317.71875 297.296875 285.398438 303.535156 C 272.472656 306.0625 257.921875 300.777344 250.253906 290.527344 C 239.648438 276.363281 242.265625 259.246094 254.488281 251.171875 C 263.195312 245.441406 297.796875 239.53125 330.351562 235.082031 C 348.242188 232.605469 365.480469 230.621094 377.269531 229.257812 C 380.304688 228.925781 382.984375 228.65625 385.21875 228.355469 C 392.265625 227.660156 399.515625 229.371094 405.082031 233.722656 Z M 405.082031 233.722656 " fill-opacity="1" fill-rule="nonzero"/></g></g></g></g><g clip-path="url(#600f54e626)"><g clip-path="url(#0d42f80d74)"><g clip-path="url(#a814c4529c)"><g clip-path="url(#bebffeed95)"><path fill="#d57149" d="M 377.269531 229.257812 C 341.710938 289.542969 299.730469 261.640625 299.730469 261.640625 C 297.023438 251.449219 326.308594 244.128906 330.351562 235.082031 C 348.242188 232.605469 365.390625 230.617188 377.269531 229.257812 Z M 377.269531 229.257812 " fill-opacity="1" fill-rule="nonzero"/></g></g></g></g><g clip-path="url(#fbb4b43103)"><g clip-path="url(#639da762b8)"><g clip-path="url(#3ac1d3c83c)"><g clip-path="url(#6076a62b3e)"><path fill="#e89f71" d="M 427.167969 106.425781 C 442.042969 108.101562 513.554688 124.886719 550.355469 156.175781 C 550.691406 156.460938 550.050781 158.105469 549.113281 160.261719 C 547.648438 163.710938 545.410156 168.175781 545.105469 168.777344 C 540.574219 178.503906 535.097656 187.722656 528.695312 196.261719 C 525.789062 200.0625 522.71875 203.675781 519.304688 207.089844 C 507.058594 219.59375 491.558594 228.960938 473.941406 231.273438 C 461.601562 232.957031 448.640625 231.851562 437.359375 226.773438 C 415.648438 217.03125 406.914062 197.316406 403.027344 192.984375 C 402.367188 192.234375 401.855469 191.933594 401.394531 192.167969 C 401.300781 192.253906 401.214844 192.246094 401.117188 192.328125 C 399.554688 193.203125 397.992188 194.078125 396.429688 194.949219 C 391.183594 197.890625 385.847656 200.914062 380.601562 203.855469 C 380.328125 204.011719 380.136719 204.179688 379.867188 204.25 C 379.867188 204.25 379.761719 204.507812 379.558594 204.9375 C 376.992188 211.6875 355.972656 263.785156 319.320312 265.75 C 314.160156 266.035156 308.621094 265.320312 302.816406 263.261719 C 300.125 262.378906 298.039062 260.378906 296.863281 258 C 295.847656 255.894531 295.472656 253.476562 296.074219 251.03125 C 299.125 238.199219 305.203125 212.792969 310.617188 192.222656 C 310.738281 191.695312 310.949219 191.179688 311.074219 190.65625 C 311.074219 190.65625 311.074219 190.65625 311.078125 190.566406 C 314.707031 176.972656 318.101562 165.667969 320.019531 162.066406 C 326.066406 150.84375 412.207031 104.746094 427.167969 106.425781 Z M 427.167969 106.425781 " fill-opacity="1" fill-rule="nonzero"/></g></g></g></g><g clip-path="url(#be31442b39)"><g clip-path="url(#e99e34f725)"><g clip-path="url(#4e6280b56c)"><g clip-path="url(#9407def0ab)"><path fill="#aa4a30" d="M 403.046875 200.875 C 404.167969 202.722656 405.53125 204.9375 407.234375 207.355469 C 408.933594 209.859375 410.886719 212.554688 413.09375 215.449219 C 415.300781 218.339844 417.933594 221.4375 420.742188 224.632812 C 423.644531 227.746094 426.621094 231.042969 430.050781 234.191406 C 433.394531 237.332031 437 240.492188 440.792969 243.488281 C 442.738281 244.941406 444.679688 246.488281 446.714844 247.859375 L 449.769531 250.007812 L 452.917969 251.988281 C 455.386719 253.566406 457.949219 255.0625 460.523438 256.378906 C 460.523438 256.378906 460.4375 256.375 460.429688 256.464844 C 458.707031 257.0625 456.972656 257.835938 455.242188 258.519531 C 451.78125 259.980469 448.382812 261.800781 445.078125 263.535156 C 441.761719 265.449219 438.53125 267.453125 435.46875 269.5625 C 432.316406 271.660156 429.515625 273.875 426.710938 276.085938 C 423.910156 278.296875 421.371094 280.527344 418.921875 282.761719 C 416.476562 284.90625 414.382812 287.164062 412.390625 289.164062 C 408.402344 293.25 405.417969 296.867188 403.394531 299.394531 C 401.460938 301.84375 400.386719 303.367188 400.289062 303.539062 C 400.386719 303.367188 401.625 302.03125 403.8125 299.777344 C 406.089844 297.445312 409.410156 294.113281 413.558594 290.304688 C 415.628906 288.398438 417.886719 286.417969 420.414062 284.363281 C 422.851562 282.308594 425.5625 280.175781 428.269531 278.046875 C 431.066406 275.925781 434.039062 273.8125 437.097656 271.792969 C 440.152344 269.777344 443.292969 267.851562 446.601562 266.027344 C 449.824219 264.199219 453.125 262.460938 456.5 260.996094 C 458.148438 260.214844 459.789062 259.523438 461.515625 258.839844 C 462.246094 258.53125 463.0625 258.230469 463.792969 257.921875 C 464.476562 258.320312 465.253906 258.636719 465.9375 259.035156 C 468.175781 260.070312 470.324219 261.09375 472.574219 261.949219 C 474.824219 262.804688 476.984375 263.652344 479.152344 264.414062 C 481.324219 265.089844 483.492188 265.847656 485.667969 266.433594 C 487.851562 266.929688 489.941406 267.507812 492.039062 268 C 494.140625 268.402344 496.152344 268.796875 498.078125 269.191406 C 500.007812 269.492188 501.945312 269.707031 503.792969 269.914062 C 505.636719 270.210938 507.40625 270.238281 509.085938 270.347656 C 510.761719 270.457031 512.351562 270.558594 513.855469 270.566406 C 516.875 270.496094 519.441406 270.574219 521.578125 270.449219 C 525.320312 270.160156 527.636719 269.953125 528.171875 269.902344 C 527.644531 269.867188 525.335938 269.894531 521.527344 269.824219 C 519.398438 269.863281 516.84375 269.609375 513.84375 269.414062 C 512.34375 269.316406 510.757812 269.125 509.175781 268.933594 C 507.503906 268.738281 505.828125 268.628906 503.992188 268.242188 C 502.148438 267.945312 500.304688 267.648438 498.378906 267.257812 C 496.457031 266.867188 494.535156 266.390625 492.441406 265.898438 C 490.433594 265.414062 488.347656 264.746094 486.257812 264.167969 C 484.175781 263.5 482.097656 262.746094 479.929688 261.984375 C 477.761719 261.222656 475.695312 260.289062 473.535156 259.441406 C 471.554688 258.515625 469.488281 257.582031 467.421875 256.652344 C 467.332031 256.644531 467.25 256.550781 467.074219 256.539062 C 466.132812 256.035156 465.1875 255.53125 464.160156 255.019531 C 460.902344 253.300781 457.65625 251.40625 454.503906 249.429688 L 451.441406 247.457031 L 448.472656 245.402344 C 446.433594 244.03125 444.578125 242.578125 442.632812 241.125 C 440.777344 239.671875 438.925781 238.132812 437.070312 236.683594 C 435.308594 235.152344 433.539062 233.707031 431.867188 232.179688 C 428.519531 229.125 425.351562 225.996094 422.441406 223.058594 C 419.621094 220.039062 416.886719 217.113281 414.5 214.296875 C 409.714844 208.757812 406.042969 203.90625 403.609375 200.382812 C 402.394531 198.617188 401.421875 197.226562 400.773438 196.296875 C 400.207031 195.460938 399.886719 194.910156 399.804688 194.816406 C 399.953125 195.269531 400.964844 197.460938 403.046875 200.875 Z M 403.046875 200.875 " fill-opacity="1" fill-rule="nonzero"/></g></g></g></g><g clip-path="url(#085872a091)"><g clip-path="url(#d99dad66b1)"><g clip-path="url(#dd51877f11)"><g clip-path="url(#d7efa410fb)"><path fill="#e89f71" d="M 312.636719 334.644531 C 317.417969 344.265625 328.167969 349.394531 338.671875 347.328125 C 364.972656 342.296875 425.378906 326.710938 436.976562 316.027344 C 444.996094 308.566406 449.09375 293.230469 441.875 285.578125 C 438.054688 281.609375 432.496094 279.828125 427.054688 280.363281 C 405.46875 282.421875 333.796875 289.917969 321.003906 298.574219 C 310.347656 305.683594 306.050781 321.363281 312.636719 334.644531 Z M 312.636719 334.644531 " fill-opacity="1" fill-rule="nonzero"/></g></g></g></g><g clip-path="url(#a30ec18095)"><g clip-path="url(#d5bf807b1c)"><g clip-path="url(#aa92ea3abf)"><g clip-path="url(#2f54d9df95)"><path fill="#d57149" d="M 112.246094 251.960938 C 112.246094 251.960938 121.640625 227.394531 113.179688 207.519531 C 113.945312 221.664062 113.609375 236.449219 112.246094 251.960938 Z M 112.246094 251.960938 " fill-opacity="1" fill-rule="nonzero"/></g></g></g></g><g clip-path="url(#21c2e5cb8b)"><g clip-path="url(#0a7382a611)"><g clip-path="url(#a3a0c763dd)"><g clip-path="url(#bf24fe410a)"><path fill="#d57149" d="M 186.253906 245.328125 C 186.253906 245.328125 194.738281 223.890625 185.707031 208.675781 C 187.511719 220.496094 187.699219 232.652344 186.253906 245.328125 Z M 186.253906 245.328125 " fill-opacity="1" fill-rule="nonzero"/></g></g></g></g><g clip-path="url(#edff71d0f4)"><g clip-path="url(#cbc798e084)"><g clip-path="url(#e531c84403)"><g clip-path="url(#3ed3ff3cc5)"><path fill="#ffc4a3" d="M 400.75 296.386719 C 401.214844 289.238281 406.90625 283.488281 414.050781 282.710938 L 426.726562 281.316406 C 426.726562 281.316406 441.207031 279.507812 444.269531 292.382812 C 445.316406 296.796875 444.394531 301.433594 442.1875 305.371094 C 438.476562 312.046875 432.507812 315.203125 424.066406 316.871094 C 423.976562 316.867188 423.882812 316.949219 423.707031 316.9375 C 411.40625 319.332031 400.074219 309.554688 400.707031 297.09375 C 400.722656 296.828125 400.738281 296.566406 400.75 296.386719 Z M 400.75 296.386719 " fill-opacity="1" fill-rule="nonzero"/></g></g></g></g><g clip-path="url(#ef3046d8b0)"><g clip-path="url(#cd61d68e4c)"><g clip-path="url(#5760b32fb1)"><g clip-path="url(#7441fb6e34)"><path fill="#d57149" d="M 478.097656 261.511719 C 478.097656 261.511719 443.476562 240.378906 482.6875 231.753906 C 453.613281 238.554688 438.832031 234.140625 421.820312 221.6875 C 421.8125 221.777344 442.492188 247.410156 478.097656 261.511719 Z M 478.097656 261.511719 " fill-opacity="1" fill-rule="nonzero"/></g></g></g></g><g clip-path="url(#6deade7d8b)"><g clip-path="url(#556c6b422c)"><g clip-path="url(#ae91e64a35)"><g clip-path="url(#2df6b73da3)"><path fill="#d57149" d="M 612.691406 291.164062 L 610.28125 292.78125 C 610.042969 292.410156 587.519531 258.324219 591.871094 191.226562 C 591.933594 190.257812 591.996094 189.285156 592.0625 188.3125 L 594.972656 188.503906 C 589.859375 256.4375 612.449219 290.792969 612.691406 291.164062 Z M 612.691406 291.164062 " fill-opacity="1" fill-rule="nonzero"/></g></g></g></g><g clip-path="url(#8711af320d)"><g clip-path="url(#b7cd73b352)"><g clip-path="url(#252437d3ae)"><g clip-path="url(#56fcc18eba)"><path fill="#ffc4a3" d="M 330.070312 224.425781 C 323.617188 259.644531 297.46875 258.214844 296.851562 258.175781 C 295.835938 256.070312 295.460938 253.652344 296.0625 251.207031 C 299.113281 238.375 305.105469 212.964844 310.605469 192.398438 C 313.199219 192.035156 336.242188 190.78125 330.070312 224.425781 Z M 330.070312 224.425781 " fill-opacity="1" fill-rule="nonzero"/></g></g></g></g><g clip-path="url(#5977cf002d)"><g clip-path="url(#7788f8a98a)"><g clip-path="url(#9243d4c250)"><g clip-path="url(#d3575bb133)"><path fill="#ffc4a3" d="M 395.808594 230.460938 C 407.925781 233.640625 410.589844 244.453125 409.792969 251.316406 C 409.1875 256.507812 406.355469 264.65625 392.566406 269.527344 C 381.863281 273.265625 370.503906 266.589844 368.660156 255.386719 C 368.097656 251.804688 367.742188 247.703125 367.851562 243.277344 C 367.902344 242.480469 367.859375 241.769531 367.910156 240.976562 C 368.132812 236.203125 371.492188 232.253906 376.085938 231.132812 C 376.085938 231.132812 376.171875 231.136719 376.171875 231.136719 C 381.667969 229.808594 389.183594 228.703125 395.808594 230.460938 Z M 395.808594 230.460938 " fill-opacity="1" fill-rule="nonzero"/></g></g></g></g><g clip-path="url(#a56bac994c)"><g clip-path="url(#bf90860578)"><g clip-path="url(#4659feaee1)"><g clip-path="url(#dd5e0a0dfa)"><path fill="#d57149" d="M 627.25 270.386719 L 624.4375 271.359375 C 624.285156 270.992188 612.039062 234.292969 614.609375 194.652344 L 617.523438 194.84375 C 615.078125 233.871094 627.183594 270.027344 627.25 270.386719 Z M 627.25 270.386719 " fill-opacity="1" fill-rule="nonzero"/></g></g></g></g><g clip-path="url(#5eeda50c3e)"><g clip-path="url(#d486a706be)"><g clip-path="url(#be148deef4)"><g clip-path="url(#f5b14f9542)"><path fill="#aa4a30" d="M 401.273438 161.222656 L 402.675781 161.488281 C 400.15625 173.027344 401.625 185.890625 402.359375 190.992188 C 404.652344 187.0625 411.140625 178.617188 426.707031 173.6875 L 427.144531 175.132812 C 410.128906 180.5 404.261719 190.316406 403.03125 192.898438 C 402.371094 192.144531 401.859375 191.84375 401.402344 192.082031 C 401.308594 192.164062 401.21875 192.160156 401.125 192.242188 C 400.410156 188.207031 398.503906 173.894531 401.273438 161.222656 Z M 401.273438 161.222656 " fill-opacity="1" fill-rule="nonzero"/></g></g></g></g><g clip-path="url(#177f97199d)"><g clip-path="url(#4dc24121e2)"><g clip-path="url(#908c4614a4)"><g clip-path="url(#00791af195)"><path fill="#aa4a30" d="M 349.808594 181.109375 C 355.871094 190.191406 377.6875 202.335938 380.597656 203.941406 C 380.320312 204.101562 380.132812 204.265625 379.863281 204.335938 C 379.863281 204.335938 379.757812 204.597656 379.550781 205.027344 C 377.070312 203.625 354.988281 191.464844 348.515625 181.914062 Z M 349.808594 181.109375 " fill-opacity="1" fill-rule="nonzero"/></g></g></g></g><g clip-path="url(#f0bd4c70e7)"><g clip-path="url(#b7d5d3dea2)"><g clip-path="url(#5bae5d6eed)"><g clip-path="url(#d998e54680)"><path fill="#d57149" d="M 267.128906 236.742188 C 267.128906 236.742188 278.234375 215.832031 264.925781 196.882812 C 265.015625 196.886719 270.375 215.410156 267.128906 236.742188 Z M 267.128906 236.742188 " fill-opacity="1" fill-rule="nonzero"/></g></g></g></g><g clip-path="url(#bdb1c20162)"><g clip-path="url(#2feff0b9b3)"><g clip-path="url(#6db909db34)"><g clip-path="url(#2dd0788fc8)"><path fill="#ecb390" d="M 427.167969 106.425781 C 442.042969 108.101562 513.554688 124.886719 550.355469 156.175781 C 550.601562 156.457031 550.726562 164.089844 549.789062 166.246094 C 517.148438 133.71875 435.984375 114.003906 426.714844 113.402344 C 396.757812 118.816406 335.5625 157.488281 327.882812 163.820312 C 320.390625 169.980469 311.515625 189.265625 311.074219 190.65625 C 314.703125 177.058594 318.09375 165.753906 320.011719 162.15625 C 326.066406 150.84375 412.207031 104.746094 427.167969 106.425781 Z M 427.167969 106.425781 " fill-opacity="1" fill-rule="nonzero"/></g></g></g></g><g clip-path="url(#fecdc84b48)"><g clip-path="url(#1b96c5379b)"><g clip-path="url(#1775a39508)"><g clip-path="url(#7fce92b5dc)"><path fill="#ecb390" d="M 820.519531 126.625 L 819.574219 141.191406 C 747.105469 145.976562 549.699219 166.238281 549.699219 166.238281 L 550.265625 156.167969 L 550.902344 155.945312 L 602.394531 152.015625 C 650.132812 148.550781 820.519531 126.625 820.519531 126.625 Z M 820.519531 126.625 " fill-opacity="1" fill-rule="nonzero"/></g></g></g></g><g clip-path="url(#589bdca557)"><g clip-path="url(#177a924bc8)"><g clip-path="url(#03a14edc17)"><g clip-path="url(#108c6a4b13)"><path fill="#d57149" d="M 188.035156 153.683594 C 188.035156 153.683594 198.4375 136.804688 193.402344 111.917969 C 193.410156 111.832031 205.179688 135.378906 188.035156 153.683594 Z M 188.035156 153.683594 " fill-opacity="1" fill-rule="nonzero"/></g></g></g></g><g clip-path="url(#63f809d1de)"><g clip-path="url(#cb1cd6876e)"><g clip-path="url(#ea32164afd)"><g clip-path="url(#8fd36a3467)"><path fill="#d57149" d="M 366.726562 331.683594 L 365.519531 332.492188 C 365.195312 332.027344 356.59375 319.765625 357.03125 296.65625 L 358.535156 296.664062 C 358.046875 319.238281 366.644531 331.589844 366.726562 331.683594 Z M 366.726562 331.683594 " fill-opacity="1" fill-rule="nonzero"/></g></g></g></g><g clip-path="url(#aa3f47d7d0)"><g clip-path="url(#153a021256)"><g clip-path="url(#668610035c)"><g clip-path="url(#7343699b21)"><path fill="#d57149" d="M 268.523438 176.988281 C 268.523438 176.988281 290.515625 160.417969 281.605469 128.367188 C 281.515625 128.363281 283.433594 154.816406 268.523438 176.988281 Z M 268.523438 176.988281 " fill-opacity="1" fill-rule="nonzero"/></g></g></g></g><g clip-path="url(#2ce3c5f8ac)"><g clip-path="url(#9933bf25bd)"><g clip-path="url(#1773f9cd76)"><g clip-path="url(#63930b1328)"><path fill="#d57149" d="M 808.527344 311.492188 L 807.972656 320.054688 C 674.332031 308.460938 591.167969 325.054688 591.167969 325.054688 C 591.167969 325.054688 552.074219 349.644531 506.042969 366.429688 C 508.328125 365.335938 582.273438 329.617188 587.3125 301.132812 C 587.3125 301.132812 600.515625 310.765625 634.25 310.027344 C 665.589844 309.3125 757.050781 305.582031 808.527344 311.492188 Z M 808.527344 311.492188 " fill-opacity="1" fill-rule="nonzero"/></g></g></g></g><g clip-path="url(#789b200af8)"><g clip-path="url(#55debd2f40)"><g clip-path="url(#169ce735ef)"><g clip-path="url(#ffbdd98fa6)"><path fill="#ecb390" d="M 105.777344 92.050781 C 162.714844 95.742188 294.925781 125.242188 294.925781 125.242188 L 369.167969 130.058594 L 296.101562 130.371094 C 204.1875 108.273438 121.726562 96.277344 98.546875 95.570312 C 72.265625 94.839844 66.125 110.222656 65.539062 111.070312 L 65.550781 110.894531 L 66.164062 108.277344 L 66.167969 108.1875 C 66.378906 107.667969 66.503906 107.144531 66.800781 106.632812 C 70.570312 97.746094 80.882812 90.433594 105.777344 92.050781 Z M 105.777344 92.050781 " fill-opacity="1" fill-rule="nonzero"/></g></g></g></g><g clip-path="url(#e8789a6a1b)"><g clip-path="url(#2fe038705b)"><g clip-path="url(#6505875868)"><g clip-path="url(#f4589c458a)"><path fill="#d57149" d="M 404.507812 314.984375 L 403.550781 316.074219 C 392.195312 306.648438 396.117188 294.046875 396.210938 293.964844 L 397.601562 294.410156 C 397.484375 294.847656 394 306.144531 404.507812 314.984375 Z M 404.507812 314.984375 " fill-opacity="1" fill-rule="nonzero"/></g></g></g></g><g clip-path="url(#b9ed822b70)"><g clip-path="url(#62382d4964)"><g clip-path="url(#f0911d4bb4)"><g clip-path="url(#8b3471db11)"><path fill="#d57149" d="M 118.75 136.6875 C 118.75 136.6875 126.503906 119.636719 122.804688 97.410156 C 122.804688 97.410156 134.027344 119.859375 118.75 136.6875 Z M 118.75 136.6875 " fill-opacity="1" fill-rule="nonzero"/></g></g></g></g><g clip-path="url(#ec0c8c27aa)"><g clip-path="url(#16bd8232e6)"><g clip-path="url(#70602b4759)"><g clip-path="url(#5261096676)"><path fill="#e89f71" d="M 376.179688 231.050781 L 367.761719 243.269531 C 367.8125 242.476562 367.773438 241.765625 367.824219 240.96875 C 368.042969 236.195312 371.402344 232.246094 375.996094 231.125 C 376.089844 231.042969 376.179688 231.050781 376.179688 231.050781 Z M 376.179688 231.050781 " fill-opacity="1" fill-rule="nonzero"/></g></g></g></g><g clip-path="url(#89b5522ec6)"><g clip-path="url(#3f18e4c96a)"><g clip-path="url(#4f57d7f86a)"><g clip-path="url(#0ec41175dd)"><path fill="#d57149" d="M 368.285156 262.542969 L 366.914062 263.164062 C 366.757812 262.886719 363.683594 255.59375 364.164062 248.179688 C 364.171875 248.089844 364.171875 248.089844 364.175781 248.003906 L 365.675781 248.101562 C 365.671875 248.1875 365.671875 248.1875 365.664062 248.277344 C 365.125 255.246094 368.203125 262.449219 368.285156 262.542969 Z M 368.285156 262.542969 " fill-opacity="1" fill-rule="nonzero"/></g></g></g></g><g clip-path="url(#993c7be53e)"><g clip-path="url(#d000d8d35b)"><g clip-path="url(#8b27532cec)"><g clip-path="url(#3e10825ecf)"><path fill="#ecb390" d="M 124.355469 201.949219 C 35.320312 207.964844 28.335938 241.820312 28.191406 242.699219 C 27.667969 239.828125 27.609375 236.632812 28.121094 232.851562 C 31.582031 208.164062 82.707031 204.476562 82.707031 204.476562 Z M 124.355469 201.949219 " fill-opacity="1" fill-rule="nonzero"/></g></g></g></g></svg>