<svg xmlns="http://www.w3.org/2000/svg" xmlns:xlink="http://www.w3.org/1999/xlink" width="1080" zoomAndPan="magnify" viewBox="0 0 810 454.499987" height="606" preserveAspectRatio="xMidYMid meet" version="1.0"><defs><clipPath id="a0782799af"><path d="M 66.3125 0 L 809.492188 0 L 809.492188 453.996094 L 66.3125 453.996094 Z M 66.3125 0 " clip-rule="nonzero"/></clipPath><clipPath id="2ef0c68297"><path d="M 440 76 L 809.492188 76 L 809.492188 195 L 440 195 Z M 440 76 " clip-rule="nonzero"/></clipPath><clipPath id="029965fceb"><path d="M 219 288 L 809.492188 288 L 809.492188 453.996094 L 219 453.996094 Z M 219 288 " clip-rule="nonzero"/></clipPath><clipPath id="44b068c4fe"><path d="M 66.3125 250 L 252 250 L 252 269 L 66.3125 269 Z M 66.3125 250 " clip-rule="nonzero"/></clipPath></defs><g clip-path="url(#a0782799af)"><path fill="#e89f71" d="M 301.828125 1.566406 C 322.40625 15.78125 382.652344 55.539062 440.835938 75.789062 C 440.835938 75.789062 440.917969 75.789062 441 75.871094 C 456.953125 84.464844 507.941406 119.011719 535.792969 149.015625 C 535.792969 149.015625 535.875 149.015625 535.875 149.015625 C 535.875 149.015625 676.125 182.984375 809.347656 149.015625 L 809.347656 325.640625 C 809.347656 325.640625 613.808594 308.53125 535.875 312.25 C 535.875 312.25 461.660156 353.742188 359.679688 356.632812 C 359.679688 356.632812 268.605469 443.003906 233.066406 452.261719 C 227.28125 453.996094 222.902344 453.253906 219.925781 450.855469 C 216.292969 447.882812 214.722656 442.589844 215.132812 436.558594 C 215.132812 436.558594 215.132812 436.476562 215.132812 436.476562 C 215.628906 429.449219 218.6875 421.515625 224.308594 415.398438 C 238.605469 399.695312 313.480469 343.328125 316.207031 335.972656 C 318.851562 328.945312 315.628906 321.425781 307.613281 318.78125 C 307.28125 318.699219 306.871094 318.53125 306.457031 318.449219 C 306.457031 318.449219 167.035156 374.570312 123.5625 377.050781 C 120.753906 377.214844 117.863281 376.882812 115.21875 375.808594 C 111.910156 374.488281 109.597656 372.421875 108.109375 369.859375 C 105.464844 365.476562 105.21875 359.859375 106.789062 354.566406 C 108.769531 347.542969 113.8125 341.097656 120.339844 338.78125 C 136.042969 333.246094 223.8125 309.6875 278.273438 275.058594 C 278.273438 275.058594 278.769531 262.578125 267.613281 261.667969 C 267.613281 261.667969 261.414062 262.246094 251.25 262.992188 C 207.449219 266.378906 89.351562 274.230469 71.746094 260.757812 C 68.027344 257.703125 66.457031 254.148438 66.457031 250.34375 C 66.457031 246.957031 67.613281 243.566406 69.597656 240.34375 C 74.058594 232.988281 82.574219 226.871094 89.265625 226.128906 C 102.242188 224.722656 236.621094 216.871094 269.84375 212.738281 C 269.84375 212.738281 276.621094 210.507812 272.738281 200.589844 C 272.738281 200.507812 272.65625 200.34375 272.65625 200.257812 C 272.65625 200.257812 144.886719 183.066406 112.078125 176.207031 C 104.96875 174.71875 99.84375 168.191406 100.425781 160.917969 C 100.671875 157.859375 101.582031 154.71875 103.316406 151.824219 C 106.457031 146.289062 112.324219 141.742188 121.582031 140.667969 C 145.628906 137.859375 292.902344 145.792969 292.902344 145.792969 C 292.902344 145.792969 308.769531 147.527344 328.769531 143.726562 C 344.308594 140.75 362.242188 134.386719 377.363281 121.328125 C 377.53125 121.164062 377.695312 120.996094 377.945312 120.832031 C 377.945312 120.832031 378.027344 120.585938 377.859375 120.089844 C 377.449219 117.527344 373.976562 108.269531 345.878906 91.078125 C 345.464844 90.828125 345.050781 90.582031 344.71875 90.332031 C 343.066406 89.34375 341.332031 88.265625 339.515625 87.277344 C 337.363281 86.035156 335.132812 84.796875 332.738281 83.472656 C 332.738281 83.472656 277.945312 53.636719 291.085938 5.863281 C 291.746094 3.300781 293.730469 1.566406 295.960938 0.90625 C 297.859375 -0.00390625 300.011719 0.246094 301.828125 1.566406 Z M 301.828125 1.566406 " fill-opacity="1" fill-rule="nonzero"/></g><path fill="#d57149" d="M 387.449219 249.023438 C 387.449219 249.023438 362.902344 220.011719 440.835938 235.386719 C 440.835938 235.386719 365.960938 227.203125 342.074219 175.546875 C 342.074219 175.546875 341.664062 204.0625 387.449219 249.023438 Z M 387.449219 249.023438 " fill-opacity="1" fill-rule="nonzero"/><path fill="#d57149" d="M 277.035156 418.871094 C 277.035156 418.871094 274.058594 405.976562 259.019531 399.199219 C 259.019531 399.28125 271.582031 408.789062 277.035156 418.871094 Z M 277.035156 418.871094 " fill-opacity="1" fill-rule="nonzero"/><path fill="#d57149" d="M 307.28125 394.242188 C 307.53125 394.820312 304.472656 375.066406 285.464844 373.992188 C 285.464844 373.992188 303.316406 384.734375 307.28125 394.242188 Z M 307.28125 394.242188 " fill-opacity="1" fill-rule="nonzero"/><path fill="#d57149" d="M 344.140625 358.039062 C 344.140625 358.039062 342.902344 346.21875 316.289062 339.691406 C 316.289062 339.691406 333.234375 347.460938 344.140625 358.039062 Z M 344.140625 358.039062 " fill-opacity="1" fill-rule="nonzero"/><path fill="#d57149" d="M 291 318.035156 C 291.167969 318.945312 294.96875 296.464844 273.152344 284.398438 C 273.152344 284.398438 288.605469 301.917969 291 318.035156 Z M 291 318.035156 " fill-opacity="1" fill-rule="nonzero"/><path fill="#d57149" d="M 266.539062 258.445312 C 266.539062 258.445312 277.613281 238.113281 266.539062 217.121094 C 266.539062 217.121094 270.917969 236.296875 266.539062 258.445312 Z M 266.539062 258.445312 " fill-opacity="1" fill-rule="nonzero"/><path fill="#d57149" d="M 270.175781 192.984375 C 270.175781 192.984375 293.480469 181.664062 287.695312 153.480469 C 287.695312 153.480469 289.019531 168.027344 270.175781 192.984375 Z M 270.175781 192.984375 " fill-opacity="1" fill-rule="nonzero"/><path fill="#d57149" d="M 378.027344 120.585938 C 377.859375 127.609375 402.570312 188.769531 431.496094 207.617188 C 460.421875 226.460938 485.464844 225.46875 485.464844 225.46875 C 366.867188 238.609375 335.628906 168.191406 328.851562 143.476562 C 344.554688 140.421875 362.820312 133.972656 378.027344 120.585938 Z M 378.027344 120.585938 " fill-opacity="1" fill-rule="nonzero"/><path fill="#aa4a30" d="M 404.71875 95.625 L 405.878906 96.449219 C 395.296875 111.742188 383.398438 118.683594 379.511719 120.585938 C 382.570312 122.15625 392.324219 126.121094 414.800781 127.941406 L 414.71875 129.34375 C 386.207031 127.03125 378.027344 121.410156 377.613281 121.164062 L 377.449219 121.078125 C 377.613281 120.914062 377.777344 120.75 378.027344 120.585938 C 378.027344 120.585938 378.109375 120.335938 377.941406 119.839844 C 379.84375 118.929688 393.148438 112.484375 404.71875 95.625 Z M 404.71875 95.625 " fill-opacity="1" fill-rule="nonzero"/><path fill="#aa4a30" d="M 362.074219 66.53125 L 363.398438 67.027344 C 358.191406 80.828125 351.414062 90.25 349.429688 92.894531 C 349.019531 92.648438 348.605469 92.398438 348.273438 92.152344 C 350.09375 89.753906 356.785156 80.332031 362.074219 66.53125 Z M 362.074219 66.53125 " fill-opacity="1" fill-rule="nonzero"/><path fill="#d57149" d="M 378.605469 309.277344 C 378.605469 309.277344 344.390625 212.820312 388.6875 247.535156 C 388.6875 247.535156 356.125 211.25 342.074219 177.363281 C 342.074219 177.363281 368.523438 269.023438 336.042969 238.195312 C 336.042969 238.277344 368.851562 277.207031 378.605469 309.277344 Z M 378.605469 309.277344 " fill-opacity="1" fill-rule="nonzero"/><path fill="#aa4a30" d="M 334.554688 151.660156 L 333.234375 151.992188 L 331.910156 152.320312 C 331.910156 152.40625 331.992188 152.734375 332.160156 153.148438 C 334.390625 161 353.398438 222.328125 408.605469 265.058594 L 410.339844 262.824219 C 375.214844 235.632812 354.886719 200.839844 344.308594 177.449219 C 348.191406 183.066406 353.234375 189.183594 359.679688 195.21875 C 379.761719 213.980469 418.027344 234.890625 485.792969 228.113281 L 485.546875 225.386719 C 418.851562 231.996094 381.414062 211.582031 361.664062 193.316406 C 341.167969 174.308594 335.132812 153.5625 334.636719 151.742188 C 334.554688 151.742188 334.554688 151.660156 334.554688 151.660156 Z M 334.554688 151.660156 " fill-opacity="1" fill-rule="nonzero"/><path fill="#aa4a30" d="M 385.464844 332.253906 L 382.738281 332.914062 C 382.570312 332.085938 362.984375 250.179688 319.101562 230.59375 L 320.257812 228.03125 C 365.382812 248.195312 384.71875 328.863281 385.464844 332.253906 Z M 385.464844 332.253906 " fill-opacity="1" fill-rule="nonzero"/><g clip-path="url(#2ef0c68297)"><path fill="#d57149" d="M 440.917969 76.035156 C 456.867188 84.632812 507.859375 119.179688 535.710938 149.179688 C 535.710938 149.179688 535.792969 149.179688 535.792969 149.179688 C 535.792969 149.179688 676.042969 183.152344 809.261719 149.179688 L 809.261719 176.042969 C 746.621094 182.488281 607.613281 168.605469 575.710938 166.457031 C 541.082031 164.140625 540.175781 194.144531 540.175781 194.144531 C 528.355469 132.402344 444.886719 78.515625 440.917969 76.035156 Z M 440.917969 76.035156 " fill-opacity="1" fill-rule="nonzero"/></g><path fill="#d57149" d="M 560.503906 242.578125 C 560.503906 262.082031 557.117188 275.71875 556.949219 276.546875 L 552.902344 275.554688 C 552.984375 275.222656 560.503906 244.644531 552.902344 209.515625 L 556.949219 208.605469 C 559.59375 220.921875 560.503906 232.574219 560.503906 242.578125 Z M 560.503906 242.578125 " fill-opacity="1" fill-rule="nonzero"/><path fill="#d57149" d="M 578.191406 241.253906 C 578.191406 256.046875 576.453125 268.695312 576.289062 269.4375 L 572.15625 268.859375 C 572.238281 268.613281 576.207031 239.847656 572.15625 218.773438 L 576.207031 218.027344 C 577.777344 225.386719 578.191406 233.566406 578.191406 241.253906 Z M 578.191406 241.253906 " fill-opacity="1" fill-rule="nonzero"/><g clip-path="url(#029965fceb)"><path fill="#ecb390" d="M 538.273438 288.199219 C 538.273438 288.199219 535.464844 306.21875 561.332031 305.308594 C 578.191406 304.730469 708.105469 303.488281 809.261719 306.546875 L 809.261719 325.640625 C 809.261719 325.640625 613.726562 308.53125 535.792969 312.25 C 535.792969 312.25 461.578125 353.742188 359.597656 356.632812 C 359.597656 356.632812 268.523438 443.003906 232.984375 452.261719 C 227.199219 453.996094 222.820312 453.253906 219.84375 450.855469 C 220.257812 451.023438 226.953125 453.089844 243.398438 444.574219 C 260.339844 435.730469 338.355469 375.976562 357.695312 351.34375 C 357.695312 351.261719 518.191406 338.121094 538.273438 288.199219 Z M 538.273438 288.199219 " fill-opacity="1" fill-rule="nonzero"/></g><path fill="#ecb390" d="M 296.042969 0.574219 C 283.234375 46.28125 339.597656 86.945312 339.597656 86.945312 C 337.449219 85.707031 335.214844 84.464844 332.820312 83.144531 C 332.820312 83.144531 278.027344 53.304688 291.167969 5.535156 C 291.828125 2.972656 293.730469 1.238281 296.042969 0.574219 Z M 296.042969 0.574219 " fill-opacity="1" fill-rule="nonzero"/><path fill="#d57149" d="M 316.125 335.804688 C 311.992188 348.535156 251 394.738281 233.730469 409.695312 C 217.53125 423.746094 215.21875 434.988281 214.96875 436.308594 C 215.464844 429.285156 218.523438 421.351562 224.140625 415.234375 C 238.523438 399.53125 313.316406 343.246094 316.125 335.804688 Z M 316.125 335.804688 " fill-opacity="1" fill-rule="nonzero"/><path fill="#d57149" d="M 278.191406 274.808594 C 272.570312 293.65625 152.902344 332.167969 131.414062 337.375 C 109.929688 342.582031 106.703125 354.320312 106.703125 354.320312 C 108.6875 347.296875 113.730469 340.847656 120.257812 338.535156 C 135.960938 332.996094 223.730469 309.441406 278.191406 274.808594 Z M 278.191406 274.808594 " fill-opacity="1" fill-rule="nonzero"/><path fill="#d57149" d="M 269.925781 212.492188 C 270.835938 219.847656 107.945312 226.957031 92.324219 228.441406 C 76.707031 229.929688 69.597656 240.097656 69.597656 240.097656 C 74.058594 232.742188 82.574219 226.625 89.265625 225.882812 C 102.242188 224.476562 236.621094 216.625 269.925781 212.492188 Z M 269.925781 212.492188 " fill-opacity="1" fill-rule="nonzero"/><path fill="#d57149" d="M 292.984375 145.460938 C 268.523438 150.585938 162.738281 141.578125 136.953125 141.992188 C 111.910156 142.402344 103.894531 151 103.398438 151.496094 C 106.539062 145.957031 112.40625 141.410156 121.664062 140.335938 C 145.628906 137.609375 292.984375 145.460938 292.984375 145.460938 Z M 292.984375 145.460938 " fill-opacity="1" fill-rule="nonzero"/><path fill="#ecb390" d="M 136.953125 370.769531 C 152.40625 368.121094 292.570312 320.1875 306.375 318.367188 C 306.375 318.367188 166.953125 374.488281 123.480469 376.964844 C 120.671875 377.132812 117.777344 376.800781 115.132812 375.726562 C 111.828125 374.40625 109.515625 372.339844 108.027344 369.777344 C 108.523438 370.105469 121.085938 373.496094 136.953125 370.769531 Z M 136.953125 370.769531 " fill-opacity="1" fill-rule="nonzero"/><path fill="#ecb390" d="M 307.53125 325.390625 C 307.199219 325.308594 306.785156 325.144531 306.375 325.0625 C 307.035156 324.980469 307.449219 325.0625 307.53125 325.390625 Z M 307.53125 325.390625 " fill-opacity="1" fill-rule="nonzero"/><g clip-path="url(#44b068c4fe)"><path fill="#ecb390" d="M 66.457031 250.097656 C 66.457031 250.097656 72.738281 261.171875 92.160156 261.339844 C 104.144531 261.421875 208.523438 264.394531 251.332031 262.742188 C 207.53125 266.132812 89.433594 273.984375 71.828125 260.511719 C 68.027344 257.453125 66.457031 253.816406 66.457031 250.097656 Z M 66.457031 250.097656 " fill-opacity="1" fill-rule="nonzero"/></g><path fill="#ecb390" d="M 272.820312 207.121094 C 272.820312 207.035156 272.738281 206.871094 272.738281 206.789062 C 272.820312 206.871094 272.820312 206.953125 272.820312 207.121094 Z M 272.820312 207.121094 " fill-opacity="1" fill-rule="nonzero"/><path fill="#ecb390" d="M 100.507812 160.753906 C 100.507812 160.753906 104.804688 170.175781 119.347656 172.902344 C 133.894531 175.710938 269.101562 196.707031 272.738281 200.011719 C 272.738281 200.011719 144.96875 182.820312 112.160156 175.960938 C 104.96875 174.554688 99.84375 168.027344 100.507812 160.753906 Z M 100.507812 160.753906 " fill-opacity="1" fill-rule="nonzero"/><path fill="#d57149" d="M 179.347656 360.4375 C 179.347656 360.4375 181.085938 340.023438 166.207031 328.039062 C 166.125 328.039062 176.207031 341.425781 179.347656 360.4375 Z M 179.347656 360.4375 " fill-opacity="1" fill-rule="nonzero"/><path fill="#d57149" d="M 230.175781 343.492188 C 230.175781 343.492188 226.125 322.335938 215.050781 311.835938 C 215.050781 311.835938 237.117188 317.953125 230.175781 343.492188 Z M 230.175781 343.492188 " fill-opacity="1" fill-rule="nonzero"/><path fill="#d57149" d="M 200.257812 263.074219 C 200.257812 263.074219 213.152344 242.082031 199.101562 221.003906 C 199.101562 221.003906 202.738281 243.652344 200.257812 263.074219 Z M 200.257812 263.074219 " fill-opacity="1" fill-rule="nonzero"/><path fill="#d57149" d="M 134.886719 263.074219 C 134.886719 263.074219 143.398438 242.988281 134.886719 228.855469 C 134.886719 228.855469 137.199219 245.71875 134.886719 263.074219 Z M 134.886719 263.074219 " fill-opacity="1" fill-rule="nonzero"/><path fill="#d57149" d="M 211.746094 185.132812 C 211.746094 185.132812 232.984375 173.8125 226.785156 145.628906 C 226.703125 145.628906 228.109375 163.398438 211.746094 185.132812 Z M 211.746094 185.132812 " fill-opacity="1" fill-rule="nonzero"/><path fill="#d57149" d="M 166.207031 179.429688 C 166.207031 179.429688 181.25 163.480469 171.992188 141.992188 C 171.992188 141.992188 177.035156 155.875 166.207031 179.429688 Z M 166.207031 179.429688 " fill-opacity="1" fill-rule="nonzero"/></svg>