<svg xmlns="http://www.w3.org/2000/svg" xmlns:xlink="http://www.w3.org/1999/xlink" width="1080" zoomAndPan="magnify" viewBox="0 0 810 454.499987" height="606" preserveAspectRatio="xMidYMid meet" version="1.0"><defs><clipPath id="c79b7163b0"><path d="M 0.507812 0 L 743.632812 0 L 743.632812 453.996094 L 0.507812 453.996094 Z M 0.507812 0 " clip-rule="nonzero"/></clipPath><clipPath id="3148070bdb"><path d="M 0.507812 76 L 370 76 L 370 195 L 0.507812 195 Z M 0.507812 76 " clip-rule="nonzero"/></clipPath><clipPath id="96d7dc1546"><path d="M 0.507812 288 L 591 288 L 591 453.996094 L 0.507812 453.996094 Z M 0.507812 288 " clip-rule="nonzero"/></clipPath><clipPath id="9f60e2cbbb"><path d="M 558 250 L 743.632812 250 L 743.632812 269 L 558 269 Z M 558 250 " clip-rule="nonzero"/></clipPath></defs><g clip-path="url(#c79b7163b0)"><path fill="#e89f71" d="M 508.171875 1.566406 C 487.59375 15.78125 427.347656 55.539062 369.164062 75.789062 C 369.164062 75.789062 369.082031 75.789062 369 75.871094 C 353.046875 84.464844 302.058594 119.011719 274.207031 149.015625 C 274.207031 149.015625 274.125 149.015625 274.125 149.015625 C 274.125 149.015625 133.875 182.984375 0.652344 149.015625 L 0.652344 325.640625 C 0.652344 325.640625 196.191406 308.53125 274.125 312.25 C 274.125 312.25 348.339844 353.742188 450.320312 356.632812 C 450.320312 356.632812 541.394531 443.003906 576.933594 452.261719 C 582.71875 453.996094 587.097656 453.253906 590.074219 450.855469 C 593.707031 447.878906 595.277344 442.589844 594.867188 436.558594 C 594.867188 436.558594 594.867188 436.476562 594.867188 436.476562 C 594.371094 429.449219 591.3125 421.515625 585.691406 415.398438 C 571.394531 399.695312 496.519531 343.328125 493.792969 335.972656 C 491.148438 328.945312 494.371094 321.425781 502.386719 318.78125 C 502.71875 318.699219 503.128906 318.53125 503.542969 318.449219 C 503.542969 318.449219 642.964844 374.570312 686.4375 377.050781 C 689.246094 377.214844 692.136719 376.882812 694.78125 375.808594 C 698.089844 374.488281 700.402344 372.421875 701.890625 369.859375 C 704.535156 365.476562 704.78125 359.859375 703.210938 354.566406 C 701.230469 347.542969 696.1875 341.097656 689.660156 338.78125 C 673.957031 333.246094 586.1875 309.6875 531.726562 275.058594 C 531.726562 275.058594 531.230469 262.578125 542.386719 261.667969 C 542.386719 261.667969 548.585938 262.246094 558.75 262.992188 C 602.550781 266.378906 720.648438 274.230469 738.253906 260.757812 C 741.972656 257.703125 743.542969 254.148438 743.542969 250.34375 C 743.542969 246.957031 742.386719 243.566406 740.402344 240.34375 C 735.9375 232.988281 727.425781 226.871094 720.734375 226.128906 C 707.757812 224.722656 573.378906 216.871094 540.15625 212.738281 C 540.15625 212.738281 533.378906 210.507812 537.261719 200.589844 C 537.261719 200.507812 537.34375 200.34375 537.34375 200.257812 C 537.34375 200.257812 665.113281 183.066406 697.921875 176.207031 C 705.03125 174.71875 710.15625 168.191406 709.574219 160.917969 C 709.328125 157.859375 708.417969 154.71875 706.683594 151.824219 C 703.542969 146.289062 697.675781 141.742188 688.417969 140.667969 C 664.371094 137.859375 517.097656 145.792969 517.097656 145.792969 C 517.097656 145.792969 501.230469 147.527344 481.230469 143.726562 C 465.691406 140.75 447.757812 134.386719 432.636719 121.328125 C 432.46875 121.164062 432.304688 120.996094 432.054688 120.832031 C 432.054688 120.832031 431.972656 120.582031 432.140625 120.089844 C 432.550781 117.527344 436.023438 108.269531 464.121094 91.078125 C 464.535156 90.828125 464.949219 90.582031 465.28125 90.332031 C 466.933594 89.34375 468.667969 88.265625 470.484375 87.277344 C 472.636719 86.035156 474.867188 84.796875 477.261719 83.472656 C 477.261719 83.472656 532.054688 53.636719 518.914062 5.863281 C 518.253906 3.300781 516.269531 1.566406 514.039062 0.90625 C 512.140625 -0.00390625 509.988281 0.246094 508.171875 1.566406 Z M 508.171875 1.566406 " fill-opacity="1" fill-rule="nonzero"/></g><path fill="#d57149" d="M 422.550781 249.023438 C 422.550781 249.023438 447.097656 220.011719 369.164062 235.386719 C 369.164062 235.386719 444.039062 227.203125 467.925781 175.546875 C 467.925781 175.546875 468.335938 204.0625 422.550781 249.023438 Z M 422.550781 249.023438 " fill-opacity="1" fill-rule="nonzero"/><path fill="#d57149" d="M 532.964844 418.871094 C 532.964844 418.871094 535.941406 405.976562 550.980469 399.199219 C 550.980469 399.28125 538.417969 408.785156 532.964844 418.871094 Z M 532.964844 418.871094 " fill-opacity="1" fill-rule="nonzero"/><path fill="#d57149" d="M 502.71875 394.242188 C 502.46875 394.820312 505.527344 375.066406 524.535156 373.992188 C 524.535156 373.992188 506.683594 384.734375 502.71875 394.242188 Z M 502.71875 394.242188 " fill-opacity="1" fill-rule="nonzero"/><path fill="#d57149" d="M 465.859375 358.039062 C 465.859375 358.039062 467.097656 346.21875 493.710938 339.691406 C 493.710938 339.691406 476.765625 347.460938 465.859375 358.039062 Z M 465.859375 358.039062 " fill-opacity="1" fill-rule="nonzero"/><path fill="#d57149" d="M 519 318.035156 C 518.832031 318.945312 515.03125 296.464844 536.847656 284.398438 C 536.847656 284.398438 521.394531 301.917969 519 318.035156 Z M 519 318.035156 " fill-opacity="1" fill-rule="nonzero"/><path fill="#d57149" d="M 543.460938 258.445312 C 543.460938 258.445312 532.386719 238.113281 543.460938 217.121094 C 543.460938 217.121094 539.082031 236.296875 543.460938 258.445312 Z M 543.460938 258.445312 " fill-opacity="1" fill-rule="nonzero"/><path fill="#d57149" d="M 539.824219 192.984375 C 539.824219 192.984375 516.519531 181.664062 522.304688 153.480469 C 522.304688 153.480469 520.980469 168.027344 539.824219 192.984375 Z M 539.824219 192.984375 " fill-opacity="1" fill-rule="nonzero"/><path fill="#d57149" d="M 431.972656 120.582031 C 432.140625 127.609375 407.429688 188.769531 378.503906 207.613281 C 349.578125 226.460938 324.535156 225.46875 324.535156 225.46875 C 443.132812 238.609375 474.371094 168.191406 481.148438 143.476562 C 465.445312 140.421875 447.179688 133.972656 431.972656 120.582031 Z M 431.972656 120.582031 " fill-opacity="1" fill-rule="nonzero"/><path fill="#aa4a30" d="M 405.28125 95.625 L 404.121094 96.449219 C 414.703125 111.742188 426.601562 118.683594 430.488281 120.582031 C 427.429688 122.152344 417.675781 126.121094 395.199219 127.941406 L 395.28125 129.34375 C 423.792969 127.03125 431.972656 121.410156 432.386719 121.164062 L 432.550781 121.078125 C 432.386719 120.914062 432.222656 120.75 431.972656 120.582031 C 431.972656 120.582031 431.890625 120.335938 432.054688 119.839844 C 430.15625 118.929688 416.851562 112.484375 405.28125 95.625 Z M 405.28125 95.625 " fill-opacity="1" fill-rule="nonzero"/><path fill="#aa4a30" d="M 447.925781 66.53125 L 446.601562 67.027344 C 451.808594 80.828125 458.585938 90.25 460.570312 92.894531 C 460.980469 92.648438 461.394531 92.398438 461.726562 92.152344 C 459.90625 89.753906 453.214844 80.332031 447.925781 66.53125 Z M 447.925781 66.53125 " fill-opacity="1" fill-rule="nonzero"/><path fill="#d57149" d="M 431.394531 309.277344 C 431.394531 309.277344 465.609375 212.820312 421.3125 247.535156 C 421.3125 247.535156 453.875 211.25 467.925781 177.363281 C 467.925781 177.363281 441.476562 269.023438 473.957031 238.195312 C 473.957031 238.277344 441.148438 277.207031 431.394531 309.277344 Z M 431.394531 309.277344 " fill-opacity="1" fill-rule="nonzero"/><path fill="#aa4a30" d="M 475.445312 151.660156 L 476.765625 151.992188 L 478.089844 152.320312 C 478.089844 152.40625 478.007812 152.734375 477.839844 153.148438 C 475.609375 161 456.601562 222.328125 401.394531 265.058594 L 399.660156 262.824219 C 434.785156 235.632812 455.113281 200.835938 465.691406 177.449219 C 461.808594 183.066406 456.765625 189.183594 450.320312 195.21875 C 430.238281 213.980469 391.972656 234.890625 324.207031 228.113281 L 324.453125 225.386719 C 391.148438 231.996094 428.585938 211.582031 448.335938 193.316406 C 468.832031 174.308594 474.867188 153.5625 475.363281 151.742188 C 475.445312 151.742188 475.445312 151.660156 475.445312 151.660156 Z M 475.445312 151.660156 " fill-opacity="1" fill-rule="nonzero"/><path fill="#aa4a30" d="M 424.535156 332.253906 L 427.261719 332.914062 C 427.429688 332.085938 447.015625 250.179688 490.898438 230.59375 L 489.742188 228.03125 C 444.617188 248.195312 425.28125 328.863281 424.535156 332.253906 Z M 424.535156 332.253906 " fill-opacity="1" fill-rule="nonzero"/><g clip-path="url(#3148070bdb)"><path fill="#d57149" d="M 369.082031 76.035156 C 353.132812 84.632812 302.140625 119.179688 274.289062 149.179688 C 274.289062 149.179688 274.207031 149.179688 274.207031 149.179688 C 274.207031 149.179688 133.957031 183.152344 0.738281 149.179688 L 0.738281 176.042969 C 63.378906 182.488281 202.386719 168.605469 234.289062 166.457031 C 268.917969 164.140625 269.824219 194.144531 269.824219 194.144531 C 281.644531 132.402344 365.113281 78.515625 369.082031 76.035156 Z M 369.082031 76.035156 " fill-opacity="1" fill-rule="nonzero"/></g><path fill="#d57149" d="M 249.496094 242.578125 C 249.496094 262.082031 252.882812 275.71875 253.050781 276.546875 L 257.097656 275.554688 C 257.015625 275.222656 249.496094 244.644531 257.097656 209.515625 L 253.050781 208.605469 C 250.40625 220.921875 249.496094 232.574219 249.496094 242.578125 Z M 249.496094 242.578125 " fill-opacity="1" fill-rule="nonzero"/><path fill="#d57149" d="M 231.808594 241.253906 C 231.808594 256.046875 233.546875 268.695312 233.710938 269.4375 L 237.84375 268.859375 C 237.761719 268.613281 233.792969 239.847656 237.84375 218.773438 L 233.792969 218.027344 C 232.222656 225.386719 231.808594 233.566406 231.808594 241.253906 Z M 231.808594 241.253906 " fill-opacity="1" fill-rule="nonzero"/><g clip-path="url(#96d7dc1546)"><path fill="#ecb390" d="M 271.726562 288.199219 C 271.726562 288.199219 274.535156 306.21875 248.667969 305.308594 C 231.808594 304.730469 101.894531 303.488281 0.734375 306.546875 L 0.734375 325.640625 C 0.734375 325.640625 196.273438 308.53125 274.207031 312.25 C 274.207031 312.25 348.421875 353.742188 450.402344 356.632812 C 450.402344 356.632812 541.476562 443.003906 577.015625 452.261719 C 582.800781 453.996094 587.179688 453.253906 590.15625 450.855469 C 589.742188 451.023438 583.046875 453.085938 566.601562 444.574219 C 549.660156 435.730469 471.644531 375.976562 452.304688 351.34375 C 452.304688 351.261719 291.808594 338.121094 271.726562 288.199219 Z M 271.726562 288.199219 " fill-opacity="1" fill-rule="nonzero"/></g><path fill="#ecb390" d="M 513.957031 0.574219 C 526.765625 46.28125 470.402344 86.945312 470.402344 86.945312 C 472.550781 85.707031 474.785156 84.464844 477.179688 83.144531 C 477.179688 83.144531 531.972656 53.304688 518.832031 5.535156 C 518.171875 2.972656 516.269531 1.234375 513.957031 0.574219 Z M 513.957031 0.574219 " fill-opacity="1" fill-rule="nonzero"/><path fill="#d57149" d="M 493.875 335.804688 C 498.007812 348.535156 559 394.738281 576.269531 409.695312 C 592.46875 423.746094 594.78125 434.988281 595.03125 436.308594 C 594.535156 429.285156 591.476562 421.351562 585.859375 415.234375 C 571.476562 399.53125 496.683594 343.246094 493.875 335.804688 Z M 493.875 335.804688 " fill-opacity="1" fill-rule="nonzero"/><path fill="#d57149" d="M 531.808594 274.808594 C 537.429688 293.65625 657.097656 332.167969 678.585938 337.375 C 700.070312 342.582031 703.296875 354.320312 703.296875 354.320312 C 701.3125 347.292969 696.269531 340.847656 689.742188 338.535156 C 674.039062 332.996094 586.269531 309.441406 531.808594 274.808594 Z M 531.808594 274.808594 " fill-opacity="1" fill-rule="nonzero"/><path fill="#d57149" d="M 540.074219 212.492188 C 539.164062 219.847656 702.054688 226.957031 717.675781 228.441406 C 733.292969 229.929688 740.402344 240.097656 740.402344 240.097656 C 735.941406 232.742188 727.425781 226.625 720.734375 225.882812 C 707.757812 224.476562 573.378906 216.625 540.074219 212.492188 Z M 540.074219 212.492188 " fill-opacity="1" fill-rule="nonzero"/><path fill="#d57149" d="M 517.015625 145.460938 C 541.476562 150.585938 647.261719 141.578125 673.046875 141.992188 C 698.089844 142.402344 706.105469 151 706.601562 151.496094 C 703.460938 145.957031 697.59375 141.410156 688.335938 140.335938 C 664.371094 137.609375 517.015625 145.460938 517.015625 145.460938 Z M 517.015625 145.460938 " fill-opacity="1" fill-rule="nonzero"/><path fill="#ecb390" d="M 673.046875 370.769531 C 657.59375 368.121094 517.429688 320.183594 503.625 318.367188 C 503.625 318.367188 643.046875 374.488281 686.519531 376.964844 C 689.328125 377.132812 692.21875 376.800781 694.867188 375.726562 C 698.171875 374.40625 700.484375 372.339844 701.972656 369.777344 C 701.476562 370.105469 688.914062 373.496094 673.046875 370.769531 Z M 673.046875 370.769531 " fill-opacity="1" fill-rule="nonzero"/><path fill="#ecb390" d="M 502.46875 325.390625 C 502.800781 325.308594 503.214844 325.144531 503.625 325.0625 C 502.964844 324.980469 502.550781 325.0625 502.46875 325.390625 Z M 502.46875 325.390625 " fill-opacity="1" fill-rule="nonzero"/><g clip-path="url(#9f60e2cbbb)"><path fill="#ecb390" d="M 743.542969 250.097656 C 743.542969 250.097656 737.261719 261.171875 717.839844 261.339844 C 705.855469 261.421875 601.476562 264.394531 558.667969 262.742188 C 602.46875 266.132812 720.566406 273.984375 738.171875 260.511719 C 741.972656 257.453125 743.542969 253.816406 743.542969 250.097656 Z M 743.542969 250.097656 " fill-opacity="1" fill-rule="nonzero"/></g><path fill="#ecb390" d="M 537.179688 207.121094 C 537.179688 207.035156 537.261719 206.871094 537.261719 206.789062 C 537.179688 206.871094 537.179688 206.953125 537.179688 207.121094 Z M 537.179688 207.121094 " fill-opacity="1" fill-rule="nonzero"/><path fill="#ecb390" d="M 709.492188 160.753906 C 709.492188 160.753906 705.195312 170.175781 690.652344 172.902344 C 676.105469 175.710938 540.898438 196.707031 537.261719 200.011719 C 537.261719 200.011719 665.03125 182.820312 697.839844 175.960938 C 705.03125 174.554688 710.15625 168.027344 709.492188 160.753906 Z M 709.492188 160.753906 " fill-opacity="1" fill-rule="nonzero"/><path fill="#d57149" d="M 630.652344 360.4375 C 630.652344 360.4375 628.914062 340.023438 643.792969 328.039062 C 643.875 328.039062 633.792969 341.425781 630.652344 360.4375 Z M 630.652344 360.4375 " fill-opacity="1" fill-rule="nonzero"/><path fill="#d57149" d="M 579.824219 343.492188 C 579.824219 343.492188 583.875 322.335938 594.949219 311.835938 C 594.949219 311.835938 572.882812 317.953125 579.824219 343.492188 Z M 579.824219 343.492188 " fill-opacity="1" fill-rule="nonzero"/><path fill="#d57149" d="M 609.742188 263.074219 C 609.742188 263.074219 596.847656 242.082031 610.898438 221.003906 C 610.898438 221.003906 607.261719 243.652344 609.742188 263.074219 Z M 609.742188 263.074219 " fill-opacity="1" fill-rule="nonzero"/><path fill="#d57149" d="M 675.113281 263.074219 C 675.113281 263.074219 666.601562 242.988281 675.113281 228.855469 C 675.113281 228.855469 672.800781 245.71875 675.113281 263.074219 Z M 675.113281 263.074219 " fill-opacity="1" fill-rule="nonzero"/><path fill="#d57149" d="M 598.253906 185.132812 C 598.253906 185.132812 577.015625 173.8125 583.214844 145.628906 C 583.296875 145.628906 581.890625 163.398438 598.253906 185.132812 Z M 598.253906 185.132812 " fill-opacity="1" fill-rule="nonzero"/><path fill="#d57149" d="M 643.792969 179.429688 C 643.792969 179.429688 628.75 163.480469 638.007812 141.992188 C 638.007812 141.992188 632.964844 155.875 643.792969 179.429688 Z M 643.792969 179.429688 " fill-opacity="1" fill-rule="nonzero"/></svg>