<svg xmlns="http://www.w3.org/2000/svg" xmlns:xlink="http://www.w3.org/1999/xlink" width="1080" zoomAndPan="magnify" viewBox="0 0 810 454.499987" height="606" preserveAspectRatio="xMidYMid meet" version="1.0"><defs><clipPath id="0c7b8c8dc3"><path d="M 233 107 L 809.441406 107 L 809.441406 374 L 233 374 Z M 233 107 " clip-rule="nonzero"/></clipPath><clipPath id="06ee12523a"><path d="M 504 117 L 809.441406 117 L 809.441406 206 L 504 206 Z M 504 117 " clip-rule="nonzero"/></clipPath><clipPath id="9f29a900d2"><path d="M 523 304 L 809.441406 304 L 809.441406 365 L 523 365 Z M 523 304 " clip-rule="nonzero"/></clipPath></defs><g clip-path="url(#0c7b8c8dc3)"><path fill="#e89f71" d="M 523.304688 364.34375 C 523.304688 364.34375 523.367188 364.34375 523.488281 364.285156 C 548.164062 358.03125 572.277344 348.070312 592.929688 332.660156 C 673.378906 319.289062 809.292969 322.757812 809.292969 322.757812 L 809.292969 117.414062 C 720.808594 145.199219 576.050781 158.195312 508.585938 142.972656 C 507.722656 142.785156 506.855469 142.539062 506.050781 142.351562 C 450.710938 128.863281 377.3125 113.636719 353.316406 108.6875 C 350.84375 108.191406 348.867188 107.820312 347.566406 107.511719 C 346.082031 107.203125 344.539062 107.015625 342.992188 107.078125 C 342.992188 107.078125 342.992188 107.078125 342.929688 107.078125 C 342.621094 107.078125 342.3125 107.078125 342.0625 107.140625 L 341.878906 107.140625 C 341.632812 107.140625 341.320312 107.203125 341.074219 107.203125 C 340.457031 107.203125 339.898438 107.203125 339.34375 107.261719 C 339.15625 107.324219 338.972656 107.324219 338.847656 107.324219 C 337.859375 107.386719 336.746094 107.449219 335.570312 107.511719 L 335.449219 107.511719 C 335.261719 107.511719 335.078125 107.574219 334.953125 107.574219 C 334.707031 107.632812 334.457031 107.632812 334.210938 107.632812 L 334.027344 107.632812 C 333.65625 107.695312 333.34375 107.695312 332.972656 107.695312 C 332.914062 107.695312 332.914062 107.695312 332.914062 107.695312 C 332.230469 107.757812 331.613281 107.820312 330.933594 107.882812 C 329.695312 108.003906 328.523438 108.128906 327.347656 108.253906 C 323.945312 108.625 320.605469 109.121094 317.328125 109.675781 C 317.269531 109.675781 317.269531 109.675781 317.269531 109.738281 C 267.121094 118.277344 233.542969 146.933594 233.542969 146.933594 L 302.675781 153.554688 L 307.929688 147.800781 C 309.722656 155.96875 312.011719 165.375 314.546875 175.585938 C 333.035156 250.285156 366.675781 367.933594 366.675781 367.933594 C 366.675781 367.933594 447.433594 383.59375 523.304688 364.34375 Z M 523.304688 364.34375 " fill-opacity="1" fill-rule="nonzero"/></g><g clip-path="url(#06ee12523a)"><path fill="#d57149" d="M 553.726562 205.664062 C 553.726562 205.664062 560.902344 167.789062 576.421875 166.738281 C 590.085938 165.808594 755.3125 157.703125 809.292969 138.515625 L 809.292969 117.414062 C 720.808594 145.199219 576.050781 158.195312 508.585938 142.972656 C 502.34375 163.148438 502.714844 178.683594 510.566406 185.859375 C 527.695312 201.457031 553.726562 205.664062 553.726562 205.664062 Z M 553.726562 205.664062 " fill-opacity="1" fill-rule="nonzero"/></g><path fill="#d57149" d="M 319.617188 177.132812 L 353.316406 108.6875 C 350.78125 108.191406 348.804688 107.757812 347.445312 107.511719 C 345.960938 107.203125 344.476562 107.078125 342.929688 107.078125 C 342.621094 107.078125 342.3125 107.078125 342.0625 107.078125 L 341.878906 107.078125 C 341.632812 107.078125 341.320312 107.078125 341.074219 107.078125 C 340.457031 107.078125 339.898438 107.078125 339.34375 107.140625 C 339.15625 107.140625 339.035156 107.140625 338.847656 107.140625 C 337.859375 107.203125 336.683594 107.261719 335.570312 107.324219 L 335.449219 107.324219 C 335.261719 107.324219 335.136719 107.324219 334.953125 107.324219 C 334.707031 107.324219 334.457031 107.324219 334.210938 107.386719 L 334.027344 107.386719 C 333.714844 107.386719 333.34375 107.449219 332.972656 107.449219 C 332.972656 107.449219 332.972656 107.449219 332.914062 107.449219 C 332.292969 107.511719 331.613281 107.574219 330.933594 107.632812 C 329.695312 107.757812 328.523438 107.820312 327.347656 107.945312 C 323.945312 108.316406 320.605469 108.808594 317.328125 109.367188 C 317.328125 109.367188 317.269531 109.367188 317.269531 109.367188 C 267.121094 117.96875 233.542969 146.5625 233.542969 146.5625 L 302.675781 153.554688 L 307.929688 147.800781 C 309.785156 155.96875 312.011719 165.375 314.546875 175.585938 Z M 319.617188 177.132812 " fill-opacity="1" fill-rule="nonzero"/><path fill="#aa4a30" d="M 348.617188 107.757812 C 348.617188 107.757812 325.308594 114.378906 312.570312 133.007812 C 310.40625 132.511719 271.140625 123.476562 242.941406 139.136719 C 214.746094 154.792969 329.015625 187.71875 342.1875 151.699219 C 355.359375 115.679688 348.617188 107.757812 348.617188 107.757812 Z M 348.617188 107.757812 " fill-opacity="1" fill-rule="nonzero"/><path fill="#933d2a" d="M 493.683594 261.550781 C 494.179688 261.550781 494.425781 261.613281 494.425781 261.613281 C 494.179688 261.613281 493.933594 261.550781 493.683594 261.550781 Z M 493.683594 261.550781 " fill-opacity="1" fill-rule="nonzero"/><path fill="#933d2a" d="M 428.632812 338.847656 C 401.363281 325.601562 333.777344 222.621094 336.808594 197.0625 C 340.457031 166.488281 381.699219 157.019531 394.625 166.921875 C 401.734375 172.367188 408.597656 189.699219 413.300781 204.054688 C 419.050781 221.695312 430.921875 236.730469 446.875 246.140625 C 459.675781 253.691406 476.125 257.21875 493.625 261.550781 C 487.191406 259.941406 441.371094 262.910156 429.066406 276.898438 C 416.578125 291.070312 441.679688 306.230469 440.199219 329.8125 C 440.011719 333.089844 439.023438 336.1875 437.230469 338.910156 C 432.839844 345.59375 420.71875 358.34375 388.503906 371.089844 C 348.988281 386.6875 403.34375 350.480469 428.632812 338.847656 Z M 428.632812 338.847656 " fill-opacity="1" fill-rule="nonzero"/><path fill="#e89f71" d="M 388.566406 371.027344 C 403.15625 364.839844 416.824219 356.671875 426.222656 349.058594 C 426.285156 349.058594 426.285156 349.058594 426.285156 348.996094 C 432.714844 343.796875 437.042969 338.847656 438.34375 334.949219 C 444.15625 317.496094 418.371094 300.722656 408.042969 305.242188 C 397.714844 309.761719 312.320312 334.207031 312.320312 334.207031 C 312.320312 334.207031 311.207031 336.929688 310.34375 341.074219 L 310.34375 341.136719 C 309.972656 342.871094 309.664062 344.914062 309.539062 347.078125 C 309.539062 347.078125 309.539062 347.078125 309.539062 347.140625 C 308.734375 358.03125 311.828125 372.949219 331.863281 379.507812 C 346.886719 384.457031 368.589844 379.570312 388.566406 371.027344 Z M 388.566406 371.027344 " fill-opacity="1" fill-rule="nonzero"/><path fill="#d57149" d="M 426.222656 349.058594 C 432.589844 343.859375 436.980469 338.910156 438.28125 335.011719 C 444.09375 317.558594 418.308594 300.785156 407.980469 305.304688 C 397.65625 309.820312 312.320312 334.269531 312.320312 334.269531 C 312.320312 334.269531 311.207031 336.992188 310.34375 341.136719 C 312.753906 337.980469 316.21875 335.816406 320.113281 335.011719 C 334.769531 332.039062 373.292969 323.746094 400.992188 312.296875 C 415.710938 306.234375 432.53125 314.835938 436.179688 330.308594 C 436.238281 330.554688 436.300781 330.863281 436.363281 331.109375 C 436.363281 331.171875 436.363281 338.226562 426.222656 349.058594 Z M 426.222656 349.058594 " fill-opacity="1" fill-rule="nonzero"/><path fill="#e89f71" d="M 311.144531 334.640625 C 332.355469 332.660156 363.210938 324.796875 407.980469 305.242188 C 410.949219 303.074219 412.371094 297.941406 412.1875 291.566406 C 411.816406 277.515625 403.777344 257.464844 388.625 250.347656 C 388.625 250.347656 373.910156 259.074219 343.488281 265.386719 C 324.9375 269.222656 300.449219 272.195312 269.902344 271.699219 C 269.902344 271.699219 268.417969 273.433594 266.6875 276.773438 C 266.625 276.835938 266.625 276.835938 266.625 276.835938 C 266.191406 277.640625 265.757812 278.570312 265.324219 279.558594 C 265.324219 279.558594 265.324219 279.558594 265.324219 279.621094 C 262.914062 285.253906 260.566406 293.792969 261.679688 304.933594 C 263.222656 320.589844 275.40625 333.089844 291.050781 334.761719 C 296.554688 335.320312 303.167969 335.382812 311.144531 334.640625 Z M 311.144531 334.640625 " fill-opacity="1" fill-rule="nonzero"/><path fill="#d57149" d="M 407.980469 305.304688 C 417.628906 298.1875 410.578125 260.746094 388.625 250.410156 C 388.625 250.410156 350.535156 273 269.902344 271.699219 C 269.902344 271.699219 268.417969 273.433594 266.6875 276.773438 C 266.6875 276.773438 266.6875 276.773438 266.75 276.710938 C 269.160156 274.421875 272.5 273.183594 275.839844 273.433594 C 280.660156 273.804688 287.710938 274.175781 290.742188 273.742188 L 290.121094 283.890625 C 290.121094 283.890625 316.648438 292.308594 340.210938 275.164062 C 340.210938 275.164062 353.378906 270.957031 366.179688 266.191406 C 385.347656 259.074219 406.375 272.132812 407.855469 292.554688 C 408.167969 296.453125 408.226562 300.664062 407.980469 305.304688 Z M 407.980469 305.304688 " fill-opacity="1" fill-rule="nonzero"/><path fill="#e89f71" d="M 344.414062 205.109375 C 352.699219 204.613281 359.316406 203.683594 363.148438 202.324219 C 374.835938 197.929688 377.433594 184.4375 371.4375 171.441406 C 367.230469 162.34375 358.699219 153.554688 346.082031 148.355469 C 318.628906 137.09375 291.605469 135.113281 273.984375 133.257812 C 267.492188 132.574219 260.9375 132.882812 254.691406 134.492188 C 249.496094 135.855469 243.558594 138.144531 238.425781 142.105469 C 228.472656 149.78125 221.421875 163.644531 227.976562 188.832031 C 232.121094 202.261719 245.910156 202.445312 245.910156 202.445312 C 245.910156 202.445312 248.011719 202.632812 251.660156 202.816406 C 268.109375 203.933594 315.847656 206.839844 344.414062 205.109375 Z M 344.414062 205.109375 " fill-opacity="1" fill-rule="nonzero"/><path fill="#aa4a30" d="M 344.414062 205.109375 C 352.699219 204.613281 359.316406 203.683594 363.148438 202.324219 C 374.835938 197.929688 377.433594 184.4375 371.4375 171.441406 Z M 344.414062 205.109375 " fill-opacity="1" fill-rule="nonzero"/><path fill="#aa4a30" d="M 412.1875 291.625 C 411.816406 277.578125 403.777344 257.527344 388.625 250.410156 C 388.625 250.410156 373.972656 259.136719 343.546875 265.386719 C 338.105469 268.171875 334.644531 270.089844 334.644531 270.089844 C 334.644531 270.089844 351.523438 267.367188 367.789062 262.789062 C 387.882812 257.15625 408.539062 270.027344 412.0625 290.636719 C 412.125 290.945312 412.125 291.316406 412.1875 291.625 Z M 412.1875 291.625 " fill-opacity="1" fill-rule="nonzero"/><path fill="#e89f71" d="M 323.636719 270.707031 C 346.144531 268.171875 369.703125 262.355469 388.6875 250.410156 C 388.6875 250.410156 392.582031 201.640625 363.210938 202.324219 C 358.390625 202.445312 353.070312 202.632812 347.320312 202.816406 C 318.132812 203.808594 278.804688 205.539062 246.15625 202.324219 C 246.15625 202.324219 239.726562 206.222656 234.53125 214.824219 C 232.738281 217.792969 231.070312 221.261719 229.894531 225.40625 C 228.226562 231.164062 227.484375 238.09375 228.472656 246.261719 C 229.648438 255.609375 235.769531 263.652344 244.609375 266.933594 C 250.546875 269.101562 258.773438 271.082031 270.027344 271.824219 C 284.308594 272.628906 303.539062 273 323.636719 270.707031 Z M 323.636719 270.707031 " fill-opacity="1" fill-rule="nonzero"/><path fill="#d57149" d="M 233.605469 216.988281 C 240.53125 210.492188 249.804688 207.148438 259.328125 207.769531 C 270.457031 208.511719 287.585938 209.316406 300.015625 208.574219 L 363.210938 202.324219 C 333.902344 202.941406 285.175781 206.160156 246.15625 202.324219 C 246.15625 202.324219 239.726562 206.222656 234.53125 214.824219 L 233.667969 217.050781 C 233.542969 217.050781 233.542969 216.988281 233.605469 216.988281 Z M 233.605469 216.988281 " fill-opacity="1" fill-rule="nonzero"/><path fill="#d57149" d="M 323.636719 270.707031 C 346.144531 268.171875 369.703125 262.355469 388.6875 250.410156 C 388.6875 250.410156 392.582031 201.640625 363.210938 202.324219 C 358.390625 202.445312 353.070312 202.632812 347.320312 202.816406 L 345.652344 207.148438 L 322.460938 266.933594 C 322.585938 268.355469 323.019531 269.59375 323.636719 270.707031 Z M 323.636719 270.707031 " fill-opacity="1" fill-rule="nonzero"/><path fill="#aa4a30" d="M 388.566406 249.296875 C 388.625 249.667969 388.625 250.039062 388.625 250.410156 C 388.625 250.410156 392.523438 201.640625 363.148438 202.324219 C 358.328125 202.445312 353.007812 202.632812 347.257812 202.816406 L 345.589844 207.148438 C 341.570312 230.914062 336.808594 268.046875 336.808594 268.046875 C 336.808594 268.046875 347.257812 258.394531 355.730469 242.550781 C 363.890625 227.203125 387.019531 232.027344 388.566406 249.296875 Z M 388.566406 249.296875 " fill-opacity="1" fill-rule="nonzero"/><path fill="#e89f71" d="M 390.480469 172.492188 L 391.65625 171.625 C 391.65625 171.625 400.25 226.707031 455.285156 250.410156 C 506.050781 262.847656 532.394531 246.449219 546 223.734375 C 565.414062 191.246094 556.449219 149.160156 526.394531 126.199219 C 439.703125 60.042969 419.605469 70.253906 419.605469 70.253906 C 298.347656 118.03125 294.019531 180.230469 294.019531 180.230469 C 293.648438 188.089844 293.277344 197.125 292.90625 206.53125 C 292.84375 207.953125 292.78125 209.316406 292.71875 210.738281 C 291.359375 245.828125 290.121094 283.953125 290.121094 283.953125 C 355.234375 292.492188 364.078125 202.816406 364.882812 192.050781 C 364.945312 191.367188 364.945312 190.996094 364.945312 190.996094 L 365.5625 190.5625 Z M 390.480469 172.492188 " fill-opacity="1" fill-rule="nonzero"/><path fill="#ecb390" d="M 251.660156 202.816406 C 242.941406 200.652344 237.6875 197.496094 233.542969 192.730469 C 221.792969 166.984375 237.4375 143.46875 238.367188 142.167969 C 228.410156 149.84375 221.359375 163.703125 227.914062 188.894531 C 232.058594 202.324219 245.847656 202.507812 245.847656 202.507812 C 245.847656 202.507812 247.949219 202.632812 251.660156 202.816406 Z M 251.660156 202.816406 " fill-opacity="1" fill-rule="nonzero"/><path fill="#ecb390" d="M 293.398438 211.050781 C 293.398438 211.050781 296.304688 185.242188 297.480469 178.558594 C 300.695312 160.175781 331.242188 110.296875 419.605469 70.316406 C 298.347656 118.03125 294.019531 180.230469 294.019531 180.230469 C 293.648438 188.089844 293.277344 197.125 292.90625 206.53125 C 292.84375 207.953125 292.78125 209.316406 292.71875 210.738281 C 292.964844 210.863281 293.214844 210.988281 293.398438 211.050781 Z M 293.398438 211.050781 " fill-opacity="1" fill-rule="nonzero"/><path fill="#ffc4a3" d="M 290.121094 283.953125 C 290.121094 283.953125 317.453125 280.921875 317.328125 247.808594 C 317.207031 220.332031 310.960938 205.972656 292.90625 206.53125 C 291.484375 242.734375 290.121094 283.953125 290.121094 283.953125 Z M 290.121094 283.953125 " fill-opacity="1" fill-rule="nonzero"/><path fill="#ecb390" d="M 269.964844 271.699219 C 222.597656 265.695312 229.832031 225.34375 229.832031 225.34375 C 228.164062 231.101562 227.421875 238.03125 228.410156 246.203125 C 229.585938 255.546875 235.707031 263.589844 244.550781 266.871094 C 250.484375 269.039062 258.710938 270.957031 269.964844 271.699219 Z M 269.964844 271.699219 " fill-opacity="1" fill-rule="nonzero"/><path fill="#ecb390" d="M 311.144531 334.640625 C 311.886719 334.390625 312.320312 334.207031 312.320312 334.207031 C 253.453125 336.558594 264.957031 281.664062 265.386719 279.558594 C 262.976562 285.191406 260.625 293.730469 261.738281 304.871094 C 263.285156 320.527344 275.46875 333.03125 291.113281 334.699219 C 296.554688 335.320312 303.167969 335.382812 311.144531 334.640625 Z M 311.144531 334.640625 " fill-opacity="1" fill-rule="nonzero"/><path fill="#ecb390" d="M 388.566406 371.027344 C 313.125 394.175781 309.664062 348.625 309.539062 347.140625 C 308.734375 358.03125 311.828125 372.949219 331.863281 379.507812 C 346.886719 384.457031 368.589844 379.570312 388.566406 371.027344 Z M 388.566406 371.027344 " fill-opacity="1" fill-rule="nonzero"/><path fill="#aa4a30" d="M 364.882812 192.050781 C 364.945312 191.367188 364.945312 190.996094 364.945312 190.996094 L 365.5625 190.5625 C 362.160156 187.097656 347.445312 173.359375 325.058594 174.472656 L 325.121094 176.019531 C 348.125 174.84375 362.777344 189.757812 364.882812 192.050781 Z M 364.882812 192.050781 " fill-opacity="1" fill-rule="nonzero"/><path fill="#aa4a30" d="M 390.480469 172.492188 L 391.65625 171.625 C 391.59375 171.253906 390.171875 138.207031 403.960938 123.105469 L 402.785156 122.054688 C 392.089844 133.75 390.667969 156.277344 390.605469 167.417969 C 387.882812 158.628906 381.761719 143.28125 371.1875 138.824219 L 370.570312 140.25 C 382.753906 145.386719 388.9375 166.613281 390.480469 172.492188 Z M 390.480469 172.492188 " fill-opacity="1" fill-rule="nonzero"/><g clip-path="url(#9f29a900d2)"><path fill="#ecb390" d="M 592.929688 332.660156 C 673.378906 319.289062 809.292969 322.757812 809.292969 322.757812 L 809.292969 307.347656 C 738.988281 308.585938 644.316406 317.621094 621.5 318.609375 C 597.691406 319.664062 587.859375 304.5 587.859375 304.5 C 580.195312 348.996094 526.953125 363.230469 523.488281 364.222656 C 548.101562 358.03125 572.277344 348.070312 592.929688 332.660156 Z M 592.929688 332.660156 " fill-opacity="1" fill-rule="nonzero"/></g><path fill="#d57149" d="M 594.105469 269.472656 C 594.105469 223.796875 582.417969 205.167969 581.863281 204.304688 L 579.265625 205.972656 C 579.390625 206.222656 593.921875 229.675781 590.394531 287.417969 L 593.488281 287.605469 C 593.921875 281.167969 594.105469 275.101562 594.105469 269.472656 Z M 594.105469 269.472656 " fill-opacity="1" fill-rule="nonzero"/><path fill="#d57149" d="M 611.421875 263.097656 C 611.421875 239.207031 604.1875 211.914062 603.816406 210.617188 L 600.785156 211.421875 C 600.847656 211.792969 610 246.140625 608.019531 270.894531 L 611.109375 271.140625 C 611.359375 268.542969 611.421875 265.820312 611.421875 263.097656 Z M 611.421875 263.097656 " fill-opacity="1" fill-rule="nonzero"/></svg>