<svg xmlns="http://www.w3.org/2000/svg" xmlns:xlink="http://www.w3.org/1999/xlink" width="1080" zoomAndPan="magnify" viewBox="0 0 810 454.499987" height="606" preserveAspectRatio="xMidYMid meet" version="1.0"><defs><clipPath id="50e72d4415"><path d="M 0.546875 107 L 577 107 L 577 374 L 0.546875 374 Z M 0.546875 107 " clip-rule="nonzero"/></clipPath><clipPath id="5491989b43"><path d="M 0.546875 117 L 306 117 L 306 206 L 0.546875 206 Z M 0.546875 117 " clip-rule="nonzero"/></clipPath><clipPath id="e91ff582cd"><path d="M 0.546875 304 L 287 304 L 287 365 L 0.546875 365 Z M 0.546875 304 " clip-rule="nonzero"/></clipPath></defs><g clip-path="url(#50e72d4415)"><path fill="#e89f71" d="M 286.6875 364.34375 C 286.6875 364.34375 286.625 364.34375 286.5 364.285156 C 261.828125 358.03125 237.710938 348.070312 217.058594 332.660156 C 136.609375 319.289062 0.695312 322.757812 0.695312 322.757812 L 0.695312 117.414062 C 89.183594 145.199219 233.941406 158.195312 301.402344 142.972656 C 302.269531 142.785156 303.132812 142.539062 303.9375 142.351562 C 359.28125 128.863281 432.679688 113.636719 456.671875 108.6875 C 459.144531 108.191406 461.125 107.820312 462.421875 107.511719 C 463.90625 107.203125 465.453125 107.015625 467 107.078125 C 467 107.078125 467 107.078125 467.0625 107.078125 C 467.371094 107.078125 467.679688 107.078125 467.925781 107.140625 L 468.113281 107.140625 C 468.359375 107.140625 468.667969 107.203125 468.914062 107.203125 C 469.535156 107.203125 470.089844 107.203125 470.648438 107.261719 C 470.832031 107.324219 471.019531 107.324219 471.140625 107.324219 C 472.132812 107.386719 473.246094 107.449219 474.417969 107.511719 L 474.542969 107.511719 C 474.726562 107.511719 474.914062 107.574219 475.039062 107.574219 C 475.285156 107.632812 475.53125 107.632812 475.78125 107.632812 L 475.964844 107.632812 C 476.335938 107.695312 476.644531 107.695312 477.015625 107.695312 C 477.078125 107.695312 477.078125 107.695312 477.078125 107.695312 C 477.757812 107.757812 478.375 107.820312 479.058594 107.882812 C 480.292969 108.003906 481.46875 108.128906 482.644531 108.253906 C 486.042969 108.625 489.382812 109.121094 492.660156 109.675781 C 492.722656 109.675781 492.722656 109.675781 492.722656 109.738281 C 542.871094 118.277344 576.449219 146.933594 576.449219 146.933594 L 507.316406 153.554688 L 502.058594 147.800781 C 500.265625 155.96875 497.980469 165.375 495.445312 175.585938 C 476.953125 250.285156 443.316406 367.933594 443.316406 367.933594 C 443.316406 367.933594 362.558594 383.59375 286.6875 364.34375 Z M 286.6875 364.34375 " fill-opacity="1" fill-rule="nonzero"/></g><g clip-path="url(#5491989b43)"><path fill="#d57149" d="M 256.261719 205.664062 C 256.261719 205.664062 249.089844 167.789062 233.570312 166.738281 C 219.902344 165.808594 54.679688 157.703125 0.695312 138.515625 L 0.695312 117.414062 C 89.183594 145.199219 233.941406 158.195312 301.402344 142.972656 C 307.648438 163.148438 307.277344 178.683594 299.425781 185.859375 C 282.296875 201.457031 256.261719 205.664062 256.261719 205.664062 Z M 256.261719 205.664062 " fill-opacity="1" fill-rule="nonzero"/></g><path fill="#d57149" d="M 490.371094 177.132812 L 456.671875 108.6875 C 459.207031 108.191406 461.1875 107.757812 462.546875 107.511719 C 464.03125 107.203125 465.515625 107.078125 467.0625 107.078125 C 467.371094 107.078125 467.679688 107.078125 467.925781 107.078125 L 468.113281 107.078125 C 468.359375 107.078125 468.667969 107.078125 468.914062 107.078125 C 469.535156 107.078125 470.089844 107.078125 470.648438 107.140625 C 470.832031 107.140625 470.957031 107.140625 471.140625 107.140625 C 472.132812 107.203125 473.304688 107.261719 474.417969 107.324219 L 474.542969 107.324219 C 474.726562 107.324219 474.851562 107.324219 475.039062 107.324219 C 475.285156 107.324219 475.53125 107.324219 475.78125 107.386719 L 475.964844 107.386719 C 476.273438 107.386719 476.644531 107.449219 477.015625 107.449219 C 477.015625 107.449219 477.015625 107.449219 477.078125 107.449219 C 477.695312 107.511719 478.375 107.574219 479.058594 107.632812 C 480.292969 107.757812 481.46875 107.820312 482.644531 107.945312 C 486.042969 108.316406 489.382812 108.808594 492.660156 109.367188 C 492.660156 109.367188 492.722656 109.367188 492.722656 109.367188 C 542.871094 117.96875 576.449219 146.5625 576.449219 146.5625 L 507.316406 153.554688 L 502.058594 147.800781 C 500.203125 155.96875 497.980469 165.375 495.445312 175.585938 Z M 490.371094 177.132812 " fill-opacity="1" fill-rule="nonzero"/><path fill="#aa4a30" d="M 461.371094 107.757812 C 461.371094 107.757812 484.683594 114.378906 497.421875 133.007812 C 499.585938 132.511719 538.851562 123.476562 567.050781 139.136719 C 595.246094 154.792969 480.972656 187.71875 467.804688 151.699219 C 454.632812 115.679688 461.371094 107.757812 461.371094 107.757812 Z M 461.371094 107.757812 " fill-opacity="1" fill-rule="nonzero"/><path fill="#933d2a" d="M 316.304688 261.550781 C 315.8125 261.550781 315.5625 261.613281 315.5625 261.613281 C 315.8125 261.613281 316.058594 261.550781 316.304688 261.550781 Z M 316.304688 261.550781 " fill-opacity="1" fill-rule="nonzero"/><path fill="#933d2a" d="M 381.355469 338.847656 C 408.625 325.601562 476.210938 222.621094 473.183594 197.0625 C 469.535156 166.488281 428.289062 157.019531 415.367188 166.921875 C 408.253906 172.367188 401.390625 189.699219 396.691406 204.054688 C 390.941406 221.695312 379.070312 236.730469 363.113281 246.140625 C 350.316406 253.691406 333.867188 257.21875 316.367188 261.550781 C 322.796875 259.941406 368.617188 262.910156 380.921875 276.898438 C 393.414062 291.070312 368.308594 306.230469 369.792969 329.8125 C 369.980469 333.089844 370.96875 336.1875 372.761719 338.910156 C 377.152344 345.59375 389.273438 358.34375 421.488281 371.089844 C 461 386.6875 406.648438 350.480469 381.355469 338.847656 Z M 381.355469 338.847656 " fill-opacity="1" fill-rule="nonzero"/><path fill="#e89f71" d="M 421.425781 371.027344 C 406.832031 364.839844 393.167969 356.671875 383.769531 349.058594 C 383.707031 349.058594 383.707031 349.058594 383.707031 348.996094 C 377.277344 343.796875 372.945312 338.847656 371.648438 334.949219 C 365.835938 317.496094 391.621094 300.722656 401.949219 305.242188 C 412.273438 309.761719 497.667969 334.207031 497.667969 334.207031 C 497.667969 334.207031 498.78125 336.929688 499.648438 341.074219 L 499.648438 341.136719 C 500.019531 342.871094 500.328125 344.914062 500.453125 347.078125 C 500.453125 347.078125 500.453125 347.078125 500.453125 347.140625 C 501.257812 358.03125 498.164062 372.949219 478.128906 379.507812 C 463.101562 384.457031 441.398438 379.570312 421.425781 371.027344 Z M 421.425781 371.027344 " fill-opacity="1" fill-rule="nonzero"/><path fill="#d57149" d="M 383.769531 349.058594 C 377.398438 343.859375 373.007812 338.910156 371.710938 335.011719 C 365.898438 317.558594 391.683594 300.785156 402.007812 305.304688 C 412.335938 309.820312 497.667969 334.269531 497.667969 334.269531 C 497.667969 334.269531 498.78125 336.992188 499.648438 341.136719 C 497.238281 337.980469 493.773438 335.816406 489.878906 335.011719 C 475.222656 332.039062 436.699219 323.746094 408.996094 312.296875 C 394.28125 306.234375 377.460938 314.835938 373.8125 330.308594 C 373.75 330.554688 373.6875 330.863281 373.628906 331.109375 C 373.628906 331.171875 373.628906 338.226562 383.769531 349.058594 Z M 383.769531 349.058594 " fill-opacity="1" fill-rule="nonzero"/><path fill="#e89f71" d="M 498.84375 334.640625 C 477.632812 332.660156 446.777344 324.796875 402.007812 305.242188 C 399.042969 303.074219 397.621094 297.941406 397.804688 291.566406 C 398.175781 277.515625 406.214844 257.464844 421.363281 250.347656 C 421.363281 250.347656 436.082031 259.074219 466.503906 265.386719 C 485.054688 269.222656 509.542969 272.195312 540.089844 271.699219 C 540.089844 271.699219 541.574219 273.433594 543.304688 276.773438 C 543.367188 276.835938 543.367188 276.835938 543.367188 276.835938 C 543.800781 277.640625 544.230469 278.570312 544.664062 279.558594 C 544.664062 279.558594 544.664062 279.558594 544.664062 279.621094 C 547.078125 285.253906 549.425781 293.792969 548.3125 304.933594 C 546.765625 320.589844 534.585938 333.089844 518.941406 334.761719 C 513.4375 335.320312 506.820312 335.382812 498.84375 334.640625 Z M 498.84375 334.640625 " fill-opacity="1" fill-rule="nonzero"/><path fill="#d57149" d="M 402.007812 305.304688 C 392.363281 298.1875 399.414062 260.746094 421.363281 250.410156 C 421.363281 250.410156 459.453125 273 540.089844 271.699219 C 540.089844 271.699219 541.574219 273.433594 543.304688 276.773438 C 543.304688 276.773438 543.304688 276.773438 543.242188 276.710938 C 540.832031 274.421875 537.492188 273.183594 534.152344 273.433594 C 529.328125 273.804688 522.28125 274.175781 519.25 273.742188 L 519.867188 283.890625 C 519.867188 283.890625 493.339844 292.308594 469.78125 275.164062 C 469.78125 275.164062 456.609375 270.957031 443.8125 266.191406 C 424.640625 259.074219 403.617188 272.132812 402.132812 292.554688 C 401.824219 296.453125 401.761719 300.664062 402.007812 305.304688 Z M 402.007812 305.304688 " fill-opacity="1" fill-rule="nonzero"/><path fill="#e89f71" d="M 465.578125 205.109375 C 457.289062 204.613281 450.675781 203.683594 446.839844 202.324219 C 435.152344 197.929688 432.554688 184.4375 438.554688 171.441406 C 442.757812 162.34375 451.292969 153.554688 463.90625 148.355469 C 491.363281 137.09375 518.382812 135.113281 536.007812 133.257812 C 542.5 132.574219 549.054688 132.882812 555.300781 134.492188 C 560.496094 135.855469 566.429688 138.144531 571.5625 142.105469 C 581.519531 149.78125 588.566406 163.644531 582.011719 188.832031 C 577.871094 202.261719 564.082031 202.445312 564.082031 202.445312 C 564.082031 202.445312 561.980469 202.632812 558.332031 202.816406 C 541.882812 203.933594 494.144531 206.839844 465.578125 205.109375 Z M 465.578125 205.109375 " fill-opacity="1" fill-rule="nonzero"/><path fill="#aa4a30" d="M 465.578125 205.109375 C 457.289062 204.613281 450.675781 203.683594 446.839844 202.324219 C 435.152344 197.929688 432.554688 184.4375 438.554688 171.441406 Z M 465.578125 205.109375 " fill-opacity="1" fill-rule="nonzero"/><path fill="#aa4a30" d="M 397.804688 291.625 C 398.175781 277.578125 406.214844 257.527344 421.363281 250.410156 C 421.363281 250.410156 436.019531 259.136719 466.441406 265.386719 C 471.882812 268.171875 475.347656 270.089844 475.347656 270.089844 C 475.347656 270.089844 458.464844 267.367188 442.203125 262.789062 C 422.105469 257.15625 401.453125 270.027344 397.929688 290.636719 C 397.867188 290.945312 397.867188 291.316406 397.804688 291.625 Z M 397.804688 291.625 " fill-opacity="1" fill-rule="nonzero"/><path fill="#e89f71" d="M 486.355469 270.707031 C 463.84375 268.171875 440.285156 262.355469 421.300781 250.410156 C 421.300781 250.410156 417.40625 201.640625 446.777344 202.324219 C 451.601562 202.445312 456.917969 202.632812 462.671875 202.816406 C 491.855469 203.808594 531.183594 205.539062 563.832031 202.324219 C 563.832031 202.324219 570.265625 206.222656 575.457031 214.824219 C 577.253906 217.792969 578.921875 221.261719 580.097656 225.40625 C 581.765625 231.164062 582.507812 238.09375 581.519531 246.261719 C 580.34375 255.609375 574.222656 263.652344 565.378906 266.933594 C 559.445312 269.101562 551.21875 271.082031 539.964844 271.824219 C 525.679688 272.628906 506.449219 273 486.355469 270.707031 Z M 486.355469 270.707031 " fill-opacity="1" fill-rule="nonzero"/><path fill="#d57149" d="M 576.386719 216.988281 C 569.460938 210.492188 560.183594 207.148438 550.664062 207.769531 C 539.53125 208.511719 522.402344 209.316406 509.976562 208.574219 L 446.777344 202.324219 C 476.089844 202.941406 524.816406 206.160156 563.832031 202.324219 C 563.832031 202.324219 570.265625 206.222656 575.457031 214.824219 L 576.324219 217.050781 C 576.449219 217.050781 576.449219 216.988281 576.386719 216.988281 Z M 576.386719 216.988281 " fill-opacity="1" fill-rule="nonzero"/><path fill="#d57149" d="M 486.355469 270.707031 C 463.84375 268.171875 440.285156 262.355469 421.300781 250.410156 C 421.300781 250.410156 417.40625 201.640625 446.777344 202.324219 C 451.601562 202.445312 456.917969 202.632812 462.671875 202.816406 L 464.339844 207.148438 L 487.527344 266.933594 C 487.40625 268.355469 486.972656 269.59375 486.355469 270.707031 Z M 486.355469 270.707031 " fill-opacity="1" fill-rule="nonzero"/><path fill="#aa4a30" d="M 421.425781 249.296875 C 421.363281 249.667969 421.363281 250.039062 421.363281 250.410156 C 421.363281 250.410156 417.46875 201.640625 446.839844 202.324219 C 451.664062 202.445312 456.980469 202.632812 462.730469 202.816406 L 464.402344 207.148438 C 468.421875 230.914062 473.183594 268.046875 473.183594 268.046875 C 473.183594 268.046875 462.730469 258.394531 454.261719 242.550781 C 446.097656 227.203125 422.972656 232.027344 421.425781 249.296875 Z M 421.425781 249.296875 " fill-opacity="1" fill-rule="nonzero"/><path fill="#e89f71" d="M 419.507812 172.492188 L 418.335938 171.625 C 418.335938 171.625 409.738281 226.707031 354.707031 250.410156 C 303.9375 262.847656 277.597656 246.449219 263.992188 223.734375 C 244.574219 191.246094 253.542969 149.160156 283.59375 126.199219 C 370.289062 60.042969 390.382812 70.253906 390.382812 70.253906 C 511.644531 118.03125 515.972656 180.230469 515.972656 180.230469 C 516.34375 188.089844 516.714844 197.125 517.085938 206.53125 C 517.148438 207.953125 517.210938 209.316406 517.269531 210.738281 C 518.632812 245.828125 519.867188 283.953125 519.867188 283.953125 C 454.753906 292.492188 445.914062 202.816406 445.109375 192.050781 C 445.046875 191.367188 445.046875 190.996094 445.046875 190.996094 L 444.429688 190.5625 Z M 419.507812 172.492188 " fill-opacity="1" fill-rule="nonzero"/><path fill="#ecb390" d="M 558.332031 202.816406 C 567.050781 200.652344 572.304688 197.496094 576.449219 192.730469 C 588.195312 166.984375 572.550781 143.46875 571.625 142.167969 C 581.582031 149.84375 588.628906 163.703125 582.074219 188.894531 C 577.933594 202.324219 564.144531 202.507812 564.144531 202.507812 C 564.144531 202.507812 562.039062 202.632812 558.332031 202.816406 Z M 558.332031 202.816406 " fill-opacity="1" fill-rule="nonzero"/><path fill="#ecb390" d="M 516.589844 211.050781 C 516.589844 211.050781 513.683594 185.242188 512.511719 178.558594 C 509.292969 160.175781 478.746094 110.296875 390.382812 70.316406 C 511.644531 118.03125 515.972656 180.230469 515.972656 180.230469 C 516.34375 188.089844 516.714844 197.125 517.085938 206.53125 C 517.148438 207.953125 517.210938 209.316406 517.269531 210.738281 C 517.023438 210.863281 516.777344 210.988281 516.589844 211.050781 Z M 516.589844 211.050781 " fill-opacity="1" fill-rule="nonzero"/><path fill="#ffc4a3" d="M 519.867188 283.953125 C 519.867188 283.953125 492.539062 280.921875 492.660156 247.808594 C 492.785156 220.332031 499.03125 205.972656 517.085938 206.53125 C 518.507812 242.734375 519.867188 283.953125 519.867188 283.953125 Z M 519.867188 283.953125 " fill-opacity="1" fill-rule="nonzero"/><path fill="#ecb390" d="M 540.027344 271.699219 C 587.394531 265.695312 580.160156 225.34375 580.160156 225.34375 C 581.828125 231.101562 582.570312 238.03125 581.582031 246.203125 C 580.40625 255.546875 574.285156 263.589844 565.441406 266.871094 C 559.503906 269.039062 551.28125 270.957031 540.027344 271.699219 Z M 540.027344 271.699219 " fill-opacity="1" fill-rule="nonzero"/><path fill="#ecb390" d="M 498.84375 334.640625 C 498.101562 334.390625 497.667969 334.207031 497.667969 334.207031 C 556.535156 336.558594 545.035156 281.664062 544.601562 279.558594 C 547.015625 285.191406 549.363281 293.730469 548.25 304.871094 C 546.707031 320.527344 534.523438 333.03125 518.878906 334.699219 C 513.4375 335.320312 506.820312 335.382812 498.84375 334.640625 Z M 498.84375 334.640625 " fill-opacity="1" fill-rule="nonzero"/><path fill="#ecb390" d="M 421.425781 371.027344 C 496.867188 394.175781 500.328125 348.625 500.453125 347.140625 C 501.257812 358.03125 498.164062 372.949219 478.128906 379.507812 C 463.101562 384.457031 441.398438 379.570312 421.425781 371.027344 Z M 421.425781 371.027344 " fill-opacity="1" fill-rule="nonzero"/><path fill="#aa4a30" d="M 445.109375 192.050781 C 445.046875 191.367188 445.046875 190.996094 445.046875 190.996094 L 444.429688 190.5625 C 447.828125 187.097656 462.546875 173.359375 484.929688 174.472656 L 484.871094 176.019531 C 461.867188 174.84375 447.210938 189.757812 445.109375 192.050781 Z M 445.109375 192.050781 " fill-opacity="1" fill-rule="nonzero"/><path fill="#aa4a30" d="M 419.507812 172.492188 L 418.335938 171.625 C 418.394531 171.253906 419.820312 138.207031 406.027344 123.105469 L 407.203125 122.054688 C 417.902344 133.75 419.324219 156.277344 419.386719 167.417969 C 422.105469 158.628906 428.226562 143.28125 438.800781 138.824219 L 439.421875 140.25 C 427.238281 145.386719 421.054688 166.613281 419.507812 172.492188 Z M 419.507812 172.492188 " fill-opacity="1" fill-rule="nonzero"/><g clip-path="url(#e91ff582cd)"><path fill="#ecb390" d="M 217.058594 332.660156 C 136.609375 319.289062 0.695312 322.757812 0.695312 322.757812 L 0.695312 307.347656 C 71.003906 308.585938 165.671875 317.621094 188.492188 318.609375 C 212.296875 319.664062 222.128906 304.5 222.128906 304.5 C 229.796875 348.996094 283.039062 363.230469 286.5 364.222656 C 261.890625 358.03125 237.710938 348.070312 217.058594 332.660156 Z M 217.058594 332.660156 " fill-opacity="1" fill-rule="nonzero"/></g><path fill="#d57149" d="M 215.882812 269.472656 C 215.882812 223.796875 227.570312 205.167969 228.128906 204.304688 L 230.726562 205.972656 C 230.601562 206.222656 216.070312 229.675781 219.59375 287.417969 L 216.503906 287.605469 C 216.070312 281.167969 215.882812 275.101562 215.882812 269.472656 Z M 215.882812 269.472656 " fill-opacity="1" fill-rule="nonzero"/><path fill="#d57149" d="M 198.570312 263.097656 C 198.570312 239.207031 205.804688 211.914062 206.175781 210.617188 L 209.207031 211.421875 C 209.144531 211.792969 199.992188 246.140625 201.972656 270.894531 L 198.878906 271.140625 C 198.632812 268.542969 198.570312 265.820312 198.570312 263.097656 Z M 198.570312 263.097656 " fill-opacity="1" fill-rule="nonzero"/></svg>