<svg xmlns="http://www.w3.org/2000/svg" xmlns:xlink="http://www.w3.org/1999/xlink" width="1080" zoomAndPan="magnify" viewBox="0 0 810 454.499987" height="606" preserveAspectRatio="xMidYMid meet" version="1.0"><defs><clipPath id="38e90db9a8"><path d="M 0.445312 89 L 781 89 L 781 382 L 0.445312 382 Z M 0.445312 89 " clip-rule="nonzero"/></clipPath><clipPath id="c69f36044f"><path d="M 6.046875 408.589844 L -13.425781 127.574219 L 769.832031 73.300781 L 789.304688 354.316406 Z M 6.046875 408.589844 " clip-rule="nonzero"/></clipPath><clipPath id="63da7a351b"><path d="M 789.605469 354.296875 L 770.132812 73.28125 L -13.125 127.554688 L 6.347656 408.570312 Z M 789.605469 354.296875 " clip-rule="nonzero"/></clipPath><clipPath id="496c9d4c01"><path d="M 789.605469 354.296875 L 770.132812 73.28125 L -13.125 127.554688 L 6.347656 408.570312 Z M 789.605469 354.296875 " clip-rule="nonzero"/></clipPath><clipPath id="8a35f16f7d"><path d="M 346 194 L 435 194 L 435 281 L 346 281 Z M 346 194 " clip-rule="nonzero"/></clipPath><clipPath id="c348e978bf"><path d="M 6.046875 408.589844 L -13.425781 127.574219 L 769.832031 73.300781 L 789.304688 354.316406 Z M 6.046875 408.589844 " clip-rule="nonzero"/></clipPath><clipPath id="eb003f7fa6"><path d="M 789.605469 354.296875 L 770.132812 73.28125 L -13.125 127.554688 L 6.347656 408.570312 Z M 789.605469 354.296875 " clip-rule="nonzero"/></clipPath><clipPath id="86396b2cd0"><path d="M 789.605469 354.296875 L 770.132812 73.28125 L -13.125 127.554688 L 6.347656 408.570312 Z M 789.605469 354.296875 " clip-rule="nonzero"/></clipPath><clipPath id="4bf97e0b71"><path d="M 499 224 L 552 224 L 552 263 L 499 263 Z M 499 224 " clip-rule="nonzero"/></clipPath><clipPath id="5cddc8859a"><path d="M 6.046875 408.589844 L -13.425781 127.574219 L 769.832031 73.300781 L 789.304688 354.316406 Z M 6.046875 408.589844 " clip-rule="nonzero"/></clipPath><clipPath id="dfb4ef3df8"><path d="M 789.605469 354.296875 L 770.132812 73.28125 L -13.125 127.554688 L 6.347656 408.570312 Z M 789.605469 354.296875 " clip-rule="nonzero"/></clipPath><clipPath id="2fec434971"><path d="M 789.605469 354.296875 L 770.132812 73.28125 L -13.125 127.554688 L 6.347656 408.570312 Z M 789.605469 354.296875 " clip-rule="nonzero"/></clipPath><clipPath id="d98ade31f2"><path d="M 359 186 L 495 186 L 495 371 L 359 371 Z M 359 186 " clip-rule="nonzero"/></clipPath><clipPath id="61e61b1448"><path d="M 6.046875 408.589844 L -13.425781 127.574219 L 769.832031 73.300781 L 789.304688 354.316406 Z M 6.046875 408.589844 " clip-rule="nonzero"/></clipPath><clipPath id="117bf07eff"><path d="M 789.605469 354.296875 L 770.132812 73.28125 L -13.125 127.554688 L 6.347656 408.570312 Z M 789.605469 354.296875 " clip-rule="nonzero"/></clipPath><clipPath id="3e585e50b9"><path d="M 789.605469 354.296875 L 770.132812 73.28125 L -13.125 127.554688 L 6.347656 408.570312 Z M 789.605469 354.296875 " clip-rule="nonzero"/></clipPath><clipPath id="5b4498ce95"><path d="M 407 328 L 497 328 L 497 376 L 407 376 Z M 407 328 " clip-rule="nonzero"/></clipPath><clipPath id="cee7b48aff"><path d="M 6.046875 408.589844 L -13.425781 127.574219 L 769.832031 73.300781 L 789.304688 354.316406 Z M 6.046875 408.589844 " clip-rule="nonzero"/></clipPath><clipPath id="638838ff6d"><path d="M 789.605469 354.296875 L 770.132812 73.28125 L -13.125 127.554688 L 6.347656 408.570312 Z M 789.605469 354.296875 " clip-rule="nonzero"/></clipPath><clipPath id="1fa6e019b1"><path d="M 789.605469 354.296875 L 770.132812 73.28125 L -13.125 127.554688 L 6.347656 408.570312 Z M 789.605469 354.296875 " clip-rule="nonzero"/></clipPath><clipPath id="0ecc6dec5c"><path d="M 407 328 L 472 328 L 472 376 L 407 376 Z M 407 328 " clip-rule="nonzero"/></clipPath><clipPath id="88a81d6bd9"><path d="M 6.046875 408.589844 L -13.425781 127.574219 L 769.832031 73.300781 L 789.304688 354.316406 Z M 6.046875 408.589844 " clip-rule="nonzero"/></clipPath><clipPath id="9ac9e2113d"><path d="M 789.605469 354.296875 L 770.132812 73.28125 L -13.125 127.554688 L 6.347656 408.570312 Z M 789.605469 354.296875 " clip-rule="nonzero"/></clipPath><clipPath id="da46629474"><path d="M 789.605469 354.296875 L 770.132812 73.28125 L -13.125 127.554688 L 6.347656 408.570312 Z M 789.605469 354.296875 " clip-rule="nonzero"/></clipPath><clipPath id="6ddd55245b"><path d="M 292 188 L 409 188 L 409 237 L 292 237 Z M 292 188 " clip-rule="nonzero"/></clipPath><clipPath id="07aa512eca"><path d="M 6.046875 408.589844 L -13.425781 127.574219 L 769.832031 73.300781 L 789.304688 354.316406 Z M 6.046875 408.589844 " clip-rule="nonzero"/></clipPath><clipPath id="6eda62b655"><path d="M 789.605469 354.296875 L 770.132812 73.28125 L -13.125 127.554688 L 6.347656 408.570312 Z M 789.605469 354.296875 " clip-rule="nonzero"/></clipPath><clipPath id="81b95c0bcc"><path d="M 789.605469 354.296875 L 770.132812 73.28125 L -13.125 127.554688 L 6.347656 408.570312 Z M 789.605469 354.296875 " clip-rule="nonzero"/></clipPath><clipPath id="c3b912c391"><path d="M 482 281 L 530 281 L 530 310 L 482 310 Z M 482 281 " clip-rule="nonzero"/></clipPath><clipPath id="624cb03fd8"><path d="M 6.046875 408.589844 L -13.425781 127.574219 L 769.832031 73.300781 L 789.304688 354.316406 Z M 6.046875 408.589844 " clip-rule="nonzero"/></clipPath><clipPath id="622fe88f89"><path d="M 789.605469 354.296875 L 770.132812 73.28125 L -13.125 127.554688 L 6.347656 408.570312 Z M 789.605469 354.296875 " clip-rule="nonzero"/></clipPath><clipPath id="379f67c1c0"><path d="M 789.605469 354.296875 L 770.132812 73.28125 L -13.125 127.554688 L 6.347656 408.570312 Z M 789.605469 354.296875 " clip-rule="nonzero"/></clipPath><clipPath id="f7d841564a"><path d="M 396 227 L 565 227 L 565 303 L 396 303 Z M 396 227 " clip-rule="nonzero"/></clipPath><clipPath id="4fcb6d985f"><path d="M 6.046875 408.589844 L -13.425781 127.574219 L 769.832031 73.300781 L 789.304688 354.316406 Z M 6.046875 408.589844 " clip-rule="nonzero"/></clipPath><clipPath id="2db25d1357"><path d="M 789.605469 354.296875 L 770.132812 73.28125 L -13.125 127.554688 L 6.347656 408.570312 Z M 789.605469 354.296875 " clip-rule="nonzero"/></clipPath><clipPath id="cd83a6753f"><path d="M 789.605469 354.296875 L 770.132812 73.28125 L -13.125 127.554688 L 6.347656 408.570312 Z M 789.605469 354.296875 " clip-rule="nonzero"/></clipPath><clipPath id="f87f81d25a"><path d="M 431 228 L 509 228 L 509 267 L 431 267 Z M 431 228 " clip-rule="nonzero"/></clipPath><clipPath id="a1ed9502d4"><path d="M 6.046875 408.589844 L -13.425781 127.574219 L 769.832031 73.300781 L 789.304688 354.316406 Z M 6.046875 408.589844 " clip-rule="nonzero"/></clipPath><clipPath id="7a5b610d44"><path d="M 789.605469 354.296875 L 770.132812 73.28125 L -13.125 127.554688 L 6.347656 408.570312 Z M 789.605469 354.296875 " clip-rule="nonzero"/></clipPath><clipPath id="fae5ca8515"><path d="M 789.605469 354.296875 L 770.132812 73.28125 L -13.125 127.554688 L 6.347656 408.570312 Z M 789.605469 354.296875 " clip-rule="nonzero"/></clipPath><clipPath id="17d92c7d25"><path d="M 257 105 L 513 105 L 513 265 L 257 265 Z M 257 105 " clip-rule="nonzero"/></clipPath><clipPath id="35ebd41555"><path d="M 6.046875 408.589844 L -13.425781 127.574219 L 769.832031 73.300781 L 789.304688 354.316406 Z M 6.046875 408.589844 " clip-rule="nonzero"/></clipPath><clipPath id="ea777ca295"><path d="M 789.605469 354.296875 L 770.132812 73.28125 L -13.125 127.554688 L 6.347656 408.570312 Z M 789.605469 354.296875 " clip-rule="nonzero"/></clipPath><clipPath id="378e68e834"><path d="M 789.605469 354.296875 L 770.132812 73.28125 L -13.125 127.554688 L 6.347656 408.570312 Z M 789.605469 354.296875 " clip-rule="nonzero"/></clipPath><clipPath id="8cfda179c5"><path d="M 280 193 L 409 193 L 409 303 L 280 303 Z M 280 193 " clip-rule="nonzero"/></clipPath><clipPath id="cb93a55cfd"><path d="M 6.046875 408.589844 L -13.425781 127.574219 L 769.832031 73.300781 L 789.304688 354.316406 Z M 6.046875 408.589844 " clip-rule="nonzero"/></clipPath><clipPath id="42548b3455"><path d="M 789.605469 354.296875 L 770.132812 73.28125 L -13.125 127.554688 L 6.347656 408.570312 Z M 789.605469 354.296875 " clip-rule="nonzero"/></clipPath><clipPath id="da7f266974"><path d="M 789.605469 354.296875 L 770.132812 73.28125 L -13.125 127.554688 L 6.347656 408.570312 Z M 789.605469 354.296875 " clip-rule="nonzero"/></clipPath><clipPath id="eac097f6e3"><path d="M 363 279 L 500 279 L 500 347 L 363 347 Z M 363 279 " clip-rule="nonzero"/></clipPath><clipPath id="51326c7d65"><path d="M 6.046875 408.589844 L -13.425781 127.574219 L 769.832031 73.300781 L 789.304688 354.316406 Z M 6.046875 408.589844 " clip-rule="nonzero"/></clipPath><clipPath id="4aaee28ec1"><path d="M 789.605469 354.296875 L 770.132812 73.28125 L -13.125 127.554688 L 6.347656 408.570312 Z M 789.605469 354.296875 " clip-rule="nonzero"/></clipPath><clipPath id="4f58234826"><path d="M 789.605469 354.296875 L 770.132812 73.28125 L -13.125 127.554688 L 6.347656 408.570312 Z M 789.605469 354.296875 " clip-rule="nonzero"/></clipPath><clipPath id="740806eb8d"><path d="M 691 205 L 697 205 L 697 250 L 691 250 Z M 691 205 " clip-rule="nonzero"/></clipPath><clipPath id="420aa8bc64"><path d="M 6.046875 408.589844 L -13.425781 127.574219 L 769.832031 73.300781 L 789.304688 354.316406 Z M 6.046875 408.589844 " clip-rule="nonzero"/></clipPath><clipPath id="ca437a32a0"><path d="M 789.605469 354.296875 L 770.132812 73.28125 L -13.125 127.554688 L 6.347656 408.570312 Z M 789.605469 354.296875 " clip-rule="nonzero"/></clipPath><clipPath id="033d120560"><path d="M 789.605469 354.296875 L 770.132812 73.28125 L -13.125 127.554688 L 6.347656 408.570312 Z M 789.605469 354.296875 " clip-rule="nonzero"/></clipPath><clipPath id="cb77253d0c"><path d="M 618 206 L 623 206 L 623 244 L 618 244 Z M 618 206 " clip-rule="nonzero"/></clipPath><clipPath id="949ac609cc"><path d="M 6.046875 408.589844 L -13.425781 127.574219 L 769.832031 73.300781 L 789.304688 354.316406 Z M 6.046875 408.589844 " clip-rule="nonzero"/></clipPath><clipPath id="5c7d99a536"><path d="M 789.605469 354.296875 L 770.132812 73.28125 L -13.125 127.554688 L 6.347656 408.570312 Z M 789.605469 354.296875 " clip-rule="nonzero"/></clipPath><clipPath id="de66d9e09a"><path d="M 789.605469 354.296875 L 770.132812 73.28125 L -13.125 127.554688 L 6.347656 408.570312 Z M 789.605469 354.296875 " clip-rule="nonzero"/></clipPath><clipPath id="206cb88763"><path d="M 363 280 L 408 280 L 408 317 L 363 317 Z M 363 280 " clip-rule="nonzero"/></clipPath><clipPath id="1e07e5f205"><path d="M 6.046875 408.589844 L -13.425781 127.574219 L 769.832031 73.300781 L 789.304688 354.316406 Z M 6.046875 408.589844 " clip-rule="nonzero"/></clipPath><clipPath id="c779743a55"><path d="M 789.605469 354.296875 L 770.132812 73.28125 L -13.125 127.554688 L 6.347656 408.570312 Z M 789.605469 354.296875 " clip-rule="nonzero"/></clipPath><clipPath id="77879ff35f"><path d="M 789.605469 354.296875 L 770.132812 73.28125 L -13.125 127.554688 L 6.347656 408.570312 Z M 789.605469 354.296875 " clip-rule="nonzero"/></clipPath><clipPath id="f1e686563f"><path d="M 325 220 L 387 220 L 387 261 L 325 261 Z M 325 220 " clip-rule="nonzero"/></clipPath><clipPath id="06af4e887f"><path d="M 6.046875 408.589844 L -13.425781 127.574219 L 769.832031 73.300781 L 789.304688 354.316406 Z M 6.046875 408.589844 " clip-rule="nonzero"/></clipPath><clipPath id="438d1f636f"><path d="M 789.605469 354.296875 L 770.132812 73.28125 L -13.125 127.554688 L 6.347656 408.570312 Z M 789.605469 354.296875 " clip-rule="nonzero"/></clipPath><clipPath id="2572d3096f"><path d="M 789.605469 354.296875 L 770.132812 73.28125 L -13.125 127.554688 L 6.347656 408.570312 Z M 789.605469 354.296875 " clip-rule="nonzero"/></clipPath><clipPath id="048600b86a"><path d="M 195 188 L 217 188 L 217 293 L 195 293 Z M 195 188 " clip-rule="nonzero"/></clipPath><clipPath id="20d78db4c8"><path d="M 6.046875 408.589844 L -13.425781 127.574219 L 769.832031 73.300781 L 789.304688 354.316406 Z M 6.046875 408.589844 " clip-rule="nonzero"/></clipPath><clipPath id="980a0394c1"><path d="M 789.605469 354.296875 L 770.132812 73.28125 L -13.125 127.554688 L 6.347656 408.570312 Z M 789.605469 354.296875 " clip-rule="nonzero"/></clipPath><clipPath id="eb9d4e6eb2"><path d="M 789.605469 354.296875 L 770.132812 73.28125 L -13.125 127.554688 L 6.347656 408.570312 Z M 789.605469 354.296875 " clip-rule="nonzero"/></clipPath><clipPath id="4d493ffd5e"><path d="M 477 190 L 513 190 L 513 257 L 477 257 Z M 477 190 " clip-rule="nonzero"/></clipPath><clipPath id="4aae031153"><path d="M 6.046875 408.589844 L -13.425781 127.574219 L 769.832031 73.300781 L 789.304688 354.316406 Z M 6.046875 408.589844 " clip-rule="nonzero"/></clipPath><clipPath id="975e9c551c"><path d="M 789.605469 354.296875 L 770.132812 73.28125 L -13.125 127.554688 L 6.347656 408.570312 Z M 789.605469 354.296875 " clip-rule="nonzero"/></clipPath><clipPath id="4bad40d99b"><path d="M 789.605469 354.296875 L 770.132812 73.28125 L -13.125 127.554688 L 6.347656 408.570312 Z M 789.605469 354.296875 " clip-rule="nonzero"/></clipPath><clipPath id="84e637b848"><path d="M 398 228 L 441 228 L 441 270 L 398 270 Z M 398 228 " clip-rule="nonzero"/></clipPath><clipPath id="046e6bebc0"><path d="M 6.046875 408.589844 L -13.425781 127.574219 L 769.832031 73.300781 L 789.304688 354.316406 Z M 6.046875 408.589844 " clip-rule="nonzero"/></clipPath><clipPath id="47ad4bda24"><path d="M 789.605469 354.296875 L 770.132812 73.28125 L -13.125 127.554688 L 6.347656 408.570312 Z M 789.605469 354.296875 " clip-rule="nonzero"/></clipPath><clipPath id="ff959ea7d3"><path d="M 789.605469 354.296875 L 770.132812 73.28125 L -13.125 127.554688 L 6.347656 408.570312 Z M 789.605469 354.296875 " clip-rule="nonzero"/></clipPath><clipPath id="bf751367a0"><path d="M 181 194 L 194 194 L 194 272 L 181 272 Z M 181 194 " clip-rule="nonzero"/></clipPath><clipPath id="ce9920f71e"><path d="M 6.046875 408.589844 L -13.425781 127.574219 L 769.832031 73.300781 L 789.304688 354.316406 Z M 6.046875 408.589844 " clip-rule="nonzero"/></clipPath><clipPath id="dae464159b"><path d="M 789.605469 354.296875 L 770.132812 73.28125 L -13.125 127.554688 L 6.347656 408.570312 Z M 789.605469 354.296875 " clip-rule="nonzero"/></clipPath><clipPath id="9373f95cd5"><path d="M 789.605469 354.296875 L 770.132812 73.28125 L -13.125 127.554688 L 6.347656 408.570312 Z M 789.605469 354.296875 " clip-rule="nonzero"/></clipPath><clipPath id="a5d6215774"><path d="M 380 160 L 409 160 L 409 192 L 380 192 Z M 380 160 " clip-rule="nonzero"/></clipPath><clipPath id="faeb6dc7fa"><path d="M 6.046875 408.589844 L -13.425781 127.574219 L 769.832031 73.300781 L 789.304688 354.316406 Z M 6.046875 408.589844 " clip-rule="nonzero"/></clipPath><clipPath id="d67ca4b6e7"><path d="M 789.605469 354.296875 L 770.132812 73.28125 L -13.125 127.554688 L 6.347656 408.570312 Z M 789.605469 354.296875 " clip-rule="nonzero"/></clipPath><clipPath id="0ff428fdf9"><path d="M 789.605469 354.296875 L 770.132812 73.28125 L -13.125 127.554688 L 6.347656 408.570312 Z M 789.605469 354.296875 " clip-rule="nonzero"/></clipPath><clipPath id="07db14bb91"><path d="M 427 179 L 460 179 L 460 204 L 427 204 Z M 427 179 " clip-rule="nonzero"/></clipPath><clipPath id="b26ccddf5a"><path d="M 6.046875 408.589844 L -13.425781 127.574219 L 769.832031 73.300781 L 789.304688 354.316406 Z M 6.046875 408.589844 " clip-rule="nonzero"/></clipPath><clipPath id="40218eb1f7"><path d="M 789.605469 354.296875 L 770.132812 73.28125 L -13.125 127.554688 L 6.347656 408.570312 Z M 789.605469 354.296875 " clip-rule="nonzero"/></clipPath><clipPath id="3a973f5809"><path d="M 789.605469 354.296875 L 770.132812 73.28125 L -13.125 127.554688 L 6.347656 408.570312 Z M 789.605469 354.296875 " clip-rule="nonzero"/></clipPath><clipPath id="3228f13372"><path d="M 536 195 L 544 195 L 544 236 L 536 236 Z M 536 195 " clip-rule="nonzero"/></clipPath><clipPath id="cbc57b2c0f"><path d="M 6.046875 408.589844 L -13.425781 127.574219 L 769.832031 73.300781 L 789.304688 354.316406 Z M 6.046875 408.589844 " clip-rule="nonzero"/></clipPath><clipPath id="c75ef95074"><path d="M 789.605469 354.296875 L 770.132812 73.28125 L -13.125 127.554688 L 6.347656 408.570312 Z M 789.605469 354.296875 " clip-rule="nonzero"/></clipPath><clipPath id="e216907c7c"><path d="M 789.605469 354.296875 L 770.132812 73.28125 L -13.125 127.554688 L 6.347656 408.570312 Z M 789.605469 354.296875 " clip-rule="nonzero"/></clipPath><clipPath id="1b620c6aca"><path d="M 257 105 L 498 105 L 498 190 L 257 190 Z M 257 105 " clip-rule="nonzero"/></clipPath><clipPath id="33e8da9bee"><path d="M 6.046875 408.589844 L -13.425781 127.574219 L 769.832031 73.300781 L 789.304688 354.316406 Z M 6.046875 408.589844 " clip-rule="nonzero"/></clipPath><clipPath id="0ea6c81106"><path d="M 789.605469 354.296875 L 770.132812 73.28125 L -13.125 127.554688 L 6.347656 408.570312 Z M 789.605469 354.296875 " clip-rule="nonzero"/></clipPath><clipPath id="69aa900ece"><path d="M 789.605469 354.296875 L 770.132812 73.28125 L -13.125 127.554688 L 6.347656 408.570312 Z M 789.605469 354.296875 " clip-rule="nonzero"/></clipPath><clipPath id="aeedb84852"><path d="M 0.445312 127 L 259 127 L 259 166 L 0.445312 166 Z M 0.445312 127 " clip-rule="nonzero"/></clipPath><clipPath id="fa2f41cdbf"><path d="M 6.046875 408.589844 L -13.425781 127.574219 L 769.832031 73.300781 L 789.304688 354.316406 Z M 6.046875 408.589844 " clip-rule="nonzero"/></clipPath><clipPath id="7d52bb1df7"><path d="M 789.605469 354.296875 L 770.132812 73.28125 L -13.125 127.554688 L 6.347656 408.570312 Z M 789.605469 354.296875 " clip-rule="nonzero"/></clipPath><clipPath id="1f7803e9b1"><path d="M 789.605469 354.296875 L 770.132812 73.28125 L -13.125 127.554688 L 6.347656 408.570312 Z M 789.605469 354.296875 " clip-rule="nonzero"/></clipPath><clipPath id="f39ee249a3"><path d="M 610 110 L 620 110 L 620 152 L 610 152 Z M 610 110 " clip-rule="nonzero"/></clipPath><clipPath id="ddf90ebb35"><path d="M 6.046875 408.589844 L -13.425781 127.574219 L 769.832031 73.300781 L 789.304688 354.316406 Z M 6.046875 408.589844 " clip-rule="nonzero"/></clipPath><clipPath id="084a26011f"><path d="M 789.605469 354.296875 L 770.132812 73.28125 L -13.125 127.554688 L 6.347656 408.570312 Z M 789.605469 354.296875 " clip-rule="nonzero"/></clipPath><clipPath id="13cb573de8"><path d="M 789.605469 354.296875 L 770.132812 73.28125 L -13.125 127.554688 L 6.347656 408.570312 Z M 789.605469 354.296875 " clip-rule="nonzero"/></clipPath><clipPath id="1134e0d845"><path d="M 442 295 L 452 295 L 452 332 L 442 332 Z M 442 295 " clip-rule="nonzero"/></clipPath><clipPath id="7c6eaf876b"><path d="M 6.046875 408.589844 L -13.425781 127.574219 L 769.832031 73.300781 L 789.304688 354.316406 Z M 6.046875 408.589844 " clip-rule="nonzero"/></clipPath><clipPath id="dcaf292ca1"><path d="M 789.605469 354.296875 L 770.132812 73.28125 L -13.125 127.554688 L 6.347656 408.570312 Z M 789.605469 354.296875 " clip-rule="nonzero"/></clipPath><clipPath id="246daf89ef"><path d="M 789.605469 354.296875 L 770.132812 73.28125 L -13.125 127.554688 L 6.347656 408.570312 Z M 789.605469 354.296875 " clip-rule="nonzero"/></clipPath><clipPath id="9c94ee268a"><path d="M 524 126 L 540 126 L 540 176 L 524 176 Z M 524 126 " clip-rule="nonzero"/></clipPath><clipPath id="437215ebbd"><path d="M 6.046875 408.589844 L -13.425781 127.574219 L 769.832031 73.300781 L 789.304688 354.316406 Z M 6.046875 408.589844 " clip-rule="nonzero"/></clipPath><clipPath id="2f5329b242"><path d="M 789.605469 354.296875 L 770.132812 73.28125 L -13.125 127.554688 L 6.347656 408.570312 Z M 789.605469 354.296875 " clip-rule="nonzero"/></clipPath><clipPath id="9a5cf487ef"><path d="M 789.605469 354.296875 L 770.132812 73.28125 L -13.125 127.554688 L 6.347656 408.570312 Z M 789.605469 354.296875 " clip-rule="nonzero"/></clipPath><clipPath id="0569900941"><path d="M 0.445312 301 L 303 301 L 303 366 L 0.445312 366 Z M 0.445312 301 " clip-rule="nonzero"/></clipPath><clipPath id="2aaf84b999"><path d="M 6.046875 408.589844 L -13.425781 127.574219 L 769.832031 73.300781 L 789.304688 354.316406 Z M 6.046875 408.589844 " clip-rule="nonzero"/></clipPath><clipPath id="0c25a4e39e"><path d="M 789.605469 354.296875 L 770.132812 73.28125 L -13.125 127.554688 L 6.347656 408.570312 Z M 789.605469 354.296875 " clip-rule="nonzero"/></clipPath><clipPath id="4bb1d811fd"><path d="M 789.605469 354.296875 L 770.132812 73.28125 L -13.125 127.554688 L 6.347656 408.570312 Z M 789.605469 354.296875 " clip-rule="nonzero"/></clipPath><clipPath id="c0ba4f97f6"><path d="M 438 89 L 743 89 L 743 129 L 438 129 Z M 438 89 " clip-rule="nonzero"/></clipPath><clipPath id="f425e026e0"><path d="M 6.046875 408.589844 L -13.425781 127.574219 L 769.832031 73.300781 L 789.304688 354.316406 Z M 6.046875 408.589844 " clip-rule="nonzero"/></clipPath><clipPath id="13c3ff945b"><path d="M 789.605469 354.296875 L 770.132812 73.28125 L -13.125 127.554688 L 6.347656 408.570312 Z M 789.605469 354.296875 " clip-rule="nonzero"/></clipPath><clipPath id="dbc9bf1725"><path d="M 789.605469 354.296875 L 770.132812 73.28125 L -13.125 127.554688 L 6.347656 408.570312 Z M 789.605469 354.296875 " clip-rule="nonzero"/></clipPath><clipPath id="547897e0c8"><path d="M 404 292 L 414 292 L 414 316 L 404 316 Z M 404 292 " clip-rule="nonzero"/></clipPath><clipPath id="082939014a"><path d="M 6.046875 408.589844 L -13.425781 127.574219 L 769.832031 73.300781 L 789.304688 354.316406 Z M 6.046875 408.589844 " clip-rule="nonzero"/></clipPath><clipPath id="4aef8a5d19"><path d="M 789.605469 354.296875 L 770.132812 73.28125 L -13.125 127.554688 L 6.347656 408.570312 Z M 789.605469 354.296875 " clip-rule="nonzero"/></clipPath><clipPath id="5782950906"><path d="M 789.605469 354.296875 L 770.132812 73.28125 L -13.125 127.554688 L 6.347656 408.570312 Z M 789.605469 354.296875 " clip-rule="nonzero"/></clipPath><clipPath id="ecee1b814b"><path d="M 681 95 L 690 95 L 690 135 L 681 135 Z M 681 95 " clip-rule="nonzero"/></clipPath><clipPath id="7f10d65b85"><path d="M 6.046875 408.589844 L -13.425781 127.574219 L 769.832031 73.300781 L 789.304688 354.316406 Z M 6.046875 408.589844 " clip-rule="nonzero"/></clipPath><clipPath id="9dd1aa87e6"><path d="M 789.605469 354.296875 L 770.132812 73.28125 L -13.125 127.554688 L 6.347656 408.570312 Z M 789.605469 354.296875 " clip-rule="nonzero"/></clipPath><clipPath id="36e168f370"><path d="M 789.605469 354.296875 L 770.132812 73.28125 L -13.125 127.554688 L 6.347656 408.570312 Z M 789.605469 354.296875 " clip-rule="nonzero"/></clipPath><clipPath id="cb0bdc5b1d"><path d="M 432 229 L 441 229 L 441 243 L 432 243 Z M 432 229 " clip-rule="nonzero"/></clipPath><clipPath id="34dccd1c81"><path d="M 6.046875 408.589844 L -13.425781 127.574219 L 769.832031 73.300781 L 789.304688 354.316406 Z M 6.046875 408.589844 " clip-rule="nonzero"/></clipPath><clipPath id="d57747c8d4"><path d="M 789.605469 354.296875 L 770.132812 73.28125 L -13.125 127.554688 L 6.347656 408.570312 Z M 789.605469 354.296875 " clip-rule="nonzero"/></clipPath><clipPath id="7628c56720"><path d="M 789.605469 354.296875 L 770.132812 73.28125 L -13.125 127.554688 L 6.347656 408.570312 Z M 789.605469 354.296875 " clip-rule="nonzero"/></clipPath><clipPath id="670c24483d"><path d="M 440 246 L 445 246 L 445 263 L 440 263 Z M 440 246 " clip-rule="nonzero"/></clipPath><clipPath id="c83381065f"><path d="M 6.046875 408.589844 L -13.425781 127.574219 L 769.832031 73.300781 L 789.304688 354.316406 Z M 6.046875 408.589844 " clip-rule="nonzero"/></clipPath><clipPath id="75a0851db1"><path d="M 789.605469 354.296875 L 770.132812 73.28125 L -13.125 127.554688 L 6.347656 408.570312 Z M 789.605469 354.296875 " clip-rule="nonzero"/></clipPath><clipPath id="6e548979ec"><path d="M 789.605469 354.296875 L 770.132812 73.28125 L -13.125 127.554688 L 6.347656 408.570312 Z M 789.605469 354.296875 " clip-rule="nonzero"/></clipPath><clipPath id="d9dc6e21f9"><path d="M 683 199 L 781 199 L 781 241 L 683 241 Z M 683 199 " clip-rule="nonzero"/></clipPath><clipPath id="67cd4606f3"><path d="M 6.046875 408.589844 L -13.425781 127.574219 L 769.832031 73.300781 L 789.304688 354.316406 Z M 6.046875 408.589844 " clip-rule="nonzero"/></clipPath><clipPath id="906f7c17da"><path d="M 789.605469 354.296875 L 770.132812 73.28125 L -13.125 127.554688 L 6.347656 408.570312 Z M 789.605469 354.296875 " clip-rule="nonzero"/></clipPath><clipPath id="f18a3357f8"><path d="M 789.605469 354.296875 L 770.132812 73.28125 L -13.125 127.554688 L 6.347656 408.570312 Z M 789.605469 354.296875 " clip-rule="nonzero"/></clipPath></defs><g clip-path="url(#38e90db9a8)"><g clip-path="url(#c69f36044f)"><g clip-path="url(#63da7a351b)"><g clip-path="url(#496c9d4c01)"><path fill="#e89f71" d="M 0.78125 320.894531 C 134.367188 308.710938 217.601562 324.9375 217.601562 324.9375 C 217.601562 324.9375 256.804688 349.359375 302.910156 365.9375 C 332.011719 376.425781 363.824219 383.800781 390.253906 380.015625 C 393.5 379.527344 396.652344 378.953125 399.789062 378.113281 C 410.0625 375.363281 419.3125 370.644531 426.953125 363.195312 L 450.304688 336.746094 L 468.636719 315.964844 L 483.269531 299.34375 L 494.863281 286.214844 L 517.714844 260.242188 L 529.554688 246.828125 L 551.082031 247.820312 L 756.875 257.769531 C 762.300781 258.015625 767.699219 256.578125 771.996094 253.351562 C 775.628906 250.707031 778.976562 246.574219 780.125 240.109375 C 780.636719 237.234375 780.679688 234.039062 780.152344 230.261719 C 776.582031 205.589844 725.441406 202.128906 725.441406 202.128906 L 683.867188 199.777344 C 683.15625 199.738281 682.445312 199.699219 681.730469 199.660156 L 544.804688 191.765625 C 539.554688 191.507812 537.835938 184.621094 542.347656 181.914062 C 544.984375 180.3125 548.683594 178.636719 554.066406 177.023438 C 573.355469 171.253906 685.320312 141.410156 726.503906 131.730469 C 737.238281 129.210938 744.140625 118.800781 742.359375 108.460938 C 742.359375 108.460938 742.355469 108.371094 742.355469 108.371094 C 742.207031 107.496094 741.96875 106.625 741.730469 105.753906 L 741.722656 105.667969 C 741.511719 105.148438 741.386719 104.625 741.085938 104.113281 C 737.289062 95.421875 726.9375 88.066406 702.050781 89.792969 C 645.128906 93.734375 513.050781 123.816406 513.050781 123.816406 L 425.503906 129.882812 L 257.933594 155.773438 L 257.132812 155.742188 L 205.621094 152.039062 C 157.859375 148.695312 -12.613281 127.609375 -12.613281 127.609375 Z M 0.78125 320.894531 " fill-opacity="1" fill-rule="nonzero"/></g></g></g></g><g clip-path="url(#8a35f16f7d)"><g clip-path="url(#c348e978bf)"><g clip-path="url(#eb003f7fa6)"><g clip-path="url(#86396b2cd0)"><path fill="#d57149" d="M 425.550781 280.285156 L 380.394531 277.386719 C 380.394531 277.386719 365.34375 262.375 346.238281 256.695312 C 346.238281 256.695312 388.414062 231.867188 408.496094 194.117188 L 425.503906 204.113281 L 434.292969 229.839844 Z M 425.550781 280.285156 " fill-opacity="1" fill-rule="nonzero"/></g></g></g></g><g clip-path="url(#4bf97e0b71)"><g clip-path="url(#5cddc8859a)"><g clip-path="url(#dfb4ef3df8)"><g clip-path="url(#2fec434971)"><path fill="#d57149" d="M 511.042969 262.480469 L 517.804688 260.238281 L 529.640625 246.824219 L 551.171875 247.816406 C 544.964844 243.988281 521.265625 229.578125 506.601562 225.273438 C 489.410156 220.347656 511.042969 262.480469 511.042969 262.480469 Z M 511.042969 262.480469 " fill-opacity="1" fill-rule="nonzero"/></g></g></g></g><g clip-path="url(#d98ade31f2)"><g clip-path="url(#61e61b1448)"><g clip-path="url(#117bf07eff)"><g clip-path="url(#3e585e50b9)"><path fill="#aa4a30" d="M 406.40625 186.988281 L 408.402344 194.035156 L 421.414062 205.191406 C 421.414062 205.191406 426.027344 220.570312 430.234375 224.980469 C 430.234375 224.980469 405.386719 217.035156 395.757812 236.769531 C 386.21875 256.496094 396.625 273.601562 419.667969 278.566406 L 380.917969 276.019531 C 375.398438 275.691406 369.917969 277.222656 365.738281 280.882812 C 361.304688 284.738281 357.761719 291.191406 360.890625 301.792969 C 363.894531 311.875 371.367188 319.867188 380.8125 324.359375 C 389.613281 328.539062 398.621094 330.574219 398.621094 330.574219 C 398.621094 330.574219 391.152344 352.019531 401.007812 370.136719 C 401.007812 370.136719 391.863281 343.101562 406.222656 332.796875 C 406.222656 332.796875 411.703125 355.5625 419.808594 362.449219 C 419.40625 361.769531 445.859375 340.425781 445.859375 340.425781 L 450.304688 336.746094 L 468.636719 315.964844 L 483.269531 299.34375 L 494.863281 286.214844 L 440.5 192.695312 Z M 406.40625 186.988281 " fill-opacity="1" fill-rule="nonzero"/></g></g></g></g><g clip-path="url(#5b4498ce95)"><g clip-path="url(#cee7b48aff)"><g clip-path="url(#638838ff6d)"><g clip-path="url(#1fa6e019b1)"><path fill="#d57149" d="M 452.359375 328.003906 L 407.335938 375.730469 C 487.417969 360.515625 496.261719 333.296875 496.261719 333.296875 L 467.738281 329.863281 Z M 452.359375 328.003906 " fill-opacity="1" fill-rule="nonzero"/></g></g></g></g><g clip-path="url(#0ecc6dec5c)"><g clip-path="url(#88a81d6bd9)"><g clip-path="url(#9ac9e2113d)"><g clip-path="url(#da46629474)"><path fill="#aa4a30" d="M 452.359375 328.003906 L 407.335938 375.730469 C 451.539062 357.148438 471.367188 333.601562 471.367188 333.601562 L 467.746094 329.953125 Z M 452.359375 328.003906 " fill-opacity="1" fill-rule="nonzero"/></g></g></g></g><g clip-path="url(#6ddd55245b)"><g clip-path="url(#07aa512eca)"><g clip-path="url(#6eda62b655)"><g clip-path="url(#81b95c0bcc)"><path fill="#aa4a30" d="M 408.402344 194.035156 C 408.402344 194.035156 369.515625 277.785156 292.054688 209.28125 L 408.035156 188.738281 Z M 408.402344 194.035156 " fill-opacity="1" fill-rule="nonzero"/></g></g></g></g><g clip-path="url(#c3b912c391)"><g clip-path="url(#624cb03fd8)"><g clip-path="url(#622fe88f89)"><g clip-path="url(#379f67c1c0)"><path fill="#aa4a30" d="M 529.441406 302.796875 L 482.175781 309.175781 L 486.105469 281.410156 Z M 529.441406 302.796875 " fill-opacity="1" fill-rule="nonzero"/></g></g></g></g><g clip-path="url(#f7d841564a)"><g clip-path="url(#4fcb6d985f)"><g clip-path="url(#2db25d1357)"><g clip-path="url(#cd83a6753f)"><path fill="#e89f71" d="M 403.285156 232.789062 C 393.027344 240.859375 395.546875 259.308594 404.417969 265.789062 C 418.0625 275.839844 490.929688 295.976562 523.273438 302.070312 C 536.214844 304.542969 550.738281 299.191406 558.363281 288.910156 C 568.90625 274.699219 566.214844 257.59375 553.953125 249.574219 C 545.222656 243.882812 510.59375 238.121094 478.019531 233.816406 C 460.117188 231.421875 442.871094 229.511719 431.078125 228.203125 C 428.039062 227.878906 425.363281 227.621094 423.125 227.332031 C 416.074219 226.667969 408.835938 228.414062 403.285156 232.789062 Z M 403.285156 232.789062 " fill-opacity="1" fill-rule="nonzero"/></g></g></g></g><g clip-path="url(#f87f81d25a)"><g clip-path="url(#a1ed9502d4)"><g clip-path="url(#7a5b610d44)"><g clip-path="url(#fae5ca8515)"><path fill="#d57149" d="M 431.078125 228.203125 C 466.898438 288.328125 508.757812 260.242188 508.757812 260.242188 C 511.421875 250.039062 482.105469 242.847656 478.019531 233.816406 C 460.117188 231.421875 442.960938 229.507812 431.078125 228.203125 Z M 431.078125 228.203125 " fill-opacity="1" fill-rule="nonzero"/></g></g></g></g><g clip-path="url(#17d92c7d25)"><g clip-path="url(#35ebd41555)"><g clip-path="url(#ea777ca295)"><g clip-path="url(#378e68e834)"><path fill="#e89f71" d="M 380.636719 105.589844 C 365.773438 107.328125 294.332031 124.429688 257.671875 155.878906 C 257.339844 156.167969 257.984375 157.808594 258.929688 159.960938 C 260.410156 163.40625 262.671875 167.859375 262.980469 168.460938 C 267.554688 178.164062 273.066406 187.359375 279.507812 195.871094 C 282.433594 199.660156 285.519531 203.257812 288.945312 206.65625 C 301.25 219.105469 316.789062 228.40625 334.414062 230.644531 C 346.761719 232.269531 359.71875 231.105469 370.980469 225.980469 C 392.644531 216.144531 401.292969 196.390625 405.160156 192.042969 C 405.816406 191.285156 406.328125 190.984375 406.789062 191.21875 C 406.882812 191.300781 406.972656 191.296875 407.066406 191.378906 C 408.632812 192.246094 410.199219 193.109375 411.769531 193.976562 C 417.023438 196.894531 422.375 199.894531 427.632812 202.8125 C 427.910156 202.96875 428.097656 203.132812 428.367188 203.203125 C 428.367188 203.203125 428.476562 203.460938 428.683594 203.890625 C 431.277344 210.628906 452.527344 262.632812 489.1875 264.4375 C 494.347656 264.699219 499.882812 263.960938 505.679688 261.875 C 508.367188 260.980469 510.445312 258.972656 511.609375 256.585938 C 512.617188 254.476562 512.980469 252.058594 512.367188 249.617188 C 509.261719 236.796875 503.070312 211.417969 497.566406 190.871094 C 497.441406 190.347656 497.230469 189.828125 497.105469 189.304688 C 497.105469 189.304688 497.105469 189.304688 497.097656 189.21875 C 493.40625 175.640625 489.964844 164.347656 488.03125 160.757812 C 481.9375 149.5625 395.589844 103.84375 380.636719 105.589844 Z M 380.636719 105.589844 " fill-opacity="1" fill-rule="nonzero"/></g></g></g></g><g clip-path="url(#8cfda179c5)"><g clip-path="url(#cb93a55cfd)"><g clip-path="url(#42548b3455)"><g clip-path="url(#da7f266974)"><path fill="#aa4a30" d="M 405.175781 199.933594 C 404.0625 201.785156 402.710938 204.007812 401.015625 206.429688 C 399.328125 208.941406 397.386719 211.648438 395.191406 214.546875 C 393 217.449219 390.378906 220.558594 387.585938 223.765625 C 384.699219 226.894531 381.734375 230.203125 378.320312 233.363281 C 374.992188 236.523438 371.398438 239.699219 367.617188 242.710938 C 365.679688 244.171875 363.746094 245.726562 361.714844 247.109375 L 358.671875 249.269531 L 355.527344 251.261719 C 353.066406 252.851562 350.511719 254.359375 347.941406 255.691406 C 347.941406 255.691406 348.03125 255.683594 348.039062 255.773438 C 349.761719 256.363281 351.5 257.128906 353.234375 257.804688 C 356.703125 259.25 360.109375 261.054688 363.421875 262.777344 C 366.742188 264.675781 369.984375 266.667969 373.058594 268.757812 C 376.214844 270.847656 379.027344 273.046875 381.839844 275.246094 C 384.652344 277.445312 387.203125 279.664062 389.660156 281.886719 C 392.113281 284.023438 394.222656 286.269531 396.222656 288.261719 C 400.226562 292.328125 403.226562 295.933594 405.261719 298.453125 C 407.207031 300.890625 408.285156 302.410156 408.386719 302.582031 C 408.285156 302.410156 407.042969 301.078125 404.847656 298.835938 C 402.558594 296.511719 399.222656 293.195312 395.058594 289.40625 C 392.976562 287.511719 390.710938 285.539062 388.175781 283.496094 C 385.730469 281.449219 383.011719 279.332031 380.292969 277.214844 C 377.488281 275.105469 374.503906 273.003906 371.4375 271 C 368.375 268.996094 365.226562 267.085938 361.910156 265.273438 C 358.679688 263.460938 355.367188 261.738281 351.984375 260.285156 C 350.335938 259.515625 348.691406 258.832031 346.960938 258.152344 C 346.230469 257.847656 345.410156 257.550781 344.679688 257.246094 C 344 257.648438 343.222656 257.96875 342.542969 258.371094 C 340.308594 259.410156 338.164062 260.445312 335.917969 261.3125 C 333.671875 262.175781 331.515625 263.035156 329.351562 263.804688 C 327.183594 264.488281 325.019531 265.257812 322.84375 265.855469 C 320.660156 266.359375 318.574219 266.949219 316.480469 267.449219 C 314.378906 267.859375 312.371094 268.265625 310.445312 268.664062 C 308.515625 268.976562 306.582031 269.199219 304.734375 269.414062 C 302.894531 269.71875 301.121094 269.753906 299.445312 269.871094 C 297.769531 269.984375 296.179688 270.097656 294.671875 270.113281 C 291.65625 270.054688 289.089844 270.144531 286.953125 270.027344 C 283.210938 269.753906 280.890625 269.558594 280.355469 269.507812 C 280.886719 269.472656 283.191406 269.488281 287 269.402344 C 289.128906 269.429688 291.683594 269.164062 294.683594 268.957031 C 296.183594 268.855469 297.765625 268.65625 299.347656 268.457031 C 301.019531 268.253906 302.695312 268.136719 304.53125 267.742188 C 306.371094 267.4375 308.210938 267.132812 310.136719 266.734375 C 312.058594 266.335938 313.976562 265.847656 316.070312 265.347656 C 318.074219 264.855469 320.15625 264.175781 322.242188 263.589844 C 324.324219 262.914062 326.398438 262.148438 328.5625 261.378906 C 330.726562 260.605469 332.789062 259.667969 334.945312 258.808594 C 336.921875 257.871094 338.984375 256.929688 341.046875 255.988281 C 341.136719 255.984375 341.21875 255.890625 341.394531 255.878906 C 342.335938 255.367188 343.273438 254.859375 344.304688 254.34375 C 347.550781 252.613281 350.789062 250.703125 353.933594 248.710938 L 356.988281 246.726562 L 359.949219 244.660156 C 361.980469 243.277344 363.828125 241.820312 365.769531 240.355469 C 367.617188 238.894531 369.460938 237.347656 371.3125 235.890625 C 373.066406 234.351562 374.828125 232.898438 376.496094 231.363281 C 379.828125 228.292969 382.980469 225.148438 385.878906 222.199219 C 388.683594 219.167969 391.40625 216.230469 393.785156 213.402344 C 398.542969 207.84375 402.195312 202.976562 404.609375 199.441406 C 405.816406 197.671875 406.785156 196.273438 407.429688 195.34375 C 407.992188 194.503906 408.308594 193.953125 408.390625 193.855469 C 408.246094 194.3125 407.242188 196.507812 405.175781 199.933594 Z M 405.175781 199.933594 " fill-opacity="1" fill-rule="nonzero"/></g></g></g></g><g clip-path="url(#eac097f6e3)"><g clip-path="url(#51326c7d65)"><g clip-path="url(#4aaee28ec1)"><g clip-path="url(#4f58234826)"><path fill="#e89f71" d="M 496.175781 333.300781 C 491.433594 342.941406 480.707031 348.121094 470.195312 346.097656 C 443.871094 341.183594 383.398438 325.863281 371.753906 315.230469 C 363.703125 307.808594 359.539062 292.488281 366.71875 284.808594 C 370.523438 280.820312 376.074219 279.015625 381.515625 279.523438 C 403.113281 281.488281 474.816406 288.667969 487.648438 297.265625 C 498.335938 304.332031 502.703125 319.992188 496.175781 333.300781 Z M 496.175781 333.300781 " fill-opacity="1" fill-rule="nonzero"/></g></g></g></g><g clip-path="url(#740806eb8d)"><g clip-path="url(#420aa8bc64)"><g clip-path="url(#ca437a32a0)"><g clip-path="url(#033d120560)"><path fill="#d57149" d="M 696.195312 249.738281 C 696.195312 249.738281 686.695312 225.210938 695.070312 205.296875 C 694.363281 219.445312 694.769531 234.230469 696.195312 249.738281 Z M 696.195312 249.738281 " fill-opacity="1" fill-rule="nonzero"/></g></g></g></g><g clip-path="url(#cb77253d0c)"><g clip-path="url(#949ac609cc)"><g clip-path="url(#5c7d99a536)"><g clip-path="url(#de66d9e09a)"><path fill="#d57149" d="M 622.160156 243.429688 C 622.160156 243.429688 613.582031 222.027344 622.546875 206.773438 C 620.792969 218.601562 620.660156 230.761719 622.160156 243.429688 Z M 622.160156 243.429688 " fill-opacity="1" fill-rule="nonzero"/></g></g></g></g><g clip-path="url(#206cb88763)"><g clip-path="url(#1e07e5f205)"><g clip-path="url(#c779743a55)"><g clip-path="url(#77879ff35f)"><path fill="#ffc4a3" d="M 407.890625 295.433594 C 407.394531 288.285156 401.679688 282.5625 394.535156 281.816406 L 381.847656 280.476562 C 381.847656 280.476562 367.363281 278.730469 364.355469 291.621094 C 363.332031 296.039062 364.273438 300.671875 366.496094 304.597656 C 370.238281 311.257812 376.21875 314.390625 384.667969 316.019531 C 384.753906 316.015625 384.847656 316.097656 385.027344 316.085938 C 397.335938 318.425781 408.625 308.597656 407.941406 296.140625 C 407.921875 295.875 407.902344 295.609375 407.890625 295.433594 Z M 407.890625 295.433594 " fill-opacity="1" fill-rule="nonzero"/></g></g></g></g><g clip-path="url(#f1e686563f)"><g clip-path="url(#06af4e887f)"><g clip-path="url(#438d1f636f)"><g clip-path="url(#2572d3096f)"><path fill="#d57149" d="M 330.390625 260.898438 C 330.390625 260.898438 364.917969 239.613281 325.671875 231.160156 C 354.773438 237.835938 369.539062 233.351562 386.496094 220.828125 C 386.5 220.914062 365.9375 246.640625 330.390625 260.898438 Z M 330.390625 260.898438 " fill-opacity="1" fill-rule="nonzero"/></g></g></g></g><g clip-path="url(#048600b86a)"><g clip-path="url(#20d78db4c8)"><g clip-path="url(#980a0394c1)"><g clip-path="url(#eb9d4e6eb2)"><path fill="#d57149" d="M 195.929688 291.144531 L 198.347656 292.75 C 198.585938 292.378906 220.957031 258.191406 216.308594 191.117188 C 216.242188 190.144531 216.175781 189.175781 216.109375 188.203125 L 213.195312 188.40625 C 218.609375 256.316406 196.167969 290.773438 195.929688 291.144531 Z M 195.929688 291.144531 " fill-opacity="1" fill-rule="nonzero"/></g></g></g></g><g clip-path="url(#4d493ffd5e)"><g clip-path="url(#4aae031153)"><g clip-path="url(#975e9c551c)"><g clip-path="url(#4bad40d99b)"><path fill="#ffc4a3" d="M 478.257812 223.160156 C 484.863281 258.351562 511.003906 256.804688 511.621094 256.761719 C 512.628906 254.652344 512.992188 252.234375 512.378906 249.792969 C 509.273438 236.972656 503.171875 211.589844 497.578125 191.046875 C 494.984375 190.695312 471.9375 189.542969 478.257812 223.160156 Z M 478.257812 223.160156 " fill-opacity="1" fill-rule="nonzero"/></g></g></g></g><g clip-path="url(#84e637b848)"><g clip-path="url(#046e6bebc0)"><g clip-path="url(#47ad4bda24)"><g clip-path="url(#ff959ea7d3)"><path fill="#ffc4a3" d="M 412.542969 229.484375 C 400.441406 232.71875 397.824219 243.542969 398.652344 250.402344 C 399.277344 255.589844 402.148438 263.726562 415.960938 268.535156 C 426.679688 272.226562 438.007812 265.5 439.800781 254.289062 C 440.351562 250.707031 440.6875 246.601562 440.558594 242.175781 C 440.503906 241.382812 440.542969 240.671875 440.488281 239.875 C 440.246094 235.105469 436.867188 231.171875 432.269531 230.070312 C 432.269531 230.070312 432.183594 230.078125 432.183594 230.078125 C 426.683594 228.773438 419.160156 227.699219 412.542969 229.484375 Z M 412.542969 229.484375 " fill-opacity="1" fill-rule="nonzero"/></g></g></g></g><g clip-path="url(#bf751367a0)"><g clip-path="url(#ce9920f71e)"><g clip-path="url(#dae464159b)"><g clip-path="url(#9373f95cd5)"><path fill="#d57149" d="M 181.28125 270.429688 L 184.097656 271.386719 C 184.25 271.023438 196.332031 234.269531 193.585938 194.640625 L 190.675781 194.84375 C 193.289062 233.859375 181.34375 270.070312 181.28125 270.429688 Z M 181.28125 270.429688 " fill-opacity="1" fill-rule="nonzero"/></g></g></g></g><g clip-path="url(#a5d6215774)"><g clip-path="url(#faeb6dc7fa)"><g clip-path="url(#d67ca4b6e7)"><g clip-path="url(#0ff428fdf9)"><path fill="#aa4a30" d="M 406.773438 160.269531 L 405.371094 160.542969 C 407.945312 172.070312 406.53125 184.941406 405.820312 190.042969 C 403.507812 186.125 396.984375 177.710938 381.398438 172.847656 L 380.964844 174.296875 C 398.003906 179.589844 403.914062 189.378906 405.15625 191.953125 C 405.8125 191.199219 406.324219 190.898438 406.78125 191.128906 C 406.878906 191.214844 406.964844 191.207031 407.058594 191.289062 C 407.753906 187.25 409.601562 172.933594 406.773438 160.269531 Z M 406.773438 160.269531 " fill-opacity="1" fill-rule="nonzero"/></g></g></g></g><g clip-path="url(#07db14bb91)"><g clip-path="url(#b26ccddf5a)"><g clip-path="url(#40218eb1f7)"><g clip-path="url(#3a973f5809)"><path fill="#aa4a30" d="M 458.324219 179.933594 C 452.304688 189.039062 430.542969 201.28125 427.636719 202.898438 C 427.914062 203.058594 428.105469 203.222656 428.375 203.292969 C 428.375 203.292969 428.480469 203.550781 428.6875 203.980469 C 431.164062 202.566406 453.191406 190.308594 459.621094 180.730469 Z M 458.324219 179.933594 " fill-opacity="1" fill-rule="nonzero"/></g></g></g></g><g clip-path="url(#3228f13372)"><g clip-path="url(#cbc57b2c0f)"><g clip-path="url(#c75ef95074)"><g clip-path="url(#e216907c7c)"><path fill="#d57149" d="M 541.25 235.199219 C 541.25 235.199219 530.050781 214.335938 543.277344 195.328125 C 543.1875 195.335938 537.910156 213.882812 541.25 235.199219 Z M 541.25 235.199219 " fill-opacity="1" fill-rule="nonzero"/></g></g></g></g><g clip-path="url(#1b620c6aca)"><g clip-path="url(#33e8da9bee)"><g clip-path="url(#0ea6c81106)"><g clip-path="url(#69aa900ece)"><path fill="#ecb390" d="M 380.636719 105.589844 C 365.773438 107.328125 294.332031 124.429688 257.671875 155.878906 C 257.425781 156.164062 257.335938 163.796875 258.28125 165.949219 C 290.777344 133.277344 371.855469 113.203125 381.121094 112.5625 C 411.105469 117.84375 472.46875 156.25 480.175781 162.542969 C 487.695312 168.675781 496.652344 187.917969 497.105469 189.304688 C 493.414062 175.726562 489.972656 164.4375 488.039062 160.847656 C 481.9375 149.5625 395.589844 103.84375 380.636719 105.589844 Z M 380.636719 105.589844 " fill-opacity="1" fill-rule="nonzero"/></g></g></g></g><g clip-path="url(#aeedb84852)"><g clip-path="url(#fa2f41cdbf)"><g clip-path="url(#7d52bb1df7)"><g clip-path="url(#1f7803e9b1)"><path fill="#ecb390" d="M -12.621094 127.519531 L -11.609375 142.082031 C 60.878906 146.546875 258.371094 165.941406 258.371094 165.941406 L 257.761719 155.875 L 257.125 155.652344 L 205.613281 151.949219 C 157.859375 148.695312 -12.621094 127.519531 -12.621094 127.519531 Z M -12.621094 127.519531 " fill-opacity="1" fill-rule="nonzero"/></g></g></g></g><g clip-path="url(#f39ee249a3)"><g clip-path="url(#ddf90ebb35)"><g clip-path="url(#084a26011f)"><g clip-path="url(#13cb573de8)"><path fill="#d57149" d="M 619.976562 151.792969 C 619.976562 151.792969 609.5 134.960938 614.425781 110.054688 C 614.417969 109.964844 602.753906 133.566406 619.976562 151.792969 Z M 619.976562 151.792969 " fill-opacity="1" fill-rule="nonzero"/></g></g></g></g><g clip-path="url(#1134e0d845)"><g clip-path="url(#7c6eaf876b)"><g clip-path="url(#dcaf292ca1)"><g clip-path="url(#246daf89ef)"><path fill="#d57149" d="M 442.074219 330.578125 L 443.28125 331.378906 C 443.601562 330.914062 452.152344 318.617188 451.613281 295.507812 L 450.105469 295.523438 C 450.695312 318.097656 442.15625 330.484375 442.074219 330.578125 Z M 442.074219 330.578125 " fill-opacity="1" fill-rule="nonzero"/></g></g></g></g><g clip-path="url(#9c94ee268a)"><g clip-path="url(#437215ebbd)"><g clip-path="url(#2f5329b242)"><g clip-path="url(#9a5cf487ef)"><path fill="#d57149" d="M 539.59375 175.453125 C 539.59375 175.453125 517.527344 158.980469 526.296875 126.890625 C 526.386719 126.882812 524.585938 153.347656 539.59375 175.453125 Z M 539.59375 175.453125 " fill-opacity="1" fill-rule="nonzero"/></g></g></g></g><g clip-path="url(#0569900941)"><g clip-path="url(#2aaf84b999)"><g clip-path="url(#0c25a4e39e)"><g clip-path="url(#4bb1d811fd)"><path fill="#d57149" d="M 0.1875 312.332031 L 0.78125 320.894531 C 134.367188 308.710938 217.601562 324.9375 217.601562 324.9375 C 217.601562 324.9375 256.804688 349.359375 302.910156 365.9375 C 300.617188 364.855469 226.515625 329.460938 221.351562 301 C 221.351562 301 208.191406 310.691406 174.453125 310.101562 C 143.113281 309.523438 51.636719 306.195312 0.1875 312.332031 Z M 0.1875 312.332031 " fill-opacity="1" fill-rule="nonzero"/></g></g></g></g><g clip-path="url(#c0ba4f97f6)"><g clip-path="url(#f425e026e0)"><g clip-path="url(#13c3ff945b)"><g clip-path="url(#dbc9bf1725)"><path fill="#ecb390" d="M 701.960938 89.796875 C 645.039062 93.742188 512.960938 123.824219 512.960938 123.824219 L 438.742188 128.964844 L 511.808594 128.957031 C 603.625 106.457031 686.03125 94.09375 709.210938 93.285156 C 735.488281 92.441406 741.695312 107.796875 742.285156 108.644531 L 742.273438 108.464844 L 741.648438 105.847656 L 741.640625 105.761719 C 741.429688 105.242188 741.304688 104.71875 741.003906 104.207031 C 737.195312 95.339844 726.847656 88.074219 701.960938 89.796875 Z M 701.960938 89.796875 " fill-opacity="1" fill-rule="nonzero"/></g></g></g></g><g clip-path="url(#547897e0c8)"><g clip-path="url(#082939014a)"><g clip-path="url(#4aef8a5d19)"><g clip-path="url(#5782950906)"><path fill="#d57149" d="M 404.214844 314.046875 L 405.179688 315.132812 C 416.492188 305.65625 412.515625 293.074219 412.421875 292.992188 L 411.035156 293.441406 C 411.152344 293.878906 414.683594 305.160156 404.214844 314.046875 Z M 404.214844 314.046875 " fill-opacity="1" fill-rule="nonzero"/></g></g></g></g><g clip-path="url(#ecee1b814b)"><g clip-path="url(#7f10d65b85)"><g clip-path="url(#9dd1aa87e6)"><g clip-path="url(#36e168f370)"><path fill="#d57149" d="M 689.1875 134.492188 C 689.1875 134.492188 681.355469 117.476562 684.957031 95.234375 C 684.957031 95.234375 673.835938 117.730469 689.1875 134.492188 Z M 689.1875 134.492188 " fill-opacity="1" fill-rule="nonzero"/></g></g></g></g><g clip-path="url(#cb0bdc5b1d)"><g clip-path="url(#34dccd1c81)"><g clip-path="url(#d57747c8d4)"><g clip-path="url(#7628c56720)"><path fill="#e89f71" d="M 432.175781 229.988281 L 440.644531 242.171875 C 440.589844 241.378906 440.628906 240.664062 440.574219 239.871094 C 440.332031 235.097656 436.957031 231.164062 432.359375 230.0625 C 432.265625 229.980469 432.175781 229.988281 432.175781 229.988281 Z M 432.175781 229.988281 " fill-opacity="1" fill-rule="nonzero"/></g></g></g></g><g clip-path="url(#670c24483d)"><g clip-path="url(#c83381065f)"><g clip-path="url(#75a0851db1)"><g clip-path="url(#6e548979ec)"><path fill="#d57149" d="M 440.207031 261.445312 L 441.582031 262.058594 C 441.738281 261.78125 444.78125 254.476562 444.265625 247.0625 C 444.261719 246.976562 444.261719 246.976562 444.253906 246.886719 L 442.753906 246.992188 C 442.757812 247.078125 442.757812 247.078125 442.765625 247.167969 C 443.335938 254.132812 440.289062 261.351562 440.207031 261.445312 Z M 440.207031 261.445312 " fill-opacity="1" fill-rule="nonzero"/></g></g></g></g><g clip-path="url(#d9dc6e21f9)"><g clip-path="url(#67cd4606f3)"><g clip-path="url(#906f7c17da)"><g clip-path="url(#f18a3357f8)"><path fill="#ecb390" d="M 683.867188 199.777344 C 772.929688 205.398438 780.0625 239.226562 780.214844 240.101562 C 780.722656 237.230469 780.769531 234.035156 780.242188 230.257812 C 776.667969 205.585938 725.53125 202.121094 725.53125 202.121094 Z M 683.867188 199.777344 " fill-opacity="1" fill-rule="nonzero"/></g></g></g></g></svg>