<svg xmlns="http://www.w3.org/2000/svg" xmlns:xlink="http://www.w3.org/1999/xlink" width="296" zoomAndPan="magnify" viewBox="0 0 222 809.999993" height="1080" preserveAspectRatio="xMidYMid meet" version="1.0"><defs><clipPath id="fff48e646f"><path d="M 26 1.265625 L 222 1.265625 L 222 454 L 26 454 Z M 26 1.265625 " clip-rule="nonzero"/></clipPath></defs><g clip-path="url(#fff48e646f)"><path fill="#000000" d="M 74.546875 432.8125 L 74.464844 432.8125 L 49.269531 353.070312 C 49 352.273438 48.722656 351.605469 48.425781 351.070312 C 48.140625 350.539062 47.617188 350.136719 46.871094 349.878906 C 46.121094 349.605469 45.058594 349.417969 43.664062 349.308594 C 42.28125 349.214844 40.359375 349.160156 37.910156 349.160156 C 35.023438 349.160156 32.785156 349.222656 31.1875 349.355469 C 29.589844 349.492188 28.460938 349.832031 27.785156 350.394531 C 27.121094 350.949219 26.855469 351.789062 26.980469 352.910156 C 27.121094 354.027344 27.507812 355.550781 28.144531 357.464844 L 58.949219 449.113281 C 59.160156 449.800781 59.382812 450.382812 59.628906 450.832031 C 59.871094 451.285156 60.210938 451.667969 60.671875 451.996094 C 61.121094 452.3125 61.683594 452.578125 62.351562 452.792969 C 63.015625 453 63.875 453.15625 64.949219 453.269531 C 66.015625 453.371094 67.308594 453.433594 68.824219 453.46875 C 70.339844 453.492188 72.179688 453.511719 74.308594 453.511719 C 76.972656 453.511719 79.140625 453.46875 80.792969 453.386719 C 82.441406 453.316406 83.742188 453.125 84.710938 452.828125 C 85.671875 452.539062 86.359375 452.109375 86.789062 451.554688 C 87.210938 450.988281 87.566406 450.261719 87.824219 449.359375 L 222.0625 1.265625 L 74.546875 432.8125 " fill-opacity="1" fill-rule="nonzero"/></g><path fill="#e98e07" d="M 191.351562 411.199219 C 190.066406 408.140625 188.386719 405.472656 186.308594 403.207031 C 184.226562 400.945312 181.855469 398.996094 179.191406 397.375 C 176.519531 395.753906 173.796875 394.292969 171.03125 393.019531 C 168.257812 391.738281 165.535156 390.527344 162.863281 389.386719 C 160.199219 388.238281 157.816406 387.019531 155.707031 385.710938 C 153.605469 384.410156 151.925781 382.910156 150.667969 381.230469 C 149.410156 379.558594 148.792969 377.570312 148.792969 375.289062 C 148.792969 373.742188 149.070312 372.273438 149.625 370.890625 C 150.195312 369.507812 151.046875 368.324219 152.183594 367.339844 C 153.332031 366.347656 154.761719 365.578125 156.472656 365.011719 C 158.179688 364.457031 160.175781 364.179688 162.472656 364.179688 C 165.398438 364.179688 168.09375 364.539062 170.542969 365.257812 C 173 365.96875 175.167969 366.773438 177.03125 367.648438 C 178.894531 368.53125 180.472656 369.34375 181.75 370.089844 C 183.023438 370.835938 183.960938 371.210938 184.554688 371.210938 C 185.132812 371.210938 185.601562 371.046875 185.949219 370.726562 C 186.289062 370.410156 186.5625 369.902344 186.75 369.210938 C 186.929688 368.519531 187.066406 367.640625 187.148438 366.574219 C 187.226562 365.503906 187.277344 364.203125 187.277344 362.660156 C 187.277344 361.269531 187.238281 360.117188 187.195312 359.183594 C 187.136719 358.25 187.042969 357.472656 186.914062 356.867188 C 186.777344 356.253906 186.617188 355.761719 186.429688 355.386719 C 186.238281 355.019531 185.878906 354.558594 185.347656 354.027344 C 184.8125 353.5 183.726562 352.828125 182.070312 352.027344 C 180.421875 351.234375 178.523438 350.515625 176.386719 349.878906 C 174.257812 349.234375 171.960938 348.730469 169.507812 348.351562 C 167.050781 347.984375 164.601562 347.796875 162.152344 347.796875 C 157.40625 347.796875 152.902344 348.40625 148.667969 349.636719 C 144.429688 350.863281 140.753906 352.710938 137.625 355.1875 C 134.503906 357.664062 132.03125 360.777344 130.183594 364.539062 C 128.347656 368.296875 127.433594 372.652344 127.433594 377.597656 C 127.433594 381.917969 128.070312 385.621094 129.351562 388.707031 C 130.628906 391.789062 132.300781 394.476562 134.347656 396.734375 C 136.402344 398.996094 138.738281 400.945312 141.347656 402.570312 C 143.960938 404.191406 146.652344 405.644531 149.429688 406.929688 C 152.203125 408.203125 154.898438 409.414062 157.503906 410.5625 C 160.117188 411.710938 162.453125 412.929688 164.511719 414.234375 C 166.558594 415.542969 168.226562 417.03125 169.507812 418.707031 C 170.792969 420.386719 171.429688 422.398438 171.429688 424.746094 C 171.429688 426.765625 171.054688 428.605469 170.304688 430.257812 C 169.558594 431.90625 168.480469 433.300781 167.070312 434.410156 C 165.648438 435.53125 163.9375 436.402344 161.90625 437.007812 C 159.882812 437.621094 157.585938 437.929688 155.03125 437.929688 C 151.136719 437.929688 147.710938 437.488281 144.75 436.605469 C 141.78125 435.726562 139.242188 434.761719 137.101562 433.691406 C 137.070312 433.675781 137.03125 433.652344 136.996094 433.640625 C 134.910156 432.585938 133.203125 431.632812 131.867188 430.777344 C 131.851562 430.769531 131.839844 430.757812 131.828125 430.75 C 123.925781 426.421875 117.527344 430.121094 114.699219 439.910156 L 0 808.734375 L 131.226562 449.410156 C 132.757812 450.269531 134.632812 451.089844 136.867188 451.871094 C 139.21875 452.691406 141.921875 453.402344 144.988281 453.984375 C 148.054688 454.570312 151.375 454.867188 154.949219 454.867188 C 160.222656 454.867188 165.195312 454.171875 169.832031 452.792969 C 174.472656 451.402344 178.523438 449.335938 181.988281 446.597656 C 185.457031 443.859375 188.199219 440.425781 190.226562 436.328125 C 192.257812 432.226562 193.277344 427.457031 193.277344 422.03125 C 193.277344 417.875 192.625 414.265625 191.351562 411.199219 " fill-opacity="1" fill-rule="nonzero"/></svg>