<svg xmlns="http://www.w3.org/2000/svg" xmlns:xlink="http://www.w3.org/1999/xlink" width="1640" zoomAndPan="magnify" viewBox="0 0 1230 693.000001" height="924" preserveAspectRatio="xMidYMid meet" version="1.0"><defs><g/></defs><g fill="#ffffff" fill-opacity="1"><g transform="translate(216.506243, 487.347114)"><g><path d="M 68.425781 -60.90625 L 85.34375 0.375 L 125.195312 0.375 L 88.351562 -131.210938 L 125.195312 -262.792969 L 85.71875 -262.792969 L 50.003906 -135.722656 L 50.003906 -262.792969 L 12.03125 -262.792969 L 12.03125 0.375 L 51.128906 0.375 Z M 68.425781 -60.90625 "/></g></g></g><g fill="#ffffff" fill-opacity="1"><g transform="translate(425.539411, 487.347114)"><g><path d="M 86.847656 -116.546875 L 50.003906 -116.546875 L 50.003906 -263.171875 L 12.03125 -263.171875 L 12.03125 0.375 L 50.003906 0.375 L 50.003906 -78.199219 L 86.847656 -78.199219 L 86.847656 0.375 L 124.816406 0.375 L 124.816406 -263.171875 L 86.847656 -263.171875 Z M 86.847656 -116.546875 "/></g></g></g><g fill="#ffffff" fill-opacity="1"><g transform="translate(634.196551, 487.347114)"><g><path d="M 55.640625 -37.21875 L 81.207031 -37.21875 L 86.46875 0.375 L 125.195312 0.375 L 87.597656 -262.417969 L 87.597656 -263.171875 L 49.25 -263.171875 L 12.03125 0.375 L 50.378906 0.375 Z M 60.90625 -75.191406 L 68.425781 -127.449219 L 75.945312 -75.191406 Z M 60.90625 -75.191406 "/></g></g></g><g fill="#ffffff" fill-opacity="1"><g transform="translate(843.229719, 487.347114)"><g><path d="M 50.003906 0.375 L 50.003906 -263.171875 L 12.03125 -263.171875 L 12.03125 0.375 Z M 50.003906 0.375 "/></g></g></g><g fill="#ffffff" fill-opacity="1"><g transform="translate(977.071406, 487.347114)"><g><path d="M 125.195312 0.375 L 125.195312 -37.597656 L 50.003906 -37.597656 L 50.003906 -263.171875 L 12.03125 -263.171875 L 12.03125 0.375 Z M 125.195312 0.375 "/></g></g></g><g fill="#ffb000" fill-opacity="1"><g transform="translate(216.506243, 200.351395)"><g><path d="M 43.203125 -52.28125 C 44.378906 -52.28125 45.210938 -52.0625 45.703125 -51.625 C 46.191406 -51.195312 46.4375 -50.476562 46.4375 -49.46875 L 46.4375 -35.203125 C 46.4375 -34.191406 46.191406 -33.46875 45.703125 -33.03125 C 45.210938 -32.601562 44.378906 -32.390625 43.203125 -32.390625 C 42.015625 -32.390625 41.175781 -32.601562 40.6875 -33.03125 C 40.195312 -33.46875 39.953125 -34.191406 39.953125 -35.203125 C 39.953125 -37.160156 39.507812 -38.945312 38.625 -40.5625 C 37.75 -42.175781 36.40625 -43.460938 34.59375 -44.421875 C 32.78125 -45.390625 30.53125 -45.875 27.84375 -45.875 C 24.726562 -45.875 21.96875 -45.050781 19.5625 -43.40625 C 17.15625 -41.769531 15.28125 -39.421875 13.9375 -36.359375 C 12.601562 -33.304688 11.9375 -29.734375 11.9375 -25.640625 C 11.9375 -21.546875 12.566406 -17.976562 13.828125 -14.9375 C 15.097656 -11.894531 16.898438 -9.550781 19.234375 -7.90625 C 21.578125 -6.269531 24.304688 -5.453125 27.421875 -5.453125 C 30.273438 -5.453125 33 -5.867188 35.59375 -6.703125 C 38.1875 -7.535156 40.519531 -8.742188 42.59375 -10.328125 C 43.082031 -10.734375 43.613281 -10.9375 44.1875 -10.9375 C 45.050781 -10.9375 45.816406 -10.375 46.484375 -9.25 C 47.003906 -8.382812 47.265625 -7.625 47.265625 -6.96875 C 47.265625 -6.101562 46.816406 -5.351562 45.921875 -4.71875 C 43.242188 -2.84375 40.328125 -1.425781 37.171875 -0.46875 C 34.015625 0.476562 30.765625 0.953125 27.421875 0.953125 C 22.921875 0.953125 18.988281 -0.148438 15.625 -2.359375 C 12.269531 -4.566406 9.675781 -7.671875 7.84375 -11.671875 C 6.019531 -15.679688 5.109375 -20.335938 5.109375 -25.640625 C 5.109375 -30.921875 6.039062 -35.570312 7.90625 -39.59375 C 9.78125 -43.613281 12.410156 -46.734375 15.796875 -48.953125 C 19.191406 -51.171875 23.066406 -52.28125 27.421875 -52.28125 C 30.128906 -52.28125 32.535156 -51.816406 34.640625 -50.890625 C 36.742188 -49.972656 38.515625 -48.664062 39.953125 -46.96875 L 39.953125 -49.46875 C 39.953125 -50.476562 40.195312 -51.195312 40.6875 -51.625 C 41.175781 -52.0625 42.015625 -52.28125 43.203125 -52.28125 Z M 43.203125 -52.28125 "/></g></g></g><g fill="#ffb000" fill-opacity="1"><g transform="translate(269.606394, 200.351395)"><g><path d="M 26.546875 -52.28125 C 31.046875 -52.28125 35.015625 -51.171875 38.453125 -48.953125 C 41.898438 -46.734375 44.566406 -43.613281 46.453125 -39.59375 C 48.347656 -35.570312 49.296875 -30.921875 49.296875 -25.640625 C 49.296875 -20.367188 48.347656 -15.722656 46.453125 -11.703125 C 44.566406 -7.679688 41.898438 -4.566406 38.453125 -2.359375 C 35.015625 -0.148438 31.046875 0.953125 26.546875 0.953125 C 22.054688 0.953125 18.085938 -0.148438 14.640625 -2.359375 C 11.191406 -4.566406 8.523438 -7.679688 6.640625 -11.703125 C 4.753906 -15.722656 3.8125 -20.367188 3.8125 -25.640625 C 3.8125 -30.921875 4.753906 -35.570312 6.640625 -39.59375 C 8.523438 -43.613281 11.191406 -46.734375 14.640625 -48.953125 C 18.085938 -51.171875 22.054688 -52.28125 26.546875 -52.28125 Z M 26.546875 -45.875 C 23.378906 -45.875 20.59375 -45.050781 18.1875 -43.40625 C 15.78125 -41.769531 13.921875 -39.421875 12.609375 -36.359375 C 11.296875 -33.304688 10.640625 -29.734375 10.640625 -25.640625 C 10.640625 -21.546875 11.296875 -17.976562 12.609375 -14.9375 C 13.921875 -11.894531 15.78125 -9.550781 18.1875 -7.90625 C 20.59375 -6.269531 23.378906 -5.453125 26.546875 -5.453125 C 29.722656 -5.453125 32.515625 -6.269531 34.921875 -7.90625 C 37.328125 -9.550781 39.1875 -11.894531 40.5 -14.9375 C 41.8125 -17.976562 42.46875 -21.546875 42.46875 -25.640625 C 42.46875 -29.734375 41.8125 -33.304688 40.5 -36.359375 C 39.1875 -39.421875 37.328125 -41.769531 34.921875 -43.40625 C 32.515625 -45.050781 29.722656 -45.875 26.546875 -45.875 Z M 26.546875 -45.875 "/></g></g></g><g fill="#ffb000" fill-opacity="1"><g transform="translate(322.706545, 200.351395)"><g><path d="M 26.546875 -51.328125 C 31.078125 -51.328125 35.054688 -50.296875 38.484375 -48.234375 C 41.910156 -46.171875 44.566406 -43.203125 46.453125 -39.328125 C 48.347656 -35.453125 49.296875 -30.890625 49.296875 -25.640625 C 49.296875 -20.390625 48.347656 -15.832031 46.453125 -11.96875 C 44.566406 -8.113281 41.910156 -5.15625 38.484375 -3.09375 C 35.054688 -1.03125 31.078125 0 26.546875 0 L 6.1875 0 C 5.207031 0 4.503906 -0.222656 4.078125 -0.671875 C 3.660156 -1.117188 3.453125 -1.875 3.453125 -2.9375 C 3.453125 -4.007812 3.660156 -4.765625 4.078125 -5.203125 C 4.503906 -5.648438 5.207031 -5.875 6.1875 -5.875 L 11.03125 -5.875 L 11.03125 -45.453125 L 6.1875 -45.453125 C 5.207031 -45.453125 4.503906 -45.675781 4.078125 -46.125 C 3.660156 -46.570312 3.453125 -47.328125 3.453125 -48.390625 C 3.453125 -49.453125 3.660156 -50.207031 4.078125 -50.65625 C 4.503906 -51.101562 5.207031 -51.328125 6.1875 -51.328125 Z M 17.515625 -5.875 L 25.5625 -5.875 C 28.988281 -5.875 31.96875 -6.628906 34.5 -8.140625 C 37.039062 -9.660156 39.003906 -11.894531 40.390625 -14.84375 C 41.773438 -17.800781 42.46875 -21.398438 42.46875 -25.640625 C 42.46875 -29.878906 41.773438 -33.472656 40.390625 -36.421875 C 39.003906 -39.378906 37.039062 -41.625 34.5 -43.15625 C 31.96875 -44.6875 28.988281 -45.453125 25.5625 -45.453125 L 17.515625 -45.453125 Z M 17.515625 -5.875 "/></g></g></g><g fill="#ffb000" fill-opacity="1"><g transform="translate(375.806696, 200.351395)"><g><path d="M 44.328125 -18.59375 C 45.503906 -18.59375 46.335938 -18.375 46.828125 -17.9375 C 47.316406 -17.507812 47.5625 -16.789062 47.5625 -15.78125 L 47.5625 -2.9375 C 47.5625 -1.875 47.351562 -1.117188 46.9375 -0.671875 C 46.519531 -0.222656 45.820312 0 44.84375 0 L 6.1875 0 C 5.207031 0 4.503906 -0.222656 4.078125 -0.671875 C 3.660156 -1.117188 3.453125 -1.875 3.453125 -2.9375 C 3.453125 -4.007812 3.660156 -4.765625 4.078125 -5.203125 C 4.503906 -5.648438 5.207031 -5.875 6.1875 -5.875 L 10.59375 -5.875 L 10.59375 -45.453125 L 6.1875 -45.453125 C 5.207031 -45.453125 4.503906 -45.675781 4.078125 -46.125 C 3.660156 -46.570312 3.453125 -47.328125 3.453125 -48.390625 C 3.453125 -49.453125 3.660156 -50.207031 4.078125 -50.65625 C 4.503906 -51.101562 5.207031 -51.328125 6.1875 -51.328125 L 43.984375 -51.328125 C 44.960938 -51.328125 45.660156 -51.101562 46.078125 -50.65625 C 46.492188 -50.207031 46.703125 -49.453125 46.703125 -48.390625 L 46.703125 -37.40625 C 46.703125 -36.394531 46.457031 -35.671875 45.96875 -35.234375 C 45.476562 -34.804688 44.640625 -34.59375 43.453125 -34.59375 C 42.273438 -34.59375 41.441406 -34.804688 40.953125 -35.234375 C 40.460938 -35.671875 40.21875 -36.394531 40.21875 -37.40625 L 40.21875 -45.453125 L 17.078125 -45.453125 L 17.078125 -29.40625 L 28.234375 -29.40625 L 28.234375 -33.34375 C 28.234375 -34.351562 28.457031 -35.070312 28.90625 -35.5 C 29.351562 -35.9375 30.15625 -36.15625 31.3125 -36.15625 C 32.457031 -36.15625 33.253906 -35.9375 33.703125 -35.5 C 34.148438 -35.070312 34.375 -34.351562 34.375 -33.34375 L 34.375 -19.59375 C 34.375 -18.582031 34.148438 -17.859375 33.703125 -17.421875 C 33.253906 -16.992188 32.457031 -16.78125 31.3125 -16.78125 C 30.15625 -16.78125 29.351562 -16.992188 28.90625 -17.421875 C 28.457031 -17.859375 28.234375 -18.582031 28.234375 -19.59375 L 28.234375 -23.53125 L 17.078125 -23.53125 L 17.078125 -5.875 L 41.078125 -5.875 L 41.078125 -15.78125 C 41.078125 -16.789062 41.320312 -17.507812 41.8125 -17.9375 C 42.300781 -18.375 43.140625 -18.59375 44.328125 -18.59375 Z M 44.328125 -18.59375 "/></g></g></g><g fill="#ffb000" fill-opacity="1"><g transform="translate(428.906848, 200.351395)"><g><path d="M 26.546875 -26.984375 C 24.472656 -26.984375 22.984375 -27.191406 22.078125 -27.609375 C 21.171875 -28.023438 20.71875 -28.722656 20.71875 -29.703125 L 20.71875 -37.671875 C 20.71875 -38.648438 21.171875 -39.347656 22.078125 -39.765625 C 22.984375 -40.179688 24.472656 -40.390625 26.546875 -40.390625 C 28.628906 -40.390625 30.125 -40.179688 31.03125 -39.765625 C 31.9375 -39.347656 32.390625 -38.648438 32.390625 -37.671875 L 32.390625 -29.703125 C 32.390625 -28.722656 31.9375 -28.023438 31.03125 -27.609375 C 30.125 -27.191406 28.628906 -26.984375 26.546875 -26.984375 Z M 26.546875 0.4375 C 24.472656 0.4375 22.984375 0.226562 22.078125 -0.1875 C 21.171875 -0.613281 20.71875 -1.316406 20.71875 -2.296875 L 20.71875 -10.25 C 20.71875 -11.226562 21.171875 -11.925781 22.078125 -12.34375 C 22.984375 -12.757812 24.472656 -12.96875 26.546875 -12.96875 C 28.628906 -12.96875 30.125 -12.757812 31.03125 -12.34375 C 31.9375 -11.925781 32.390625 -11.226562 32.390625 -10.25 L 32.390625 -2.296875 C 32.390625 -1.316406 31.9375 -0.613281 31.03125 -0.1875 C 30.125 0.226562 28.628906 0.4375 26.546875 0.4375 Z M 26.546875 0.4375 "/></g></g></g><g fill="#ffb000" fill-opacity="1"><g transform="translate(482.004738, 200.351395)"><g/></g></g><g fill="#ffffff" fill-opacity="1"><g transform="translate(216.506243, 599.048909)"><g><path d="M 71.828125 -32.21875 L 25.109375 -32.21875 C 25.628906 -25.894531 27.425781 -21.289062 30.5 -18.40625 C 33.582031 -15.53125 37.78125 -14.09375 43.09375 -14.09375 C 47.269531 -14.09375 50.648438 -14.875 53.234375 -16.4375 C 55.828125 -18 57.914062 -20.363281 59.5 -23.53125 L 60.890625 -23.53125 L 73.015625 -15.75 C 70.640625 -10.65625 67.054688 -6.523438 62.265625 -3.359375 C 57.484375 -0.191406 51.09375 1.390625 43.09375 1.390625 C 35.582031 1.390625 29.09375 -0.0351562 23.625 -2.890625 C 18.15625 -5.753906 13.9375 -10.007812 10.96875 -15.65625 C 8.007812 -21.300781 6.53125 -28.1875 6.53125 -36.3125 C 6.53125 -44.570312 8.085938 -51.535156 11.203125 -57.203125 C 14.316406 -62.867188 18.53125 -67.09375 23.84375 -69.875 C 29.164062 -72.664062 35.144531 -74.0625 41.78125 -74.0625 C 52.0625 -74.0625 59.9375 -71.335938 65.40625 -65.890625 C 70.875 -60.441406 73.609375 -52.445312 73.609375 -41.90625 C 73.609375 -38.082031 73.472656 -35.117188 73.203125 -33.015625 Z M 56.140625 -44.015625 C 55.960938 -49.554688 54.675781 -53.585938 52.28125 -56.109375 C 49.894531 -58.640625 46.394531 -59.90625 41.78125 -59.90625 C 32.550781 -59.90625 27.125 -54.609375 25.5 -44.015625 Z M 56.140625 -44.015625 "/></g></g></g><g fill="#ffffff" fill-opacity="1"><g transform="translate(318.322733, 599.048909)"><g><path d="M 19.578125 -81.375 C 16.273438 -81.375 13.59375 -82.375 11.53125 -84.375 C 9.46875 -86.375 8.4375 -88.957031 8.4375 -92.125 C 8.4375 -95.238281 9.46875 -97.796875 11.53125 -99.796875 C 13.59375 -101.796875 16.273438 -102.796875 19.578125 -102.796875 C 21.765625 -102.796875 23.710938 -102.332031 25.421875 -101.40625 C 27.140625 -100.488281 28.472656 -99.226562 29.421875 -97.625 C 30.367188 -96.019531 30.84375 -94.1875 30.84375 -92.125 C 30.84375 -90.0625 30.367188 -88.210938 29.421875 -86.578125 C 28.472656 -84.953125 27.140625 -83.675781 25.421875 -82.75 C 23.710938 -81.832031 21.765625 -81.375 19.578125 -81.375 Z M 10.484375 0 L 10.484375 -72.6875 L 28.734375 -72.6875 L 28.734375 0 Z M 10.484375 0 "/></g></g></g><g fill="#ffffff" fill-opacity="1"><g transform="translate(380.272712, 599.048909)"><g><path d="M 35.90625 1.390625 C 30.15625 1.390625 25.070312 -0.00390625 20.65625 -2.796875 C 16.238281 -5.585938 12.78125 -9.804688 10.28125 -15.453125 C 7.78125 -21.097656 6.53125 -28.050781 6.53125 -36.3125 C 6.53125 -44.613281 7.8125 -51.585938 10.375 -57.234375 C 12.945312 -62.878906 16.503906 -67.09375 21.046875 -69.875 C 25.597656 -72.664062 30.859375 -74.0625 36.828125 -74.0625 C 41.359375 -74.0625 45.28125 -73.28125 48.59375 -71.71875 C 51.914062 -70.164062 54.71875 -67.742188 57 -64.453125 L 58.390625 -64.78125 L 58.390625 -101.875 L 76.640625 -101.875 L 76.640625 0 L 58.390625 0 L 58.390625 -9.421875 L 57 -9.6875 C 54.976562 -6.257812 52.207031 -3.554688 48.6875 -1.578125 C 45.175781 0.398438 40.914062 1.390625 35.90625 1.390625 Z M 41.84375 -14.09375 C 46.976562 -14.09375 51.039062 -15.925781 54.03125 -19.59375 C 57.019531 -23.269531 58.515625 -28.84375 58.515625 -36.3125 C 58.515625 -43.78125 57.019531 -49.359375 54.03125 -53.046875 C 51.039062 -56.734375 46.976562 -58.578125 41.84375 -58.578125 C 36.476562 -58.578125 32.378906 -56.785156 29.546875 -53.203125 C 26.710938 -49.628906 25.296875 -44 25.296875 -36.3125 C 25.296875 -28.664062 26.710938 -23.050781 29.546875 -19.46875 C 32.378906 -15.882812 36.476562 -14.09375 41.84375 -14.09375 Z M 41.84375 -14.09375 "/></g></g></g><g fill="#ffffff" fill-opacity="1"><g transform="translate(490.194309, 599.048909)"><g><path d="M 42.234375 1.390625 C 35.117188 1.390625 28.867188 -0.0664062 23.484375 -2.984375 C 18.109375 -5.910156 13.9375 -10.195312 10.96875 -15.84375 C 8.007812 -21.488281 6.53125 -28.3125 6.53125 -36.3125 C 6.53125 -44.300781 8.007812 -51.128906 10.96875 -56.796875 C 13.9375 -62.460938 18.109375 -66.753906 23.484375 -69.671875 C 28.867188 -72.597656 35.117188 -74.0625 42.234375 -74.0625 C 49.347656 -74.0625 55.597656 -72.597656 60.984375 -69.671875 C 66.367188 -66.753906 70.550781 -62.460938 73.53125 -56.796875 C 76.519531 -51.128906 78.015625 -44.300781 78.015625 -36.3125 C 78.015625 -28.3125 76.519531 -21.488281 73.53125 -15.84375 C 70.550781 -10.195312 66.367188 -5.910156 60.984375 -2.984375 C 55.597656 -0.0664062 49.347656 1.390625 42.234375 1.390625 Z M 42.234375 -14.09375 C 53.523438 -14.09375 59.171875 -21.5 59.171875 -36.3125 C 59.171875 -44 57.71875 -49.628906 54.8125 -53.203125 C 51.914062 -56.785156 47.722656 -58.578125 42.234375 -58.578125 C 30.941406 -58.578125 25.296875 -51.15625 25.296875 -36.3125 C 25.296875 -21.5 30.941406 -14.09375 42.234375 -14.09375 Z M 42.234375 -14.09375 "/></g></g></g><g fill="#ffffff" fill-opacity="1"><g transform="translate(597.480103, 599.048909)"><g><path d="M 34 1.390625 C 29.039062 1.390625 24.492188 0.804688 20.359375 -0.359375 C 16.234375 -1.523438 12.707031 -3.128906 9.78125 -5.171875 C 6.863281 -7.210938 4.703125 -9.550781 3.296875 -12.1875 L 13.4375 -23.125 L 14.828125 -23.125 C 17.242188 -19.875 20.097656 -17.4375 23.390625 -15.8125 C 26.679688 -14.1875 30.265625 -13.375 34.140625 -13.375 C 37.691406 -13.375 40.367188 -14.007812 42.171875 -15.28125 C 43.972656 -16.5625 44.875 -18.382812 44.875 -20.75 C 44.875 -22.601562 44.222656 -24.15625 42.921875 -25.40625 C 41.628906 -26.65625 39.535156 -27.628906 36.640625 -28.328125 L 27.015625 -30.640625 C 19.804688 -32.359375 14.546875 -34.984375 11.234375 -38.515625 C 7.921875 -42.046875 6.265625 -46.535156 6.265625 -51.984375 C 6.265625 -56.515625 7.414062 -60.445312 9.71875 -63.78125 C 12.019531 -67.125 15.269531 -69.671875 19.46875 -71.421875 C 23.664062 -73.179688 28.554688 -74.0625 34.140625 -74.0625 C 40.679688 -74.0625 46.101562 -73.117188 50.40625 -71.234375 C 54.71875 -69.347656 58.078125 -66.820312 60.484375 -63.65625 L 50.734375 -53.109375 L 49.421875 -53.109375 C 47.398438 -55.390625 45.125 -57.054688 42.59375 -58.109375 C 40.070312 -59.171875 37.253906 -59.703125 34.140625 -59.703125 C 26.929688 -59.703125 23.328125 -57.460938 23.328125 -52.984375 C 23.328125 -51.085938 23.992188 -49.546875 25.328125 -48.359375 C 26.671875 -47.179688 29.035156 -46.21875 32.421875 -45.46875 L 41.375 -43.484375 C 48.757812 -41.910156 54.15625 -39.375 57.5625 -35.875 C 60.96875 -32.382812 62.671875 -27.695312 62.671875 -21.8125 C 62.671875 -17.195312 61.523438 -13.128906 59.234375 -9.609375 C 56.953125 -6.097656 53.65625 -3.382812 49.34375 -1.46875 C 45.039062 0.4375 39.925781 1.390625 34 1.390625 Z M 34 1.390625 "/></g></g></g><g fill="#ffffff" fill-opacity="1"><g transform="translate(687.303679, 599.048909)"><g><path d="M 42.375 1.390625 C 35.34375 1.390625 29.125 -0.0664062 23.71875 -2.984375 C 18.3125 -5.910156 14.09375 -10.207031 11.0625 -15.875 C 8.039062 -21.539062 6.53125 -28.351562 6.53125 -36.3125 C 6.53125 -44.300781 8.039062 -51.128906 11.0625 -56.796875 C 14.09375 -62.460938 18.289062 -66.753906 23.65625 -69.671875 C 29.019531 -72.597656 35.148438 -74.0625 42.046875 -74.0625 C 57.367188 -74.0625 67.1875 -68.503906 71.5 -57.390625 L 58.96875 -48.4375 L 57.59375 -48.4375 C 56.101562 -51.863281 54.160156 -54.410156 51.765625 -56.078125 C 49.367188 -57.742188 46.128906 -58.578125 42.046875 -58.578125 C 36.773438 -58.578125 32.664062 -56.753906 29.71875 -53.109375 C 26.769531 -49.460938 25.296875 -43.863281 25.296875 -36.3125 C 25.296875 -28.84375 26.789062 -23.269531 29.78125 -19.59375 C 32.769531 -15.925781 36.96875 -14.09375 42.375 -14.09375 C 46.320312 -14.09375 49.664062 -15.160156 52.40625 -17.296875 C 55.15625 -19.429688 57.125 -22.492188 58.3125 -26.484375 L 59.703125 -26.625 L 72.6875 -19.5 C 70.84375 -13.351562 67.425781 -8.332031 62.4375 -4.4375 C 57.445312 -0.550781 50.757812 1.390625 42.375 1.390625 Z M 42.375 1.390625 "/></g></g></g><g fill="#ffffff" fill-opacity="1"><g transform="translate(785.034662, 599.048909)"><g><path d="M 42.234375 1.390625 C 35.117188 1.390625 28.867188 -0.0664062 23.484375 -2.984375 C 18.109375 -5.910156 13.9375 -10.195312 10.96875 -15.84375 C 8.007812 -21.488281 6.53125 -28.3125 6.53125 -36.3125 C 6.53125 -44.300781 8.007812 -51.128906 10.96875 -56.796875 C 13.9375 -62.460938 18.109375 -66.753906 23.484375 -69.671875 C 28.867188 -72.597656 35.117188 -74.0625 42.234375 -74.0625 C 49.347656 -74.0625 55.597656 -72.597656 60.984375 -69.671875 C 66.367188 -66.753906 70.550781 -62.460938 73.53125 -56.796875 C 76.519531 -51.128906 78.015625 -44.300781 78.015625 -36.3125 C 78.015625 -28.3125 76.519531 -21.488281 73.53125 -15.84375 C 70.550781 -10.195312 66.367188 -5.910156 60.984375 -2.984375 C 55.597656 -0.0664062 49.347656 1.390625 42.234375 1.390625 Z M 42.234375 -14.09375 C 53.523438 -14.09375 59.171875 -21.5 59.171875 -36.3125 C 59.171875 -44 57.71875 -49.628906 54.8125 -53.203125 C 51.914062 -56.785156 47.722656 -58.578125 42.234375 -58.578125 C 30.941406 -58.578125 25.296875 -51.15625 25.296875 -36.3125 C 25.296875 -21.5 30.941406 -14.09375 42.234375 -14.09375 Z M 42.234375 -14.09375 "/></g></g></g><g fill="#ffffff" fill-opacity="1"><g transform="translate(892.320456, 599.048909)"><g><path d="M 10.484375 29.453125 L 10.484375 -72.6875 L 28.734375 -72.6875 L 28.734375 -63.1875 L 30.109375 -62.9375 C 32.265625 -66.625 35.144531 -69.398438 38.75 -71.265625 C 42.351562 -73.128906 46.566406 -74.0625 51.390625 -74.0625 C 57.234375 -74.0625 62.34375 -72.675781 66.71875 -69.90625 C 71.09375 -67.144531 74.5 -62.941406 76.9375 -57.296875 C 79.375 -51.648438 80.59375 -44.65625 80.59375 -36.3125 C 80.59375 -28.007812 79.304688 -21.046875 76.734375 -15.421875 C 74.160156 -9.796875 70.585938 -5.585938 66.015625 -2.796875 C 61.453125 -0.00390625 56.1875 1.390625 50.21875 1.390625 C 45.6875 1.390625 41.773438 0.632812 38.484375 -0.875 C 35.191406 -2.394531 32.398438 -4.757812 30.109375 -7.96875 L 28.734375 -7.703125 L 28.734375 29.453125 Z M 45.140625 -14.09375 C 50.585938 -14.09375 54.71875 -15.875 57.53125 -19.4375 C 60.34375 -23 61.75 -28.625 61.75 -36.3125 C 61.75 -44 60.34375 -49.628906 57.53125 -53.203125 C 54.71875 -56.785156 50.585938 -58.578125 45.140625 -58.578125 C 40.046875 -58.578125 36.003906 -56.734375 33.015625 -53.046875 C 30.023438 -49.359375 28.53125 -43.78125 28.53125 -36.3125 C 28.53125 -28.882812 30.023438 -23.320312 33.015625 -19.625 C 36.003906 -15.9375 40.046875 -14.09375 45.140625 -14.09375 Z M 45.140625 -14.09375 "/></g></g></g><g fill="#ffffff" fill-opacity="1"><g transform="translate(1002.17613, 599.048909)"><g><path d="M 71.828125 -32.21875 L 25.109375 -32.21875 C 25.628906 -25.894531 27.425781 -21.289062 30.5 -18.40625 C 33.582031 -15.53125 37.78125 -14.09375 43.09375 -14.09375 C 47.269531 -14.09375 50.648438 -14.875 53.234375 -16.4375 C 55.828125 -18 57.914062 -20.363281 59.5 -23.53125 L 60.890625 -23.53125 L 73.015625 -15.75 C 70.640625 -10.65625 67.054688 -6.523438 62.265625 -3.359375 C 57.484375 -0.191406 51.09375 1.390625 43.09375 1.390625 C 35.582031 1.390625 29.09375 -0.0351562 23.625 -2.890625 C 18.15625 -5.753906 13.9375 -10.007812 10.96875 -15.65625 C 8.007812 -21.300781 6.53125 -28.1875 6.53125 -36.3125 C 6.53125 -44.570312 8.085938 -51.535156 11.203125 -57.203125 C 14.316406 -62.867188 18.53125 -67.09375 23.84375 -69.875 C 29.164062 -72.664062 35.144531 -74.0625 41.78125 -74.0625 C 52.0625 -74.0625 59.9375 -71.335938 65.40625 -65.890625 C 70.875 -60.441406 73.609375 -52.445312 73.609375 -41.90625 C 73.609375 -38.082031 73.472656 -35.117188 73.203125 -33.015625 Z M 56.140625 -44.015625 C 55.960938 -49.554688 54.675781 -53.585938 52.28125 -56.109375 C 49.894531 -58.640625 46.394531 -59.90625 41.78125 -59.90625 C 32.550781 -59.90625 27.125 -54.609375 25.5 -44.015625 Z M 56.140625 -44.015625 "/></g></g></g><g fill="#ffffff" fill-opacity="1"><g transform="translate(1103.985871, 599.048909)"><g/></g></g><g fill="#ffb000" fill-opacity="1"><g transform="translate(0.886166, 538.081025)"><g><path d="M 150.25 51.734375 C 122.195312 51.734375 101.28125 45.128906 87.5 31.921875 C 73.71875 18.722656 66.828125 -1.566406 66.828125 -28.953125 L 66.828125 -107.921875 C 66.828125 -119.140625 64.472656 -127.097656 59.765625 -131.796875 C 55.066406 -136.503906 47.109375 -138.859375 35.890625 -138.859375 L 19.546875 -138.859375 L 19.546875 -192.078125 L 35.890625 -192.078125 C 47.109375 -192.078125 55.066406 -194.425781 59.765625 -199.125 C 64.472656 -203.832031 66.828125 -211.796875 66.828125 -223.015625 L 66.828125 -301.96875 C 66.828125 -329.363281 73.71875 -349.660156 87.5 -362.859375 C 101.28125 -376.066406 122.195312 -382.671875 150.25 -382.671875 L 182.421875 -382.671875 L 182.421875 -330.4375 L 162.875 -330.4375 C 152.3125 -330.4375 144.632812 -328.003906 139.84375 -323.140625 C 135.0625 -318.273438 132.671875 -310.066406 132.671875 -298.515625 L 132.671875 -231.921875 C 132.671875 -213.273438 129.328125 -199.082031 122.640625 -189.34375 C 115.960938 -179.613281 105.609375 -172.519531 91.578125 -168.0625 L 91.578125 -162.875 C 105.609375 -158.414062 115.960938 -151.316406 122.640625 -141.578125 C 129.328125 -131.847656 132.671875 -117.660156 132.671875 -99.015625 L 132.671875 -32.421875 C 132.671875 -20.867188 135.0625 -12.660156 139.84375 -7.796875 C 144.632812 -2.929688 152.3125 -0.5 162.875 -0.5 L 182.421875 -0.5 L 182.421875 51.734375 Z M 150.25 51.734375 "/></g></g></g><g fill="#ffb000" fill-opacity="1"><g transform="translate(1100.476603, 617.548446)"><g><path d="M 82 -47.546875 L 9.0625 -18.28125 L 9.0625 -39.0625 L 55.078125 -56.453125 L 55.078125 -58.140625 L 9.0625 -75.53125 L 9.0625 -96.234375 L 82 -66.96875 Z M 82 -47.546875 "/></g></g></g></svg>