<svg xmlns="http://www.w3.org/2000/svg" xmlns:xlink="http://www.w3.org/1999/xlink" width="101" zoomAndPan="magnify" viewBox="0 0 75.75 86.249997" height="115" preserveAspectRatio="xMidYMid meet" version="1.0"><defs><clipPath id="0ce9cee672"><path d="M 0.203125 0 L 75.300781 0 L 75.300781 29 L 0.203125 29 Z M 0.203125 0 " clip-rule="nonzero"/></clipPath><clipPath id="d5a8799967"><path d="M 10 29 L 75.300781 29 L 75.300781 85.507812 L 10 85.507812 Z M 10 29 " clip-rule="nonzero"/></clipPath><clipPath id="71b5490fe2"><path d="M 72 24 L 75.300781 24 L 75.300781 27 L 72 27 Z M 72 24 " clip-rule="nonzero"/></clipPath></defs><path fill="#59caff" d="M 58.058594 1.339844 L 74.203125 17.425781 L 58.058594 17.425781 Z M 58.058594 1.339844 " fill-opacity="1" fill-rule="nonzero"/><path fill="#0096dc" d="M 74.203125 17.425781 L 74.203125 84.449219 L 12.3125 84.449219 L 12.3125 1.339844 L 58.058594 1.339844 L 58.058594 17.425781 Z M 74.203125 17.425781 " fill-opacity="1" fill-rule="nonzero"/><path fill="#006bc0" d="M 15.003906 12.0625 L 15.003906 76.40625 C 15.003906 76.757812 15.035156 77.105469 15.105469 77.453125 C 15.175781 77.796875 15.277344 78.132812 15.414062 78.457031 C 15.546875 78.78125 15.714844 79.089844 15.910156 79.382812 C 16.105469 79.675781 16.328125 79.949219 16.578125 80.195312 C 16.828125 80.445312 17.101562 80.667969 17.394531 80.863281 C 17.6875 81.058594 18 81.222656 18.324219 81.359375 C 18.652344 81.492188 18.988281 81.59375 19.335938 81.664062 C 19.679688 81.734375 20.03125 81.765625 20.382812 81.765625 L 66.128906 81.765625 C 66.484375 81.765625 66.832031 81.734375 67.179688 81.664062 C 67.527344 81.59375 67.863281 81.492188 68.1875 81.359375 C 68.515625 81.222656 68.824219 81.058594 69.121094 80.863281 C 69.414062 80.667969 69.683594 80.445312 69.933594 80.195312 C 70.183594 79.949219 70.40625 79.675781 70.605469 79.382812 C 70.800781 79.089844 70.964844 78.78125 71.101562 78.457031 C 71.238281 78.132812 71.339844 77.796875 71.40625 77.453125 C 71.476562 77.105469 71.511719 76.757812 71.511719 76.40625 L 71.511719 73.558594 C 15.003906 70.089844 15.003906 12.0625 15.003906 12.0625 Z M 15.003906 12.0625 " fill-opacity="1" fill-rule="nonzero"/><path fill="#005599" d="M 59.402344 17.425781 L 74.203125 17.425781 L 74.203125 20.105469 L 59.402344 20.105469 Z M 59.402344 17.425781 " fill-opacity="1" fill-rule="nonzero"/><path fill="#f2f2f2" d="M 1.546875 5.363281 L 49.984375 5.363281 L 49.984375 26.808594 L 1.546875 26.808594 Z M 1.546875 5.363281 " fill-opacity="1" fill-rule="nonzero"/><path fill="#005599" d="M 12.3125 26.808594 L 47.292969 26.808594 L 47.292969 30.832031 L 12.3125 30.832031 Z M 12.3125 26.808594 " fill-opacity="1" fill-rule="nonzero"/><path fill="#005599" d="M 58.058594 68.363281 C 57.421875 69.207031 56.628906 69.863281 55.683594 70.335938 C 54.734375 70.804688 53.734375 71.042969 52.675781 71.042969 L 51.328125 71.042969 L 51.328125 68.363281 L 52.675781 68.363281 L 52.675781 69.703125 L 54.019531 69.703125 C 55.515625 69.710938 56.863281 69.261719 58.058594 68.363281 Z M 58.058594 68.363281 " fill-opacity="1" fill-rule="nonzero"/><path fill="#005599" d="M 58.339844 57.691406 C 58.140625 58.097656 58.046875 58.527344 58.058594 58.980469 L 58.058594 63 C 58.054688 63.703125 57.882812 64.355469 57.535156 64.96875 C 57.191406 65.578125 56.71875 66.066406 56.121094 66.433594 C 56.515625 65.792969 56.710938 65.09375 56.710938 64.339844 L 56.710938 60.320312 C 56.707031 59.761719 56.851562 59.246094 57.144531 58.773438 C 57.4375 58.296875 57.835938 57.9375 58.339844 57.691406 Z M 58.339844 57.691406 " fill-opacity="1" fill-rule="nonzero"/><path fill="#005599" d="M 62.011719 58.082031 C 61.953125 58.277344 61.851562 58.449219 61.703125 58.589844 C 61.40625 58.882812 61.089844 59.148438 60.746094 59.382812 L 60.746094 58.886719 C 60.917969 58.746094 61.101562 58.625 61.300781 58.523438 C 61.546875 58.390625 61.785156 58.246094 62.011719 58.082031 Z M 62.011719 58.082031 " fill-opacity="1" fill-rule="nonzero"/><path fill="#005599" d="M 59.777344 56.296875 C 59.1875 56.605469 58.71875 57.042969 58.378906 57.613281 C 57.867188 57.367188 57.460938 57.003906 57.160156 56.527344 C 56.859375 56.046875 56.710938 55.523438 56.710938 54.957031 L 56.710938 50.9375 C 56.710938 50.671875 56.683594 50.410156 56.632812 50.152344 C 56.578125 49.894531 56.503906 49.644531 56.402344 49.398438 C 56.300781 49.15625 56.175781 48.925781 56.027344 48.707031 C 55.878906 48.488281 55.710938 48.285156 55.527344 48.097656 C 55.339844 47.910156 55.132812 47.742188 54.914062 47.597656 C 54.695312 47.449219 54.460938 47.328125 54.21875 47.226562 C 53.972656 47.125 53.722656 47.046875 53.460938 46.996094 C 53.203125 46.941406 52.941406 46.917969 52.675781 46.914062 L 51.328125 46.914062 L 51.328125 44.234375 L 52.675781 44.234375 L 52.675781 45.574219 L 54.019531 45.574219 C 54.285156 45.574219 54.546875 45.601562 54.808594 45.65625 C 55.066406 45.707031 55.320312 45.785156 55.5625 45.882812 C 55.808594 45.984375 56.039062 46.109375 56.261719 46.257812 C 56.480469 46.402344 56.683594 46.570312 56.871094 46.757812 C 57.058594 46.941406 57.226562 47.144531 57.371094 47.367188 C 57.519531 47.585938 57.644531 47.816406 57.746094 48.058594 C 57.847656 48.304688 57.925781 48.554688 57.976562 48.8125 C 58.03125 49.070312 58.054688 49.332031 58.058594 49.597656 L 58.058594 53.617188 C 58.054688 54.195312 58.210938 54.726562 58.523438 55.210938 C 58.835938 55.695312 59.253906 56.058594 59.777344 56.296875 Z M 59.777344 56.296875 " fill-opacity="1" fill-rule="nonzero"/><path fill="#005599" d="M 32.492188 69.703125 L 32.492188 71.042969 L 31.148438 71.042969 C 30.707031 71.042969 30.269531 71 29.835938 70.914062 C 29.402344 70.828125 28.980469 70.703125 28.574219 70.535156 C 28.164062 70.363281 27.777344 70.160156 27.410156 69.914062 C 27.042969 69.667969 26.703125 69.390625 26.390625 69.082031 C 26.078125 68.769531 25.800781 68.429688 25.554688 68.066406 C 25.308594 67.699219 25.101562 67.3125 24.933594 66.90625 C 24.761719 66.5 24.636719 66.082031 24.550781 65.648438 C 24.464844 65.21875 24.421875 64.78125 24.421875 64.339844 L 24.421875 60.320312 C 24.367188 60.144531 24.070312 59.984375 23.867188 59.863281 C 23.230469 59.519531 22.644531 59.09375 22.121094 58.589844 C 21.992188 58.464844 21.898438 58.320312 21.828125 58.152344 C 21.761719 57.988281 21.726562 57.816406 21.726562 57.640625 C 21.726562 57.460938 21.761719 57.289062 21.828125 57.125 C 21.898438 56.960938 21.992188 56.8125 22.121094 56.6875 C 22.441406 56.378906 22.785156 56.101562 23.15625 55.855469 C 23.066406 56.097656 23.050781 56.347656 23.105469 56.597656 C 23.160156 56.851562 23.28125 57.066406 23.464844 57.25 C 23.992188 57.753906 24.574219 58.175781 25.214844 58.523438 C 25.417969 58.644531 25.710938 58.804688 25.765625 58.980469 L 25.765625 63 C 25.765625 63.441406 25.808594 63.878906 25.894531 64.308594 C 25.980469 64.738281 26.109375 65.160156 26.277344 65.566406 C 26.445312 65.972656 26.65625 66.359375 26.898438 66.722656 C 27.144531 67.089844 27.425781 67.429688 27.738281 67.742188 C 28.046875 68.050781 28.386719 68.328125 28.753906 68.574219 C 29.125 68.816406 29.511719 69.023438 29.917969 69.191406 C 30.328125 69.363281 30.746094 69.488281 31.179688 69.574219 C 31.613281 69.660156 32.050781 69.703125 32.492188 69.703125 Z M 32.492188 69.703125 " fill-opacity="1" fill-rule="nonzero"/><path fill="#005599" d="M 27.113281 45.574219 C 26.207031 46.765625 25.761719 48.105469 25.765625 49.597656 L 25.765625 53.710938 C 25.59375 53.851562 25.410156 53.972656 25.214844 54.074219 C 24.984375 54.207031 24.714844 54.367188 24.421875 54.554688 L 24.421875 50.9375 C 24.421875 49.882812 24.660156 48.882812 25.132812 47.941406 C 25.605469 46.996094 26.265625 46.207031 27.113281 45.574219 Z M 27.113281 45.574219 " fill-opacity="1" fill-rule="nonzero"/><path fill="#005599" d="M 32.492188 45.574219 L 32.492188 46.914062 L 31.148438 46.914062 C 30.390625 46.914062 29.691406 47.113281 29.050781 47.503906 C 29.414062 46.90625 29.90625 46.4375 30.519531 46.09375 C 31.132812 45.75 31.789062 45.578125 32.492188 45.574219 Z M 32.492188 45.574219 " fill-opacity="1" fill-rule="nonzero"/><path fill="#cdd1d6" d="M 26.519531 22.199219 C 26.152344 22.796875 25.664062 23.265625 25.050781 23.609375 C 24.4375 23.953125 23.777344 24.125 23.074219 24.128906 C 18.824219 24.128906 17.691406 21.5 17.691406 20.105469 L 19.335938 20.105469 C 19.886719 21.394531 21.324219 22.789062 24.421875 22.789062 C 25.175781 22.789062 25.875 22.589844 26.519531 22.199219 Z M 26.519531 22.199219 " fill-opacity="1" fill-rule="nonzero"/><path fill="#cdd1d6" d="M 25.765625 18.765625 C 25.765625 18.945312 25.730469 19.113281 25.664062 19.277344 C 25.59375 19.445312 25.5 19.589844 25.371094 19.714844 C 25.246094 19.839844 25.101562 19.9375 24.933594 20.003906 C 24.769531 20.074219 24.597656 20.105469 24.421875 20.105469 C 24.421875 19.929688 24.386719 19.757812 24.316406 19.59375 C 24.25 19.429688 24.152344 19.285156 24.027344 19.160156 C 23.898438 19.03125 23.753906 18.9375 23.589844 18.867188 C 23.425781 18.800781 23.253906 18.765625 23.074219 18.765625 L 21.730469 18.765625 L 21.730469 18.726562 L 21.324219 18.738281 L 21.3125 18.738281 C 20.894531 18.695312 20.492188 18.585938 20.105469 18.417969 C 19.722656 18.246094 19.371094 18.023438 19.058594 17.742188 C 18.742188 17.464844 18.476562 17.144531 18.265625 16.78125 C 18.050781 16.421875 17.898438 16.035156 17.804688 15.625 C 17.710938 15.214844 17.683594 14.804688 17.722656 14.386719 C 17.757812 13.964844 17.859375 13.5625 18.023438 13.175781 C 18.1875 12.789062 18.40625 12.4375 18.679688 12.121094 C 18.953125 11.800781 19.273438 11.53125 19.628906 11.3125 C 19.25 11.933594 19.054688 12.605469 19.042969 13.332031 C 19.03125 14.058594 19.203125 14.738281 19.558594 15.375 C 19.914062 16.007812 20.410156 16.507812 21.039062 16.875 C 21.667969 17.242188 22.347656 17.425781 23.074219 17.425781 L 24.421875 17.425781 C 24.597656 17.425781 24.769531 17.460938 24.933594 17.527344 C 25.101562 17.597656 25.246094 17.691406 25.371094 17.820312 C 25.5 17.945312 25.59375 18.089844 25.664062 18.253906 C 25.730469 18.417969 25.765625 18.589844 25.765625 18.765625 Z M 25.765625 18.765625 " fill-opacity="1" fill-rule="nonzero"/><path fill="#cdd1d6" d="M 27.113281 14.746094 L 24.421875 14.746094 C 24.40625 14.558594 24.207031 13.40625 21.730469 13.40625 C 21.730469 13.226562 21.765625 13.054688 21.832031 12.890625 C 21.898438 12.726562 21.996094 12.582031 22.125 12.457031 C 22.25 12.332031 22.394531 12.234375 22.558594 12.167969 C 22.726562 12.097656 22.898438 12.0625 23.074219 12.0625 C 25.550781 12.0625 25.753906 13.21875 25.765625 13.40625 L 26.816406 13.40625 C 27.007812 13.832031 27.105469 14.277344 27.113281 14.746094 Z M 27.113281 14.746094 " fill-opacity="1" fill-rule="nonzero"/><path fill="#cdd1d6" d="M 38.628906 22.199219 C 38.261719 22.796875 37.769531 23.265625 37.160156 23.609375 C 36.546875 23.953125 35.886719 24.125 35.183594 24.128906 C 30.933594 24.128906 29.800781 21.5 29.800781 20.105469 L 31.445312 20.105469 C 31.996094 21.394531 33.433594 22.789062 36.53125 22.789062 C 37.285156 22.789062 37.984375 22.589844 38.628906 22.199219 Z M 38.628906 22.199219 " fill-opacity="1" fill-rule="nonzero"/><path fill="#cdd1d6" d="M 37.875 18.765625 C 37.875 18.945312 37.839844 19.113281 37.773438 19.277344 C 37.703125 19.445312 37.605469 19.589844 37.480469 19.714844 C 37.355469 19.839844 37.210938 19.9375 37.042969 20.003906 C 36.878906 20.074219 36.707031 20.105469 36.53125 20.105469 C 36.53125 19.929688 36.496094 19.757812 36.425781 19.59375 C 36.359375 19.429688 36.261719 19.285156 36.136719 19.160156 C 36.007812 19.03125 35.863281 18.9375 35.699219 18.867188 C 35.535156 18.800781 35.363281 18.765625 35.183594 18.765625 L 33.839844 18.765625 L 33.839844 18.726562 L 33.433594 18.738281 L 33.421875 18.738281 C 33.003906 18.695312 32.601562 18.585938 32.214844 18.417969 C 31.832031 18.246094 31.480469 18.023438 31.164062 17.742188 C 30.851562 17.464844 30.585938 17.144531 30.375 16.78125 C 30.160156 16.421875 30.007812 16.035156 29.914062 15.625 C 29.820312 15.214844 29.792969 14.804688 29.832031 14.386719 C 29.867188 13.964844 29.96875 13.5625 30.132812 13.175781 C 30.296875 12.789062 30.515625 12.4375 30.789062 12.121094 C 31.0625 11.800781 31.378906 11.53125 31.738281 11.3125 C 31.359375 11.933594 31.164062 12.605469 31.152344 13.332031 C 31.140625 14.058594 31.3125 14.738281 31.667969 15.375 C 32.023438 16.007812 32.519531 16.507812 33.148438 16.875 C 33.777344 17.242188 34.453125 17.425781 35.183594 17.425781 L 36.53125 17.425781 C 36.707031 17.425781 36.878906 17.460938 37.042969 17.527344 C 37.210938 17.597656 37.355469 17.691406 37.480469 17.820312 C 37.605469 17.945312 37.703125 18.089844 37.773438 18.253906 C 37.839844 18.417969 37.875 18.589844 37.875 18.765625 Z M 37.875 18.765625 " fill-opacity="1" fill-rule="nonzero"/><path fill="#cdd1d6" d="M 39.21875 14.746094 L 36.53125 14.746094 C 36.515625 14.558594 36.3125 13.40625 33.839844 13.40625 C 33.839844 13.226562 33.871094 13.054688 33.941406 12.890625 C 34.007812 12.726562 34.105469 12.582031 34.234375 12.457031 C 34.359375 12.332031 34.503906 12.234375 34.667969 12.167969 C 34.835938 12.097656 35.003906 12.0625 35.183594 12.0625 C 37.660156 12.0625 37.863281 13.21875 37.875 13.40625 L 38.925781 13.40625 C 39.117188 13.832031 39.214844 14.277344 39.21875 14.746094 Z M 39.21875 14.746094 " fill-opacity="1" fill-rule="nonzero"/><path fill="#cdd1d6" d="M 15.003906 22.789062 L 15.003906 24.128906 L 13.65625 24.128906 C 12.949219 24.128906 12.261719 24.019531 11.589844 23.804688 C 10.917969 23.585938 10.296875 23.273438 9.722656 22.863281 C 9.152344 22.453125 8.65625 21.960938 8.238281 21.394531 C 7.820312 20.828125 7.5 20.210938 7.273438 19.546875 C 7.050781 18.878906 6.9375 18.191406 6.929688 17.488281 C 6.921875 16.785156 7.023438 16.097656 7.234375 15.425781 C 7.445312 14.757812 7.753906 14.132812 8.164062 13.558594 C 8.570312 12.984375 9.054688 12.484375 9.621094 12.0625 C 8.71875 13.253906 8.269531 14.59375 8.273438 16.085938 C 8.273438 16.527344 8.316406 16.960938 8.40625 17.394531 C 8.492188 17.824219 8.617188 18.242188 8.789062 18.648438 C 8.957031 19.058594 9.164062 19.441406 9.410156 19.808594 C 9.65625 20.175781 9.933594 20.511719 10.246094 20.824219 C 10.558594 21.136719 10.898438 21.414062 11.265625 21.65625 C 11.632812 21.902344 12.019531 22.109375 12.429688 22.277344 C 12.835938 22.445312 13.257812 22.574219 13.691406 22.660156 C 14.125 22.746094 14.5625 22.789062 15.003906 22.789062 Z M 15.003906 22.789062 " fill-opacity="1" fill-rule="nonzero"/><path fill="#cdd1d6" d="M 15.003906 12.0625 L 15.003906 13.40625 L 13.65625 13.40625 C 12.902344 13.402344 12.203125 13.601562 11.558594 13.996094 C 11.925781 13.398438 12.414062 12.925781 13.027344 12.582031 C 13.640625 12.238281 14.300781 12.066406 15.003906 12.0625 Z M 15.003906 12.0625 " fill-opacity="1" fill-rule="nonzero"/><g clip-path="url(#0ce9cee672)"><path fill="#000000" d="M 75.152344 16.476562 L 59.007812 0.394531 C 58.746094 0.132812 58.429688 0 58.058594 0 L 12.3125 0 C 12.132812 0 11.960938 0.0351562 11.796875 0.101562 C 11.632812 0.171875 11.488281 0.265625 11.359375 0.394531 C 11.234375 0.519531 11.136719 0.664062 11.070312 0.828125 C 11 0.992188 10.964844 1.164062 10.964844 1.339844 L 10.964844 4.019531 L 1.546875 4.019531 C 1.371094 4.019531 1.199219 4.054688 1.03125 4.125 C 0.867188 4.191406 0.722656 4.289062 0.597656 4.414062 C 0.46875 4.539062 0.375 4.683594 0.304688 4.847656 C 0.238281 5.011719 0.203125 5.183594 0.203125 5.363281 L 0.203125 26.808594 C 0.203125 26.988281 0.238281 27.15625 0.304688 27.320312 C 0.375 27.484375 0.46875 27.632812 0.597656 27.757812 C 0.722656 27.882812 0.867188 27.980469 1.03125 28.046875 C 1.199219 28.117188 1.371094 28.148438 1.546875 28.148438 L 49.984375 28.148438 C 50.164062 28.148438 50.335938 28.117188 50.5 28.046875 C 50.664062 27.980469 50.808594 27.882812 50.933594 27.757812 C 51.0625 27.632812 51.160156 27.484375 51.226562 27.320312 C 51.296875 27.15625 51.328125 26.988281 51.328125 26.808594 L 51.328125 5.363281 C 51.328125 5.183594 51.296875 5.011719 51.226562 4.847656 C 51.160156 4.683594 51.0625 4.539062 50.933594 4.414062 C 50.808594 4.289062 50.664062 4.191406 50.5 4.125 C 50.335938 4.054688 50.164062 4.019531 49.984375 4.019531 L 13.65625 4.019531 L 13.65625 2.679688 L 56.710938 2.679688 L 56.710938 17.425781 C 56.710938 17.605469 56.746094 17.773438 56.8125 17.9375 C 56.882812 18.101562 56.980469 18.246094 57.105469 18.375 C 57.230469 18.5 57.375 18.597656 57.542969 18.664062 C 57.707031 18.730469 57.878906 18.765625 58.058594 18.765625 L 72.855469 18.765625 L 72.855469 21.445312 L 75.546875 21.445312 L 75.546875 17.425781 C 75.546875 17.054688 75.414062 16.738281 75.152344 16.476562 Z M 48.636719 25.46875 L 2.894531 25.46875 L 2.894531 6.703125 L 48.636719 6.703125 Z M 59.402344 4.578125 L 70.953125 16.085938 L 59.402344 16.085938 Z M 59.402344 4.578125 " fill-opacity="1" fill-rule="nonzero"/></g><path fill="#000000" d="M 10.964844 30.832031 L 13.65625 30.832031 L 13.65625 33.511719 L 10.964844 33.511719 Z M 10.964844 30.832031 " fill-opacity="1" fill-rule="nonzero"/><path fill="#000000" d="M 10.964844 36.191406 L 13.65625 36.191406 L 13.65625 75.066406 L 10.964844 75.066406 Z M 10.964844 36.191406 " fill-opacity="1" fill-rule="nonzero"/><g clip-path="url(#d5a8799967)"><path fill="#000000" d="M 72.855469 83.109375 L 13.65625 83.109375 L 13.65625 77.746094 L 10.964844 77.746094 L 10.964844 84.449219 C 10.964844 84.625 11 84.796875 11.070312 84.960938 C 11.136719 85.125 11.234375 85.269531 11.359375 85.394531 C 11.488281 85.523438 11.632812 85.617188 11.796875 85.6875 C 11.960938 85.753906 12.132812 85.789062 12.3125 85.789062 L 74.203125 85.789062 C 74.378906 85.789062 74.550781 85.753906 74.71875 85.6875 C 74.882812 85.617188 75.027344 85.523438 75.152344 85.394531 C 75.28125 85.269531 75.375 85.125 75.445312 84.960938 C 75.511719 84.796875 75.546875 84.625 75.546875 84.449219 L 75.546875 29.488281 L 72.855469 29.488281 Z M 72.855469 83.109375 " fill-opacity="1" fill-rule="nonzero"/></g><g clip-path="url(#71b5490fe2)"><path fill="#000000" d="M 72.855469 24.128906 L 75.546875 24.128906 L 75.546875 26.808594 L 72.855469 26.808594 Z M 72.855469 24.128906 " fill-opacity="1" fill-rule="nonzero"/></g><path fill="#000000" d="M 23.46875 55.351562 C 23.34375 55.476562 23.246094 55.621094 23.179688 55.785156 C 23.109375 55.949219 23.074219 56.121094 23.074219 56.296875 C 23.074219 56.476562 23.109375 56.648438 23.179688 56.8125 C 23.246094 56.976562 23.34375 57.121094 23.46875 57.246094 C 23.992188 57.753906 24.574219 58.175781 25.21875 58.519531 C 25.425781 58.640625 25.710938 58.804688 25.769531 58.980469 L 25.769531 63 C 25.769531 63.441406 25.8125 63.875 25.902344 64.308594 C 25.988281 64.738281 26.113281 65.160156 26.285156 65.566406 C 26.453125 65.972656 26.660156 66.355469 26.90625 66.722656 C 27.152344 67.089844 27.429688 67.425781 27.742188 67.738281 C 28.054688 68.050781 28.394531 68.328125 28.761719 68.570312 C 29.128906 68.816406 29.515625 69.023438 29.925781 69.191406 C 30.332031 69.359375 30.753906 69.488281 31.183594 69.574219 C 31.617188 69.660156 32.054688 69.703125 32.496094 69.703125 L 33.84375 69.703125 L 33.84375 67.023438 L 32.492188 67.023438 C 32.226562 67.023438 31.964844 66.996094 31.707031 66.945312 C 31.445312 66.894531 31.195312 66.816406 30.949219 66.714844 C 30.703125 66.617188 30.472656 66.492188 30.25 66.34375 C 30.03125 66.199219 29.828125 66.03125 29.640625 65.84375 C 29.453125 65.65625 29.285156 65.453125 29.136719 65.234375 C 28.988281 65.015625 28.867188 64.785156 28.765625 64.539062 C 28.664062 64.296875 28.585938 64.042969 28.535156 63.785156 C 28.484375 63.527344 28.457031 63.265625 28.457031 63 L 28.457031 58.980469 C 28.457031 58.402344 28.304688 57.871094 27.992188 57.386719 C 27.679688 56.902344 27.261719 56.539062 26.734375 56.296875 C 27.261719 56.058594 27.679688 55.695312 27.992188 55.210938 C 28.304688 54.726562 28.457031 54.195312 28.457031 53.617188 L 28.457031 49.597656 C 28.457031 49.332031 28.484375 49.070312 28.535156 48.8125 C 28.585938 48.554688 28.664062 48.300781 28.765625 48.058594 C 28.867188 47.8125 28.988281 47.582031 29.136719 47.363281 C 29.285156 47.144531 29.453125 46.941406 29.640625 46.753906 C 29.828125 46.566406 30.03125 46.398438 30.25 46.253906 C 30.472656 46.105469 30.703125 45.980469 30.949219 45.882812 C 31.195312 45.78125 31.445312 45.703125 31.707031 45.652344 C 31.964844 45.601562 32.226562 45.574219 32.492188 45.574219 L 33.839844 45.574219 L 33.839844 42.894531 L 32.492188 42.894531 C 32.050781 42.894531 31.613281 42.9375 31.179688 43.023438 C 30.75 43.109375 30.328125 43.238281 29.921875 43.40625 C 29.511719 43.574219 29.125 43.78125 28.757812 44.027344 C 28.390625 44.269531 28.050781 44.546875 27.738281 44.859375 C 27.425781 45.171875 27.148438 45.507812 26.902344 45.875 C 26.65625 46.242188 26.449219 46.625 26.28125 47.03125 C 26.109375 47.4375 25.984375 47.859375 25.898438 48.289062 C 25.808594 48.722656 25.765625 49.15625 25.765625 49.597656 L 25.765625 53.71875 C 25.59375 53.855469 25.40625 53.976562 25.210938 54.078125 C 24.570312 54.421875 23.992188 54.847656 23.46875 55.351562 Z M 23.46875 55.351562 " fill-opacity="1" fill-rule="nonzero"/><path fill="#000000" d="M 58.058594 58.980469 L 58.058594 63 C 58.058594 63.265625 58.03125 63.527344 57.980469 63.785156 C 57.925781 64.042969 57.851562 64.296875 57.75 64.539062 C 57.648438 64.785156 57.523438 65.015625 57.375 65.234375 C 57.230469 65.453125 57.0625 65.65625 56.875 65.84375 C 56.6875 66.03125 56.484375 66.199219 56.261719 66.34375 C 56.042969 66.492188 55.808594 66.617188 55.566406 66.714844 C 55.320312 66.816406 55.066406 66.894531 54.808594 66.945312 C 54.546875 66.996094 54.285156 67.023438 54.019531 67.023438 L 52.675781 67.023438 L 52.675781 69.703125 L 54.019531 69.703125 C 54.460938 69.703125 54.898438 69.660156 55.332031 69.574219 C 55.765625 69.488281 56.1875 69.359375 56.59375 69.191406 C 57 69.023438 57.390625 68.816406 57.753906 68.570312 C 58.121094 68.328125 58.460938 68.050781 58.773438 67.738281 C 59.085938 67.425781 59.367188 67.089844 59.609375 66.722656 C 59.855469 66.355469 60.0625 65.972656 60.234375 65.566406 C 60.402344 65.160156 60.53125 64.738281 60.617188 64.308594 C 60.703125 63.875 60.746094 63.441406 60.746094 63 L 60.746094 58.878906 C 60.921875 58.742188 61.105469 58.621094 61.304688 58.519531 C 61.945312 58.175781 62.527344 57.753906 63.050781 57.246094 C 63.179688 57.121094 63.277344 56.976562 63.34375 56.8125 C 63.410156 56.648438 63.445312 56.476562 63.445312 56.296875 C 63.445312 56.121094 63.410156 55.949219 63.34375 55.785156 C 63.277344 55.621094 63.179688 55.476562 63.050781 55.351562 C 62.527344 54.84375 61.945312 54.421875 61.304688 54.078125 C 61.097656 53.957031 60.808594 53.792969 60.75 53.617188 L 60.75 49.597656 C 60.75 49.15625 60.707031 48.722656 60.621094 48.289062 C 60.535156 47.859375 60.40625 47.4375 60.238281 47.03125 C 60.066406 46.625 59.859375 46.242188 59.617188 45.875 C 59.371094 45.507812 59.089844 45.171875 58.777344 44.859375 C 58.464844 44.546875 58.128906 44.269531 57.761719 44.027344 C 57.394531 43.78125 57.003906 43.574219 56.597656 43.40625 C 56.191406 43.238281 55.769531 43.109375 55.335938 43.023438 C 54.902344 42.9375 54.464844 42.894531 54.023438 42.894531 L 52.675781 42.894531 L 52.675781 45.574219 L 54.019531 45.574219 C 54.285156 45.574219 54.546875 45.601562 54.808594 45.652344 C 55.066406 45.703125 55.320312 45.78125 55.566406 45.882812 C 55.808594 45.980469 56.042969 46.105469 56.261719 46.253906 C 56.484375 46.398438 56.6875 46.566406 56.875 46.753906 C 57.0625 46.941406 57.230469 47.144531 57.375 47.363281 C 57.523438 47.582031 57.648438 47.8125 57.75 48.058594 C 57.851562 48.300781 57.925781 48.554688 57.980469 48.8125 C 58.03125 49.070312 58.058594 49.332031 58.058594 49.597656 L 58.058594 53.617188 C 58.054688 54.195312 58.210938 54.726562 58.523438 55.210938 C 58.835938 55.695312 59.253906 56.058594 59.78125 56.296875 C 59.253906 56.539062 58.835938 56.902344 58.523438 57.386719 C 58.210938 57.871094 58.054688 58.402344 58.058594 58.980469 Z M 58.058594 58.980469 " fill-opacity="1" fill-rule="nonzero"/><path fill="#000000" d="M 36.53125 20.105469 C 34.050781 20.105469 33.851562 18.957031 33.839844 18.726562 L 32.492188 18.765625 L 31.148438 18.765625 C 31.148438 20.15625 32.273438 22.789062 36.53125 22.789062 C 36.792969 22.789062 37.058594 22.761719 37.316406 22.710938 C 37.578125 22.660156 37.828125 22.582031 38.074219 22.480469 C 38.320312 22.378906 38.550781 22.257812 38.773438 22.109375 C 38.992188 21.964844 39.195312 21.796875 39.382812 21.609375 C 39.570312 21.421875 39.738281 21.21875 39.886719 21 C 40.03125 20.78125 40.15625 20.550781 40.257812 20.304688 C 40.359375 20.0625 40.4375 19.808594 40.488281 19.550781 C 40.539062 19.292969 40.566406 19.03125 40.566406 18.765625 C 40.566406 18.503906 40.539062 18.242188 40.488281 17.980469 C 40.4375 17.722656 40.359375 17.472656 40.257812 17.226562 C 40.15625 16.984375 40.03125 16.75 39.886719 16.53125 C 39.738281 16.3125 39.570312 16.109375 39.382812 15.921875 C 39.195312 15.734375 38.992188 15.570312 38.773438 15.421875 C 38.550781 15.277344 38.320312 15.152344 38.074219 15.050781 C 37.828125 14.949219 37.578125 14.875 37.316406 14.820312 C 37.058594 14.769531 36.792969 14.746094 36.53125 14.746094 L 35.183594 14.746094 C 35.003906 14.746094 34.835938 14.710938 34.667969 14.644531 C 34.503906 14.574219 34.359375 14.476562 34.234375 14.351562 C 34.105469 14.226562 34.007812 14.082031 33.941406 13.917969 C 33.871094 13.753906 33.839844 13.582031 33.839844 13.40625 C 33.839844 13.226562 33.871094 13.054688 33.941406 12.890625 C 34.007812 12.726562 34.105469 12.582031 34.234375 12.457031 C 34.359375 12.332031 34.503906 12.234375 34.667969 12.167969 C 34.835938 12.097656 35.003906 12.0625 35.183594 12.0625 C 37.660156 12.0625 37.859375 13.210938 37.875 13.40625 L 40.566406 13.40625 C 40.566406 12.011719 39.441406 9.382812 35.183594 9.382812 C 34.917969 9.382812 34.65625 9.410156 34.398438 9.460938 C 34.136719 9.511719 33.882812 9.589844 33.640625 9.6875 C 33.394531 9.789062 33.160156 9.914062 32.941406 10.0625 C 32.722656 10.207031 32.515625 10.375 32.328125 10.5625 C 32.144531 10.746094 31.976562 10.949219 31.828125 11.171875 C 31.679688 11.390625 31.554688 11.621094 31.453125 11.867188 C 31.355469 12.109375 31.277344 12.359375 31.226562 12.621094 C 31.171875 12.878906 31.148438 13.140625 31.148438 13.40625 C 31.148438 13.667969 31.171875 13.929688 31.226562 14.1875 C 31.277344 14.449219 31.355469 14.699219 31.453125 14.945312 C 31.554688 15.1875 31.679688 15.417969 31.828125 15.636719 C 31.976562 15.859375 32.144531 16.0625 32.328125 16.246094 C 32.515625 16.433594 32.722656 16.601562 32.941406 16.75 C 33.160156 16.894531 33.394531 17.019531 33.640625 17.121094 C 33.882812 17.222656 34.136719 17.296875 34.398438 17.347656 C 34.65625 17.398438 34.917969 17.425781 35.183594 17.425781 L 36.53125 17.425781 C 36.707031 17.425781 36.878906 17.460938 37.042969 17.527344 C 37.210938 17.597656 37.355469 17.691406 37.480469 17.820312 C 37.605469 17.945312 37.703125 18.089844 37.773438 18.253906 C 37.839844 18.417969 37.875 18.589844 37.875 18.765625 C 37.875 18.945312 37.839844 19.113281 37.773438 19.277344 C 37.703125 19.445312 37.605469 19.589844 37.480469 19.714844 C 37.355469 19.839844 37.210938 19.9375 37.042969 20.003906 C 36.878906 20.074219 36.707031 20.105469 36.53125 20.105469 Z M 36.53125 20.105469 " fill-opacity="1" fill-rule="nonzero"/><path fill="#000000" d="M 24.421875 20.105469 C 21.945312 20.105469 21.746094 18.957031 21.730469 18.726562 L 20.382812 18.765625 L 19.039062 18.765625 C 19.039062 20.15625 20.164062 22.789062 24.421875 22.789062 C 24.6875 22.789062 24.949219 22.761719 25.207031 22.710938 C 25.46875 22.660156 25.71875 22.582031 25.964844 22.480469 C 26.210938 22.378906 26.441406 22.257812 26.664062 22.109375 C 26.882812 21.964844 27.085938 21.796875 27.273438 21.609375 C 27.460938 21.421875 27.628906 21.21875 27.777344 21 C 27.925781 20.78125 28.046875 20.550781 28.148438 20.304688 C 28.25 20.0625 28.328125 19.808594 28.378906 19.550781 C 28.429688 19.292969 28.457031 19.03125 28.457031 18.765625 C 28.457031 18.503906 28.429688 18.242188 28.378906 17.980469 C 28.328125 17.722656 28.25 17.472656 28.148438 17.226562 C 28.046875 16.984375 27.925781 16.75 27.777344 16.53125 C 27.628906 16.3125 27.460938 16.109375 27.273438 15.921875 C 27.085938 15.734375 26.882812 15.570312 26.664062 15.421875 C 26.441406 15.277344 26.210938 15.152344 25.964844 15.050781 C 25.71875 14.949219 25.46875 14.875 25.207031 14.820312 C 24.949219 14.769531 24.6875 14.746094 24.421875 14.746094 L 23.074219 14.746094 C 22.898438 14.746094 22.726562 14.710938 22.558594 14.644531 C 22.394531 14.574219 22.25 14.476562 22.125 14.351562 C 21.996094 14.226562 21.898438 14.082031 21.832031 13.917969 C 21.765625 13.753906 21.730469 13.582031 21.730469 13.40625 C 21.730469 13.226562 21.765625 13.054688 21.832031 12.890625 C 21.898438 12.726562 21.996094 12.582031 22.125 12.457031 C 22.25 12.332031 22.394531 12.234375 22.558594 12.167969 C 22.726562 12.097656 22.898438 12.0625 23.074219 12.0625 C 25.550781 12.0625 25.75 13.210938 25.765625 13.40625 L 28.457031 13.40625 C 28.457031 12.011719 27.332031 9.382812 23.074219 9.382812 C 22.808594 9.382812 22.546875 9.410156 22.289062 9.460938 C 22.027344 9.511719 21.773438 9.589844 21.53125 9.6875 C 21.285156 9.789062 21.054688 9.914062 20.832031 10.0625 C 20.613281 10.207031 20.410156 10.375 20.222656 10.5625 C 20.035156 10.746094 19.867188 10.949219 19.71875 11.171875 C 19.570312 11.390625 19.449219 11.621094 19.347656 11.867188 C 19.246094 12.109375 19.167969 12.359375 19.117188 12.621094 C 19.066406 12.878906 19.039062 13.140625 19.039062 13.40625 C 19.039062 13.667969 19.066406 13.929688 19.117188 14.1875 C 19.167969 14.449219 19.246094 14.699219 19.347656 14.945312 C 19.449219 15.1875 19.570312 15.417969 19.71875 15.636719 C 19.867188 15.859375 20.035156 16.0625 20.222656 16.246094 C 20.410156 16.433594 20.613281 16.601562 20.832031 16.75 C 21.054688 16.894531 21.285156 17.019531 21.53125 17.121094 C 21.773438 17.222656 22.027344 17.296875 22.289062 17.347656 C 22.546875 17.398438 22.808594 17.425781 23.074219 17.425781 L 24.421875 17.425781 C 24.597656 17.425781 24.769531 17.460938 24.933594 17.527344 C 25.101562 17.597656 25.246094 17.691406 25.371094 17.820312 C 25.5 17.945312 25.59375 18.089844 25.664062 18.253906 C 25.730469 18.417969 25.765625 18.589844 25.765625 18.765625 C 25.765625 18.945312 25.730469 19.113281 25.664062 19.277344 C 25.59375 19.445312 25.5 19.589844 25.371094 19.714844 C 25.246094 19.839844 25.101562 19.9375 24.933594 20.003906 C 24.769531 20.074219 24.597656 20.105469 24.421875 20.105469 Z M 24.421875 20.105469 " fill-opacity="1" fill-rule="nonzero"/><path fill="#000000" d="M 15.003906 22.789062 L 16.347656 22.789062 L 16.347656 20.105469 L 15.003906 20.105469 C 14.738281 20.105469 14.476562 20.082031 14.214844 20.03125 C 13.953125 19.976562 13.703125 19.902344 13.457031 19.800781 C 13.214844 19.699219 12.980469 19.574219 12.761719 19.429688 C 12.539062 19.28125 12.335938 19.117188 12.148438 18.929688 C 11.960938 18.742188 11.792969 18.539062 11.644531 18.320312 C 11.5 18.101562 11.375 17.867188 11.273438 17.625 C 11.171875 17.378906 11.09375 17.128906 11.042969 16.871094 C 10.992188 16.609375 10.964844 16.347656 10.964844 16.085938 C 10.964844 15.820312 10.992188 15.558594 11.042969 15.300781 C 11.09375 15.042969 11.171875 14.789062 11.273438 14.546875 C 11.375 14.300781 11.5 14.070312 11.644531 13.851562 C 11.792969 13.632812 11.960938 13.429688 12.148438 13.242188 C 12.335938 13.054688 12.539062 12.886719 12.761719 12.742188 C 12.980469 12.59375 13.214844 12.472656 13.457031 12.371094 C 13.703125 12.269531 13.953125 12.191406 14.214844 12.140625 C 14.476562 12.089844 14.738281 12.0625 15.003906 12.0625 L 16.347656 12.0625 L 16.347656 9.382812 L 15.003906 9.382812 C 14.5625 9.382812 14.125 9.425781 13.691406 9.511719 C 13.257812 9.597656 12.835938 9.726562 12.429688 9.894531 C 12.019531 10.0625 11.632812 10.269531 11.265625 10.511719 C 10.898438 10.757812 10.558594 11.035156 10.246094 11.347656 C 9.933594 11.65625 9.65625 11.996094 9.410156 12.363281 C 9.164062 12.726562 8.957031 13.113281 8.789062 13.519531 C 8.617188 13.925781 8.492188 14.347656 8.40625 14.777344 C 8.316406 15.210938 8.273438 15.644531 8.273438 16.085938 C 8.273438 16.527344 8.316406 16.960938 8.40625 17.394531 C 8.492188 17.824219 8.617188 18.242188 8.789062 18.648438 C 8.957031 19.058594 9.164062 19.441406 9.410156 19.808594 C 9.65625 20.175781 9.933594 20.511719 10.246094 20.824219 C 10.558594 21.136719 10.898438 21.414062 11.265625 21.65625 C 11.632812 21.902344 12.019531 22.109375 12.429688 22.277344 C 12.835938 22.445312 13.257812 22.574219 13.691406 22.660156 C 14.125 22.746094 14.5625 22.789062 15.003906 22.789062 Z M 15.003906 22.789062 " fill-opacity="1" fill-rule="nonzero"/></svg>