<svg xmlns="http://www.w3.org/2000/svg" xmlns:xlink="http://www.w3.org/1999/xlink" width="101" zoomAndPan="magnify" viewBox="0 0 75.75 86.249997" height="115" preserveAspectRatio="xMidYMid meet" version="1.0"><defs><clipPath id="23c73c9272"><path d="M 0.203125 0 L 75.300781 0 L 75.300781 29 L 0.203125 29 Z M 0.203125 0 " clip-rule="nonzero"/></clipPath><clipPath id="32b6041576"><path d="M 10 29 L 75.300781 29 L 75.300781 85.507812 L 10 85.507812 Z M 10 29 " clip-rule="nonzero"/></clipPath><clipPath id="2f7e4dc20d"><path d="M 72 24 L 75.300781 24 L 75.300781 27 L 72 27 Z M 72 24 " clip-rule="nonzero"/></clipPath></defs><path fill="#ffaf36" d="M 58.058594 1.339844 L 74.203125 17.425781 L 58.058594 17.425781 Z M 58.058594 1.339844 " fill-opacity="1" fill-rule="nonzero"/><path fill="#ff6d00" d="M 74.203125 17.425781 L 74.203125 84.449219 L 12.3125 84.449219 L 12.3125 1.339844 L 58.058594 1.339844 L 58.058594 17.425781 Z M 74.203125 17.425781 " fill-opacity="1" fill-rule="nonzero"/><path fill="#f54e00" d="M 15.003906 12.0625 L 15.003906 76.40625 C 15.003906 76.757812 15.035156 77.105469 15.105469 77.453125 C 15.175781 77.796875 15.277344 78.132812 15.414062 78.457031 C 15.546875 78.78125 15.714844 79.089844 15.910156 79.382812 C 16.105469 79.675781 16.328125 79.949219 16.578125 80.195312 C 16.828125 80.445312 17.101562 80.667969 17.394531 80.863281 C 17.6875 81.058594 18 81.222656 18.324219 81.359375 C 18.652344 81.492188 18.988281 81.59375 19.335938 81.664062 C 19.679688 81.734375 20.03125 81.765625 20.382812 81.765625 L 66.128906 81.765625 C 66.484375 81.765625 66.832031 81.734375 67.179688 81.664062 C 67.527344 81.59375 67.863281 81.492188 68.1875 81.359375 C 68.515625 81.222656 68.824219 81.058594 69.121094 80.863281 C 69.414062 80.667969 69.683594 80.445312 69.933594 80.195312 C 70.183594 79.949219 70.40625 79.675781 70.605469 79.382812 C 70.800781 79.089844 70.964844 78.78125 71.101562 78.457031 C 71.238281 78.132812 71.339844 77.796875 71.40625 77.453125 C 71.476562 77.105469 71.511719 76.757812 71.511719 76.40625 L 71.511719 73.558594 C 15.003906 70.089844 15.003906 12.0625 15.003906 12.0625 Z M 15.003906 12.0625 " fill-opacity="1" fill-rule="nonzero"/><path fill="#f54e00" d="M 59.402344 17.425781 L 74.203125 17.425781 L 74.203125 20.105469 L 59.402344 20.105469 Z M 59.402344 17.425781 " fill-opacity="1" fill-rule="nonzero"/><path fill="#f2f2f2" d="M 1.546875 5.363281 L 49.984375 5.363281 L 49.984375 26.808594 L 1.546875 26.808594 Z M 1.546875 5.363281 " fill-opacity="1" fill-rule="nonzero"/><path fill="#d63900" d="M 12.3125 26.808594 L 47.292969 26.808594 L 47.292969 30.832031 L 12.3125 30.832031 Z M 12.3125 26.808594 " fill-opacity="1" fill-rule="nonzero"/><path fill="#ffffff" d="M 28.457031 67.023438 L 17.691406 54.957031 L 28.457031 42.894531 L 33.839844 42.894531 L 23.074219 54.957031 L 33.839844 67.023438 Z M 28.457031 67.023438 " fill-opacity="1" fill-rule="nonzero"/><path fill="#ffffff" d="M 58.058594 67.023438 L 68.820312 54.957031 L 58.058594 42.894531 L 52.675781 42.894531 L 63.4375 54.957031 L 52.675781 67.023438 Z M 58.058594 67.023438 " fill-opacity="1" fill-rule="nonzero"/><path fill="#ffffff" d="M 37.875 67.023438 L 44.601562 42.894531 L 48.636719 42.894531 L 41.910156 67.023438 Z M 37.875 67.023438 " fill-opacity="1" fill-rule="nonzero"/><path fill="#d63900" d="M 17.691406 54.957031 L 26.066406 45.574219 L 25.765625 45.574219 L 15.003906 57.640625 L 25.765625 69.703125 L 31.148438 69.703125 L 28.753906 67.023438 L 28.457031 67.023438 Z M 17.691406 54.957031 " fill-opacity="1" fill-rule="nonzero"/><path fill="#d63900" d="M 63.4375 54.957031 L 55.066406 45.574219 L 49.984375 45.574219 L 60.746094 57.640625 L 49.984375 69.703125 L 55.367188 69.703125 L 57.757812 67.023438 L 52.675781 67.023438 Z M 63.4375 54.957031 " fill-opacity="1" fill-rule="nonzero"/><path fill="#d63900" d="M 43.855469 45.574219 L 41.910156 45.574219 L 35.183594 69.703125 L 39.21875 69.703125 L 39.96875 67.023438 L 37.875 67.023438 Z M 43.855469 45.574219 " fill-opacity="1" fill-rule="nonzero"/><path fill="#cdd1d6" d="M 39.21875 21.445312 L 39.21875 10.722656 L 37.875 10.722656 L 37.875 22.789062 C 37.875 22.964844 37.910156 23.136719 37.976562 23.300781 C 38.046875 23.464844 38.144531 23.609375 38.269531 23.734375 C 38.394531 23.859375 38.539062 23.957031 38.707031 24.027344 C 38.871094 24.09375 39.042969 24.128906 39.21875 24.128906 L 44.601562 24.128906 L 44.601562 22.789062 L 40.566406 22.789062 C 40.386719 22.789062 40.214844 22.753906 40.050781 22.6875 C 39.886719 22.617188 39.742188 22.519531 39.613281 22.394531 C 39.488281 22.269531 39.390625 22.125 39.324219 21.960938 C 39.253906 21.796875 39.21875 21.625 39.21875 21.445312 Z M 39.21875 21.445312 " fill-opacity="1" fill-rule="nonzero"/><path fill="#cdd1d6" d="M 10.964844 10.722656 L 12.3125 10.722656 L 12.3125 14.746094 L 10.964844 14.746094 Z M 10.964844 10.722656 " fill-opacity="1" fill-rule="nonzero"/><path fill="#cdd1d6" d="M 5.585938 10.722656 L 4.238281 10.722656 L 4.238281 24.128906 L 6.929688 24.128906 L 6.929688 22.789062 L 5.585938 22.789062 Z M 5.585938 10.722656 " fill-opacity="1" fill-rule="nonzero"/><path fill="#cdd1d6" d="M 12.3125 17.425781 L 8.273438 17.425781 L 8.273438 18.765625 L 10.964844 18.765625 L 10.964844 24.128906 L 13.65625 24.128906 L 13.65625 22.789062 L 12.3125 22.789062 Z M 12.3125 17.425781 " fill-opacity="1" fill-rule="nonzero"/><path fill="#cdd1d6" d="M 21.730469 12.0625 L 23.074219 12.0625 L 23.074219 13.40625 L 21.730469 13.40625 Z M 21.730469 12.0625 " fill-opacity="1" fill-rule="nonzero"/><path fill="#cdd1d6" d="M 19.039062 12.0625 L 16.347656 12.0625 L 16.347656 10.722656 L 15.003906 10.722656 L 15.003906 13.40625 L 17.691406 13.40625 L 17.691406 24.128906 L 20.382812 24.128906 L 20.382812 22.789062 L 19.039062 22.789062 Z M 19.039062 12.0625 " fill-opacity="1" fill-rule="nonzero"/><path fill="#cdd1d6" d="M 25.765625 10.742188 C 25.675781 10.734375 25.585938 10.738281 25.496094 10.75 C 25.183594 10.816406 24.925781 10.96875 24.722656 11.21875 C 24.523438 11.464844 24.421875 11.746094 24.421875 12.0625 L 24.421875 24.128906 L 27.113281 24.128906 L 27.113281 22.789062 L 25.765625 22.789062 Z M 25.765625 10.742188 " fill-opacity="1" fill-rule="nonzero"/><path fill="#cdd1d6" d="M 33.714844 10.738281 C 33.46875 10.757812 33.246094 10.84375 33.046875 10.988281 C 32.847656 11.132812 32.699219 11.316406 32.601562 11.542969 L 30.761719 15.816406 L 31.148438 16.710938 Z M 33.714844 10.738281 " fill-opacity="1" fill-rule="nonzero"/><path fill="#cdd1d6" d="M 29.910156 20.636719 L 28.457031 17.253906 L 28.457031 21.714844 L 28.566406 21.96875 C 28.671875 22.214844 28.835938 22.410156 29.0625 22.558594 C 29.285156 22.707031 29.535156 22.78125 29.800781 22.78125 C 30.070312 22.78125 30.316406 22.707031 30.542969 22.558594 C 30.765625 22.410156 30.933594 22.214844 31.039062 21.96875 L 31.273438 21.421875 C 31.230469 21.421875 31.191406 21.441406 31.148438 21.441406 C 30.878906 21.441406 30.632812 21.367188 30.410156 21.222656 C 30.183594 21.074219 30.019531 20.878906 29.910156 20.636719 Z M 29.910156 20.636719 " fill-opacity="1" fill-rule="nonzero"/><path fill="#cdd1d6" d="M 33.839844 17.253906 L 32.492188 20.382812 L 32.492188 24.128906 L 35.183594 24.128906 L 35.183594 22.789062 L 33.839844 22.789062 Z M 33.839844 17.253906 " fill-opacity="1" fill-rule="nonzero"/><g clip-path="url(#23c73c9272)"><path fill="#000000" d="M 75.152344 16.476562 L 59.007812 0.394531 C 58.746094 0.132812 58.429688 0 58.058594 0 L 12.3125 0 C 12.132812 0 11.960938 0.0351562 11.796875 0.101562 C 11.632812 0.171875 11.488281 0.265625 11.359375 0.394531 C 11.234375 0.519531 11.136719 0.664062 11.070312 0.828125 C 11 0.992188 10.964844 1.164062 10.964844 1.339844 L 10.964844 4.019531 L 1.546875 4.019531 C 1.371094 4.019531 1.199219 4.054688 1.03125 4.125 C 0.867188 4.191406 0.722656 4.289062 0.597656 4.414062 C 0.46875 4.539062 0.375 4.683594 0.304688 4.847656 C 0.238281 5.011719 0.203125 5.183594 0.203125 5.363281 L 0.203125 26.808594 C 0.203125 26.988281 0.238281 27.15625 0.304688 27.320312 C 0.375 27.484375 0.46875 27.632812 0.597656 27.757812 C 0.722656 27.882812 0.867188 27.980469 1.03125 28.046875 C 1.199219 28.117188 1.371094 28.148438 1.546875 28.148438 L 49.984375 28.148438 C 50.164062 28.148438 50.335938 28.117188 50.5 28.046875 C 50.664062 27.980469 50.808594 27.882812 50.933594 27.757812 C 51.0625 27.632812 51.160156 27.484375 51.226562 27.320312 C 51.296875 27.15625 51.328125 26.988281 51.328125 26.808594 L 51.328125 5.363281 C 51.328125 5.183594 51.296875 5.011719 51.226562 4.847656 C 51.160156 4.683594 51.0625 4.539062 50.933594 4.414062 C 50.808594 4.289062 50.664062 4.191406 50.5 4.125 C 50.335938 4.054688 50.164062 4.019531 49.984375 4.019531 L 13.65625 4.019531 L 13.65625 2.679688 L 56.710938 2.679688 L 56.710938 17.425781 C 56.710938 17.605469 56.746094 17.773438 56.8125 17.9375 C 56.882812 18.101562 56.980469 18.246094 57.105469 18.375 C 57.230469 18.5 57.375 18.597656 57.542969 18.664062 C 57.707031 18.730469 57.878906 18.765625 58.058594 18.765625 L 72.855469 18.765625 L 72.855469 21.445312 L 75.546875 21.445312 L 75.546875 17.425781 C 75.546875 17.054688 75.414062 16.738281 75.152344 16.476562 Z M 48.636719 25.46875 L 2.894531 25.46875 L 2.894531 6.703125 L 48.636719 6.703125 Z M 59.402344 4.578125 L 70.953125 16.085938 L 59.402344 16.085938 Z M 59.402344 4.578125 " fill-opacity="1" fill-rule="nonzero"/></g><path fill="#000000" d="M 10.964844 30.832031 L 13.65625 30.832031 L 13.65625 33.511719 L 10.964844 33.511719 Z M 10.964844 30.832031 " fill-opacity="1" fill-rule="nonzero"/><path fill="#000000" d="M 10.964844 36.191406 L 13.65625 36.191406 L 13.65625 75.066406 L 10.964844 75.066406 Z M 10.964844 36.191406 " fill-opacity="1" fill-rule="nonzero"/><g clip-path="url(#32b6041576)"><path fill="#000000" d="M 72.855469 83.109375 L 13.65625 83.109375 L 13.65625 77.746094 L 10.964844 77.746094 L 10.964844 84.449219 C 10.964844 84.625 11 84.796875 11.070312 84.960938 C 11.136719 85.125 11.234375 85.269531 11.359375 85.394531 C 11.488281 85.523438 11.632812 85.617188 11.796875 85.6875 C 11.960938 85.753906 12.132812 85.789062 12.3125 85.789062 L 74.203125 85.789062 C 74.378906 85.789062 74.550781 85.753906 74.71875 85.6875 C 74.882812 85.617188 75.027344 85.523438 75.152344 85.394531 C 75.28125 85.269531 75.375 85.125 75.445312 84.960938 C 75.511719 84.796875 75.546875 84.625 75.546875 84.449219 L 75.546875 29.488281 L 72.855469 29.488281 Z M 72.855469 83.109375 " fill-opacity="1" fill-rule="nonzero"/></g><g clip-path="url(#2f7e4dc20d)"><path fill="#000000" d="M 72.855469 24.128906 L 75.546875 24.128906 L 75.546875 26.808594 L 72.855469 26.808594 Z M 72.855469 24.128906 " fill-opacity="1" fill-rule="nonzero"/></g><path fill="#000000" d="M 40.566406 22.789062 L 45.949219 22.789062 L 45.949219 20.105469 L 41.910156 20.105469 L 41.910156 9.382812 L 39.21875 9.382812 L 39.21875 21.445312 C 39.21875 21.625 39.253906 21.796875 39.324219 21.960938 C 39.390625 22.125 39.488281 22.269531 39.613281 22.394531 C 39.742188 22.519531 39.886719 22.617188 40.050781 22.6875 C 40.214844 22.753906 40.386719 22.789062 40.566406 22.789062 Z M 40.566406 22.789062 " fill-opacity="1" fill-rule="nonzero"/><path fill="#000000" d="M 8.273438 17.425781 L 12.3125 17.425781 L 12.3125 22.789062 L 15.003906 22.789062 L 15.003906 9.382812 L 12.3125 9.382812 L 12.3125 14.746094 L 8.273438 14.746094 L 8.273438 9.382812 L 5.585938 9.382812 L 5.585938 22.789062 L 8.273438 22.789062 Z M 8.273438 17.425781 " fill-opacity="1" fill-rule="nonzero"/><path fill="#000000" d="M 19.039062 22.789062 L 21.730469 22.789062 L 21.730469 12.0625 L 24.421875 12.0625 L 24.421875 9.382812 L 16.347656 9.382812 L 16.347656 12.0625 L 19.039062 12.0625 Z M 19.039062 22.789062 " fill-opacity="1" fill-rule="nonzero"/><path fill="#000000" d="M 28.457031 17.253906 L 29.910156 20.636719 C 30.015625 20.882812 30.183594 21.078125 30.40625 21.226562 C 30.632812 21.375 30.878906 21.445312 31.148438 21.445312 C 31.417969 21.445312 31.664062 21.375 31.886719 21.226562 C 32.113281 21.078125 32.277344 20.882812 32.382812 20.636719 L 33.839844 17.253906 L 33.839844 22.789062 L 36.53125 22.789062 L 36.53125 10.722656 C 36.53125 10.40625 36.429688 10.125 36.226562 9.875 C 36.023438 9.628906 35.765625 9.476562 35.453125 9.410156 C 35.140625 9.347656 34.84375 9.386719 34.5625 9.535156 C 34.277344 9.683594 34.074219 9.902344 33.949219 10.195312 L 31.148438 16.703125 L 28.347656 10.195312 C 28.222656 9.902344 28.015625 9.683594 27.734375 9.535156 C 27.453125 9.386719 27.152344 9.347656 26.839844 9.410156 C 26.527344 9.476562 26.269531 9.628906 26.070312 9.875 C 25.867188 10.125 25.765625 10.40625 25.765625 10.722656 L 25.765625 22.789062 L 28.457031 22.789062 Z M 28.457031 17.253906 " fill-opacity="1" fill-rule="nonzero"/><path fill="#000000" d="M 35.066406 42.34375 C 34.957031 42.105469 34.792969 41.914062 34.570312 41.769531 C 34.347656 41.625 34.101562 41.554688 33.839844 41.554688 L 28.457031 41.554688 C 28.054688 41.554688 27.71875 41.703125 27.453125 42.003906 L 16.6875 54.066406 C 16.460938 54.320312 16.347656 54.617188 16.347656 54.957031 C 16.347656 55.296875 16.460938 55.59375 16.6875 55.847656 L 27.453125 67.910156 C 27.71875 68.210938 28.054688 68.363281 28.457031 68.363281 L 33.839844 68.363281 C 34.101562 68.363281 34.347656 68.289062 34.570312 68.148438 C 34.792969 68.003906 34.957031 67.8125 35.066406 67.570312 C 35.171875 67.332031 35.207031 67.078125 35.167969 66.820312 C 35.128906 66.558594 35.019531 66.328125 34.84375 66.132812 L 24.875 54.957031 L 34.84375 43.785156 C 35.019531 43.589844 35.128906 43.359375 35.167969 43.097656 C 35.207031 42.835938 35.175781 42.585938 35.066406 42.34375 Z M 22.070312 54.066406 C 21.84375 54.320312 21.730469 54.617188 21.730469 54.957031 C 21.730469 55.296875 21.84375 55.59375 22.070312 55.847656 L 30.84375 65.683594 L 29.0625 65.683594 L 19.492188 54.957031 L 29.0625 44.234375 L 30.84375 44.234375 Z M 22.070312 54.066406 " fill-opacity="1" fill-rule="nonzero"/><path fill="#000000" d="M 51.449219 67.570312 C 51.554688 67.8125 51.722656 68.003906 51.945312 68.148438 C 52.167969 68.289062 52.410156 68.363281 52.675781 68.363281 L 58.058594 68.363281 C 58.460938 68.363281 58.792969 68.210938 59.0625 67.914062 L 69.824219 55.847656 C 70.050781 55.59375 70.164062 55.296875 70.164062 54.957031 C 70.164062 54.617188 70.050781 54.320312 69.824219 54.066406 L 59.0625 42.003906 C 58.792969 41.703125 58.460938 41.554688 58.058594 41.554688 L 52.675781 41.554688 C 52.410156 41.554688 52.167969 41.625 51.945312 41.769531 C 51.722656 41.914062 51.554688 42.105469 51.445312 42.34375 C 51.339844 42.585938 51.304688 42.835938 51.34375 43.097656 C 51.386719 43.359375 51.492188 43.589844 51.667969 43.785156 L 61.636719 54.957031 L 51.667969 66.132812 C 51.492188 66.328125 51.386719 66.558594 51.347656 66.820312 C 51.304688 67.078125 51.339844 67.328125 51.449219 67.570312 Z M 64.445312 55.847656 C 64.667969 55.59375 64.78125 55.296875 64.78125 54.957031 C 64.78125 54.617188 64.667969 54.320312 64.445312 54.066406 L 55.671875 44.234375 L 57.453125 44.234375 L 67.019531 54.957031 L 57.453125 65.683594 L 55.671875 65.683594 Z M 64.445312 55.847656 " fill-opacity="1" fill-rule="nonzero"/><path fill="#000000" d="M 41.910156 68.363281 C 42.214844 68.363281 42.484375 68.273438 42.726562 68.089844 C 42.964844 67.90625 43.128906 67.671875 43.207031 67.382812 L 49.9375 43.253906 C 49.992188 43.050781 50 42.847656 49.960938 42.640625 C 49.921875 42.4375 49.835938 42.25 49.710938 42.082031 C 49.582031 41.917969 49.425781 41.785156 49.238281 41.691406 C 49.046875 41.601562 48.847656 41.554688 48.636719 41.554688 L 44.601562 41.554688 C 44.300781 41.554688 44.027344 41.644531 43.789062 41.828125 C 43.546875 42.007812 43.386719 42.246094 43.304688 42.535156 L 36.578125 66.664062 C 36.523438 66.863281 36.511719 67.070312 36.554688 67.273438 C 36.59375 67.480469 36.675781 67.667969 36.804688 67.832031 C 36.929688 68 37.089844 68.128906 37.277344 68.222656 C 37.464844 68.316406 37.664062 68.363281 37.875 68.363281 Z M 45.625 44.234375 L 46.871094 44.234375 L 40.890625 65.683594 L 39.644531 65.683594 Z M 45.625 44.234375 " fill-opacity="1" fill-rule="nonzero"/></svg>