<svg xmlns="http://www.w3.org/2000/svg" xmlns:xlink="http://www.w3.org/1999/xlink" width="600" zoomAndPan="magnify" viewBox="0 0 450 220.499993" height="294" preserveAspectRatio="xMidYMid meet" version="1.0"><defs><g/><clipPath id="ce0bda1375"><path d="M 11.472656 12.972656 L 438.527344 12.972656 L 438.527344 209.703125 L 11.472656 209.703125 Z M 11.472656 12.972656 " clip-rule="nonzero"/></clipPath><clipPath id="9a5eed541b"><path d="M 11.476562 12.972656 L 438.75 12.972656 L 438.75 209.777344 L 11.476562 209.777344 Z M 11.476562 12.972656 " clip-rule="nonzero"/></clipPath><clipPath id="6f340d1cf1"><path d="M 323.347656 56.5 L 350.289062 56.5 L 350.289062 83.441406 L 323.347656 83.441406 Z M 323.347656 56.5 " clip-rule="nonzero"/></clipPath></defs><g clip-path="url(#ce0bda1375)"><path fill="#ffffff" d="M 11.472656 12.972656 L 438.527344 12.972656 L 438.527344 209.703125 L 11.472656 209.703125 Z M 11.472656 12.972656 " fill-opacity="1" fill-rule="nonzero"/></g><g clip-path="url(#9a5eed541b)"><path stroke-linecap="butt" transform="matrix(0.748713, 0, 0, 0.748614, 11.477041, 12.974447)" fill="none" stroke-linejoin="miter" d="M -0.000639004 -0.00239202 L 570.676712 -0.00239202 L 570.676712 262.889531 L -0.000639004 262.889531 L -0.000639004 -0.00239202 " stroke="#000000" stroke-width="64" stroke-opacity="1" stroke-miterlimit="4"/></g><g fill="#000000" fill-opacity="1"><g transform="translate(57.638999, 160.973585)"><g><path d="M 30.144531 -46.59375 L 30.144531 -104.332031 L 7.570312 -104.332031 L 7.570312 0 L 30.144531 0 L 30.144531 -20.785156 L 37.234375 -27.117188 L 59.117188 0 L 85.613281 0 L 52.511719 -41.019531 L 85.613281 -70.886719 L 57.054688 -70.886719 Z M 30.144531 -46.59375 "/></g></g></g><g fill="#000000" fill-opacity="1"><g transform="translate(144.608556, 160.973585)"><g><path d="M 30.144531 -36.75 C 30.144531 -48.449219 33.652344 -55.609375 44.597656 -55.609375 C 55.539062 -55.609375 59.050781 -48.449219 59.050781 -36.75 L 59.050781 0 L 81.621094 0 L 81.621094 -36.75 C 81.621094 -59.253906 72.539062 -72.949219 49.070312 -72.949219 C 40.398438 -72.949219 34.273438 -69.648438 30.144531 -63.386719 L 30.144531 -104.332031 L 7.570312 -104.332031 L 7.570312 0 L 30.144531 0 Z M 30.144531 -36.75 "/></g></g></g><g fill="#000000" fill-opacity="1"><g transform="translate(233.779876, 160.973585)"><g><path d="M 4.816406 -21.953125 C 4.816406 -5.230469 17.757812 1.652344 32.003906 1.652344 C 41.085938 1.652344 49.550781 -0.6875 53.335938 -9.289062 L 53.335938 0 L 75.980469 0 L 75.980469 -43.703125 C 75.980469 -62.972656 68.753906 -72.949219 42.1875 -72.949219 C 33.171875 -72.949219 20.441406 -71.300781 10.734375 -66.273438 L 18.238281 -51.824219 C 26.222656 -55.195312 33.308594 -56.296875 40.8125 -56.296875 C 51.890625 -56.296875 53.40625 -52.441406 53.40625 -46.109375 C 29.664062 -48.242188 4.816406 -43.839844 4.816406 -21.953125 Z M 27.390625 -24.019531 C 27.390625 -33.996094 45.078125 -34.273438 53.335938 -33.585938 L 53.335938 -27.460938 C 53.335938 -21.335938 47.695312 -15.691406 37.507812 -15.691406 C 30.351562 -15.691406 27.390625 -19.203125 27.390625 -24.019531 Z M 27.390625 -24.019531 "/></g></g></g><g fill="#000000" fill-opacity="1"><g transform="translate(317.309183, 160.973585)"><g><path d="M 8.121094 0 L 30.695312 0 L 30.695312 -70.886719 L 8.121094 -70.886719 Z M 7.570312 -91.808594 C 7.570312 -85.269531 12.871094 -79.972656 19.40625 -79.972656 C 25.945312 -79.972656 31.246094 -85.269531 31.246094 -91.808594 C 31.246094 -98.347656 25.945312 -103.644531 19.40625 -103.644531 C 12.871094 -103.644531 7.570312 -98.347656 7.570312 -91.808594 Z M 7.570312 -91.808594 "/></g></g></g><g fill="#000000" fill-opacity="1"><g transform="translate(356.11522, 160.973585)"><g><path d="M 7.570312 -26.839844 C 7.570312 -17.6875 7.570312 0 31.039062 0 L 38.332031 0 L 38.332031 -17.34375 L 35.648438 -17.34375 C 30.144531 -17.34375 30.144531 -23.054688 30.144531 -28.90625 L 30.144531 -104.332031 L 7.570312 -104.332031 Z M 7.570312 -26.839844 "/></g></g></g><path stroke-linecap="butt" transform="matrix(-0.00000000000000095, -0.747601, 0.748303, -0.000000000000000951, 65.137482, 161.386664)" fill="none" stroke-linejoin="miter" d="M -0.0000729791 15.497587 L 183.184844 15.497587 " stroke="#000000" stroke-width="31" stroke-opacity="1" stroke-miterlimit="4"/><path stroke-linecap="butt" transform="matrix(-0.748069, 0.000000000000005075, -0.000000000000005076, -0.748303, 125.723756, 37.415156)" fill="none" stroke-linejoin="miter" d="M 0.00147064 25.00073 L 50.020857 25.00073 " stroke="#ffffff" stroke-width="50" stroke-opacity="1" stroke-miterlimit="4"/><g clip-path="url(#6f340d1cf1)"><path fill="#ff0000" d="M 336.816406 56.5 C 344.257812 56.5 350.289062 62.53125 350.289062 69.972656 C 350.289062 77.410156 344.257812 83.441406 336.816406 83.441406 C 329.378906 83.441406 323.347656 77.410156 323.347656 69.972656 C 323.347656 62.53125 329.378906 56.5 336.816406 56.5 Z M 336.816406 56.5 " fill-opacity="1" fill-rule="evenodd"/></g></svg>