<svg xmlns="http://www.w3.org/2000/svg" xmlns:xlink="http://www.w3.org/1999/xlink" width="395" zoomAndPan="magnify" viewBox="0 0 296.25 79.499998" height="106" preserveAspectRatio="xMidYMid meet" version="1.0"><defs><g/><clipPath id="a7f96982c6"><path d="M 3 5 L 96.699219 5 L 96.699219 79 L 3 79 Z M 3 5 " clip-rule="nonzero"/></clipPath><clipPath id="bcebdf5b6a"><path d="M 75 57 L 96.699219 57 L 96.699219 79.003906 L 75 79.003906 Z M 75 57 " clip-rule="nonzero"/></clipPath><clipPath id="4b3abb936b"><path d="M 14 2.324219 L 24 2.324219 L 24 12 L 14 12 Z M 14 2.324219 " clip-rule="nonzero"/></clipPath><clipPath id="131c25bbed"><path d="M 0.554688 8 L 8 8 L 8 16 L 0.554688 16 Z M 0.554688 8 " clip-rule="nonzero"/></clipPath></defs><g clip-path="url(#a7f96982c6)"><path fill="#ffbb00" d="M 61.445312 59.417969 L 55.222656 59.417969 C 54.898438 59.417969 54.578125 59.449219 54.257812 59.503906 L 53.351562 59.667969 L 42.582031 48.867188 L 42.746094 47.960938 C 42.800781 47.640625 42.832031 47.316406 42.832031 46.996094 L 42.832031 38.792969 C 42.832031 35.773438 40.367188 33.304688 37.359375 33.304688 L 29.175781 33.304688 C 26.164062 33.304688 23.703125 35.773438 23.703125 38.792969 L 23.703125 46.996094 C 23.703125 47.289062 23.726562 47.578125 23.769531 47.863281 L 23.933594 48.914062 L 15.332031 55.332031 L 14.617188 55.230469 C 14.492188 55.214844 14.367188 55.207031 14.242188 55.207031 L 6.546875 55.207031 C 4.988281 55.207031 3.703125 56.492188 3.703125 58.054688 L 3.703125 65.769531 C 3.703125 67.335938 4.988281 68.617188 6.546875 68.617188 L 14.242188 68.617188 C 15.800781 68.617188 17.082031 67.335938 17.082031 65.769531 L 17.082031 57.691406 L 25.632812 51.316406 L 26.617188 51.84375 C 27.40625 52.265625 28.28125 52.480469 29.175781 52.480469 L 37.359375 52.480469 C 37.679688 52.480469 38 52.453125 38.320312 52.394531 L 39.226562 52.234375 L 49.996094 63.035156 L 49.835938 63.941406 C 49.777344 64.261719 49.75 64.582031 49.75 64.90625 L 49.75 73.113281 C 49.75 76.132812 52.210938 78.601562 55.222656 78.601562 L 63.40625 78.601562 C 66.414062 78.601562 68.878906 76.132812 68.878906 73.113281 L 68.878906 64.90625 C 68.878906 63.457031 68.296875 62.066406 67.28125 61.039062 L 66.386719 60.140625 L 82.292969 28.238281 L 91.285156 28.238281 C 94.253906 28.238281 96.695312 25.792969 96.695312 22.816406 L 96.695312 10.785156 C 96.695312 7.808594 94.257812 5.363281 91.285156 5.363281 L 79.289062 5.363281 C 76.316406 5.363281 73.878906 7.808594 73.878906 10.785156 L 73.878906 22.816406 C 73.878906 24.496094 74.664062 26.066406 75.980469 27.09375 L 77.117188 27.984375 L 61.441406 59.417969 Z M 61.445312 59.417969 " fill-opacity="1" fill-rule="evenodd"/></g><path fill="#ffffff" d="M 60.539062 10.222656 C 58.914062 10.222656 57.582031 11.558594 57.582031 13.1875 L 57.582031 18.148438 C 57.582031 19.78125 58.914062 21.117188 60.539062 21.117188 L 65.488281 21.117188 C 67.117188 21.117188 68.445312 19.78125 68.445312 18.148438 L 68.445312 13.1875 C 68.445312 11.554688 67.113281 10.222656 65.488281 10.222656 Z M 60.539062 10.222656 " fill-opacity="1" fill-rule="evenodd"/><path fill="#ff9100" d="M 37.804688 5.363281 C 34.824219 5.363281 32.386719 7.808594 32.386719 10.796875 L 32.386719 19.886719 C 32.386719 22.875 34.824219 25.316406 37.804688 25.316406 L 46.867188 25.316406 C 49.847656 25.316406 52.285156 22.871094 52.285156 19.886719 L 52.285156 10.796875 C 52.285156 7.808594 49.847656 5.363281 46.867188 5.363281 Z M 37.804688 5.363281 " fill-opacity="1" fill-rule="evenodd"/><path fill="#ff9100" d="M 28.34375 63.910156 C 26.148438 63.910156 24.355469 65.710938 24.355469 67.910156 L 24.355469 74.601562 C 24.355469 76.800781 26.148438 78.601562 28.34375 78.601562 L 35.015625 78.601562 C 37.207031 78.601562 39.003906 76.800781 39.003906 74.601562 L 39.003906 67.910156 C 39.003906 65.710938 37.207031 63.910156 35.015625 63.910156 Z M 28.34375 63.910156 " fill-opacity="1" fill-rule="evenodd"/><g clip-path="url(#bcebdf5b6a)"><path fill="#ffffff" d="M 81.023438 57.492188 C 77.800781 57.492188 75.160156 60.140625 75.160156 63.375 L 75.160156 73.210938 C 75.160156 76.445312 77.796875 79.089844 81.023438 79.089844 L 90.835938 79.089844 C 94.058594 79.089844 96.699219 76.445312 96.699219 73.210938 L 96.699219 63.375 C 96.699219 60.140625 94.058594 57.492188 90.835938 57.492188 Z M 81.023438 57.492188 " fill-opacity="1" fill-rule="evenodd"/></g><path fill="#ff9100" d="M 85.503906 36.863281 C 83.730469 36.863281 82.277344 38.320312 82.277344 40.097656 L 82.277344 45.511719 C 82.277344 47.289062 83.726562 48.746094 85.503906 48.746094 L 90.902344 48.746094 C 92.675781 48.746094 94.128906 47.289062 94.128906 45.511719 L 94.128906 40.097656 C 94.128906 38.320312 92.675781 36.863281 90.902344 36.863281 Z M 85.503906 36.863281 " fill-opacity="1" fill-rule="evenodd"/><path fill="#ffbb00" d="M 53.804688 27.929688 C 51.488281 27.929688 49.589844 29.835938 49.589844 32.160156 L 49.589844 39.234375 C 49.589844 41.5625 51.488281 43.464844 53.804688 43.464844 L 60.863281 43.464844 C 63.183594 43.464844 65.082031 41.5625 65.082031 39.234375 L 65.082031 32.160156 C 65.082031 29.835938 63.183594 27.929688 60.863281 27.929688 Z M 53.804688 27.929688 " fill-opacity="1" fill-rule="evenodd"/><path fill="#ff9100" d="M 7.246094 27.742188 C 5.300781 27.742188 3.707031 29.335938 3.707031 31.289062 L 3.707031 37.226562 C 3.707031 39.175781 5.300781 40.773438 7.246094 40.773438 L 13.164062 40.773438 C 15.109375 40.773438 16.703125 39.175781 16.703125 37.226562 L 16.703125 31.289062 C 16.703125 29.335938 15.109375 27.742188 13.164062 27.742188 Z M 7.246094 27.742188 " fill-opacity="1" fill-rule="evenodd"/><path fill="#ffbb00" d="M 20.789062 17.480469 C 19.203125 17.480469 17.90625 18.78125 17.90625 20.371094 L 17.90625 25.207031 C 17.90625 26.796875 19.203125 28.097656 20.789062 28.097656 L 25.609375 28.097656 C 27.195312 28.097656 28.492188 26.796875 28.492188 25.207031 L 28.492188 20.371094 C 28.492188 18.78125 27.199219 17.480469 25.609375 17.480469 Z M 20.789062 17.480469 " fill-opacity="1" fill-rule="evenodd"/><g clip-path="url(#4b3abb936b)"><path fill="#ffffff" d="M 16.996094 2.324219 C 15.664062 2.324219 14.570312 3.417969 14.570312 4.757812 L 14.570312 8.828125 C 14.570312 10.164062 15.664062 11.257812 16.996094 11.257812 L 21.054688 11.257812 C 22.386719 11.257812 23.480469 10.164062 23.480469 8.828125 L 23.480469 4.757812 C 23.480469 3.417969 22.386719 2.324219 21.054688 2.324219 Z M 16.996094 2.324219 " fill-opacity="1" fill-rule="evenodd"/></g><g clip-path="url(#131c25bbed)"><path fill="#ffffff" d="M 2.480469 8.335938 C 1.421875 8.335938 0.554688 9.203125 0.554688 10.265625 L 0.554688 13.496094 C 0.554688 14.558594 1.417969 15.429688 2.480469 15.429688 L 5.703125 15.429688 C 6.761719 15.429688 7.628906 14.558594 7.628906 13.496094 L 7.628906 10.265625 C 7.628906 9.203125 6.761719 8.335938 5.703125 8.335938 Z M 2.480469 8.335938 " fill-opacity="1" fill-rule="evenodd"/></g><g fill="#ffffff" fill-opacity="1"><g transform="translate(104.020869, 47.351972)"><g><path d="M 13.5 0 L 4.109375 0 L 4.109375 -38.515625 L 13.5 -38.515625 L 13.5 -21.609375 L 26.21875 -38.515625 L 38.515625 -38.515625 L 22.65625 -19.25 L 38.515625 0 L 26.4375 0 L 13.5 -17 Z M 13.5 0 "/></g></g></g><g fill="#ffffff" fill-opacity="1"><g transform="translate(149.043074, 47.351972)"><g><path d="M 28.359375 -38.515625 L 37.75 -38.515625 L 37.75 0 L 28.359375 0 L 28.359375 -15.96875 L 13.5 -15.96875 L 13.5 0 L 4.109375 0 L 4.109375 -38.515625 L 13.5 -38.515625 L 13.5 -23.09375 L 28.359375 -23.09375 Z M 28.359375 -38.515625 "/></g></g></g><g fill="#ffffff" fill-opacity="1"><g transform="translate(196.423173, 47.351972)"><g><path d="M 28.578125 0 L 26.4375 -6.46875 L 12.625 -6.46875 L 10.484375 0 L 0.5 0 L 13.875 -38.625 L 25.296875 -38.625 L 38.625 0 Z M 14.984375 -13.609375 L 24.078125 -13.609375 L 19.53125 -27.3125 Z M 14.984375 -13.609375 "/></g></g></g><g fill="#ffffff" fill-opacity="1"><g transform="translate(241.061531, 47.351972)"><g><path d="M 4.109375 0 L 4.109375 -38.515625 L 13.5 -38.515625 L 13.5 0 Z M 4.109375 0 "/></g></g></g><g fill="#ffffff" fill-opacity="1"><g transform="translate(264.204584, 47.351972)"><g><path d="M 4.109375 -38.515625 L 13.5 -38.515625 L 13.5 -7.125 L 25.1875 -7.125 L 25.1875 0 L 4.109375 0 Z M 4.109375 -38.515625 "/></g></g></g><g fill="#ff3131" fill-opacity="1"><g transform="translate(104.020869, 71.356864)"><g><path d="M 18.640625 -15.328125 L 22.65625 -15.328125 L 18.375 0 L 14.09375 0 L 11.421875 -9.71875 L 8.75 0 L 4.46875 0 L 0.125 -15.328125 L 4.125 -15.328125 L 6.78125 -4.296875 L 9.515625 -15.328125 L 13.75 -15.328125 L 16.375 -4.46875 Z M 18.640625 -15.328125 "/></g></g></g><g fill="#ff3131" fill-opacity="1"><g transform="translate(127.161005, 71.356864)"><g><path d="M 10.921875 -15.359375 L 10.921875 -12.53125 L 5.375 -12.53125 L 5.375 -9.234375 L 10.265625 -9.234375 L 10.265625 -6.390625 L 5.375 -6.390625 L 5.375 -2.84375 L 10.921875 -2.84375 L 10.921875 0 L 1.640625 0 L 1.640625 -15.359375 Z M 10.921875 -15.359375 "/></g></g></g><g fill="#ff3131" fill-opacity="1"><g transform="translate(139.975475, 71.356864)"><g><path d="M 1.640625 -15.328125 L 8.296875 -15.328125 C 9.847656 -15.328125 11.085938 -14.945312 12.015625 -14.1875 C 12.941406 -13.425781 13.40625 -12.46875 13.40625 -11.3125 C 13.40625 -9.570312 12.394531 -8.398438 10.375 -7.796875 C 11.40625 -7.648438 12.222656 -7.21875 12.828125 -6.5 C 13.441406 -5.789062 13.75 -4.957031 13.75 -4 C 13.75 -2.769531 13.300781 -1.796875 12.40625 -1.078125 C 11.507812 -0.359375 10.265625 0 8.671875 0 L 1.640625 0 Z M 5.375 -12.484375 L 5.375 -9.171875 L 7.8125 -9.171875 C 8.351562 -9.171875 8.785156 -9.304688 9.109375 -9.578125 C 9.441406 -9.859375 9.609375 -10.269531 9.609375 -10.8125 C 9.609375 -11.363281 9.441406 -11.78125 9.109375 -12.0625 C 8.785156 -12.34375 8.351562 -12.484375 7.8125 -12.484375 Z M 5.375 -2.84375 L 8.1875 -2.84375 C 8.695312 -2.84375 9.117188 -2.992188 9.453125 -3.296875 C 9.785156 -3.597656 9.953125 -4.019531 9.953125 -4.5625 C 9.953125 -5.101562 9.789062 -5.53125 9.46875 -5.84375 C 9.15625 -6.164062 8.742188 -6.328125 8.234375 -6.328125 L 5.375 -6.328125 Z M 5.375 -2.84375 "/></g></g></g><g fill="#ff3131" fill-opacity="1"><g transform="translate(155.016625, 71.356864)"><g/></g></g><g fill="#ff3131" fill-opacity="1"><g transform="translate(161.893279, 71.356864)"><g><path d="M 5.375 -2.84375 L 7.03125 -2.84375 C 8.457031 -2.84375 9.578125 -3.273438 10.390625 -4.140625 C 11.203125 -5.015625 11.609375 -6.1875 11.609375 -7.65625 C 11.609375 -9.125 11.203125 -10.296875 10.390625 -11.171875 C 9.578125 -12.046875 8.457031 -12.484375 7.03125 -12.484375 L 5.375 -12.484375 Z M 7.03125 -15.328125 C 9.476562 -15.328125 11.484375 -14.613281 13.046875 -13.1875 C 14.617188 -11.769531 15.40625 -9.929688 15.40625 -7.671875 C 15.40625 -5.410156 14.617188 -3.566406 13.046875 -2.140625 C 11.484375 -0.710938 9.476562 0 7.03125 0 L 1.640625 0 L 1.640625 -15.328125 Z M 7.03125 -15.328125 "/></g></g></g><g fill="#ff3131" fill-opacity="1"><g transform="translate(178.353384, 71.356864)"><g><path d="M 10.921875 -15.359375 L 10.921875 -12.53125 L 5.375 -12.53125 L 5.375 -9.234375 L 10.265625 -9.234375 L 10.265625 -6.390625 L 5.375 -6.390625 L 5.375 -2.84375 L 10.921875 -2.84375 L 10.921875 0 L 1.640625 0 L 1.640625 -15.359375 Z M 10.921875 -15.359375 "/></g></g></g><g fill="#ff3131" fill-opacity="1"><g transform="translate(191.167856, 71.356864)"><g><path d="M 5.59375 0 L 0.15625 -15.328125 L 4.125 -15.328125 L 7.921875 -3.640625 L 11.71875 -15.328125 L 15.6875 -15.328125 L 10.265625 0 Z M 5.59375 0 "/></g></g></g><g fill="#ff3131" fill-opacity="1"><g transform="translate(207.344168, 71.356864)"><g><path d="M 10.921875 -15.359375 L 10.921875 -12.53125 L 5.375 -12.53125 L 5.375 -9.234375 L 10.265625 -9.234375 L 10.265625 -6.390625 L 5.375 -6.390625 L 5.375 -2.84375 L 10.921875 -2.84375 L 10.921875 0 L 1.640625 0 L 1.640625 -15.359375 Z M 10.921875 -15.359375 "/></g></g></g><g fill="#ff3131" fill-opacity="1"><g transform="translate(220.15864, 71.356864)"><g><path d="M 1.640625 -15.328125 L 5.375 -15.328125 L 5.375 -2.84375 L 10.015625 -2.84375 L 10.015625 0 L 1.640625 0 Z M 1.640625 -15.328125 "/></g></g></g><g fill="#ff3131" fill-opacity="1"><g transform="translate(230.94291, 71.356864)"><g><path d="M 11.53125 -4.5 C 12.269531 -5.300781 12.640625 -6.367188 12.640625 -7.703125 C 12.640625 -9.046875 12.269531 -10.113281 11.53125 -10.90625 C 10.800781 -11.707031 9.820312 -12.109375 8.59375 -12.109375 C 7.363281 -12.109375 6.378906 -11.707031 5.640625 -10.90625 C 4.910156 -10.113281 4.546875 -9.046875 4.546875 -7.703125 C 4.546875 -6.367188 4.910156 -5.300781 5.640625 -4.5 C 6.378906 -3.695312 7.363281 -3.296875 8.59375 -3.296875 C 9.820312 -3.296875 10.800781 -3.695312 11.53125 -4.5 Z M 3.015625 -2.0625 C 1.492188 -3.550781 0.734375 -5.429688 0.734375 -7.703125 C 0.734375 -9.972656 1.492188 -11.847656 3.015625 -13.328125 C 4.535156 -14.804688 6.398438 -15.546875 8.609375 -15.546875 C 10.816406 -15.546875 12.671875 -14.804688 14.171875 -13.328125 C 15.679688 -11.847656 16.4375 -9.972656 16.4375 -7.703125 C 16.4375 -5.429688 15.675781 -3.550781 14.15625 -2.0625 C 12.644531 -0.582031 10.789062 0.15625 8.59375 0.15625 C 6.394531 0.15625 4.535156 -0.582031 3.015625 -2.0625 Z M 3.015625 -2.0625 "/></g></g></g><g fill="#ff3131" fill-opacity="1"><g transform="translate(248.472702, 71.356864)"><g><path d="M 13.3125 -10.625 C 13.3125 -9.59375 12.941406 -8.597656 12.203125 -7.640625 C 11.804688 -7.140625 11.21875 -6.734375 10.4375 -6.421875 C 9.664062 -6.109375 8.75 -5.953125 7.6875 -5.953125 L 5.375 -5.953125 L 5.375 0 L 1.640625 0 L 1.640625 -15.328125 L 7.6875 -15.328125 C 9.457031 -15.328125 10.835938 -14.867188 11.828125 -13.953125 C 12.816406 -13.035156 13.3125 -11.925781 13.3125 -10.625 Z M 5.375 -8.796875 L 7.6875 -8.796875 C 8.25 -8.796875 8.691406 -8.960938 9.015625 -9.296875 C 9.347656 -9.628906 9.515625 -10.066406 9.515625 -10.609375 C 9.515625 -11.160156 9.347656 -11.609375 9.015625 -11.953125 C 8.679688 -12.304688 8.238281 -12.484375 7.6875 -12.484375 L 5.375 -12.484375 Z M 5.375 -8.796875 "/></g></g></g><g fill="#ff3131" fill-opacity="1"><g transform="translate(262.727955, 71.356864)"><g><path d="M 10.921875 -15.359375 L 10.921875 -12.53125 L 5.375 -12.53125 L 5.375 -9.234375 L 10.265625 -9.234375 L 10.265625 -6.390625 L 5.375 -6.390625 L 5.375 -2.84375 L 10.921875 -2.84375 L 10.921875 0 L 1.640625 0 L 1.640625 -15.359375 Z M 10.921875 -15.359375 "/></g></g></g><g fill="#ff3131" fill-opacity="1"><g transform="translate(275.542427, 71.356864)"><g><path d="M 5.375 -5.953125 L 5.375 0 L 1.640625 0 L 1.640625 -15.328125 L 7.6875 -15.328125 C 9.457031 -15.328125 10.835938 -14.867188 11.828125 -13.953125 C 12.816406 -13.035156 13.3125 -11.925781 13.3125 -10.625 C 13.3125 -9.738281 13.039062 -8.875 12.5 -8.03125 C 11.96875 -7.1875 11.085938 -6.59375 9.859375 -6.25 L 13.625 0 L 9.25 0 L 5.8125 -5.953125 Z M 5.375 -12.484375 L 5.375 -8.796875 L 7.6875 -8.796875 C 8.25 -8.796875 8.691406 -8.960938 9.015625 -9.296875 C 9.347656 -9.628906 9.515625 -10.066406 9.515625 -10.609375 C 9.515625 -11.160156 9.347656 -11.609375 9.015625 -11.953125 C 8.679688 -12.304688 8.238281 -12.484375 7.6875 -12.484375 Z M 5.375 -12.484375 "/></g></g></g></svg>