<svg xmlns="http://www.w3.org/2000/svg" xmlns:xlink="http://www.w3.org/1999/xlink" width="101" zoomAndPan="magnify" viewBox="0 0 75.75 86.249997" height="115" preserveAspectRatio="xMidYMid meet" version="1.0"><defs><clipPath id="7f23cadff2"><path d="M 0.203125 0 L 75.300781 0 L 75.300781 29 L 0.203125 29 Z M 0.203125 0 " clip-rule="nonzero"/></clipPath><clipPath id="0c77ee7fd1"><path d="M 10 29 L 75.300781 29 L 75.300781 85.507812 L 10 85.507812 Z M 10 29 " clip-rule="nonzero"/></clipPath><clipPath id="6d9dcd5bde"><path d="M 72 24 L 75.300781 24 L 75.300781 27 L 72 27 Z M 72 24 " clip-rule="nonzero"/></clipPath></defs><path fill="#6ab9e2" d="M 58.058594 1.339844 L 74.203125 17.425781 L 58.058594 17.425781 Z M 58.058594 1.339844 " fill-opacity="1" fill-rule="nonzero"/><path fill="#0559b1" d="M 74.203125 17.425781 L 74.203125 84.449219 L 12.3125 84.449219 L 12.3125 1.339844 L 58.058594 1.339844 L 58.058594 17.425781 Z M 74.203125 17.425781 " fill-opacity="1" fill-rule="nonzero"/><path fill="#044994" d="M 15.003906 12.0625 L 15.003906 76.40625 C 15.003906 76.757812 15.035156 77.105469 15.105469 77.453125 C 15.175781 77.796875 15.277344 78.132812 15.414062 78.457031 C 15.546875 78.78125 15.714844 79.089844 15.910156 79.382812 C 16.105469 79.675781 16.328125 79.949219 16.578125 80.195312 C 16.828125 80.445312 17.101562 80.667969 17.394531 80.863281 C 17.6875 81.058594 18 81.222656 18.324219 81.359375 C 18.652344 81.492188 18.988281 81.59375 19.335938 81.664062 C 19.679688 81.734375 20.03125 81.765625 20.382812 81.765625 L 66.128906 81.765625 C 66.484375 81.765625 66.832031 81.734375 67.179688 81.664062 C 67.527344 81.59375 67.863281 81.492188 68.1875 81.359375 C 68.515625 81.222656 68.824219 81.058594 69.121094 80.863281 C 69.414062 80.667969 69.683594 80.445312 69.933594 80.195312 C 70.183594 79.949219 70.40625 79.675781 70.605469 79.382812 C 70.800781 79.089844 70.964844 78.78125 71.101562 78.457031 C 71.238281 78.132812 71.339844 77.796875 71.40625 77.453125 C 71.476562 77.105469 71.511719 76.757812 71.511719 76.40625 L 71.511719 73.558594 C 15.003906 70.089844 15.003906 12.0625 15.003906 12.0625 Z M 15.003906 12.0625 " fill-opacity="1" fill-rule="nonzero"/><path fill="#023668" d="M 59.402344 17.425781 L 74.203125 17.425781 L 74.203125 20.105469 L 59.402344 20.105469 Z M 59.402344 17.425781 " fill-opacity="1" fill-rule="nonzero"/><path fill="#51d4ff" d="M 41.84375 42.960938 C 42.503906 43.617188 43.050781 44.355469 43.492188 45.171875 C 43.929688 45.992188 44.238281 46.855469 44.421875 47.765625 C 44.605469 48.675781 44.648438 49.59375 44.558594 50.515625 C 44.464844 51.441406 44.242188 52.332031 43.886719 53.1875 C 43.53125 54.042969 43.054688 54.832031 42.464844 55.550781 C 41.875 56.265625 41.191406 56.882812 40.417969 57.398438 C 39.640625 57.914062 38.808594 58.304688 37.917969 58.574219 C 37.027344 58.84375 36.117188 58.980469 35.183594 58.980469 L 31.148438 58.980469 L 31.148438 69.703125 L 25.765625 69.703125 L 25.765625 40.214844 L 35.183594 40.214844 C 36.433594 40.210938 37.636719 40.445312 38.789062 40.921875 C 39.945312 41.398438 40.960938 42.078125 41.84375 42.960938 Z M 39.21875 49.597656 C 39.21875 49.332031 39.195312 49.070312 39.144531 48.8125 C 39.089844 48.554688 39.015625 48.300781 38.914062 48.058594 C 38.8125 47.8125 38.6875 47.582031 38.539062 47.363281 C 38.394531 47.144531 38.226562 46.941406 38.039062 46.753906 C 37.851562 46.566406 37.648438 46.398438 37.425781 46.253906 C 37.207031 46.105469 36.972656 45.980469 36.730469 45.882812 C 36.484375 45.78125 36.230469 45.703125 35.972656 45.652344 C 35.710938 45.601562 35.449219 45.574219 35.183594 45.574219 L 31.148438 45.574219 L 31.148438 53.617188 L 35.183594 53.617188 C 35.449219 53.617188 35.710938 53.59375 35.972656 53.539062 C 36.230469 53.488281 36.484375 53.414062 36.730469 53.3125 C 36.972656 53.210938 37.207031 53.085938 37.425781 52.941406 C 37.648438 52.792969 37.851562 52.625 38.039062 52.441406 C 38.226562 52.253906 38.394531 52.050781 38.539062 51.832031 C 38.6875 51.609375 38.8125 51.378906 38.914062 51.136719 C 39.015625 50.890625 39.089844 50.640625 39.144531 50.382812 C 39.195312 50.121094 39.21875 49.859375 39.21875 49.597656 Z M 39.21875 49.597656 " fill-opacity="1" fill-rule="nonzero"/><path fill="#51d4ff" d="M 60.746094 50.507812 L 60.746094 55.023438 C 60.734375 55.011719 57.492188 52.773438 55.136719 52.773438 C 54.140625 52.773438 52.902344 52.894531 52.902344 53.898438 C 52.902344 54.757812 53.792969 55.359375 55.6875 56.460938 C 57.828125 57.679688 60.746094 59.367188 60.746094 62.933594 C 60.78125 63.382812 60.765625 63.832031 60.703125 64.28125 C 60.640625 64.726562 60.53125 65.164062 60.375 65.585938 C 60.21875 66.011719 60.019531 66.414062 59.777344 66.792969 C 59.53125 67.175781 59.25 67.527344 58.933594 67.847656 C 58.613281 68.167969 58.265625 68.449219 57.882812 68.695312 C 57.503906 68.941406 57.101562 69.144531 56.679688 69.304688 C 56.253906 69.464844 55.820312 69.578125 55.371094 69.648438 C 54.921875 69.714844 54.472656 69.734375 54.019531 69.703125 C 49.511719 69.703125 47.414062 67.625 47.292969 67.453125 L 47.292969 62.933594 C 47.304688 62.949219 51.960938 65.1875 54.019531 65.1875 C 55.984375 65.1875 56.265625 64.101562 56.265625 62.933594 C 56.265625 62.074219 55.367188 61.472656 53.46875 60.375 C 51.328125 59.152344 48.410156 57.464844 48.410156 53.898438 C 48.378906 53.523438 48.386719 53.148438 48.433594 52.773438 C 48.484375 52.398438 48.574219 52.035156 48.703125 51.679688 C 48.832031 51.324219 48.996094 50.984375 49.199219 50.667969 C 49.402344 50.347656 49.636719 50.054688 49.90625 49.785156 C 50.171875 49.515625 50.464844 49.28125 50.78125 49.074219 C 51.101562 48.871094 51.4375 48.699219 51.792969 48.570312 C 52.148438 48.4375 52.515625 48.34375 52.890625 48.292969 C 53.265625 48.238281 53.640625 48.226562 54.019531 48.257812 C 59.628906 48.257812 60.746094 50.507812 60.746094 50.507812 Z M 60.746094 50.507812 " fill-opacity="1" fill-rule="nonzero"/><path fill="#023668" d="M 31.148438 58.980469 L 31.148438 60.320312 L 33.839844 60.320312 C 35.253906 60.320312 36.601562 60.019531 37.878906 59.417969 C 39.160156 58.8125 40.246094 57.960938 41.136719 56.867188 C 40.296875 57.554688 39.367188 58.074219 38.34375 58.4375 C 37.324219 58.800781 36.269531 58.980469 35.183594 58.980469 Z M 31.148438 58.980469 " fill-opacity="1" fill-rule="nonzero"/><path fill="#023668" d="M 35.183594 45.574219 L 31.148438 45.574219 L 31.148438 46.914062 L 33.839844 46.914062 C 34.570312 46.914062 35.25 47.09375 35.878906 47.460938 C 36.511719 47.828125 37.003906 48.328125 37.359375 48.960938 C 37.71875 49.59375 37.890625 50.277344 37.875 51.003906 C 37.859375 51.730469 37.660156 52.402344 37.277344 53.019531 C 37.648438 52.792969 37.976562 52.511719 38.257812 52.175781 C 38.539062 51.839844 38.761719 51.46875 38.917969 51.0625 C 39.078125 50.65625 39.171875 50.234375 39.191406 49.796875 C 39.214844 49.363281 39.167969 48.933594 39.046875 48.511719 C 38.929688 48.09375 38.746094 47.699219 38.5 47.339844 C 38.253906 46.976562 37.957031 46.664062 37.609375 46.398438 C 37.261719 46.132812 36.878906 45.929688 36.464844 45.789062 C 36.050781 45.648438 35.621094 45.578125 35.183594 45.574219 Z M 35.183594 45.574219 " fill-opacity="1" fill-rule="nonzero"/><path fill="#023668" d="M 25.765625 41.554688 L 24.421875 41.554688 L 24.421875 71.042969 L 29.800781 71.042969 L 29.800781 69.703125 L 25.765625 69.703125 Z M 25.765625 41.554688 " fill-opacity="1" fill-rule="nonzero"/><path fill="#023668" d="M 59.402344 56.367188 L 59.402344 54.207031 C 58.09375 53.398438 56.671875 52.921875 55.136719 52.773438 C 54.140625 52.773438 52.902344 52.894531 52.902344 53.898438 C 52.90625 53.988281 52.917969 54.078125 52.9375 54.167969 C 53.222656 54.132812 53.507812 54.117188 53.792969 54.121094 C 56.144531 54.113281 59.386719 56.351562 59.402344 56.367188 Z M 59.402344 56.367188 " fill-opacity="1" fill-rule="nonzero"/><path fill="#023668" d="M 56.265625 62.933594 C 56.265625 62.074219 55.367188 61.472656 53.46875 60.375 C 51.328125 59.152344 48.410156 57.464844 48.410156 53.898438 C 48.378906 52.667969 48.691406 51.53125 49.351562 50.492188 C 48.582031 51.027344 47.992188 51.722656 47.582031 52.566406 C 47.175781 53.414062 47.003906 54.304688 47.0625 55.238281 C 47.0625 58.804688 49.984375 60.496094 52.125 61.714844 C 54.019531 62.8125 54.921875 63.417969 54.921875 64.273438 C 54.925781 64.550781 54.902344 64.820312 54.851562 65.09375 C 56.054688 64.816406 56.265625 63.90625 56.265625 62.933594 Z M 56.265625 62.933594 " fill-opacity="1" fill-rule="nonzero"/><path fill="#023668" d="M 47.292969 67.453125 L 47.292969 64.886719 C 46.5 64.542969 45.949219 64.277344 45.949219 64.273438 L 45.949219 68.792969 C 46.070312 68.964844 48.167969 71.042969 52.675781 71.042969 C 53.742188 71.097656 54.757812 70.894531 55.726562 70.445312 C 56.695312 69.992188 57.5 69.339844 58.140625 68.488281 C 56.898438 69.335938 55.523438 69.738281 54.019531 69.703125 C 49.511719 69.703125 47.414062 67.625 47.292969 67.453125 Z M 47.292969 67.453125 " fill-opacity="1" fill-rule="nonzero"/><path fill="#f2f2f2" d="M 1.546875 5.363281 L 49.984375 5.363281 L 49.984375 26.808594 L 1.546875 26.808594 Z M 1.546875 5.363281 " fill-opacity="1" fill-rule="nonzero"/><path fill="#023668" d="M 12.3125 26.808594 L 47.292969 26.808594 L 47.292969 30.832031 L 12.3125 30.832031 Z M 12.3125 26.808594 " fill-opacity="1" fill-rule="nonzero"/><path fill="#cdd1d6" d="M 15.003906 12.0625 L 12.3125 12.0625 L 12.3125 13.40625 L 13.65625 13.40625 C 13.835938 13.40625 14.007812 13.4375 14.171875 13.507812 C 14.335938 13.574219 14.480469 13.671875 14.609375 13.796875 C 14.734375 13.921875 14.832031 14.066406 14.898438 14.230469 C 14.96875 14.394531 15.003906 14.566406 15.003906 14.746094 C 15.367188 14.75 15.679688 14.621094 15.9375 14.359375 C 16.210938 14.101562 16.347656 13.78125 16.347656 13.40625 C 16.347656 13.226562 16.3125 13.054688 16.246094 12.890625 C 16.175781 12.726562 16.078125 12.582031 15.953125 12.457031 C 15.828125 12.332031 15.683594 12.234375 15.515625 12.167969 C 15.351562 12.097656 15.179688 12.0625 15.003906 12.0625 Z M 15.003906 12.0625 " fill-opacity="1" fill-rule="nonzero"/><path fill="#cdd1d6" d="M 9.621094 16.085938 L 9.621094 10.722656 C 9.441406 10.722656 9.269531 10.757812 9.105469 10.824219 C 8.941406 10.894531 8.796875 10.992188 8.667969 11.117188 C 8.542969 11.242188 8.445312 11.386719 8.378906 11.550781 C 8.308594 11.714844 8.273438 11.886719 8.273438 12.0625 L 8.273438 24.128906 L 10.964844 24.128906 L 10.964844 22.789062 L 9.621094 22.789062 Z M 9.621094 16.085938 " fill-opacity="1" fill-rule="nonzero"/><path fill="#cdd1d6" d="M 12.3125 17.425781 L 12.3125 18.765625 L 13.65625 18.765625 C 14.359375 18.765625 15.015625 18.59375 15.628906 18.25 C 16.242188 17.90625 16.726562 17.433594 17.089844 16.832031 C 16.449219 17.226562 15.753906 17.425781 15.003906 17.425781 Z M 12.3125 17.425781 " fill-opacity="1" fill-rule="nonzero"/><path fill="#cdd1d6" d="M 33.839844 22.789062 C 33.660156 22.789062 33.488281 22.753906 33.324219 22.6875 C 33.160156 22.617188 33.011719 22.519531 32.886719 22.394531 C 32.761719 22.269531 32.664062 22.125 32.59375 21.960938 C 32.527344 21.796875 32.492188 21.625 32.492188 21.445312 L 32.492188 10.722656 C 32.316406 10.722656 32.144531 10.757812 31.976562 10.824219 C 31.8125 10.894531 31.667969 10.992188 31.542969 11.117188 C 31.414062 11.242188 31.320312 11.386719 31.25 11.550781 C 31.183594 11.714844 31.148438 11.886719 31.148438 12.0625 L 31.148438 22.789062 C 31.148438 22.964844 31.183594 23.136719 31.25 23.300781 C 31.320312 23.464844 31.414062 23.609375 31.542969 23.734375 C 31.667969 23.859375 31.8125 23.957031 31.976562 24.027344 C 32.144531 24.09375 32.316406 24.128906 32.492188 24.128906 L 35.183594 24.128906 C 36.242188 24.125 37.242188 23.886719 38.1875 23.410156 C 39.128906 22.933594 39.917969 22.273438 40.546875 21.429688 C 39.359375 22.328125 38.019531 22.78125 36.53125 22.789062 Z M 33.839844 22.789062 " fill-opacity="1" fill-rule="nonzero"/><path fill="#cdd1d6" d="M 40.566406 16.085938 C 40.566406 15.820312 40.539062 15.558594 40.488281 15.300781 C 40.4375 15.042969 40.363281 14.789062 40.261719 14.546875 C 40.160156 14.300781 40.035156 14.070312 39.886719 13.847656 C 39.742188 13.628906 39.574219 13.425781 39.386719 13.238281 C 39.199219 13.050781 38.996094 12.886719 38.773438 12.738281 C 38.554688 12.59375 38.320312 12.46875 38.074219 12.367188 C 37.832031 12.265625 37.578125 12.191406 37.316406 12.140625 C 37.058594 12.089844 36.792969 12.0625 36.53125 12.0625 L 35.183594 12.0625 L 35.183594 13.40625 C 35.449219 13.402344 35.710938 13.429688 35.972656 13.480469 C 36.230469 13.53125 36.484375 13.609375 36.730469 13.707031 C 36.976562 13.808594 37.207031 13.933594 37.429688 14.078125 C 37.648438 14.226562 37.851562 14.394531 38.039062 14.578125 C 38.226562 14.765625 38.394531 14.96875 38.542969 15.191406 C 38.691406 15.410156 38.8125 15.640625 38.914062 15.886719 C 39.015625 16.128906 39.09375 16.382812 39.144531 16.640625 C 39.195312 16.898438 39.222656 17.160156 39.21875 17.425781 C 39.21875 18.175781 39.015625 18.871094 38.621094 19.507812 C 39.222656 19.148438 39.695312 18.660156 40.042969 18.050781 C 40.390625 17.441406 40.5625 16.785156 40.566406 16.085938 Z M 40.566406 16.085938 " fill-opacity="1" fill-rule="nonzero"/><path fill="#cdd1d6" d="M 24.421875 12.0625 C 24.054688 12.058594 23.742188 12.1875 23.488281 12.449219 C 23.210938 12.707031 23.074219 13.027344 23.074219 13.40625 C 25.550781 13.40625 25.75 14.554688 25.765625 14.746094 L 28.457031 14.746094 C 28.445312 14.277344 28.34375 13.832031 28.152344 13.40625 L 27.113281 13.40625 C 27.097656 13.210938 26.894531 12.0625 24.421875 12.0625 Z M 24.421875 12.0625 " fill-opacity="1" fill-rule="nonzero"/><path fill="#cdd1d6" d="M 20.6875 20.097656 L 20.382812 20.105469 L 19.039062 20.105469 C 19.039062 21.5 20.164062 24.128906 24.421875 24.128906 C 25.125 24.125 25.78125 23.953125 26.394531 23.605469 C 27.003906 23.261719 27.492188 22.789062 27.855469 22.191406 C 27.214844 22.585938 26.519531 22.785156 25.765625 22.789062 C 22.671875 22.789062 21.238281 21.394531 20.6875 20.097656 Z M 20.6875 20.097656 " fill-opacity="1" fill-rule="nonzero"/><path fill="#cdd1d6" d="M 23.074219 18.765625 L 24.421875 18.765625 C 24.800781 18.765625 25.117188 18.902344 25.378906 19.175781 C 25.640625 19.429688 25.769531 19.742188 25.765625 20.105469 C 25.945312 20.105469 26.117188 20.074219 26.28125 20.003906 C 26.445312 19.9375 26.589844 19.839844 26.71875 19.714844 C 26.84375 19.589844 26.941406 19.445312 27.007812 19.277344 C 27.078125 19.113281 27.113281 18.945312 27.113281 18.765625 C 27.113281 18.402344 26.984375 18.089844 26.722656 17.835938 C 26.464844 17.5625 26.144531 17.425781 25.765625 17.425781 L 24.421875 17.425781 C 24.15625 17.425781 23.894531 17.398438 23.632812 17.347656 C 23.375 17.296875 23.121094 17.222656 22.875 17.121094 C 22.632812 17.019531 22.398438 16.894531 22.179688 16.75 C 21.957031 16.601562 21.753906 16.433594 21.566406 16.246094 C 21.378906 16.0625 21.210938 15.859375 21.066406 15.636719 C 20.917969 15.417969 20.792969 15.1875 20.691406 14.945312 C 20.589844 14.699219 20.511719 14.449219 20.460938 14.1875 C 20.410156 13.929688 20.382812 13.667969 20.382812 13.40625 C 20.386719 12.652344 20.585938 11.953125 20.988281 11.316406 C 20.714844 11.476562 20.464844 11.671875 20.238281 11.894531 C 19.433594 12.675781 19.03125 13.625 19.039062 14.746094 C 19.042969 15.25 19.136719 15.738281 19.324219 16.210938 C 19.511719 16.679688 19.777344 17.097656 20.125 17.46875 C 20.46875 17.839844 20.871094 18.132812 21.328125 18.351562 C 21.789062 18.570312 22.269531 18.699219 22.777344 18.738281 L 23.074219 18.726562 Z M 23.074219 18.765625 " fill-opacity="1" fill-rule="nonzero"/><g clip-path="url(#7f23cadff2)"><path fill="#000000" d="M 75.152344 16.476562 L 59.007812 0.394531 C 58.746094 0.132812 58.429688 0 58.058594 0 L 12.3125 0 C 12.132812 0 11.960938 0.0351562 11.796875 0.101562 C 11.632812 0.171875 11.488281 0.265625 11.359375 0.394531 C 11.234375 0.519531 11.136719 0.664062 11.070312 0.828125 C 11 0.992188 10.964844 1.164062 10.964844 1.339844 L 10.964844 4.019531 L 1.546875 4.019531 C 1.371094 4.019531 1.199219 4.054688 1.03125 4.125 C 0.867188 4.191406 0.722656 4.289062 0.597656 4.414062 C 0.46875 4.539062 0.375 4.683594 0.304688 4.847656 C 0.238281 5.011719 0.203125 5.183594 0.203125 5.363281 L 0.203125 26.808594 C 0.203125 26.988281 0.238281 27.15625 0.304688 27.320312 C 0.375 27.484375 0.46875 27.632812 0.597656 27.757812 C 0.722656 27.882812 0.867188 27.980469 1.03125 28.046875 C 1.199219 28.117188 1.371094 28.148438 1.546875 28.148438 L 49.984375 28.148438 C 50.164062 28.148438 50.335938 28.117188 50.5 28.046875 C 50.664062 27.980469 50.808594 27.882812 50.933594 27.757812 C 51.0625 27.632812 51.160156 27.484375 51.226562 27.320312 C 51.296875 27.15625 51.328125 26.988281 51.328125 26.808594 L 51.328125 5.363281 C 51.328125 5.183594 51.296875 5.011719 51.226562 4.847656 C 51.160156 4.683594 51.0625 4.539062 50.933594 4.414062 C 50.808594 4.289062 50.664062 4.191406 50.5 4.125 C 50.335938 4.054688 50.164062 4.019531 49.984375 4.019531 L 13.65625 4.019531 L 13.65625 2.679688 L 56.710938 2.679688 L 56.710938 17.425781 C 56.710938 17.605469 56.746094 17.773438 56.8125 17.9375 C 56.882812 18.101562 56.980469 18.246094 57.105469 18.375 C 57.230469 18.5 57.375 18.597656 57.542969 18.664062 C 57.707031 18.730469 57.878906 18.765625 58.058594 18.765625 L 72.855469 18.765625 L 72.855469 21.445312 L 75.546875 21.445312 L 75.546875 17.425781 C 75.546875 17.054688 75.414062 16.738281 75.152344 16.476562 Z M 48.636719 25.46875 L 2.894531 25.46875 L 2.894531 6.703125 L 48.636719 6.703125 Z M 59.402344 4.578125 L 70.953125 16.085938 L 59.402344 16.085938 Z M 59.402344 4.578125 " fill-opacity="1" fill-rule="nonzero"/></g><path fill="#000000" d="M 10.964844 30.832031 L 13.65625 30.832031 L 13.65625 33.511719 L 10.964844 33.511719 Z M 10.964844 30.832031 " fill-opacity="1" fill-rule="nonzero"/><path fill="#000000" d="M 10.964844 36.191406 L 13.65625 36.191406 L 13.65625 75.066406 L 10.964844 75.066406 Z M 10.964844 36.191406 " fill-opacity="1" fill-rule="nonzero"/><g clip-path="url(#0c77ee7fd1)"><path fill="#000000" d="M 72.855469 83.109375 L 13.65625 83.109375 L 13.65625 77.746094 L 10.964844 77.746094 L 10.964844 84.449219 C 10.964844 84.625 11 84.796875 11.070312 84.960938 C 11.136719 85.125 11.234375 85.269531 11.359375 85.394531 C 11.488281 85.523438 11.632812 85.617188 11.796875 85.6875 C 11.960938 85.753906 12.132812 85.789062 12.3125 85.789062 L 74.203125 85.789062 C 74.378906 85.789062 74.550781 85.753906 74.71875 85.6875 C 74.882812 85.617188 75.027344 85.523438 75.152344 85.394531 C 75.28125 85.269531 75.375 85.125 75.445312 84.960938 C 75.511719 84.796875 75.546875 84.625 75.546875 84.449219 L 75.546875 29.488281 L 72.855469 29.488281 Z M 72.855469 83.109375 " fill-opacity="1" fill-rule="nonzero"/></g><g clip-path="url(#6d9dcd5bde)"><path fill="#000000" d="M 72.855469 24.128906 L 75.546875 24.128906 L 75.546875 26.808594 L 72.855469 26.808594 Z M 72.855469 24.128906 " fill-opacity="1" fill-rule="nonzero"/></g><path fill="#000000" d="M 12.3125 17.425781 L 15.003906 17.425781 C 15.265625 17.425781 15.53125 17.398438 15.789062 17.347656 C 16.050781 17.296875 16.300781 17.222656 16.546875 17.121094 C 16.792969 17.019531 17.023438 16.894531 17.246094 16.75 C 17.464844 16.601562 17.667969 16.433594 17.855469 16.246094 C 18.042969 16.0625 18.210938 15.859375 18.359375 15.636719 C 18.503906 15.417969 18.628906 15.1875 18.730469 14.945312 C 18.832031 14.699219 18.910156 14.449219 18.960938 14.1875 C 19.011719 13.929688 19.039062 13.667969 19.039062 13.40625 C 19.039062 13.140625 19.011719 12.878906 18.960938 12.621094 C 18.910156 12.359375 18.832031 12.109375 18.730469 11.867188 C 18.628906 11.621094 18.503906 11.390625 18.359375 11.171875 C 18.210938 10.949219 18.042969 10.746094 17.855469 10.5625 C 17.667969 10.375 17.464844 10.207031 17.246094 10.0625 C 17.023438 9.914062 16.792969 9.789062 16.546875 9.6875 C 16.300781 9.589844 16.050781 9.511719 15.789062 9.460938 C 15.53125 9.410156 15.265625 9.382812 15.003906 9.382812 L 10.964844 9.382812 C 10.789062 9.382812 10.617188 9.417969 10.453125 9.484375 C 10.285156 9.554688 10.140625 9.648438 10.015625 9.777344 C 9.886719 9.902344 9.792969 10.046875 9.722656 10.210938 C 9.65625 10.375 9.621094 10.546875 9.621094 10.722656 L 9.621094 22.789062 L 12.3125 22.789062 Z M 12.3125 12.0625 L 15.003906 12.0625 C 15.179688 12.0625 15.351562 12.097656 15.515625 12.167969 C 15.683594 12.234375 15.828125 12.332031 15.953125 12.457031 C 16.078125 12.582031 16.175781 12.726562 16.246094 12.890625 C 16.3125 13.054688 16.347656 13.226562 16.347656 13.40625 C 16.347656 13.582031 16.3125 13.753906 16.246094 13.917969 C 16.175781 14.082031 16.078125 14.226562 15.953125 14.351562 C 15.828125 14.476562 15.683594 14.574219 15.515625 14.644531 C 15.351562 14.710938 15.179688 14.746094 15.003906 14.746094 L 12.3125 14.746094 Z M 12.3125 12.0625 " fill-opacity="1" fill-rule="nonzero"/><path fill="#000000" d="M 33.839844 22.789062 L 36.53125 22.789062 C 36.972656 22.789062 37.410156 22.746094 37.84375 22.660156 C 38.273438 22.574219 38.695312 22.445312 39.105469 22.277344 C 39.511719 22.109375 39.898438 21.902344 40.265625 21.65625 C 40.632812 21.414062 40.972656 21.136719 41.285156 20.824219 C 41.597656 20.511719 41.878906 20.175781 42.121094 19.808594 C 42.367188 19.441406 42.574219 19.058594 42.746094 18.648438 C 42.914062 18.242188 43.042969 17.824219 43.128906 17.394531 C 43.214844 16.960938 43.257812 16.527344 43.257812 16.085938 C 43.257812 15.644531 43.214844 15.210938 43.128906 14.777344 C 43.042969 14.347656 42.914062 13.925781 42.746094 13.519531 C 42.574219 13.113281 42.367188 12.726562 42.121094 12.363281 C 41.878906 11.996094 41.597656 11.65625 41.285156 11.347656 C 40.972656 11.035156 40.632812 10.757812 40.265625 10.511719 C 39.898438 10.269531 39.511719 10.0625 39.105469 9.894531 C 38.695312 9.726562 38.273438 9.597656 37.84375 9.511719 C 37.410156 9.425781 36.972656 9.382812 36.53125 9.382812 L 33.839844 9.382812 C 33.660156 9.382812 33.488281 9.417969 33.324219 9.484375 C 33.160156 9.554688 33.011719 9.648438 32.886719 9.777344 C 32.761719 9.902344 32.664062 10.046875 32.59375 10.210938 C 32.527344 10.375 32.492188 10.546875 32.492188 10.722656 L 32.492188 21.445312 C 32.492188 21.625 32.527344 21.796875 32.59375 21.960938 C 32.664062 22.125 32.761719 22.269531 32.886719 22.394531 C 33.011719 22.519531 33.160156 22.617188 33.324219 22.6875 C 33.488281 22.753906 33.660156 22.789062 33.839844 22.789062 Z M 35.183594 12.0625 L 36.53125 12.0625 C 36.792969 12.0625 37.058594 12.089844 37.316406 12.140625 C 37.578125 12.191406 37.828125 12.269531 38.074219 12.371094 C 38.320312 12.472656 38.550781 12.59375 38.773438 12.742188 C 38.992188 12.886719 39.195312 13.054688 39.382812 13.242188 C 39.570312 13.429688 39.738281 13.632812 39.886719 13.851562 C 40.03125 14.070312 40.15625 14.300781 40.257812 14.546875 C 40.359375 14.789062 40.4375 15.042969 40.488281 15.300781 C 40.539062 15.558594 40.566406 15.820312 40.566406 16.085938 C 40.566406 16.347656 40.539062 16.609375 40.488281 16.871094 C 40.4375 17.128906 40.359375 17.378906 40.257812 17.625 C 40.15625 17.867188 40.03125 18.101562 39.886719 18.320312 C 39.738281 18.539062 39.570312 18.742188 39.382812 18.929688 C 39.195312 19.117188 38.992188 19.28125 38.773438 19.429688 C 38.550781 19.574219 38.320312 19.699219 38.074219 19.800781 C 37.828125 19.902344 37.578125 19.976562 37.316406 20.03125 C 37.058594 20.082031 36.792969 20.105469 36.53125 20.105469 L 35.183594 20.105469 Z M 35.183594 12.0625 " fill-opacity="1" fill-rule="nonzero"/><path fill="#000000" d="M 25.765625 20.105469 C 23.289062 20.105469 23.089844 18.957031 23.074219 18.726562 L 21.730469 18.765625 L 20.382812 18.765625 C 20.382812 20.15625 21.507812 22.789062 25.765625 22.789062 C 26.03125 22.789062 26.292969 22.761719 26.554688 22.710938 C 26.8125 22.660156 27.066406 22.582031 27.3125 22.480469 C 27.554688 22.378906 27.789062 22.257812 28.007812 22.109375 C 28.230469 21.964844 28.433594 21.796875 28.621094 21.609375 C 28.808594 21.421875 28.976562 21.21875 29.121094 21 C 29.269531 20.78125 29.394531 20.550781 29.496094 20.304688 C 29.597656 20.0625 29.671875 19.808594 29.726562 19.550781 C 29.777344 19.292969 29.800781 19.03125 29.800781 18.765625 C 29.800781 18.503906 29.777344 18.242188 29.726562 17.980469 C 29.671875 17.722656 29.597656 17.472656 29.496094 17.226562 C 29.394531 16.984375 29.269531 16.75 29.121094 16.53125 C 28.976562 16.3125 28.808594 16.109375 28.621094 15.921875 C 28.433594 15.734375 28.230469 15.570312 28.007812 15.421875 C 27.789062 15.277344 27.554688 15.152344 27.3125 15.050781 C 27.066406 14.949219 26.8125 14.875 26.554688 14.820312 C 26.292969 14.769531 26.03125 14.746094 25.765625 14.746094 L 24.421875 14.746094 C 24.242188 14.746094 24.070312 14.710938 23.90625 14.644531 C 23.742188 14.574219 23.59375 14.476562 23.46875 14.351562 C 23.34375 14.226562 23.246094 14.082031 23.175781 13.917969 C 23.109375 13.753906 23.074219 13.582031 23.074219 13.40625 C 23.074219 13.226562 23.109375 13.054688 23.175781 12.890625 C 23.246094 12.726562 23.34375 12.582031 23.46875 12.457031 C 23.59375 12.332031 23.742188 12.234375 23.90625 12.167969 C 24.070312 12.097656 24.242188 12.0625 24.421875 12.0625 C 26.894531 12.0625 27.097656 13.210938 27.113281 13.40625 L 29.800781 13.40625 C 29.800781 12.011719 28.675781 9.382812 24.421875 9.382812 C 24.15625 9.382812 23.894531 9.410156 23.632812 9.460938 C 23.375 9.511719 23.121094 9.589844 22.875 9.6875 C 22.632812 9.789062 22.398438 9.914062 22.179688 10.0625 C 21.957031 10.207031 21.753906 10.375 21.566406 10.5625 C 21.378906 10.746094 21.210938 10.949219 21.066406 11.171875 C 20.917969 11.390625 20.792969 11.621094 20.691406 11.867188 C 20.589844 12.109375 20.511719 12.359375 20.460938 12.621094 C 20.410156 12.878906 20.382812 13.140625 20.382812 13.40625 C 20.382812 13.667969 20.410156 13.929688 20.460938 14.1875 C 20.511719 14.449219 20.589844 14.699219 20.691406 14.945312 C 20.792969 15.1875 20.917969 15.417969 21.066406 15.636719 C 21.210938 15.859375 21.378906 16.0625 21.566406 16.246094 C 21.753906 16.433594 21.957031 16.601562 22.179688 16.75 C 22.398438 16.894531 22.632812 17.019531 22.875 17.121094 C 23.121094 17.222656 23.375 17.296875 23.632812 17.347656 C 23.894531 17.398438 24.15625 17.425781 24.421875 17.425781 L 25.765625 17.425781 C 25.945312 17.425781 26.117188 17.460938 26.28125 17.527344 C 26.445312 17.597656 26.589844 17.691406 26.71875 17.820312 C 26.84375 17.945312 26.941406 18.089844 27.007812 18.253906 C 27.078125 18.417969 27.113281 18.589844 27.113281 18.765625 C 27.113281 18.945312 27.078125 19.113281 27.007812 19.277344 C 26.941406 19.445312 26.84375 19.589844 26.71875 19.714844 C 26.589844 19.839844 26.445312 19.9375 26.28125 20.003906 C 26.117188 20.074219 25.945312 20.105469 25.765625 20.105469 Z M 25.765625 20.105469 " fill-opacity="1" fill-rule="nonzero"/><path fill="#000000" d="M 35.183594 38.871094 L 25.765625 38.871094 C 25.585938 38.871094 25.414062 38.90625 25.25 38.976562 C 25.085938 39.042969 24.941406 39.140625 24.816406 39.265625 C 24.6875 39.390625 24.589844 39.535156 24.523438 39.699219 C 24.453125 39.863281 24.421875 40.035156 24.421875 40.214844 L 24.421875 69.703125 C 24.421875 69.882812 24.453125 70.050781 24.523438 70.214844 C 24.589844 70.378906 24.6875 70.527344 24.816406 70.652344 C 24.941406 70.777344 25.085938 70.875 25.25 70.941406 C 25.414062 71.007812 25.585938 71.042969 25.765625 71.042969 L 31.148438 71.042969 C 31.328125 71.042969 31.496094 71.007812 31.664062 70.941406 C 31.828125 70.875 31.972656 70.777344 32.097656 70.652344 C 32.226562 70.527344 32.324219 70.378906 32.390625 70.214844 C 32.460938 70.050781 32.492188 69.882812 32.492188 69.703125 L 32.492188 60.320312 L 35.183594 60.320312 C 35.890625 60.320312 36.589844 60.25 37.285156 60.113281 C 37.976562 59.976562 38.648438 59.773438 39.304688 59.503906 C 39.957031 59.234375 40.578125 58.902344 41.164062 58.511719 C 41.75 58.121094 42.296875 57.675781 42.796875 57.179688 C 43.292969 56.679688 43.742188 56.140625 44.132812 55.554688 C 44.527344 54.96875 44.859375 54.351562 45.128906 53.699219 C 45.398438 53.050781 45.601562 52.378906 45.742188 51.6875 C 45.878906 50.996094 45.949219 50.300781 45.949219 49.597656 C 45.949219 48.890625 45.878906 48.195312 45.742188 47.503906 C 45.601562 46.8125 45.398438 46.144531 45.128906 45.492188 C 44.859375 44.84375 44.527344 44.222656 44.132812 43.640625 C 43.742188 43.054688 43.292969 42.511719 42.796875 42.015625 C 42.296875 41.515625 41.75 41.070312 41.164062 40.679688 C 40.578125 40.289062 39.957031 39.957031 39.304688 39.6875 C 38.648438 39.417969 37.976562 39.214844 37.285156 39.078125 C 36.589844 38.941406 35.890625 38.871094 35.183594 38.871094 Z M 35.183594 57.640625 L 31.148438 57.640625 C 30.96875 57.640625 30.796875 57.671875 30.632812 57.742188 C 30.46875 57.808594 30.324219 57.90625 30.195312 58.03125 C 30.070312 58.15625 29.972656 58.300781 29.90625 58.464844 C 29.835938 58.632812 29.800781 58.800781 29.800781 58.980469 L 29.800781 68.363281 L 27.113281 68.363281 L 27.113281 41.554688 L 35.183594 41.554688 C 35.714844 41.554688 36.238281 41.605469 36.757812 41.707031 C 37.277344 41.8125 37.785156 41.964844 38.273438 42.167969 C 38.761719 42.367188 39.226562 42.617188 39.667969 42.910156 C 40.109375 43.203125 40.515625 43.535156 40.890625 43.910156 C 41.265625 44.28125 41.601562 44.6875 41.894531 45.128906 C 42.191406 45.566406 42.4375 46.03125 42.640625 46.519531 C 42.84375 47.007812 43 47.507812 43.101562 48.027344 C 43.203125 48.546875 43.257812 49.070312 43.257812 49.597656 C 43.257812 50.125 43.203125 50.648438 43.101562 51.164062 C 43 51.683594 42.84375 52.1875 42.640625 52.675781 C 42.4375 53.164062 42.191406 53.625 41.894531 54.066406 C 41.601562 54.503906 41.265625 54.910156 40.890625 55.285156 C 40.515625 55.65625 40.109375 55.992188 39.667969 56.285156 C 39.226562 56.578125 38.761719 56.824219 38.273438 57.027344 C 37.785156 57.230469 37.277344 57.382812 36.757812 57.484375 C 36.238281 57.585938 35.714844 57.640625 35.183594 57.640625 Z M 35.183594 57.640625 " fill-opacity="1" fill-rule="nonzero"/><path fill="#000000" d="M 35.183594 44.234375 L 31.148438 44.234375 C 30.96875 44.234375 30.796875 44.269531 30.632812 44.335938 C 30.46875 44.40625 30.324219 44.5 30.195312 44.628906 C 30.070312 44.753906 29.972656 44.898438 29.90625 45.0625 C 29.835938 45.226562 29.800781 45.398438 29.800781 45.574219 L 29.800781 53.617188 C 29.800781 53.796875 29.835938 53.964844 29.90625 54.132812 C 29.972656 54.296875 30.070312 54.441406 30.195312 54.566406 C 30.324219 54.691406 30.46875 54.789062 30.632812 54.855469 C 30.796875 54.925781 30.96875 54.957031 31.148438 54.957031 L 35.183594 54.957031 C 35.539062 54.957031 35.886719 54.925781 36.234375 54.855469 C 36.582031 54.785156 36.917969 54.683594 37.242188 54.550781 C 37.570312 54.414062 37.878906 54.25 38.175781 54.054688 C 38.46875 53.859375 38.738281 53.636719 38.988281 53.386719 C 39.238281 53.140625 39.460938 52.867188 39.660156 52.574219 C 39.855469 52.28125 40.019531 51.972656 40.15625 51.648438 C 40.292969 51.324219 40.394531 50.988281 40.460938 50.644531 C 40.53125 50.296875 40.566406 49.949219 40.566406 49.597656 C 40.566406 49.246094 40.53125 48.894531 40.460938 48.550781 C 40.394531 48.207031 40.292969 47.871094 40.15625 47.542969 C 40.019531 47.21875 39.855469 46.910156 39.660156 46.617188 C 39.460938 46.324219 39.238281 46.054688 38.988281 45.804688 C 38.738281 45.554688 38.46875 45.335938 38.175781 45.136719 C 37.878906 44.941406 37.570312 44.777344 37.242188 44.644531 C 36.917969 44.507812 36.582031 44.40625 36.234375 44.335938 C 35.886719 44.269531 35.539062 44.234375 35.183594 44.234375 Z M 35.183594 52.277344 L 32.492188 52.277344 L 32.492188 46.914062 L 35.183594 46.914062 C 35.539062 46.914062 35.882812 46.984375 36.214844 47.121094 C 36.542969 47.253906 36.835938 47.449219 37.085938 47.699219 C 37.339844 47.953125 37.535156 48.242188 37.671875 48.570312 C 37.808594 48.898438 37.875 49.242188 37.875 49.597656 C 37.875 49.953125 37.808594 50.292969 37.671875 50.621094 C 37.535156 50.949219 37.339844 51.242188 37.085938 51.492188 C 36.835938 51.742188 36.542969 51.9375 36.214844 52.074219 C 35.882812 52.210938 35.539062 52.277344 35.183594 52.277344 Z M 35.183594 52.277344 " fill-opacity="1" fill-rule="nonzero"/><path fill="#000000" d="M 54.019531 63.847656 C 51.890625 63.4375 49.859375 62.738281 47.933594 61.75 C 47.828125 61.695312 47.722656 61.652344 47.609375 61.625 C 47.496094 61.601562 47.378906 61.585938 47.265625 61.589844 C 47.148438 61.59375 47.035156 61.609375 46.921875 61.640625 C 46.808594 61.671875 46.703125 61.71875 46.605469 61.777344 C 46.503906 61.839844 46.414062 61.910156 46.332031 61.992188 C 46.25 62.074219 46.179688 62.167969 46.125 62.269531 C 46.066406 62.367188 46.023438 62.476562 45.992188 62.585938 C 45.960938 62.699219 45.949219 62.8125 45.949219 62.929688 L 45.949219 67.445312 C 45.949219 67.714844 46.023438 67.960938 46.167969 68.183594 C 46.570312 68.789062 49.074219 71.042969 54.019531 71.042969 C 54.5625 71.074219 55.097656 71.042969 55.632812 70.960938 C 56.167969 70.875 56.6875 70.734375 57.195312 70.542969 C 57.699219 70.347656 58.179688 70.101562 58.632812 69.808594 C 59.085938 69.511719 59.5 69.171875 59.882812 68.789062 C 60.265625 68.40625 60.601562 67.988281 60.894531 67.535156 C 61.1875 67.082031 61.425781 66.601562 61.617188 66.097656 C 61.808594 65.589844 61.941406 65.070312 62.023438 64.539062 C 62.101562 64.003906 62.125 63.46875 62.09375 62.929688 C 62.09375 58.589844 58.648438 56.605469 56.367188 55.289062 C 55.90625 55.019531 54.964844 54.484375 54.503906 54.136719 C 54.714844 54.117188 54.925781 54.105469 55.140625 54.109375 C 56.898438 54.398438 58.503906 55.066406 59.949219 56.105469 C 60.152344 56.253906 60.382812 56.339844 60.632812 56.359375 C 60.886719 56.382812 61.125 56.335938 61.351562 56.222656 C 61.578125 56.109375 61.757812 55.945312 61.890625 55.730469 C 62.023438 55.515625 62.089844 55.285156 62.09375 55.03125 L 62.09375 50.511719 C 62.09375 50.304688 62.050781 50.105469 61.957031 49.917969 C 61.800781 49.609375 60.28125 46.914062 54.019531 46.914062 C 53.554688 46.886719 53.089844 46.90625 52.625 46.972656 C 52.164062 47.042969 51.714844 47.160156 51.273438 47.324219 C 50.835938 47.488281 50.421875 47.699219 50.03125 47.953125 C 49.636719 48.207031 49.277344 48.5 48.949219 48.828125 C 48.617188 49.160156 48.328125 49.523438 48.074219 49.914062 C 47.824219 50.308594 47.617188 50.722656 47.457031 51.160156 C 47.292969 51.597656 47.179688 52.046875 47.113281 52.507812 C 47.050781 52.972656 47.035156 53.433594 47.070312 53.898438 C 47.070312 58.242188 50.515625 60.226562 52.796875 61.539062 C 53.550781 61.929688 54.257812 62.394531 54.917969 62.933594 C 54.917969 63.742188 54.917969 63.847656 54.019531 63.847656 Z M 54.140625 59.214844 C 51.660156 57.785156 49.757812 56.488281 49.757812 53.898438 C 49.726562 53.613281 49.726562 53.324219 49.757812 53.035156 C 49.789062 52.746094 49.855469 52.46875 49.949219 52.191406 C 50.042969 51.917969 50.167969 51.660156 50.324219 51.414062 C 50.476562 51.167969 50.65625 50.941406 50.859375 50.734375 C 51.0625 50.527344 51.289062 50.347656 51.53125 50.191406 C 51.777344 50.035156 52.035156 49.90625 52.308594 49.808594 C 52.582031 49.710938 52.863281 49.644531 53.152344 49.609375 C 53.441406 49.570312 53.730469 49.566406 54.019531 49.597656 C 57.601562 49.597656 59 50.582031 59.402344 50.960938 L 59.402344 52.6875 C 58.074219 51.949219 56.65625 51.53125 55.140625 51.433594 C 52.019531 51.433594 51.554688 52.976562 51.554688 53.898438 C 51.554688 55.621094 53.160156 56.546875 55.023438 57.617188 C 57.503906 59.046875 59.402344 60.34375 59.402344 62.929688 C 59.433594 63.292969 59.425781 63.652344 59.378906 64.011719 C 59.332031 64.371094 59.246094 64.722656 59.125 65.066406 C 59 65.40625 58.84375 65.730469 58.648438 66.039062 C 58.453125 66.34375 58.226562 66.628906 57.972656 66.886719 C 57.714844 67.144531 57.4375 67.371094 57.128906 67.570312 C 56.824219 67.769531 56.5 67.929688 56.160156 68.058594 C 55.816406 68.183594 55.46875 68.273438 55.105469 68.328125 C 54.746094 68.378906 54.382812 68.390625 54.019531 68.363281 C 52.058594 68.453125 50.265625 67.953125 48.636719 66.851562 L 48.636719 65.03125 C 50.359375 65.789062 52.152344 66.289062 54.019531 66.527344 C 54.265625 66.558594 54.507812 66.558594 54.75 66.53125 C 54.996094 66.503906 55.234375 66.453125 55.464844 66.371094 C 55.695312 66.292969 55.917969 66.1875 56.125 66.054688 C 56.332031 65.925781 56.523438 65.773438 56.695312 65.601562 C 56.867188 65.429688 57.019531 65.238281 57.148438 65.03125 C 57.277344 64.820312 57.382812 64.601562 57.460938 64.371094 C 57.539062 64.140625 57.59375 63.902344 57.617188 63.660156 C 57.640625 63.414062 57.640625 63.171875 57.609375 62.929688 C 57.609375 61.207031 56.003906 60.285156 54.140625 59.214844 Z M 54.140625 59.214844 " fill-opacity="1" fill-rule="nonzero"/></svg>